<svg width="328" height="63" viewBox="0 0 328 63" fill="none" xmlns="http://www.w3.org/2000/svg">
<g style="mix-blend-mode:overlay">
<path d="M257.645 38.3818L271.45 38.3818L271.45 30.0514L257.645 30.0514L257.645 38.3818Z" fill="#00D5FF"/>
</g>
<g style="mix-blend-mode:overlay">
<path d="M222.682 3.1682L315.716 3.16821L315.716 0.328289L222.682 0.32828L222.682 3.1682Z" fill="#00D5FF"/>
</g>
<g style="mix-blend-mode:overlay">
<path d="M209.177 21.7212L255.844 21.7212L255.844 19.8279L209.177 19.8279L209.177 21.7212Z" fill="#00D5FF"/>
</g>
<g style="mix-blend-mode:overlay">
<path d="M247.441 11.687L327.42 11.687L327.42 10.9297L247.441 10.9297L247.441 11.687Z" fill="#00D5FF"/>
</g>
<g style="mix-blend-mode:overlay">
<path d="M248.34 24.1821L262.896 24.1821L262.896 17.5557L248.34 17.5557L248.34 24.1821Z" fill="#00D5FF"/>
</g>
<g style="mix-blend-mode:overlay">
<path d="M275.052 24.1821L302.062 24.1821L302.062 21.7209L275.052 21.7209L275.052 24.1821Z" fill="#00D5FF"/>
</g>
<g style="mix-blend-mode:overlay">
<path d="M41.7151 55.0432L53.5693 55.0432L53.5693 47.8488L41.7151 47.8488L41.7151 55.0432Z" fill="#00D5FF"/>
</g>
<g style="mix-blend-mode:overlay">
<path d="M11.5553 24.7515L91.6846 24.7515L91.6846 22.2902L11.5553 22.2902L11.5553 24.7515Z" fill="#00D5FF"/>
</g>
<g style="mix-blend-mode:overlay">
<path d="M-0.000431061 40.655L40.0645 40.655L40.0645 38.9511L-0.000430912 38.9511L-0.000431061 40.655Z" fill="#00D5FF"/>
</g>
<g style="mix-blend-mode:overlay">
<path d="M33.0131 31.9453L101.738 31.9453L101.738 31.3773L33.0131 31.3773L33.0131 31.9453Z" fill="#00D5FF"/>
</g>
<g style="mix-blend-mode:overlay">
<path d="M21.6073 14.1489L24.6084 14.1489L24.6084 11.877L21.6073 11.877L21.6073 14.1489Z" fill="#00D5FF"/>
</g>
<g style="mix-blend-mode:overlay">
<path d="M64.3733 15.6633L72.3262 15.6633L72.3262 10.3621L64.3733 10.3621L64.3733 15.6633Z" fill="#00D5FF"/>
</g>
<g style="mix-blend-mode:overlay">
<path d="M33.6113 42.7366L46.2158 42.7366L46.2158 37.0568L33.6113 37.0568L33.6113 42.7366Z" fill="#00D5FF"/>
</g>
<g style="mix-blend-mode:overlay">
<path d="M56.7212 42.7366L79.9795 42.7366L79.9795 40.4646L56.7212 40.4646L56.7212 42.7366Z" fill="#00D5FF"/>
</g>
<g style="mix-blend-mode:overlay">
<path d="M158.457 51.8245L170.312 51.8245L170.312 44.8193L158.457 44.8193L158.457 51.8245Z" fill="#00D5FF"/>
</g>
<g style="mix-blend-mode:overlay">
<path d="M128.747 21.7212L207.976 21.7212L207.976 19.2599L128.747 19.2599L128.747 21.7212Z" fill="#00D5FF"/>
</g>
<g style="mix-blend-mode:overlay">
<path d="M117.194 37.4353L156.958 37.4353L156.958 35.7314L117.194 35.7313L117.194 37.4353Z" fill="#00D5FF"/>
</g>
<g style="mix-blend-mode:overlay">
<path d="M149.905 28.9165L218.03 28.9165L218.03 28.3485L149.905 28.3485L149.905 28.9165Z" fill="#00D5FF"/>
</g>
<g style="mix-blend-mode:overlay">
<path d="M180.966 12.6333L188.919 12.6333L188.919 7.33212L180.966 7.33212L180.966 12.6333Z" fill="#00D5FF"/>
</g>
<g style="mix-blend-mode:overlay">
<path d="M150.656 39.7075L163.11 39.7075L163.11 34.0277L150.656 34.0277L150.656 39.7075Z" fill="#00D5FF"/>
</g>
<g style="mix-blend-mode:overlay">
<path d="M173.463 39.7075L196.422 39.7075L196.422 37.6249L173.463 37.6249L173.463 39.7075Z" fill="#00D5FF"/>
</g>
<g style="mix-blend-mode:overlay">
<path d="M116.142 10.1724L102.037 10.1724L102.037 18.5028L116.142 18.5028L116.142 10.1724Z" fill="#00D5FF"/>
</g>
<g style="mix-blend-mode:overlay">
<path d="M151.556 45.9563L57.1719 45.9563L57.1719 48.9855L151.556 48.9855L151.556 45.9563Z" fill="#00D5FF"/>
</g>
<g style="mix-blend-mode:overlay">
<path d="M165.211 27.2122L117.943 27.2122L117.943 29.1054L165.211 29.1054L165.211 27.2122Z" fill="#00D5FF"/>
</g>
<g style="mix-blend-mode:overlay">
<path d="M126.346 37.4353L45.166 37.4353L45.166 38.1926L126.346 38.1926L126.346 37.4353Z" fill="#00D5FF"/>
</g>
<g style="mix-blend-mode:overlay">
<path d="M139.85 58.6401L136.249 58.6401L136.249 61.2907L139.85 61.2907L139.85 58.6401Z" fill="#00D5FF"/>
</g>
<g style="mix-blend-mode:overlay">
<path d="M89.2826 56.7476L79.8291 56.7476L79.8291 62.9954L89.2826 62.9954L89.2826 56.7476Z" fill="#00D5FF"/>
</g>
<g style="mix-blend-mode:overlay">
<path d="M125.597 24.5618L110.741 24.5618L110.741 31.1882L125.597 31.1882L125.597 24.5618Z" fill="#00D5FF"/>
</g>
<g style="mix-blend-mode:overlay">
<path d="M98.2855 24.7512L70.9756 24.7512L70.9756 27.4018L98.2855 27.4018L98.2855 24.7512Z" fill="#00D5FF"/>
</g>
</svg>
