<svg width="150" height="220" viewBox="0 0 150 220" fill="none" xmlns="http://www.w3.org/2000/svg">
<g style="mix-blend-mode:overlay">
<path d="M54.5146 54.2348L54.5146 60.6296L57.2369 60.6296L57.2369 54.2348L54.5146 54.2348Z" fill="#00D5FF" fill-opacity="0.6"/>
</g>
<g style="mix-blend-mode:overlay">
<path d="M52.7646 142.428L52.7646 158.948L59.1814 158.948L59.1814 142.428L52.7646 142.428Z" fill="#00D5FF" fill-opacity="0.6"/>
</g>
<g style="mix-blend-mode:overlay">
<path d="M127.238 57.6988L127.238 189.589L129.572 189.589L129.572 57.6988L127.238 57.6988Z" fill="#00D5FF" fill-opacity="0.6"/>
</g>
<g style="mix-blend-mode:overlay">
<path d="M112.072 38.5146L112.072 104.593L113.628 104.593L113.628 38.5146L112.072 38.5146Z" fill="#00D5FF" fill-opacity="0.6"/>
</g>
<g style="mix-blend-mode:overlay">
<path d="M120.239 93.1363L120.239 206.375L120.823 206.375L120.823 93.1363L120.239 93.1363Z" fill="#00D5FF" fill-opacity="0.6"/>
</g>
<g style="mix-blend-mode:overlay">
<path d="M137.35 74.2182L137.35 79.2808L139.489 79.2808L139.489 74.2182L137.35 74.2182Z" fill="#00D5FF" fill-opacity="0.6"/>
</g>
<g style="mix-blend-mode:overlay">
<path d="M135.794 144.56L135.794 157.882L140.85 157.882L140.85 144.56L135.794 144.56Z" fill="#00D5FF" fill-opacity="0.6"/>
</g>
<g style="mix-blend-mode:overlay">
<path d="M109.933 93.9351L109.933 114.718L115.377 114.718L115.377 93.9351L109.933 93.9351Z" fill="#00D5FF" fill-opacity="0.6"/>
</g>
<g style="mix-blend-mode:overlay">
<path d="M109.933 132.037L109.933 170.405L112.072 170.405L112.072 132.037L109.933 132.037Z" fill="#00D5FF" fill-opacity="0.6"/>
</g>
<g style="mix-blend-mode:overlay">
<path d="M140.85 190.122L140.85 32.3867L137.933 32.3867L137.933 190.122L140.85 190.122Z" fill="#00D5FF" fill-opacity="0.6"/>
</g>
<g style="mix-blend-mode:overlay">
<path d="M149.406 147.757L149.406 12.4031L148.628 12.4031L148.628 147.757L149.406 147.757Z" fill="#00D5FF" fill-opacity="0.6"/>
</g>
<g style="mix-blend-mode:overlay">
<path d="M128.794 170.138L128.794 164.277L126.266 164.277L126.266 170.138L128.794 170.138Z" fill="#00D5FF" fill-opacity="0.6"/>
</g>
<g style="mix-blend-mode:overlay">
<path d="M130.544 85.9418L130.544 70.2217L124.516 70.2217L124.516 85.9418L130.544 85.9418Z" fill="#00D5FF" fill-opacity="0.6"/>
</g>
<g style="mix-blend-mode:overlay">
<path d="M106.043 130.172L106.043 104.593L97.0984 104.593L97.0984 130.172L106.043 130.172Z" fill="#00D5FF" fill-opacity="0.6"/>
</g>
<g style="mix-blend-mode:overlay">
<path d="M68.127 194.918L68.127 22.2615L65.0158 22.2615L65.0158 194.918L68.127 194.918Z" fill="#00D5FF" fill-opacity="0.6"/>
</g>
<g style="mix-blend-mode:overlay">
<path d="M87.7656 219.964L87.7656 133.369L85.6267 133.369L85.6267 219.964L87.7656 219.964Z" fill="#00D5FF" fill-opacity="0.6"/>
</g>
<g style="mix-blend-mode:overlay">
<path d="M77.2656 149.089L77.2656 0.679688L76.4878 0.679688L76.4878 149.089L77.2656 149.089Z" fill="#00D5FF" fill-opacity="0.6"/>
</g>
<g style="mix-blend-mode:overlay">
<path d="M54.709 173.602L54.709 166.941L51.9867 166.941L51.9867 173.602L54.709 173.602Z" fill="#00D5FF" fill-opacity="0.6"/>
</g>
<g style="mix-blend-mode:overlay">
<path d="M56.6543 81.1456L56.6543 63.8269L50.0431 63.8269L50.0431 81.1456L56.6543 81.1456Z" fill="#00D5FF" fill-opacity="0.6"/>
</g>
<g style="mix-blend-mode:overlay">
<path d="M90.6826 147.491L90.6826 120.313L83.6825 120.313L83.6825 147.491L90.6826 147.491Z" fill="#00D5FF" fill-opacity="0.6"/>
</g>
<g style="mix-blend-mode:overlay">
<path d="M90.4873 96.7331L90.4873 46.6414L87.765 46.6414L87.765 96.7331L90.4873 96.7331Z" fill="#00D5FF" fill-opacity="0.6"/>
</g>
<path d="M3.61535 120.551H0.976562L23.0709 150.891L23.3042 151.221H132.165V148.751H24.1497L3.61535 120.551Z" fill="#5A1E7D"/>
</svg>
