<svg width="186" height="50" viewBox="0 0 186 50" fill="none" xmlns="http://www.w3.org/2000/svg">
<g filter="url(#filter0_d_889_99122)">
<path d="M9.94771 12.9956V12.6549H9.60701V12.9956H9.94771ZM9.94771 16.7752H9.60701V17.1159H9.94771V16.7752ZM24.3792 16.7752H24.7199V16.4345H24.3792V16.7752ZM24.3792 43.4907H24.0385V43.8314H24.3792V43.4907ZM28.932 43.4907V43.8314H29.2727V43.4907H28.932ZM28.932 16.7752V16.4345H28.5913V16.7752H28.932ZM43.3206 16.7752V17.1159H43.6613V16.7752H43.3206ZM43.3206 12.9956H43.6613V12.6549H43.3206V12.9956ZM9.60701 12.9956V16.7752H10.2884V12.9956H9.60701ZM9.94771 17.1159H24.3792V16.4345H9.94771V17.1159ZM24.0385 16.7752V43.4907H24.7199V16.7752H24.0385ZM24.3792 43.8314H28.932V43.15H24.3792V43.8314ZM29.2727 43.4907V16.7752H28.5913V43.4907H29.2727ZM28.932 17.1159H43.3206V16.4345H28.932V17.1159ZM43.6613 16.7752V12.9956H42.9799V16.7752H43.6613ZM43.3206 12.6549H9.94771V13.3362H43.3206V12.6549ZM53.1939 16.6893V16.3486H52.8532V16.6893H53.1939ZM77.5901 16.6893V17.03H77.9308V16.6893H77.5901ZM77.5901 12.9956H77.9308V12.6549H77.5901V12.9956ZM48.6841 12.9956V12.6549H48.3434V12.9956H48.6841ZM48.6841 43.4907H48.3434V43.8314H48.6841V43.4907ZM77.8907 43.4907V43.8314H78.2314V43.4907H77.8907ZM77.8907 39.7969H78.2314V39.4562H77.8907V39.7969ZM53.1939 39.7969H52.8532V40.1376H53.1939V39.7969ZM53.1939 29.7035V29.3628H52.8532V29.7035H53.1939ZM76.8599 29.7035V30.0442H77.2006V29.7035H76.8599ZM76.8599 26.0526H77.2006V25.7119H76.8599V26.0526ZM53.1939 26.0526H52.8532V26.3933H53.1939V26.0526ZM53.1939 17.03H77.5901V16.3486H53.1939V17.03ZM77.9308 16.6893V12.9956H77.2494V16.6893H77.9308ZM77.5901 12.6549H48.6841V13.3362H77.5901V12.6549ZM48.3434 12.9956V43.4907H49.0248V12.9956H48.3434ZM48.6841 43.8314H77.8907V43.15H48.6841V43.8314ZM78.2314 43.4907V39.7969H77.55V43.4907H78.2314ZM77.8907 39.4562H53.1939V40.1376H77.8907V39.4562ZM53.5346 39.7969V29.7035H52.8532V39.7969H53.5346ZM53.1939 30.0442H76.8599V29.3628H53.1939V30.0442ZM77.2006 29.7035V26.0526H76.5192V29.7035H77.2006ZM76.8599 25.7119H53.1939V26.3933H76.8599V25.7119ZM53.5346 26.0526V16.6893H52.8532V26.0526H53.5346ZM87.7943 43.4907V43.8314H87.9984L88.0947 43.6514L87.7943 43.4907ZM91.4022 36.7474V36.4067H91.198L91.1017 36.5867L91.4022 36.7474ZM113.307 36.7474L113.607 36.5852L113.51 36.4067H113.307V36.7474ZM116.958 43.4907L116.658 43.6529L116.755 43.8314H116.958V43.4907ZM121.854 43.4907V43.8314H122.437L122.151 43.3238L121.854 43.4907ZM104.717 12.9956L105.014 12.8286L104.916 12.6549H104.717V12.9956ZM99.9923 12.9956V12.6549H99.7927L99.6952 12.829L99.9923 12.9956ZM82.8979 43.4907L82.6007 43.3241L82.3163 43.8314H82.8979V43.4907ZM100.894 19.2234L101.194 19.3857L101.195 19.3828L100.894 19.2234ZM102.312 16.3887V16.048H102.101L102.007 16.2363L102.312 16.3887ZM102.398 16.3887L102.702 16.2363L102.608 16.048H102.398V16.3887ZM103.815 19.2234L103.507 19.3685L103.511 19.3772L103.515 19.3857L103.815 19.2234ZM111.331 33.0966V33.4373H111.903L111.631 32.9343L111.331 33.0966ZM93.3779 33.0966L93.0783 32.9343L92.8058 33.4373H93.3779V33.0966ZM88.0947 43.6514L91.7026 36.9081L91.1017 36.5867L87.4939 43.33L88.0947 43.6514ZM91.4022 37.0881H113.307V36.4067H91.4022V37.0881ZM113.008 36.9096L116.658 43.6529L117.258 43.3285L113.607 36.5852L113.008 36.9096ZM116.958 43.8314H121.854V43.15H116.958V43.8314ZM122.151 43.3238L105.014 12.8286L104.42 13.1625L121.557 43.6576L122.151 43.3238ZM104.717 12.6549H99.9923V13.3362H104.717V12.6549ZM99.6952 12.829L82.6007 43.3241L83.1951 43.6573L100.29 13.1621L99.6952 12.829ZM82.8979 43.8314H87.7943V43.15H82.8979V43.8314ZM101.195 19.3828C101.584 18.6483 102.191 17.3916 102.616 16.541L102.007 16.2363C101.573 17.1038 100.977 18.3382 100.593 19.064L101.195 19.3828ZM102.312 16.7294H102.398V16.048H102.312V16.7294ZM102.093 16.541C102.527 17.4086 103.165 18.6429 103.507 19.3685L104.123 19.0784C103.777 18.3436 103.128 17.0868 102.702 16.2363L102.093 16.541ZM103.515 19.3857L111.032 33.2589L111.631 32.9343L104.115 19.0611L103.515 19.3857ZM111.331 32.7559H93.3779V33.4373H111.331V32.7559ZM93.6774 33.2589L101.194 19.3857L100.595 19.0611L93.0783 32.9343L93.6774 33.2589ZM131.704 43.4907V43.8314H132.044V43.4907H131.704ZM131.618 16.3887V16.048H131.247L131.278 16.417L131.618 16.3887ZM131.832 16.3887L132.156 16.2809L132.078 16.048H131.832V16.3887ZM132.863 19.0516L132.558 19.204L132.561 19.2089L132.863 19.0516ZM145.577 43.4907L145.274 43.648L145.37 43.8314H145.577V43.4907ZM149.958 43.4907V43.8314H150.163L150.259 43.6498L149.958 43.4907ZM162.843 19.0946L163.144 19.2537L163.148 19.247L162.843 19.0946ZM164.089 16.3887V16.048H163.878L163.784 16.2363L164.089 16.3887ZM164.26 16.3887L164.6 16.4129L164.626 16.048H164.26V16.3887ZM164.174 43.4907H163.834V43.8314H164.174V43.4907ZM168.341 43.4907V43.8314H168.681V43.4907H168.341ZM168.341 12.9956H168.681V12.6549H168.341V12.9956ZM161.297 12.9956V12.6549H161.091L160.995 12.8373L161.297 12.9956ZM148.841 36.7474L148.539 36.5892L148.533 36.6019L148.527 36.6152L148.841 36.7474ZM147.896 39.1097V39.4504H148.162L148.227 39.1924L147.896 39.1097ZM147.767 39.1097L147.442 39.2113L147.517 39.4504H147.767V39.1097ZM146.822 36.7474L147.136 36.6152L147.131 36.6031L147.125 36.5913L146.822 36.7474ZM134.581 12.9956L134.884 12.8395L134.789 12.6549H134.581V12.9956ZM127.58 12.9956V12.6549H127.24V12.9956H127.58ZM127.58 43.4907H127.24V43.8314H127.58V43.4907ZM132.044 43.4907V19.3523H131.363V43.4907H132.044ZM132.044 19.3523C132.044 17.9302 132.001 16.889 131.957 16.3604L131.278 16.417C131.32 16.9192 131.363 17.9396 131.363 19.3523H132.044ZM131.618 16.7294H131.832V16.048H131.618V16.7294ZM131.509 16.4964C131.765 17.265 132.116 18.3195 132.559 19.204L133.168 18.8993C132.751 18.0657 132.415 17.0586 132.156 16.2809L131.509 16.4964ZM132.561 19.2089L145.274 43.648L145.879 43.3335L133.165 18.8944L132.561 19.2089ZM145.577 43.8314H149.958V43.15H145.577V43.8314ZM150.259 43.6498L163.144 19.2537L162.542 18.9355L149.656 43.3316L150.259 43.6498ZM163.148 19.247C163.409 18.7243 163.669 18.1493 163.89 17.6548C164.113 17.1532 164.29 16.7468 164.393 16.541L163.784 16.2363C163.672 16.4601 163.484 16.8912 163.267 17.3775C163.047 17.8708 162.792 18.4341 162.538 18.9422L163.148 19.247ZM164.089 16.7294H164.26V16.048H164.089V16.7294ZM163.921 16.3644C163.877 16.9762 163.834 18.3161 163.834 19.3523H164.515C164.515 18.3268 164.558 17.0038 164.6 16.4129L163.921 16.3644ZM163.834 19.3523V43.4907H164.515V19.3523H163.834ZM164.174 43.8314H168.341V43.15H164.174V43.8314ZM168.681 43.4907V12.9956H168V43.4907H168.681ZM168.341 12.6549H161.297V13.3362H168.341V12.6549ZM160.995 12.8373L148.539 36.5892L149.143 36.9057L161.598 13.1538L160.995 12.8373ZM148.527 36.6152C148.349 37.0388 148.175 37.4115 147.991 37.8432C147.818 38.2486 147.658 38.6558 147.566 39.0271L148.227 39.1924C148.306 38.8764 148.447 38.5105 148.617 38.1106C148.777 37.737 148.99 37.2721 149.155 36.8796L148.527 36.6152ZM147.896 38.769H147.767V39.4504H147.896V38.769ZM148.092 39.0081C147.871 38.3003 147.474 37.4166 147.136 36.6152L146.508 36.8796C146.858 37.7104 147.234 38.5447 147.442 39.2113L148.092 39.0081ZM147.125 36.5913L134.884 12.8395L134.278 13.1516L146.519 36.9035L147.125 36.5913ZM134.581 12.6549H127.58V13.3362H134.581V12.6549ZM127.24 12.9956V43.4907H127.921V12.9956H127.24ZM127.58 43.8314H131.704V43.15H127.58V43.8314Z" fill="#5AC1CD"/>
</g>
<g filter="url(#filter1_f_889_99122)">
<path d="M9.94771 12.9956V16.7752H24.3792V43.4907H28.932V16.7752H43.3206V12.9956H9.94771ZM53.1939 16.6893H77.5901V12.9956H48.6841V43.4907H77.8907V39.7969H53.1939V29.7035H76.8599V26.0526H53.1939V16.6893ZM87.7943 43.4907L91.4021 36.7474H113.307L116.958 43.4907H121.854L104.717 12.9956H99.9923L82.8979 43.4907H87.7943ZM100.894 19.2234C101.281 18.4933 101.882 17.2477 102.312 16.3887H102.398C102.827 17.2477 103.471 18.4933 103.815 19.2234L111.331 33.0966H93.3779L100.894 19.2234ZM131.704 43.4907V19.3523C131.704 17.9349 131.661 16.9041 131.618 16.3887H131.832C132.09 17.1618 132.434 18.1926 132.863 19.0516L145.577 43.4907H149.958L162.843 19.0946C163.358 18.0638 163.874 16.8182 164.089 16.3887H164.26C164.217 16.99 164.174 18.3215 164.174 19.3523V43.4907H168.341V12.9956H161.297L148.841 36.7474C148.497 37.5635 148.068 38.4225 147.896 39.1097H147.767C147.552 38.4225 147.166 37.5635 146.822 36.7474L134.581 12.9956H127.58V43.4907H131.704Z" fill="#00D5FF"/>
<path d="M9.94771 12.9956V12.6549H9.60701V12.9956H9.94771ZM9.94771 16.7752H9.60701V17.1159H9.94771V16.7752ZM24.3792 16.7752H24.7199V16.4345H24.3792V16.7752ZM24.3792 43.4907H24.0385V43.8314H24.3792V43.4907ZM28.932 43.4907V43.8314H29.2727V43.4907H28.932ZM28.932 16.7752V16.4345H28.5913V16.7752H28.932ZM43.3206 16.7752V17.1159H43.6613V16.7752H43.3206ZM43.3206 12.9956H43.6613V12.6549H43.3206V12.9956ZM9.60701 12.9956V16.7752H10.2884V12.9956H9.60701ZM9.94771 17.1159H24.3792V16.4345H9.94771V17.1159ZM24.0385 16.7752V43.4907H24.7199V16.7752H24.0385ZM24.3792 43.8314H28.932V43.15H24.3792V43.8314ZM29.2727 43.4907V16.7752H28.5913V43.4907H29.2727ZM28.932 17.1159H43.3206V16.4345H28.932V17.1159ZM43.6613 16.7752V12.9956H42.9799V16.7752H43.6613ZM43.3206 12.6549H9.94771V13.3362H43.3206V12.6549ZM53.1939 16.6893V16.3486H52.8532V16.6893H53.1939ZM77.5901 16.6893V17.03H77.9308V16.6893H77.5901ZM77.5901 12.9956H77.9308V12.6549H77.5901V12.9956ZM48.6841 12.9956V12.6549H48.3434V12.9956H48.6841ZM48.6841 43.4907H48.3434V43.8314H48.6841V43.4907ZM77.8907 43.4907V43.8314H78.2314V43.4907H77.8907ZM77.8907 39.7969H78.2314V39.4562H77.8907V39.7969ZM53.1939 39.7969H52.8532V40.1376H53.1939V39.7969ZM53.1939 29.7035V29.3628H52.8532V29.7035H53.1939ZM76.8599 29.7035V30.0442H77.2006V29.7035H76.8599ZM76.8599 26.0526H77.2006V25.7119H76.8599V26.0526ZM53.1939 26.0526H52.8532V26.3933H53.1939V26.0526ZM53.1939 17.03H77.5901V16.3486H53.1939V17.03ZM77.9308 16.6893V12.9956H77.2494V16.6893H77.9308ZM77.5901 12.6549H48.6841V13.3362H77.5901V12.6549ZM48.3434 12.9956V43.4907H49.0248V12.9956H48.3434ZM48.6841 43.8314H77.8907V43.15H48.6841V43.8314ZM78.2314 43.4907V39.7969H77.55V43.4907H78.2314ZM77.8907 39.4562H53.1939V40.1376H77.8907V39.4562ZM53.5346 39.7969V29.7035H52.8532V39.7969H53.5346ZM53.1939 30.0442H76.8599V29.3628H53.1939V30.0442ZM77.2006 29.7035V26.0526H76.5192V29.7035H77.2006ZM76.8599 25.7119H53.1939V26.3933H76.8599V25.7119ZM53.5346 26.0526V16.6893H52.8532V26.0526H53.5346ZM87.7943 43.4907V43.8314H87.9984L88.0947 43.6514L87.7943 43.4907ZM91.4022 36.7474V36.4067H91.198L91.1017 36.5867L91.4022 36.7474ZM113.307 36.7474L113.607 36.5852L113.51 36.4067H113.307V36.7474ZM116.958 43.4907L116.658 43.6529L116.755 43.8314H116.958V43.4907ZM121.854 43.4907V43.8314H122.437L122.151 43.3238L121.854 43.4907ZM104.717 12.9956L105.014 12.8286L104.916 12.6549H104.717V12.9956ZM99.9923 12.9956V12.6549H99.7927L99.6952 12.829L99.9923 12.9956ZM82.8979 43.4907L82.6007 43.3241L82.3163 43.8314H82.8979V43.4907ZM100.894 19.2234L101.194 19.3857L101.195 19.3828L100.894 19.2234ZM102.312 16.3887V16.048H102.101L102.007 16.2363L102.312 16.3887ZM102.398 16.3887L102.702 16.2363L102.608 16.048H102.398V16.3887ZM103.815 19.2234L103.507 19.3685L103.511 19.3772L103.515 19.3857L103.815 19.2234ZM111.331 33.0966V33.4373H111.903L111.631 32.9343L111.331 33.0966ZM93.3779 33.0966L93.0783 32.9343L92.8058 33.4373H93.3779V33.0966ZM88.0947 43.6514L91.7026 36.9081L91.1017 36.5867L87.4939 43.33L88.0947 43.6514ZM91.4022 37.0881H113.307V36.4067H91.4022V37.0881ZM113.008 36.9096L116.658 43.6529L117.258 43.3285L113.607 36.5852L113.008 36.9096ZM116.958 43.8314H121.854V43.15H116.958V43.8314ZM122.151 43.3238L105.014 12.8286L104.42 13.1625L121.557 43.6576L122.151 43.3238ZM104.717 12.6549H99.9923V13.3362H104.717V12.6549ZM99.6952 12.829L82.6007 43.3241L83.1951 43.6573L100.29 13.1621L99.6952 12.829ZM82.8979 43.8314H87.7943V43.15H82.8979V43.8314ZM101.195 19.3828C101.584 18.6483 102.191 17.3916 102.616 16.541L102.007 16.2363C101.573 17.1038 100.977 18.3382 100.593 19.064L101.195 19.3828ZM102.312 16.7294H102.398V16.048H102.312V16.7294ZM102.093 16.541C102.527 17.4086 103.165 18.6429 103.507 19.3685L104.123 19.0784C103.777 18.3436 103.128 17.0868 102.702 16.2363L102.093 16.541ZM103.515 19.3857L111.032 33.2589L111.631 32.9343L104.115 19.0611L103.515 19.3857ZM111.331 32.7559H93.3779V33.4373H111.331V32.7559ZM93.6774 33.2589L101.194 19.3857L100.595 19.0611L93.0783 32.9343L93.6774 33.2589ZM131.704 43.4907V43.8314H132.044V43.4907H131.704ZM131.618 16.3887V16.048H131.247L131.278 16.417L131.618 16.3887ZM131.832 16.3887L132.156 16.2809L132.078 16.048H131.832V16.3887ZM132.863 19.0516L132.558 19.204L132.561 19.2089L132.863 19.0516ZM145.577 43.4907L145.274 43.648L145.37 43.8314H145.577V43.4907ZM149.958 43.4907V43.8314H150.163L150.259 43.6498L149.958 43.4907ZM162.843 19.0946L163.144 19.2537L163.148 19.247L162.843 19.0946ZM164.089 16.3887V16.048H163.878L163.784 16.2363L164.089 16.3887ZM164.26 16.3887L164.6 16.4129L164.626 16.048H164.26V16.3887ZM164.174 43.4907H163.834V43.8314H164.174V43.4907ZM168.341 43.4907V43.8314H168.681V43.4907H168.341ZM168.341 12.9956H168.681V12.6549H168.341V12.9956ZM161.297 12.9956V12.6549H161.091L160.995 12.8373L161.297 12.9956ZM148.841 36.7474L148.539 36.5892L148.533 36.6019L148.527 36.6152L148.841 36.7474ZM147.896 39.1097V39.4504H148.162L148.227 39.1924L147.896 39.1097ZM147.767 39.1097L147.442 39.2113L147.517 39.4504H147.767V39.1097ZM146.822 36.7474L147.136 36.6152L147.131 36.6031L147.125 36.5913L146.822 36.7474ZM134.581 12.9956L134.884 12.8395L134.789 12.6549H134.581V12.9956ZM127.58 12.9956V12.6549H127.24V12.9956H127.58ZM127.58 43.4907H127.24V43.8314H127.58V43.4907ZM132.044 43.4907V19.3523H131.363V43.4907H132.044ZM132.044 19.3523C132.044 17.9302 132.001 16.889 131.957 16.3604L131.278 16.417C131.32 16.9192 131.363 17.9396 131.363 19.3523H132.044ZM131.618 16.7294H131.832V16.048H131.618V16.7294ZM131.509 16.4964C131.765 17.265 132.116 18.3195 132.559 19.204L133.168 18.8993C132.751 18.0657 132.415 17.0586 132.156 16.2809L131.509 16.4964ZM132.561 19.2089L145.274 43.648L145.879 43.3335L133.165 18.8944L132.561 19.2089ZM145.577 43.8314H149.958V43.15H145.577V43.8314ZM150.259 43.6498L163.144 19.2537L162.542 18.9355L149.656 43.3316L150.259 43.6498ZM163.148 19.247C163.409 18.7243 163.669 18.1493 163.89 17.6548C164.113 17.1532 164.29 16.7468 164.393 16.541L163.784 16.2363C163.672 16.4601 163.484 16.8912 163.267 17.3775C163.047 17.8708 162.792 18.4341 162.538 18.9422L163.148 19.247ZM164.089 16.7294H164.26V16.048H164.089V16.7294ZM163.921 16.3644C163.877 16.9762 163.834 18.3161 163.834 19.3523H164.515C164.515 18.3268 164.558 17.0038 164.6 16.4129L163.921 16.3644ZM163.834 19.3523V43.4907H164.515V19.3523H163.834ZM164.174 43.8314H168.341V43.15H164.174V43.8314ZM168.681 43.4907V12.9956H168V43.4907H168.681ZM168.341 12.6549H161.297V13.3362H168.341V12.6549ZM160.995 12.8373L148.539 36.5892L149.143 36.9057L161.598 13.1538L160.995 12.8373ZM148.527 36.6152C148.349 37.0388 148.175 37.4115 147.991 37.8432C147.818 38.2486 147.658 38.6558 147.566 39.0271L148.227 39.1924C148.306 38.8764 148.447 38.5105 148.617 38.1106C148.777 37.737 148.99 37.2721 149.155 36.8796L148.527 36.6152ZM147.896 38.769H147.767V39.4504H147.896V38.769ZM148.092 39.0081C147.871 38.3003 147.474 37.4166 147.136 36.6152L146.508 36.8796C146.858 37.7104 147.234 38.5447 147.442 39.2113L148.092 39.0081ZM147.125 36.5913L134.884 12.8395L134.278 13.1516L146.519 36.9035L147.125 36.5913ZM134.581 12.6549H127.58V13.3362H134.581V12.6549ZM127.24 12.9956V43.4907H127.921V12.9956H127.24ZM127.58 43.8314H131.704V43.15H127.58V43.8314Z" fill="#00D5FF"/>
</g>
<g style="mix-blend-mode:overlay">
<path d="M146.109 31.4812L153.873 31.4812L153.873 26.9265L146.109 26.9265L146.109 31.4812Z" fill="#00D5FF"/>
</g>
<g style="mix-blend-mode:overlay">
<path d="M126.444 12.2278L178.77 12.2278L178.77 10.675L126.444 10.675L126.444 12.2278Z" fill="#00D5FF"/>
</g>
<g style="mix-blend-mode:overlay">
<path d="M118.849 22.3721L145.096 22.3721L145.096 21.3369L118.849 21.3369L118.849 22.3721Z" fill="#00D5FF"/>
</g>
<g style="mix-blend-mode:overlay">
<path d="M140.37 16.8852L185.353 16.8853L185.353 16.4712L140.37 16.4712L140.37 16.8852Z" fill="#00D5FF"/>
</g>
<g style="mix-blend-mode:overlay">
<path d="M140.876 23.7175L149.062 23.7175L149.063 20.0945L140.876 20.0945L140.876 23.7175Z" fill="#00D5FF"/>
</g>
<g style="mix-blend-mode:overlay">
<path d="M155.899 23.7173L171.09 23.7173L171.09 22.3716L155.899 22.3716L155.899 23.7173Z" fill="#00D5FF"/>
</g>
<g style="mix-blend-mode:overlay">
<path d="M24.6629 40.5908L31.3301 40.5908L31.3301 36.6572L24.6629 36.6572L24.6629 40.5908Z" fill="#00D5FF"/>
</g>
<g style="mix-blend-mode:overlay">
<path d="M7.69937 24.0286L52.7666 24.0286L52.7666 22.6829L7.69937 22.6829L7.69937 24.0286Z" fill="#00D5FF"/>
</g>
<g style="mix-blend-mode:overlay">
<path d="M1.20161 32.7241L23.7354 32.7241L23.7354 31.7925L1.20161 31.7925L1.20161 32.7241Z" fill="#00D5FF"/>
</g>
<g style="mix-blend-mode:overlay">
<path d="M19.7687 27.9622L58.4219 27.9622L58.4219 27.6516L19.7687 27.6516L19.7687 27.9622Z" fill="#00D5FF"/>
</g>
<g style="mix-blend-mode:overlay">
<path d="M13.3541 18.2317L15.042 18.2317L15.042 16.9895L13.3541 16.9895L13.3541 18.2317Z" fill="#00D5FF"/>
</g>
<g style="mix-blend-mode:overlay">
<path d="M37.4069 19.0598L41.8799 19.0598L41.8799 16.1614L37.4069 16.1614L37.4069 19.0598Z" fill="#00D5FF"/>
</g>
<g style="mix-blend-mode:overlay">
<path d="M20.1051 33.8621L27.1943 33.8621L27.1943 30.7566L20.1051 30.7566L20.1051 33.8621Z" fill="#00D5FF"/>
</g>
<g style="mix-blend-mode:overlay">
<path d="M33.1034 33.8621L46.1846 33.8621L46.1846 32.6199L33.1034 32.6199L33.1034 33.8621Z" fill="#00D5FF"/>
</g>
<g style="mix-blend-mode:overlay">
<path d="M90.323 38.8311L96.9902 38.8311L96.9902 35.001L90.323 35.001L90.323 38.8311Z" fill="#00D5FF"/>
</g>
<g style="mix-blend-mode:overlay">
<path d="M73.6129 22.3721L118.174 22.3721L118.174 21.0264L73.6129 21.0264L73.6129 22.3721Z" fill="#00D5FF"/>
</g>
<g style="mix-blend-mode:overlay">
<path d="M67.1137 30.9636L89.4785 30.9636L89.4785 30.032L67.1137 30.032L67.1137 30.9636Z" fill="#00D5FF"/>
</g>
<g style="mix-blend-mode:overlay">
<path d="M85.5124 26.3059L123.828 26.3059L123.828 25.9954L85.5124 25.9954L85.5124 26.3059Z" fill="#00D5FF"/>
</g>
<g style="mix-blend-mode:overlay">
<path d="M102.982 17.4031L107.455 17.4031L107.455 14.5046L102.982 14.5046L102.982 17.4031Z" fill="#00D5FF"/>
</g>
<g style="mix-blend-mode:overlay">
<path d="M85.9346 32.2061L92.9395 32.2061L92.9395 29.1006L85.9346 29.1006L85.9346 32.2061Z" fill="#00D5FF"/>
</g>
<g style="mix-blend-mode:overlay">
<path d="M98.7633 32.2061L111.676 32.2061L111.676 31.0674L98.7633 31.0674L98.7633 32.2061Z" fill="#00D5FF"/>
</g>
<g style="mix-blend-mode:overlay">
<path d="M66.524 16.0576L58.5908 16.0576L58.5908 20.6123L66.524 20.6123L66.524 16.0576Z" fill="#00D5FF"/>
</g>
<g style="mix-blend-mode:overlay">
<path d="M86.4412 35.6226L33.3564 35.6226L33.3564 37.2788L86.4412 37.2788L86.4412 35.6226Z" fill="#00D5FF"/>
</g>
<g style="mix-blend-mode:overlay">
<path d="M94.1208 25.3743L67.5361 25.3743L67.5361 26.4094L94.1208 26.4094L94.1208 25.3743Z" fill="#00D5FF"/>
</g>
<g style="mix-blend-mode:overlay">
<path d="M72.2626 30.9636L26.6045 30.9636L26.6045 31.3777L72.2626 31.3777L72.2626 30.9636Z" fill="#00D5FF"/>
</g>
<g style="mix-blend-mode:overlay">
<path d="M79.8576 42.5576L77.832 42.5576L77.832 44.0068L79.8576 44.0068L79.8576 42.5576Z" fill="#00D5FF"/>
</g>
<g style="mix-blend-mode:overlay">
<path d="M51.4166 41.5227L46.0996 41.5227L46.0996 44.9387L51.4166 44.9387L51.4166 41.5227Z" fill="#00D5FF"/>
</g>
<g style="mix-blend-mode:overlay">
<path d="M71.8414 23.925L63.4863 23.925L63.4863 27.5481L71.8414 27.5481L71.8414 23.925Z" fill="#00D5FF"/>
</g>
<g style="mix-blend-mode:overlay">
<path d="M56.4801 24.0288L41.1201 24.0288L41.1201 25.478L56.4801 25.478L56.4801 24.0288Z" fill="#00D5FF"/>
</g>
<defs>
<filter id="filter0_d_889_99122" x="7.78316" y="12.9956" width="162.722" height="34.8233" filterUnits="userSpaceOnUse" color-interpolation-filters="sRGB">
<feFlood flood-opacity="0" result="BackgroundImageFix"/>
<feColorMatrix in="SourceAlpha" type="matrix" values="0 0 0 0 0 0 0 0 0 0 0 0 0 0 0 0 0 0 127 0" result="hardAlpha"/>
<feOffset dy="2.1641"/>
<feGaussianBlur stdDeviation="1.08205"/>
<feComposite in2="hardAlpha" operator="out"/>
<feColorMatrix type="matrix" values="0 0 0 0 0 0 0 0 0 0 0 0 0 0 0 0 0 0 0.25 0"/>
<feBlend mode="normal" in2="BackgroundImageFix" result="effect1_dropShadow_889_99122"/>
<feBlend mode="normal" in="SourceGraphic" in2="effect1_dropShadow_889_99122" result="shape"/>
</filter>
<filter id="filter1_f_889_99122" x="3.45496" y="6.5033" width="171.378" height="43.4797" filterUnits="userSpaceOnUse" color-interpolation-filters="sRGB">
<feFlood flood-opacity="0" result="BackgroundImageFix"/>
<feBlend mode="normal" in="SourceGraphic" in2="BackgroundImageFix" result="shape"/>
<feGaussianBlur stdDeviation="3.24615" result="effect1_foregroundBlur_889_99122"/>
</filter>
</defs>
</svg>
