<svg width="185" height="35" viewBox="0 0 185 35" fill="none" xmlns="http://www.w3.org/2000/svg">
<g style="mix-blend-mode:overlay">
<path d="M145.109 21.4812L152.873 21.4812L152.873 16.9265L145.109 16.9265L145.109 21.4812Z" fill="#00D5FF"/>
</g>
<g style="mix-blend-mode:overlay">
<path d="M125.444 2.22778L177.77 2.22778L177.77 0.675041L125.444 0.675037L125.444 2.22778Z" fill="#00D5FF"/>
</g>
<g style="mix-blend-mode:overlay">
<path d="M117.849 12.3721L144.096 12.3721L144.096 11.3369L117.849 11.3369L117.849 12.3721Z" fill="#00D5FF"/>
</g>
<g style="mix-blend-mode:overlay">
<path d="M139.37 6.88525L184.353 6.88525L184.353 6.47119L139.37 6.47119L139.37 6.88525Z" fill="#00D5FF"/>
</g>
<g style="mix-blend-mode:overlay">
<path d="M139.876 13.7175L148.062 13.7175L148.063 10.0945L139.876 10.0945L139.876 13.7175Z" fill="#00D5FF"/>
</g>
<g style="mix-blend-mode:overlay">
<path d="M154.899 13.7173L170.09 13.7173L170.09 12.3716L154.899 12.3716L154.899 13.7173Z" fill="#00D5FF"/>
</g>
<g style="mix-blend-mode:overlay">
<path d="M23.6629 30.5908L30.3301 30.5908L30.3301 26.6572L23.6629 26.6572L23.6629 30.5908Z" fill="#00D5FF"/>
</g>
<g style="mix-blend-mode:overlay">
<path d="M6.69937 14.0286L51.7666 14.0286L51.7666 12.6829L6.69937 12.6829L6.69937 14.0286Z" fill="#00D5FF"/>
</g>
<g style="mix-blend-mode:overlay">
<path d="M0.201609 22.7241L22.7354 22.7241L22.7354 21.7925L0.201609 21.7925L0.201609 22.7241Z" fill="#00D5FF"/>
</g>
<g style="mix-blend-mode:overlay">
<path d="M18.7687 17.9622L57.4219 17.9622L57.4219 17.6516L18.7687 17.6516L18.7687 17.9622Z" fill="#00D5FF"/>
</g>
<g style="mix-blend-mode:overlay">
<path d="M12.3541 8.23169L14.042 8.23169L14.042 6.9895L12.3541 6.9895L12.3541 8.23169Z" fill="#00D5FF"/>
</g>
<g style="mix-blend-mode:overlay">
<path d="M36.4069 9.05981L40.8799 9.05981L40.8799 6.16137L36.4069 6.16137L36.4069 9.05981Z" fill="#00D5FF"/>
</g>
<g style="mix-blend-mode:overlay">
<path d="M19.1051 23.8621L26.1943 23.8621L26.1943 20.7566L19.1051 20.7566L19.1051 23.8621Z" fill="#00D5FF"/>
</g>
<g style="mix-blend-mode:overlay">
<path d="M32.1034 23.8621L45.1846 23.8621L45.1846 22.6199L32.1034 22.6199L32.1034 23.8621Z" fill="#00D5FF"/>
</g>
<g style="mix-blend-mode:overlay">
<path d="M89.323 28.8311L95.9902 28.8311L95.9902 25.001L89.323 25.001L89.323 28.8311Z" fill="#00D5FF"/>
</g>
<g style="mix-blend-mode:overlay">
<path d="M72.6129 12.3721L117.174 12.3721L117.174 11.0264L72.6129 11.0264L72.6129 12.3721Z" fill="#00D5FF"/>
</g>
<g style="mix-blend-mode:overlay">
<path d="M66.1137 20.9636L88.4785 20.9636L88.4785 20.032L66.1137 20.032L66.1137 20.9636Z" fill="#00D5FF"/>
</g>
<g style="mix-blend-mode:overlay">
<path d="M84.5124 16.3059L122.828 16.3059L122.828 15.9954L84.5124 15.9954L84.5124 16.3059Z" fill="#00D5FF"/>
</g>
<g style="mix-blend-mode:overlay">
<path d="M101.982 7.40308L106.455 7.40308L106.455 4.50463L101.982 4.50463L101.982 7.40308Z" fill="#00D5FF"/>
</g>
<g style="mix-blend-mode:overlay">
<path d="M84.9346 22.2061L91.9395 22.2061L91.9395 19.1006L84.9346 19.1006L84.9346 22.2061Z" fill="#00D5FF"/>
</g>
<g style="mix-blend-mode:overlay">
<path d="M97.7633 22.2061L110.676 22.2061L110.676 21.0674L97.7633 21.0674L97.7633 22.2061Z" fill="#00D5FF"/>
</g>
<g style="mix-blend-mode:overlay">
<path d="M65.524 6.05762L57.5908 6.05762L57.5908 10.6123L65.524 10.6123L65.524 6.05762Z" fill="#00D5FF"/>
</g>
<g style="mix-blend-mode:overlay">
<path d="M85.4412 25.6226L32.3564 25.6226L32.3564 27.2788L85.4412 27.2788L85.4412 25.6226Z" fill="#00D5FF"/>
</g>
<g style="mix-blend-mode:overlay">
<path d="M93.1208 15.3743L66.5361 15.3743L66.5361 16.4094L93.1208 16.4094L93.1208 15.3743Z" fill="#00D5FF"/>
</g>
<g style="mix-blend-mode:overlay">
<path d="M71.2626 20.9636L25.6045 20.9636L25.6045 21.3777L71.2626 21.3777L71.2626 20.9636Z" fill="#00D5FF"/>
</g>
<g style="mix-blend-mode:overlay">
<path d="M78.8576 32.5576L76.832 32.5576L76.832 34.0068L78.8576 34.0068L78.8576 32.5576Z" fill="#00D5FF"/>
</g>
<g style="mix-blend-mode:overlay">
<path d="M50.4166 31.5227L45.0996 31.5227L45.0996 34.9387L50.4166 34.9387L50.4166 31.5227Z" fill="#00D5FF"/>
</g>
<g style="mix-blend-mode:overlay">
<path d="M70.8414 13.925L62.4863 13.925L62.4863 17.5481L70.8414 17.5481L70.8414 13.925Z" fill="#00D5FF"/>
</g>
<g style="mix-blend-mode:overlay">
<path d="M55.4801 14.0288L40.1201 14.0288L40.1201 15.478L55.4801 15.478L55.4801 14.0288Z" fill="#00D5FF"/>
</g>
</svg>
