<svg width="300" height="55" viewBox="0 0 300 55" fill="none" xmlns="http://www.w3.org/2000/svg">
<g style="mix-blend-mode:overlay">
<path d="M235.577 33.0669L248.153 33.0669L248.153 25.849L235.577 25.849L235.577 33.0669Z" fill="#00D5FF"/>
</g>
<g style="mix-blend-mode:overlay">
<path d="M203.725 2.55614L288.48 2.55615L288.48 0.0955048L203.725 0.0954974L203.725 2.55614Z" fill="#00D5FF"/>
</g>
<g style="mix-blend-mode:overlay">
<path d="M191.421 18.6316L233.936 18.6316L233.936 16.9912L191.421 16.9912L191.421 18.6316Z" fill="#00D5FF"/>
</g>
<g style="mix-blend-mode:overlay">
<path d="M226.28 9.93725L299.143 9.93726L299.143 9.28109L226.28 9.28108L226.28 9.93725Z" fill="#00D5FF"/>
</g>
<g style="mix-blend-mode:overlay">
<path d="M227.1 20.7637L240.36 20.7637L240.36 15.0222L227.1 15.0222L227.1 20.7637Z" fill="#00D5FF"/>
</g>
<g style="mix-blend-mode:overlay">
<path d="M251.434 20.7637L276.04 20.7637L276.04 18.6311L251.434 18.6311L251.434 20.7637Z" fill="#00D5FF"/>
</g>
<g style="mix-blend-mode:overlay">
<path d="M38.8617 47.5032L49.6611 47.5032L49.6611 41.2696L38.8617 41.2696L38.8617 47.5032Z" fill="#00D5FF"/>
</g>
<g style="mix-blend-mode:overlay">
<path d="M11.3848 21.2568L84.3838 21.2568L84.3838 19.1243L11.3848 19.1243L11.3848 21.2568Z" fill="#00D5FF"/>
</g>
<g style="mix-blend-mode:overlay">
<path d="M0.858704 35.0366L37.3584 35.0366L37.3584 33.5602L0.858704 33.5602L0.858704 35.0366Z" fill="#00D5FF"/>
</g>
<g style="mix-blend-mode:overlay">
<path d="M30.9333 27.4902L93.543 27.4902L93.543 26.9981L30.9333 26.9981L30.9333 27.4902Z" fill="#00D5FF"/>
</g>
<g style="mix-blend-mode:overlay">
<path d="M20.5433 12.0706L23.2773 12.0706L23.2773 10.102L20.5433 10.102L20.5433 12.0706Z" fill="#00D5FF"/>
</g>
<g style="mix-blend-mode:overlay">
<path d="M59.5028 13.3828L66.748 13.3828L66.748 8.78961L59.5028 8.78961L59.5028 13.3828Z" fill="#00D5FF"/>
</g>
<g style="mix-blend-mode:overlay">
<path d="M31.479 36.8401L42.9619 36.8401L42.9619 31.9188L31.479 31.9188L31.479 36.8401Z" fill="#00D5FF"/>
</g>
<g style="mix-blend-mode:overlay">
<path d="M52.532 36.8401L73.7207 36.8401L73.7207 34.8716L52.532 34.8716L52.532 36.8401Z" fill="#00D5FF"/>
</g>
<g style="mix-blend-mode:overlay">
<path d="M145.216 44.7144L156.016 44.7144L156.016 38.6448L145.216 38.6448L145.216 44.7144Z" fill="#00D5FF"/>
</g>
<g style="mix-blend-mode:overlay">
<path d="M118.148 18.6316L190.327 18.6316L190.327 16.499L118.148 16.499L118.148 18.6316Z" fill="#00D5FF"/>
</g>
<g style="mix-blend-mode:overlay">
<path d="M107.623 32.2471L143.849 32.2471L143.849 30.7707L107.623 30.7707L107.623 32.2471Z" fill="#00D5FF"/>
</g>
<g style="mix-blend-mode:overlay">
<path d="M137.423 24.8657L199.486 24.8657L199.486 24.3736L137.423 24.3736L137.423 24.8657Z" fill="#00D5FF"/>
</g>
<g style="mix-blend-mode:overlay">
<path d="M165.721 10.7573L172.966 10.7573L172.966 6.16412L165.721 6.16412L165.721 10.7573Z" fill="#00D5FF"/>
</g>
<g style="mix-blend-mode:overlay">
<path d="M138.107 34.2158L149.453 34.2158L149.453 29.2945L138.107 29.2945L138.107 34.2158Z" fill="#00D5FF"/>
</g>
<g style="mix-blend-mode:overlay">
<path d="M158.886 34.2158L179.802 34.2158L179.802 32.4114L158.886 32.4114L158.886 34.2158Z" fill="#00D5FF"/>
</g>
<g style="mix-blend-mode:overlay">
<path d="M106.665 8.625L93.8154 8.625L93.8154 15.8429L106.665 15.8429L106.665 8.625Z" fill="#00D5FF"/>
</g>
<g style="mix-blend-mode:overlay">
<path d="M138.927 39.6299L52.9414 39.6299L52.9414 42.2546L138.927 42.2546L138.927 39.6299Z" fill="#00D5FF"/>
</g>
<g style="mix-blend-mode:overlay">
<path d="M151.367 23.3892L108.306 23.3892L108.306 25.0296L151.367 25.0296L151.367 23.3892Z" fill="#00D5FF"/>
</g>
<g style="mix-blend-mode:overlay">
<path d="M115.961 32.2471L42.0049 32.2471L42.0049 32.9032L115.961 32.9032L115.961 32.2471Z" fill="#00D5FF"/>
</g>
<g style="mix-blend-mode:overlay">
<path d="M128.264 50.6199L124.983 50.6199L124.983 52.9165L128.264 52.9165L128.264 50.6199Z" fill="#00D5FF"/>
</g>
<g style="mix-blend-mode:overlay">
<path d="M82.1963 48.98L73.584 48.98L73.584 54.3934L82.1963 54.3934L82.1963 48.98Z" fill="#00D5FF"/>
</g>
<g style="mix-blend-mode:overlay">
<path d="M115.279 21.0925L101.745 21.0925L101.745 26.834L115.279 26.834L115.279 21.0925Z" fill="#00D5FF"/>
</g>
<g style="mix-blend-mode:overlay">
<path d="M90.3983 21.2568L65.5186 21.2568L65.5186 23.5534L90.3983 23.5534L90.3983 21.2568Z" fill="#00D5FF"/>
</g>
</svg>
