<svg width="23" height="19" viewBox="0 0 23 19" fill="none" xmlns="http://www.w3.org/2000/svg">
<path fill-rule="evenodd" clip-rule="evenodd" d="M7.41795 18.7101C15.7089 18.7101 20.2457 11.8347 20.2457 5.88238C20.2457 5.68896 20.2457 5.49553 20.2369 5.3021C21.1161 4.66907 21.881 3.86898 22.4877 2.96339C21.6788 3.32387 20.8084 3.56126 19.894 3.67555C20.826 3.12165 21.5381 2.23364 21.881 1.17858C21.0106 1.69732 20.0435 2.06659 19.0148 2.26881C18.1883 1.3896 17.019 0.844482 15.7265 0.844482C13.2384 0.844482 11.2162 2.86668 11.2162 5.35486C11.2162 5.70654 11.2601 6.04944 11.3305 6.38354C7.585 6.1989 4.26157 4.39651 2.03716 1.67094C1.6503 2.33915 1.4305 3.11286 1.4305 3.93932C1.4305 5.50432 2.23058 6.88469 3.43511 7.69357C2.69657 7.66719 2.00199 7.46497 1.39533 7.13087C1.39533 7.14845 1.39533 7.16604 1.39533 7.19241C1.39533 9.37287 2.95154 11.2016 5.0089 11.6149C4.63084 11.7204 4.23519 11.7731 3.82196 11.7731C3.53182 11.7731 3.25047 11.7467 2.97792 11.694C3.54941 13.4876 5.21991 14.7888 7.18936 14.824C5.64194 16.0373 3.69887 16.7583 1.58876 16.7583C1.22828 16.7583 0.867799 16.7407 0.516113 16.6967C2.50314 17.9628 4.87702 18.7101 7.41795 18.7101Z" fill="#FF0080"/>
</svg>
