<svg width="237" height="63" viewBox="0 0 237 63" fill="none" xmlns="http://www.w3.org/2000/svg">
<g style="mix-blend-mode:overlay">
<path d="M186.335 38.1187L196.319 38.1187L196.319 29.7882L186.335 29.7882L186.335 38.1187Z" fill="#00D5FF"/>
</g>
<g style="mix-blend-mode:overlay">
<path d="M161.049 2.90527L228.333 2.90527L228.333 0.0653491L161.049 0.0653432L161.049 2.90527Z" fill="#00D5FF"/>
</g>
<g style="mix-blend-mode:overlay">
<path d="M151.282 21.458L185.032 21.458L185.032 19.5647L151.282 19.5647L151.282 21.458Z" fill="#00D5FF"/>
</g>
<g style="mix-blend-mode:overlay">
<path d="M178.955 11.4238L236.798 11.4238L236.798 10.6665L178.955 10.6665L178.955 11.4238Z" fill="#00D5FF"/>
</g>
<g style="mix-blend-mode:overlay">
<path d="M179.605 23.9189L190.132 23.9189L190.132 17.2925L179.605 17.2925L179.605 23.9189Z" fill="#00D5FF"/>
</g>
<g style="mix-blend-mode:overlay">
<path d="M198.924 23.9189L218.458 23.9189L218.458 21.4577L198.924 21.4577L198.924 23.9189Z" fill="#00D5FF"/>
</g>
<g style="mix-blend-mode:overlay">
<path d="M30.1699 54.7803L38.7432 54.7803L38.7432 47.5858L30.1699 47.5858L30.1699 54.7803Z" fill="#00D5FF"/>
</g>
<g style="mix-blend-mode:overlay">
<path d="M8.35733 24.4883L66.3086 24.4883L66.3086 22.027L8.35733 22.027L8.35733 24.4883Z" fill="#00D5FF"/>
</g>
<g style="mix-blend-mode:overlay">
<path d="M0.000762939 40.3921L28.9766 40.3921L28.9766 38.6881L0.000763088 38.6881L0.000762939 40.3921Z" fill="#00D5FF"/>
</g>
<g style="mix-blend-mode:overlay">
<path d="M23.8755 31.6821L73.5791 31.6821L73.5791 31.1142L23.8755 31.1141L23.8755 31.6821Z" fill="#00D5FF"/>
</g>
<g style="mix-blend-mode:overlay">
<path d="M15.6264 13.8857L17.7969 13.8857L17.7969 11.6138L15.6264 11.6138L15.6264 13.8857Z" fill="#00D5FF"/>
</g>
<g style="mix-blend-mode:overlay">
<path d="M46.5569 15.4004L52.3086 15.4004L52.3086 10.0992L46.5569 10.0992L46.5569 15.4004Z" fill="#00D5FF"/>
</g>
<g style="mix-blend-mode:overlay">
<path d="M24.3089 42.4736L33.4248 42.4736L33.4248 36.7938L24.3089 36.7938L24.3089 42.4736Z" fill="#00D5FF"/>
</g>
<g style="mix-blend-mode:overlay">
<path d="M41.0218 42.4736L57.8428 42.4736L57.8428 40.2017L41.0218 40.2017L41.0218 42.4736Z" fill="#00D5FF"/>
</g>
<g style="mix-blend-mode:overlay">
<path d="M114.601 51.5615L123.174 51.5615L123.174 44.5564L114.601 44.5564L114.601 51.5615Z" fill="#00D5FF"/>
</g>
<g style="mix-blend-mode:overlay">
<path d="M93.112 21.458L150.412 21.458L150.412 18.9967L93.112 18.9967L93.112 21.458Z" fill="#00D5FF"/>
</g>
<g style="mix-blend-mode:overlay">
<path d="M84.7571 37.1724L113.516 37.1724L113.516 35.4684L84.7571 35.4684L84.7571 37.1724Z" fill="#00D5FF"/>
</g>
<g style="mix-blend-mode:overlay">
<path d="M108.415 28.6533L157.685 28.6533L157.685 28.0853L108.415 28.0853L108.415 28.6533Z" fill="#00D5FF"/>
</g>
<g style="mix-blend-mode:overlay">
<path d="M130.879 12.3701L136.631 12.3701L136.631 7.06893L130.879 7.06893L130.879 12.3701Z" fill="#00D5FF"/>
</g>
<g style="mix-blend-mode:overlay">
<path d="M108.957 39.4443L117.965 39.4443L117.965 33.7645L108.957 33.7645L108.957 39.4443Z" fill="#00D5FF"/>
</g>
<g style="mix-blend-mode:overlay">
<path d="M125.454 39.4443L142.058 39.4443L142.058 37.3617L125.454 37.3617L125.454 39.4443Z" fill="#00D5FF"/>
</g>
<g style="mix-blend-mode:overlay">
<path d="M83.9971 9.90918L73.7959 9.90918L73.7959 18.2396L83.9971 18.2396L83.9971 9.90918Z" fill="#00D5FF"/>
</g>
<g style="mix-blend-mode:overlay">
<path d="M109.61 45.6934L41.3486 45.6934L41.3486 48.7226L109.61 48.7226L109.61 45.6934Z" fill="#00D5FF"/>
</g>
<g style="mix-blend-mode:overlay">
<path d="M119.485 26.9492L85.2998 26.9492L85.2998 28.8425L119.485 28.8425L119.485 26.9492Z" fill="#00D5FF"/>
</g>
<g style="mix-blend-mode:overlay">
<path d="M91.376 37.1724L32.665 37.1724L32.665 37.9297L91.376 37.9297L91.376 37.1724Z" fill="#00D5FF"/>
</g>
<g style="mix-blend-mode:overlay">
<path d="M101.144 58.377L98.5391 58.377L98.5391 61.0275L101.144 61.0275L101.144 58.377Z" fill="#00D5FF"/>
</g>
<g style="mix-blend-mode:overlay">
<path d="M64.5714 56.4844L57.7344 56.4844L57.7344 62.7322L64.5714 62.7322L64.5714 56.4844Z" fill="#00D5FF"/>
</g>
<g style="mix-blend-mode:overlay">
<path d="M90.8345 24.2988L80.0908 24.2988L80.0908 30.9253L90.8345 30.9253L90.8345 24.2988Z" fill="#00D5FF"/>
</g>
<g style="mix-blend-mode:overlay">
<path d="M71.0822 24.4883L51.3311 24.4883L51.3311 27.1389L71.0822 27.1389L71.0822 24.4883Z" fill="#00D5FF"/>
</g>
</svg>
