<svg width="336" height="105" viewBox="0 0 336 105" fill="none" xmlns="http://www.w3.org/2000/svg">
<g style="mix-blend-mode:overlay">
<path d="M47.9976 48.9507H0V51.1263H47.9976V48.9507Z" fill="#00D5FF" fill-opacity="0.6"/>
</g>
<g style="mix-blend-mode:overlay">
<path d="M134.598 46.7739H120.097V56.0201H134.598V46.7739Z" fill="#00D5FF" fill-opacity="0.6"/>
</g>
<g style="mix-blend-mode:overlay">
<path d="M171.362 86.2065H73.3242V89.4699H171.362V86.2065Z" fill="#00D5FF" fill-opacity="0.6"/>
</g>
<g style="mix-blend-mode:overlay">
<path d="M185.455 65.5391H136.436V67.7147H185.455V65.5391Z" fill="#00D5FF" fill-opacity="0.6"/>
</g>
<g style="mix-blend-mode:overlay">
<path d="M145.218 76.688H61.0693V77.5038H145.218V76.688Z" fill="#00D5FF" fill-opacity="0.6"/>
</g>
<g style="mix-blend-mode:overlay">
<path d="M159.107 99.8047H155.431V102.524H159.107V99.8047Z" fill="#00D5FF" fill-opacity="0.6"/>
</g>
<g style="mix-blend-mode:overlay">
<path d="M106.82 97.6284H97.0166V104.427H106.82V97.6284Z" fill="#00D5FF" fill-opacity="0.6"/>
</g>
<g style="mix-blend-mode:overlay">
<path d="M144.197 62.8184H128.879V70.1609H144.197V62.8184Z" fill="#00D5FF" fill-opacity="0.6"/>
</g>
<g style="mix-blend-mode:overlay">
<path d="M116.011 62.8184H87.6211V65.5378H116.011V62.8184Z" fill="#00D5FF" fill-opacity="0.6"/>
</g>
<g style="mix-blend-mode:overlay">
<path d="M262.66 30.1855H248.771V38.8879H262.66V30.1855Z" fill="#00D5FF" fill-opacity="0.6"/>
</g>
<g style="mix-blend-mode:overlay">
<path d="M297.791 67.7144H204.246V70.7057H297.791V67.7144Z" fill="#00D5FF" fill-opacity="0.6"/>
</g>
<g style="mix-blend-mode:overlay">
<path d="M311.475 48.1333H264.498V50.3089H311.475V48.1333Z" fill="#00D5FF" fill-opacity="0.6"/>
</g>
<g style="mix-blend-mode:overlay">
<path d="M272.872 58.7402H192.399V59.5561H272.872V58.7402Z" fill="#00D5FF" fill-opacity="0.6"/>
</g>
<g style="mix-blend-mode:overlay">
<path d="M285.944 80.7686H282.472V83.488H285.944V80.7686Z" fill="#00D5FF" fill-opacity="0.6"/>
</g>
<g style="mix-blend-mode:overlay">
<path d="M236.108 78.8647H226.713V85.3915H236.108V78.8647Z" fill="#00D5FF" fill-opacity="0.6"/>
</g>
<g style="mix-blend-mode:overlay">
<path d="M272.055 45.4146H257.35V52.4852H272.055V45.4146Z" fill="#00D5FF" fill-opacity="0.6"/>
</g>
<g style="mix-blend-mode:overlay">
<path d="M245.095 45.4146H217.931V48.134H245.095V45.4146Z" fill="#00D5FF" fill-opacity="0.6"/>
</g>
<g style="mix-blend-mode:overlay">
<path d="M56.5755 79.6802H76.5918V66.8987H56.5755V79.6802Z" fill="#00D5FF" fill-opacity="0.6"/>
</g>
<g style="mix-blend-mode:overlay">
<path d="M41.6663 38.8887L157.678 38.8887V37.8009L41.6663 37.8009V38.8887Z" fill="#00D5FF" fill-opacity="0.6"/>
</g>
<g style="mix-blend-mode:overlay">
<path d="M94.5656 9.51807L108.046 9.51807V-0.000108719L94.5656 -0.000108719V9.51807Z" fill="#00D5FF" fill-opacity="0.6"/>
</g>
<g style="mix-blend-mode:overlay">
<path d="M42.8924 57.9248H64.1338V47.8627H42.8924V57.9248Z" fill="#00D5FF" fill-opacity="0.6"/>
</g>
<g style="mix-blend-mode:overlay">
<path d="M81.6979 57.9248L120.913 57.9248V54.1176L81.6979 54.1176V57.9248Z" fill="#00D5FF" fill-opacity="0.6"/>
</g>
<g style="mix-blend-mode:overlay">
<path d="M174.63 91.9175H194.033V79.6798H174.63V91.9175Z" fill="#00D5FF" fill-opacity="0.6"/>
</g>
<g style="mix-blend-mode:overlay">
<path d="M125.611 39.4321L256.328 39.4321V35.081L125.611 35.081V39.4321Z" fill="#00D5FF" fill-opacity="0.6"/>
</g>
<g style="mix-blend-mode:overlay">
<path d="M106.412 66.8984L171.975 66.8984V63.907L106.412 63.907V66.8984Z" fill="#00D5FF" fill-opacity="0.6"/>
</g>
<g style="mix-blend-mode:overlay">
<path d="M160.333 52.2139L272.668 52.2139V51.1261L160.333 51.1261V52.2139Z" fill="#00D5FF" fill-opacity="0.6"/>
</g>
<g style="mix-blend-mode:overlay">
<path d="M141.951 21.4829H146.853V17.6757H141.951V21.4829Z" fill="#00D5FF" fill-opacity="0.6"/>
</g>
<g style="mix-blend-mode:overlay">
<path d="M211.803 23.9307L224.875 23.9307V14.6844L211.803 14.6844V23.9307Z" fill="#00D5FF" fill-opacity="0.6"/>
</g>
<g style="mix-blend-mode:overlay">
<path d="M161.763 70.7061H182.188V60.9159H161.763V70.7061Z" fill="#00D5FF" fill-opacity="0.6"/>
</g>
<g style="mix-blend-mode:overlay">
<path d="M199.14 70.9771H237.13V67.1698H199.14V70.9771Z" fill="#00D5FF" fill-opacity="0.6"/>
</g>
<path d="M322.358 48.9431H209.348H115.908L103.458 36.4731H97.9775V54.3631H112.188H97.9775V77.9231H110.318V54.3731H150.948L151.238 54.6631H154.858L154.728 54.5431H209.348H320.048L331.238 65.7431V65.8531L335.678 62.2931V62.2831L322.358 48.9431Z" fill="#FF0080" fill-opacity="0.3"/>
</svg>
