<svg width="41" height="348" viewBox="0 0 41 348" fill="none" xmlns="http://www.w3.org/2000/svg">
<g style="mix-blend-mode:overlay">
<path d="M39.1035 259.402L39.1035 347.08L39.7623 347.08L39.7623 259.402L39.1035 259.402Z" fill="#00D5FF"/>
</g>
<g style="mix-blend-mode:overlay">
<path d="M28.2344 260.389L28.2344 276.345L33.9985 276.345L33.9985 260.389L28.2344 260.389Z" fill="#00D5FF"/>
</g>
<g style="mix-blend-mode:overlay">
<path d="M28.2344 289.669L28.2344 319.279L30.3753 319.279L30.3753 289.669L28.2344 289.669Z" fill="#00D5FF"/>
</g>
<g style="mix-blend-mode:overlay">
<path d="M1.38965 33.8733L1.38965 46.8687L7.64782 46.8687L7.64782 33.8733L1.38965 33.8733Z" fill="#00D5FF"/>
</g>
<g style="mix-blend-mode:overlay">
<path d="M27.7393 0.809418L27.7393 88.6519L29.8802 88.6519L29.8802 0.809418L27.7393 0.809418Z" fill="#00D5FF"/>
</g>
<g style="mix-blend-mode:overlay">
<path d="M35.6445 58.7127L35.6445 67.4312L40.2558 67.4312L40.2558 58.7127L35.6445 58.7127Z" fill="#00D5FF"/>
</g>
<g style="mix-blend-mode:overlay">
<path d="M12.0947 24.9902L12.0947 38.8081L17.0354 38.8081L17.0354 24.9902L12.0947 24.9902Z" fill="#00D5FF"/>
</g>
<g style="mix-blend-mode:overlay">
<path d="M12.0947 50.3236L12.0947 75.8208L14.071 75.8208L14.071 50.3236L12.0947 50.3236Z" fill="#00D5FF"/>
</g>
<g style="mix-blend-mode:overlay">
<path d="M4.18945 161.854L4.18945 174.849L10.2829 174.849L10.2829 161.854L4.18945 161.854Z" fill="#00D5FF"/>
</g>
<g style="mix-blend-mode:overlay">
<path d="M30.375 129.283L30.375 216.138L32.516 216.138L32.516 129.283L30.375 129.283Z" fill="#00D5FF"/>
</g>
<g style="mix-blend-mode:overlay">
<path d="M14.7305 153.299L14.7305 166.953L19.6711 166.953L19.6711 153.299L14.7305 153.299Z" fill="#00D5FF"/>
</g>
<g style="mix-blend-mode:overlay">
<path d="M14.7305 178.304L14.7305 203.472L16.542 203.472L16.542 178.304L14.7305 178.304Z" fill="#00D5FF"/>
</g>
<g style="mix-blend-mode:overlay">
<path d="M40.4209 115.464L40.4209 100.001L33.1746 100.001L33.1746 115.464L40.4209 115.464Z" fill="#00D5FF"/>
</g>
<g style="mix-blend-mode:overlay">
<path d="M9.29493 154.287L9.29492 50.8169L6.65991 50.8169L6.65991 154.287L9.29493 154.287Z" fill="#00D5FF"/>
</g>
<g style="mix-blend-mode:overlay">
<path d="M27.9053 125.829L27.9053 109.543L22.1412 109.543L22.1412 125.829L27.9053 125.829Z" fill="#00D5FF"/>
</g>
<path d="M13.2648 72.2573H0.924805V95.7473H13.2648V72.2573Z" fill="#5A1E7D"/>
<g style="mix-blend-mode:overlay">
<path d="M27.7393 95.8894L27.7393 65.9507L25.4336 65.9507L25.4336 95.8894L27.7393 95.8894Z" fill="#00D5FF"/>
</g>
</svg>
