<svg width="146" height="35" viewBox="0 0 146 35" fill="none" xmlns="http://www.w3.org/2000/svg">
<g style="mix-blend-mode:overlay">
<path d="M31.249 13.7134L25.1533 13.7134L25.1533 18.2681L31.249 18.2681L31.249 13.7134Z" fill="#00D5FF"/>
</g>
<g style="mix-blend-mode:overlay">
<path d="M46.6872 32.9668L5.60742 32.9668L5.60742 34.5195L46.6872 34.5195L46.6872 32.9668Z" fill="#00D5FF"/>
</g>
<g style="mix-blend-mode:overlay">
<path d="M52.6491 22.8223L32.043 22.8223L32.043 23.8574L52.6491 23.8574L52.6491 22.8223Z" fill="#00D5FF"/>
</g>
<g style="mix-blend-mode:overlay">
<path d="M35.7539 28.3091L0.438477 28.3091L0.438477 28.7231L35.7539 28.7231L35.7539 28.3091Z" fill="#00D5FF"/>
</g>
<g style="mix-blend-mode:overlay">
<path d="M35.3557 21.477L28.9287 21.4771L28.9287 25.1001L35.3557 25.1001L35.3557 21.477Z" fill="#00D5FF"/>
</g>
<g style="mix-blend-mode:overlay">
<path d="M23.5622 21.477L11.6357 21.4771L11.6357 22.8228L23.5622 22.8228L23.5622 21.477Z" fill="#00D5FF"/>
</g>
<g style="mix-blend-mode:overlay">
<path d="M126.594 4.60351L121.359 4.60352L121.359 8.53712L126.594 8.53711L126.594 4.60351Z" fill="#00D5FF"/>
</g>
<g style="mix-blend-mode:overlay">
<path d="M139.912 21.166L104.53 21.166L104.53 22.5117L139.912 22.5117L139.912 21.166Z" fill="#00D5FF"/>
</g>
<g style="mix-blend-mode:overlay">
<path d="M145.013 12.4707L127.322 12.4707L127.322 13.4023L145.013 13.4023L145.013 12.4707Z" fill="#00D5FF"/>
</g>
<g style="mix-blend-mode:overlay">
<path d="M130.436 17.2324L100.09 17.2324L100.09 17.543L130.436 17.543L130.436 17.2324Z" fill="#00D5FF"/>
</g>
<g style="mix-blend-mode:overlay">
<path d="M135.472 26.9629L134.146 26.9629L134.146 28.2051L135.472 28.2051L135.472 26.9629Z" fill="#00D5FF"/>
</g>
<g style="mix-blend-mode:overlay">
<path d="M116.589 26.1348L113.077 26.1348L113.077 29.0332L116.589 29.0332L116.589 26.1348Z" fill="#00D5FF"/>
</g>
<g style="mix-blend-mode:overlay">
<path d="M130.172 11.3325L124.606 11.3325L124.606 14.438L130.172 14.438L130.172 11.3325Z" fill="#00D5FF"/>
</g>
<g style="mix-blend-mode:overlay">
<path d="M119.967 11.3325L109.697 11.3325L109.697 12.5747L119.967 12.5747L119.967 11.3325Z" fill="#00D5FF"/>
</g>
<g style="mix-blend-mode:overlay">
<path d="M75.0449 6.36377L69.8105 6.36377L69.8105 10.1939L75.0449 10.1938L75.0449 6.36377Z" fill="#00D5FF"/>
</g>
<g style="mix-blend-mode:overlay">
<path d="M88.1638 22.8223L53.1797 22.8223L53.1797 24.168L88.1638 24.168L88.1638 22.8223Z" fill="#00D5FF"/>
</g>
<g style="mix-blend-mode:overlay">
<path d="M93.2653 14.2305L75.707 14.2305L75.707 15.1621L93.2653 15.1621L93.2653 14.2305Z" fill="#00D5FF"/>
</g>
<g style="mix-blend-mode:overlay">
<path d="M78.8223 18.8887L48.7412 18.8887L48.7412 19.1992L78.8223 19.1992L78.8223 18.8887Z" fill="#00D5FF"/>
</g>
<g style="mix-blend-mode:overlay">
<path d="M65.1054 27.7915L61.5938 27.7915L61.5938 30.69L65.1054 30.69L65.1054 27.7915Z" fill="#00D5FF"/>
</g>
<g style="mix-blend-mode:overlay">
<path d="M78.4906 12.9888L72.9912 12.9888L72.9912 16.0942L78.4906 16.0942L78.4906 12.9888Z" fill="#00D5FF"/>
</g>
<g style="mix-blend-mode:overlay">
<path d="M68.4197 12.9888L58.2822 12.9888L58.2822 14.1274L68.4197 14.1274L68.4197 12.9888Z" fill="#00D5FF"/>
</g>
<g style="mix-blend-mode:overlay">
<path d="M93.7288 29.1367L99.957 29.1367L99.957 24.582L93.7288 24.582L93.7288 29.1367Z" fill="#00D5FF"/>
</g>
<g style="mix-blend-mode:overlay">
<path d="M78.0925 9.57178L119.769 9.57178L119.769 7.91553L78.0925 7.91553L78.0925 9.57178Z" fill="#00D5FF"/>
</g>
<g style="mix-blend-mode:overlay">
<path d="M72.0633 19.8203L92.9346 19.8203L92.9346 18.7852L72.0633 18.7852L72.0633 19.8203Z" fill="#00D5FF"/>
</g>
<g style="mix-blend-mode:overlay">
<path d="M89.2239 14.2305L125.069 14.2305L125.069 13.8164L89.2239 13.8164L89.2239 14.2305Z" fill="#00D5FF"/>
</g>
<g style="mix-blend-mode:overlay">
<path d="M83.2613 2.63721L84.8516 2.63721L84.8516 1.18798L83.2613 1.18798L83.2613 2.63721Z" fill="#00D5FF"/>
</g>
<g style="mix-blend-mode:overlay">
<path d="M105.589 3.67188L109.764 3.67188L109.764 0.255856L105.589 0.255857L105.589 3.67188Z" fill="#00D5FF"/>
</g>
<g style="mix-blend-mode:overlay">
<path d="M89.5548 21.2695L96.1143 21.2695L96.1143 17.6465L89.5548 17.6465L89.5548 21.2695Z" fill="#00D5FF"/>
</g>
<g style="mix-blend-mode:overlay">
<path d="M101.614 21.1655L113.673 21.1655L113.673 19.7163L101.614 19.7163L101.614 21.1655Z" fill="#00D5FF"/>
</g>
</svg>
