<svg width="184" height="45" viewBox="0 0 184 45" fill="none" xmlns="http://www.w3.org/2000/svg">
<g style="mix-blend-mode:overlay">
<path d="M39.2343 17.5894L31.4775 17.5894L31.4775 23.3852L39.2343 23.3852L39.2343 17.5894Z" fill="#00D5FF"/>
</g>
<g style="mix-blend-mode:overlay">
<path d="M58.8794 42.0893L6.60547 42.0894L6.60547 44.0652L58.8794 44.0652L58.8794 42.0893Z" fill="#00D5FF"/>
</g>
<g style="mix-blend-mode:overlay">
<path d="M66.4664 29.1807L40.2451 29.1807L40.2451 30.4979L66.4664 30.4979L66.4664 29.1807Z" fill="#00D5FF"/>
</g>
<g style="mix-blend-mode:overlay">
<path d="M44.9671 36.1626L0.0283203 36.1626L0.0283204 36.6895L44.9671 36.6895L44.9671 36.1626Z" fill="#00D5FF"/>
</g>
<g style="mix-blend-mode:overlay">
<path d="M44.4606 27.4687L36.2822 27.4688L36.2822 32.0791L44.4606 32.0791L44.4606 27.4687Z" fill="#00D5FF"/>
</g>
<g style="mix-blend-mode:overlay">
<path d="M29.4537 27.4687L14.2773 27.4688L14.2773 29.1812L29.4537 29.1812L29.4537 27.4687Z" fill="#00D5FF"/>
</g>
<g style="mix-blend-mode:overlay">
<path d="M160.561 5.99707L153.9 5.99707L153.9 11.0026L160.561 11.0026L160.561 5.99707Z" fill="#00D5FF"/>
</g>
<g style="mix-blend-mode:overlay">
<path d="M177.507 27.0727L132.484 27.0728L132.484 28.7852L177.507 28.7852L177.507 27.0727Z" fill="#00D5FF"/>
</g>
<g style="mix-blend-mode:overlay">
<path d="M184 16.0078L161.488 16.0078L161.488 17.1933L184 17.1933L184 16.0078Z" fill="#00D5FF"/>
</g>
<g style="mix-blend-mode:overlay">
<path d="M165.45 22.0674L126.835 22.0674L126.835 22.4626L165.45 22.4625L165.45 22.0674Z" fill="#00D5FF"/>
</g>
<g style="mix-blend-mode:overlay">
<path d="M171.858 34.4492L170.172 34.4492L170.172 36.0299L171.858 36.0299L171.858 34.4492Z" fill="#00D5FF"/>
</g>
<g style="mix-blend-mode:overlay">
<path d="M147.829 33.3955L143.36 33.3955L143.36 37.0838L147.829 37.0838L147.829 33.3955Z" fill="#00D5FF"/>
</g>
<g style="mix-blend-mode:overlay">
<path d="M165.114 14.5596L158.032 14.5596L158.032 18.5113L165.114 18.5113L165.114 14.5596Z" fill="#00D5FF"/>
</g>
<g style="mix-blend-mode:overlay">
<path d="M152.128 14.5596L139.06 14.5596L139.06 16.1403L152.128 16.1402L152.128 14.5596Z" fill="#00D5FF"/>
</g>
<g style="mix-blend-mode:overlay">
<path d="M94.9654 8.23682L88.3047 8.23682L88.3047 13.1106L94.9654 13.1106L94.9654 8.23682Z" fill="#00D5FF"/>
</g>
<g style="mix-blend-mode:overlay">
<path d="M111.659 29.1807L67.1416 29.1807L67.1416 30.8931L111.659 30.8931L111.659 29.1807Z" fill="#00D5FF"/>
</g>
<g style="mix-blend-mode:overlay">
<path d="M118.15 18.2476L95.8076 18.2476L95.8076 19.4331L118.15 19.4331L118.15 18.2476Z" fill="#00D5FF"/>
</g>
<g style="mix-blend-mode:overlay">
<path d="M99.7713 24.1748L61.4932 24.1748L61.4932 24.57L99.7713 24.57L99.7713 24.1748Z" fill="#00D5FF"/>
</g>
<g style="mix-blend-mode:overlay">
<path d="M82.3172 35.5039L77.8486 35.5039L77.8486 39.1922L82.3172 39.1922L82.3172 35.5039Z" fill="#00D5FF"/>
</g>
<g style="mix-blend-mode:overlay">
<path d="M99.3495 16.667L92.3516 16.667L92.3516 20.6187L99.3495 20.6187L99.3495 16.667Z" fill="#00D5FF"/>
</g>
<g style="mix-blend-mode:overlay">
<path d="M86.5337 16.667L73.6338 16.667L73.6338 18.1159L86.5337 18.1159L86.5337 16.667Z" fill="#00D5FF"/>
</g>
<g style="mix-blend-mode:overlay">
<path d="M118.741 37.2158L126.666 37.2158L126.666 31.42L118.741 31.42L118.741 37.2158Z" fill="#00D5FF"/>
</g>
<g style="mix-blend-mode:overlay">
<path d="M98.8432 12.3193L151.876 12.3193L151.876 10.2118L98.8432 10.2118L98.8432 12.3193Z" fill="#00D5FF"/>
</g>
<g style="mix-blend-mode:overlay">
<path d="M91.1708 25.3604L117.729 25.3604L117.729 24.0431L91.1708 24.0431L91.1708 25.3604Z" fill="#00D5FF"/>
</g>
<g style="mix-blend-mode:overlay">
<path d="M113.008 18.2476L158.621 18.2476L158.621 17.7207L113.008 17.7207L113.008 18.2476Z" fill="#00D5FF"/>
</g>
<g style="mix-blend-mode:overlay">
<path d="M105.42 3.49463L107.443 3.49463L107.443 1.65049L105.42 1.65049L105.42 3.49463Z" fill="#00D5FF"/>
</g>
<g style="mix-blend-mode:overlay">
<path d="M133.833 4.81152L139.145 4.81152L139.145 0.464646L133.833 0.464647L133.833 4.81152Z" fill="#00D5FF"/>
</g>
<g style="mix-blend-mode:overlay">
<path d="M113.428 27.2046L121.775 27.2046L121.775 22.5943L113.428 22.5943L113.428 27.2046Z" fill="#00D5FF"/>
</g>
<g style="mix-blend-mode:overlay">
<path d="M128.774 27.0723L144.119 27.0723L144.119 25.2281L128.774 25.2281L128.774 27.0723Z" fill="#00D5FF"/>
</g>
</svg>
