<svg width="3638" height="3245" viewBox="0 0 3638 3245" fill="none" xmlns="http://www.w3.org/2000/svg">
<g filter="url(#filter0_f_214_3)">
<path fill-rule="evenodd" clip-rule="evenodd" d="M1862.23 2460.47C1644.92 2434.25 1423.07 2495 1222.24 2415.53C999.6 2327.43 787.359 2194.73 682.086 1993.48C573.629 1786.15 584.968 1542.21 647.828 1317.46C710.088 1094.86 823.063 870.136 1031.74 743.364C1230.21 622.786 1483.33 683.196 1719.09 666.656C1951.54 650.349 2201.33 538.475 2400.62 647.33C2600.21 756.352 2604.24 1014.59 2707.33 1206.45C2821.37 1418.71 3028.52 1592.03 3036.04 1829.97C3044.77 2106.66 3012.13 2459.91 2751.32 2600.01C2482.91 2744.18 2167.94 2497.35 1862.23 2460.47Z" fill="#5AC1CD" fill-opacity="0.2"/>
</g>
<defs>
<filter id="filter0_f_214_3" x="0.42334" y="0.272583" width="3636.83" height="3244.52" filterUnits="userSpaceOnUse" color-interpolation-filters="sRGB">
<feFlood flood-opacity="0" result="BackgroundImageFix"/>
<feBlend mode="normal" in="SourceGraphic" in2="BackgroundImageFix" result="shape"/>
<feGaussianBlur stdDeviation="300" result="effect1_foregroundBlur_214_3"/>
</filter>
</defs>
</svg>
