<svg width="480" height="784" viewBox="0 0 480 784" fill="none" xmlns="http://www.w3.org/2000/svg">
<g filter="url(#filter0_f_873_92765)">
<path fill-rule="evenodd" clip-rule="evenodd" d="M252.432 538.345C200.817 530.259 146.198 538.082 99.7159 520.461C48.183 500.925 0.129884 473.349 -20.7246 434.791C-42.2098 395.067 -34.1181 350.419 -14.0752 310.072C5.77657 270.111 37.855 230.522 90.7618 210.37C141.083 191.203 200.544 206.11 257.53 206.618C313.716 207.119 376.17 190.322 421.637 213.32C467.174 236.354 462.46 283.86 482.994 320.66C505.713 361.374 551.651 396.336 548.218 440.165C544.227 491.132 528.614 555.543 462.893 577.358C395.257 599.808 325.041 549.721 252.432 538.345Z" fill="#0C172B" fill-opacity="0.2"/>
</g>
<defs>
<filter id="filter0_f_873_92765" x="-233.452" y="0.616821" width="981.853" height="782.463" filterUnits="userSpaceOnUse" color-interpolation-filters="sRGB">
<feFlood flood-opacity="0" result="BackgroundImageFix"/>
<feBlend mode="normal" in="SourceGraphic" in2="BackgroundImageFix" result="shape"/>
<feGaussianBlur stdDeviation="100" result="effect1_foregroundBlur_873_92765"/>
</filter>
</defs>
</svg>
