<svg width="176" height="177" viewBox="0 0 176 177" fill="none" xmlns="http://www.w3.org/2000/svg">
<path style="mix-blend-mode:screen" d="M175.819 88.4164C175.819 136.791 136.651 176.005 88.3316 176.005C40.0122 176.005 0.84375 136.791 0.84375 88.4164C0.84375 40.0413 40.0122 0.827759 88.3316 0.827759C136.651 0.827759 175.819 40.0413 175.819 88.4164Z" fill="url(#paint0_radial_873_83581)"/>
<path d="M88.8346 129.492H87.5273V130.801H88.8346V129.492Z" fill="#FF0080"/>
<path d="M86.6726 129.492H85.3652V130.801H86.6726V129.492Z" fill="#FF0080"/>
<path d="M89.6897 130.801H90.9971V129.492H89.6897V130.801Z" fill="#FF0080"/>
<path d="M70.2307 98.8868L67.2139 96.0679V120.13L71.1861 124.157V128.234L72.7447 129.795H74.6051L76.3147 128.083V122.949L70.2307 116.858V98.8868Z" fill="#800040"/>
<path d="M93.8628 77.342L93.4605 76.9393H90.494L89.0359 75.4795H87.3767L85.9185 76.9393H82.952L82.5497 77.342V79.6072L82.1475 80.0099V80.7147L87.8292 86.0505V105.582L83.8571 109.559V125.868L85.7677 127.781H90.6952L92.6058 125.868V109.559L88.6839 105.632V86.1009L94.3656 80.765V80.0603L93.9634 79.6576V77.3924L93.8628 77.342ZM90.7454 124.761L89.3376 126.17H87.0247L85.6168 124.761V110.465L88.1812 107.897L90.7454 110.465V124.761ZM92.9578 80.463L88.6337 84.5404H87.7789L83.4548 80.463V80.2113L83.8571 79.8086V77.5434L83.9576 77.4427H86.9242L87.8794 76.4863H88.6337L89.589 77.4427H92.5555L92.6561 77.5434V79.8086L93.0584 80.2113V80.463H92.9578Z" fill="#800040"/>
<path d="M106.131 98.8868V116.858L100.047 122.949V128.083L101.756 129.795H103.566L105.125 128.234V124.157L109.148 120.13V96.0679L106.131 98.8868Z" fill="#800040"/>
<path d="M148.417 45.6289H141.931L138.562 48.9512H136.249L139.568 45.6289H137.607L134.238 48.9512H131.724L135.093 45.6289H133.534L130.165 48.9512H127.199L130.567 45.6289H129.461L126.143 48.9512H122.674L126.042 45.6289H125.439L122.07 48.9512L96.4272 74.5734H91.8014L89.3879 72.1572H86.9744L84.5107 74.5734H79.9352L54.2922 48.9512L50.9235 45.6289H50.3201L53.6889 48.9512H50.2195L46.8508 45.6289H45.7948L49.1636 48.9512H46.1971L42.8283 45.6289H41.2696L44.6384 48.9512H42.1244L38.7556 45.6289H36.7444L40.1131 48.9512H37.8003L34.4315 45.6289H27.9453L25.9844 47.5921V48.9512L27.6436 50.6124H53.5883L78.276 75.2782V78.4998L71.5887 85.1948V96.5209L55.8509 81.9732V68.8852L44.4876 58.2638H43.2808L55.0464 69.2376V81.1677L30.3085 58.2638H29.0515L71.5887 97.6787V115.398L78.8793 122.697V128.586L78.0246 129.492H77.4212L77.019 129.895V130.298L77.5217 130.801H84.0582V129.492H81.695L80.5386 128.335V121.992L73.2479 114.693V85.8492L78.2256 80.916L85.9689 88.2151V101.907L81.5442 106.287V110.314L82.3989 111.119V106.639L86.7734 102.259V87.8627L79.3318 80.8154V79.7583L79.9352 79.2045V75.9326L80.5386 75.3285H84.8627L86.9744 73.2143H89.3879L91.4996 75.3285H95.8238L96.4272 75.9326V79.2045L97.0305 79.7583V80.8154L89.589 87.8627V102.259L93.9634 106.639V111.119L94.8182 110.314V106.287L90.3935 101.907V88.2151L98.1367 80.916L103.064 85.8492V114.693L95.7735 121.992V128.335L94.6171 129.492H92.3042V130.801H98.8406L99.2931 130.298V129.895L98.9412 129.492H98.3378L97.4328 128.586V122.697L104.723 115.398V97.6787L147.261 58.2638H146.054L121.316 81.1677V69.2376L133.082 58.2638H131.825L120.461 68.8852V81.9732L104.723 96.5209V85.1948L98.0864 78.4998V75.2782L122.774 50.6124H148.719L150.378 48.9512V47.5921L148.417 45.6289Z" fill="#FF0080"/>
<path opacity="0.2" d="M46.6991 51.1156L84.0573 85.698V126.975H77.0683V96.1684L28.4473 51.1156H46.7493H46.6991ZM129.863 51.1156L92.4039 85.7987L92.3033 85.698V126.975H99.6442V96.1684L147.964 51.1156H129.863Z" fill="#00D5FF"/>
<g style="mix-blend-mode:screen">
<path d="M129.863 51.1156L92.4039 85.7987L92.3033 85.698V126.975H99.6442V96.1684L147.964 51.1156H129.863V51.1156ZM46.6991 51.1156L84.0573 85.698V126.975H77.0683V96.1684L28.4473 51.1156H46.7493H46.6991Z" stroke="black" stroke-width="18.7061" stroke-linecap="round" stroke-linejoin="round"/>
<path d="M129.863 51.1156L92.4039 85.7987L92.3033 85.698V126.975H99.6442V96.1684L147.964 51.1156H129.863V51.1156ZM46.6991 51.1156L84.0573 85.698V126.975H77.0683V96.1684L28.4473 51.1156H46.7493H46.6991Z" stroke="#000203" stroke-width="16.3764" stroke-linecap="round" stroke-linejoin="round"/>
<path d="M129.863 51.1156L92.4039 85.7987L92.3033 85.698V126.975H99.6442V96.1684L147.964 51.1156H129.863V51.1156ZM46.6991 51.1156L84.0573 85.698V126.975H77.0683V96.1684L28.4473 51.1156H46.7493H46.6991Z" stroke="#000506" stroke-width="14.0353" stroke-linecap="round" stroke-linejoin="round"/>
<path d="M129.863 51.1156L92.4039 85.7987L92.3033 85.698V126.975H99.6442V96.1684L147.964 51.1156H129.863V51.1156ZM46.6991 51.1156L84.0573 85.698V126.975H77.0683V96.1684L28.4473 51.1156H46.7493H46.6991Z" stroke="#000709" stroke-width="11.6942" stroke-linecap="round" stroke-linejoin="round"/>
<path d="M129.863 51.1156L92.4039 85.7987L92.3033 85.698V126.975H99.6442V96.1684L147.964 51.1156H129.863V51.1156ZM46.6991 51.1156L84.0573 85.698V126.975H77.0683V96.1684L28.4473 51.1156H46.7493H46.6991Z" stroke="#00090C" stroke-width="9.35307" stroke-linecap="round" stroke-linejoin="round"/>
<path d="M129.863 51.1156L92.4039 85.7987L92.3033 85.698V126.975H99.6442V96.1684L147.964 51.1156H129.863V51.1156ZM46.6991 51.1156L84.0573 85.698V126.975H77.0683V96.1684L28.4473 51.1156H46.7493H46.6991Z" stroke="#000C0F" stroke-width="7.01196" stroke-linecap="round" stroke-linejoin="round"/>
<path d="M129.863 51.1156L92.4039 85.7987L92.3033 85.698V126.975H99.6442V96.1684L147.964 51.1156H129.863V51.1156ZM46.6991 51.1156L84.0573 85.698V126.975H77.0683V96.1684L28.4473 51.1156H46.7493H46.6991Z" stroke="#000E12" stroke-width="4.68222" stroke-linecap="round" stroke-linejoin="round"/>
<path d="M129.863 51.1156L92.4039 85.7987L92.3033 85.698V126.975H99.6442V96.1684L147.964 51.1156H129.863V51.1156ZM46.6991 51.1156L84.0573 85.698V126.975H77.0683V96.1684L28.4473 51.1156H46.7493H46.6991Z" stroke="#001A20" stroke-width="3.98898" stroke-linecap="round" stroke-linejoin="round"/>
<path d="M129.863 51.1156L92.4039 85.7987L92.3033 85.698V126.975H99.6442V96.1684L147.964 51.1156H129.863V51.1156ZM46.6991 51.1156L84.0573 85.698V126.975H77.0683V96.1684L28.4473 51.1156H46.7493H46.6991Z" stroke="#00252E" stroke-width="3.3071" stroke-linecap="round" stroke-linejoin="round"/>
<path d="M129.863 51.1156L92.4039 85.7987L92.3033 85.698V126.975H99.6442V96.1684L147.964 51.1156H129.863V51.1156ZM46.6991 51.1156L84.0573 85.698V126.975H77.0683V96.1684L28.4473 51.1156H46.7493H46.6991Z" stroke="#00313C" stroke-width="2.62522" stroke-linecap="round" stroke-linejoin="round"/>
<path d="M129.863 51.1156L92.4039 85.7987L92.3033 85.698V126.975H99.6442V96.1684L147.964 51.1156H129.863V51.1156ZM46.6991 51.1156L84.0573 85.698V126.975H77.0683V96.1684L28.4473 51.1156H46.7493H46.6991Z" stroke="#003D4A" stroke-width="1.93198" stroke-linecap="round" stroke-linejoin="round"/>
<path d="M129.863 51.1156L92.4039 85.7987L92.3033 85.698V126.975H99.6442V96.1684L147.964 51.1156H129.863V51.1156ZM46.6991 51.1156L84.0573 85.698V126.975H77.0683V96.1684L28.4473 51.1156H46.7493H46.6991Z" stroke="#004858" stroke-width="1.25011" stroke-linecap="round" stroke-linejoin="round"/>
<path d="M129.863 51.1156L92.4039 85.7987L92.3033 85.698V126.975H99.6442V96.1684L147.964 51.1156H129.863V51.1156ZM46.6991 51.1156L84.0573 85.698V126.975H77.0683V96.1684L28.4473 51.1156H46.7493H46.6991Z" stroke="#005466" stroke-width="0.556866" stroke-linecap="round" stroke-linejoin="round"/>
<path d="M129.863 51.1156L92.4039 85.7987L92.3033 85.698V126.975H99.6442V96.1684L147.964 51.1156H129.863V51.1156ZM46.6991 51.1156L84.0573 85.698V126.975H77.0683V96.1684L28.4473 51.1156H46.7493H46.6991Z" stroke="#007180" stroke-width="0.488678" stroke-linecap="round" stroke-linejoin="round"/>
<path d="M129.863 51.1156L92.4039 85.7987L92.3033 85.698V126.975H99.6442V96.1684L147.964 51.1156H129.863V51.1156ZM46.6991 51.1156L84.0573 85.698V126.975H77.0683V96.1684L28.4473 51.1156H46.7493H46.6991Z" stroke="#008D99" stroke-width="0.409126" stroke-linecap="round" stroke-linejoin="round"/>
<path d="M129.863 51.1156L92.4039 85.7987L92.3033 85.698V126.975H99.6442V96.1684L147.964 51.1156H129.863V51.1156ZM46.6991 51.1156L84.0573 85.698V126.975H77.0683V96.1684L28.4473 51.1156H46.7493H46.6991Z" stroke="#00AAB3" stroke-width="0.329574" stroke-linecap="round" stroke-linejoin="round"/>
<path d="M129.863 51.1156L92.4039 85.7987L92.3033 85.698V126.975H99.6442V96.1684L147.964 51.1156H129.863V51.1156ZM46.6991 51.1156L84.0573 85.698V126.975H77.0683V96.1684L28.4473 51.1156H46.7493H46.6991Z" stroke="#00C6CC" stroke-width="0.250021" stroke-linecap="round" stroke-linejoin="round"/>
<path d="M129.863 51.1156L92.4039 85.7987L92.3033 85.698V126.975H99.6442V96.1684L147.964 51.1156H129.863V51.1156ZM46.6991 51.1156L84.0573 85.698V126.975H77.0683V96.1684L28.4473 51.1156H46.7493H46.6991Z" stroke="#00E2E5" stroke-width="0.170469" stroke-linecap="round" stroke-linejoin="round"/>
<path d="M129.863 51.1156L92.4039 85.7987L92.3033 85.698V126.975H99.6442V96.1684L147.964 51.1156H129.863V51.1156ZM46.6991 51.1156L84.0573 85.698V126.975H77.0683V96.1684L28.4473 51.1156H46.7493H46.6991Z" stroke="#00FFFF" stroke-width="0.0909169" stroke-linecap="round" stroke-linejoin="round"/>
</g>
<path d="M129.863 51.1156L92.4039 85.7987L92.3033 85.698V126.975H99.6442V96.1684L147.964 51.1156H129.863V51.1156ZM46.6991 51.1156L84.0573 85.698V126.975H77.0683V96.1684L28.4473 51.1156H46.7493H46.6991Z" stroke="white" stroke-width="0.0909169" stroke-linecap="round" stroke-linejoin="round"/>
<g style="mix-blend-mode:overlay">
<path d="M134.489 54.7903H129.863V57.0052H134.489V54.7903Z" fill="#00D5FF"/>
</g>
<g style="mix-blend-mode:overlay">
<path d="M146.205 64.2035H114.98V64.9586H146.205V64.2035Z" fill="#00D5FF"/>
</g>
<g style="mix-blend-mode:overlay">
<path d="M150.73 59.2706H135.093V59.774H150.73V59.2706Z" fill="#00D5FF"/>
</g>
<g style="mix-blend-mode:overlay">
<path d="M137.858 61.9384H111.059V62.1397H137.858V61.9384Z" fill="#00D5FF"/>
</g>
<g style="mix-blend-mode:overlay">
<path d="M142.333 67.4756H141.126V68.1803H142.333V67.4756Z" fill="#00D5FF"/>
</g>
<g style="mix-blend-mode:overlay">
<path d="M125.64 66.9723H122.522V68.6335H125.64V66.9723Z" fill="#00D5FF"/>
</g>
<g style="mix-blend-mode:overlay">
<path d="M137.607 58.5659H132.729V60.3278H137.607V58.5659Z" fill="#00D5FF"/>
</g>
<g style="mix-blend-mode:overlay">
<path d="M128.606 58.5659H119.556V59.2203H128.606V58.5659Z" fill="#00D5FF"/>
</g>
<g style="mix-blend-mode:overlay">
<path d="M97.0803 84.9933H92.3037V87.2585H97.0803V84.9933Z" fill="#00D5FF"/>
</g>
<g style="mix-blend-mode:overlay">
<path d="M109.148 94.6582H77.0186V95.4636H109.148V94.6582Z" fill="#00D5FF"/>
</g>
<g style="mix-blend-mode:overlay">
<path d="M113.773 89.5741H97.6836V90.1278H113.773V89.5741Z" fill="#00D5FF"/>
</g>
<g style="mix-blend-mode:overlay">
<path d="M100.55 92.3429H72.9463V92.5443H100.55V92.3429Z" fill="#00D5FF"/>
</g>
<g style="mix-blend-mode:overlay">
<path d="M105.075 98.031H103.868V98.7357H105.075V98.031Z" fill="#00D5FF"/>
</g>
<g style="mix-blend-mode:overlay">
<path d="M87.9797 97.5277H84.7617V99.2392H87.9797V97.5277Z" fill="#00D5FF"/>
</g>
<g style="mix-blend-mode:overlay">
<path d="M100.248 88.8694H95.2197V90.6816H100.248V88.8694Z" fill="#00D5FF"/>
</g>
<g style="mix-blend-mode:overlay">
<path d="M90.9962 88.8694H81.6943V89.5741H90.9962V88.8694Z" fill="#00D5FF"/>
</g>
<g style="mix-blend-mode:overlay">
<path d="M53.2862 60.9819H49.4648V62.7941H53.2862V60.9819Z" fill="#00D5FF"/>
</g>
<g style="mix-blend-mode:overlay">
<path d="M62.9403 68.7341H37.2471V69.3885H62.9403V68.7341Z" fill="#00D5FF"/>
</g>
<g style="mix-blend-mode:overlay">
<path d="M66.6609 64.6566H53.7891V65.0593H66.6609V64.6566Z" fill="#00D5FF"/>
</g>
<g style="mix-blend-mode:overlay">
<path d="M56.0516 66.8716H33.9785V67.0226H56.0516V66.8716Z" fill="#00D5FF"/>
</g>
<g style="mix-blend-mode:overlay">
<path d="M59.6721 71.4524H58.7168V72.0061H59.6721V71.4524Z" fill="#00D5FF"/>
</g>
<g style="mix-blend-mode:overlay">
<path d="M45.996 71.0498H43.4316V72.4089H45.996V71.0498Z" fill="#00D5FF"/>
</g>
<g style="mix-blend-mode:overlay">
<path d="M55.8506 64.103H51.8281V65.5628H55.8506V64.103Z" fill="#00D5FF"/>
</g>
<g style="mix-blend-mode:overlay">
<path d="M48.459 64.103H41.0176V64.6567H48.459V64.103Z" fill="#00D5FF"/>
</g>
<g style="mix-blend-mode:overlay">
<path d="M40.214 60.6801H44.5381V58.6162H40.214V60.6801Z" fill="#00D5FF"/>
</g>
<g style="mix-blend-mode:overlay">
<path d="M29.3022 51.9716L58.3643 51.9716V51.2668H29.3022V51.9716Z" fill="#00D5FF"/>
</g>
<g style="mix-blend-mode:overlay">
<path d="M25.0789 56.5521H39.6602V56.0487H25.0789V56.5521Z" fill="#00D5FF"/>
</g>
<g style="mix-blend-mode:overlay">
<path d="M37.0463 54.0856H61.9854V53.8842H37.0463V54.0856Z" fill="#00D5FF"/>
</g>
<g style="mix-blend-mode:overlay">
<path d="M32.9729 48.9006H34.0791V48.2462H32.9729V48.9006Z" fill="#00D5FF"/>
</g>
<g style="mix-blend-mode:overlay">
<path d="M48.4089 49.3538H51.3252V47.7933H48.4089V49.3538Z" fill="#00D5FF"/>
</g>
<g style="mix-blend-mode:overlay">
<path d="M37.2976 57.1564H41.873V55.5455H37.2976V57.1564Z" fill="#00D5FF"/>
</g>
<g style="mix-blend-mode:overlay">
<path d="M45.6939 57.1564H54.0908V56.502H45.6939V57.1564Z" fill="#00D5FF"/>
</g>
<g style="mix-blend-mode:overlay">
<path d="M44.3361 69.3381H49.1631V67.0729H44.3361V69.3381Z" fill="#00D5FF"/>
</g>
<g style="mix-blend-mode:overlay">
<path d="M32.1688 59.5725L64.5996 59.5725V58.7671L32.1688 58.7671V59.5725Z" fill="#00D5FF"/>
</g>
<g style="mix-blend-mode:overlay">
<path d="M27.5427 64.6566H43.7832V64.1029H27.5427V64.6566Z" fill="#00D5FF"/>
</g>
<g style="mix-blend-mode:overlay">
<path d="M40.8674 61.8882H68.7227V61.6868H40.8674V61.8882Z" fill="#00D5FF"/>
</g>
<g style="mix-blend-mode:overlay">
<path d="M36.2913 56.1495H37.498V55.4448H36.2913V56.1495Z" fill="#00D5FF"/>
</g>
<g style="mix-blend-mode:overlay">
<path d="M53.5375 56.6528H56.8057V54.9413H53.5375V56.6528Z" fill="#00D5FF"/>
</g>
<g style="mix-blend-mode:overlay">
<path d="M41.1688 65.4119H46.2471V63.5997H41.1688V65.4119Z" fill="#00D5FF"/>
</g>
<g style="mix-blend-mode:overlay">
<path d="M50.5205 65.4119H59.9229V64.7071H50.5205V65.4119Z" fill="#00D5FF"/>
</g>
<g style="mix-blend-mode:overlay">
<path d="M61.3313 85.4966H66.1582V83.2314H61.3313V85.4966Z" fill="#00D5FF"/>
</g>
<g style="mix-blend-mode:overlay">
<path d="M49.1635 75.731H81.6445V74.9255H49.1635V75.731Z" fill="#00D5FF"/>
</g>
<g style="mix-blend-mode:overlay">
<path d="M44.4367 80.8154H60.7275V80.2617H44.4367V80.8154Z" fill="#00D5FF"/>
</g>
<g style="mix-blend-mode:overlay">
<path d="M57.862 78.0466H85.7676V77.8453H57.862V78.0466Z" fill="#00D5FF"/>
</g>
<g style="mix-blend-mode:overlay">
<path d="M53.2356 72.308H54.4424V71.6033H53.2356V72.308Z" fill="#00D5FF"/>
</g>
<g style="mix-blend-mode:overlay">
<path d="M70.5325 72.8116H73.8008V71.1001H70.5325V72.8116Z" fill="#00D5FF"/>
</g>
<g style="mix-blend-mode:overlay">
<path d="M58.113 81.5703H63.1914V79.7581H58.113V81.5703Z" fill="#00D5FF"/>
</g>
<g style="mix-blend-mode:overlay">
<path d="M67.4657 81.5201H76.8682V80.8154H67.4657V81.5201Z" fill="#00D5FF"/>
</g>
<g style="mix-blend-mode:overlay">
<path d="M68.3204 94.2556H72.6445V92.1917H68.3204V94.2556Z" fill="#00D5FF"/>
</g>
<g style="mix-blend-mode:overlay">
<path d="M57.4091 85.5471H86.5215V84.8424H57.4091V85.5471Z" fill="#00D5FF"/>
</g>
<g style="mix-blend-mode:overlay">
<path d="M53.2361 90.1279H67.8174V89.6246H53.2361V90.1279Z" fill="#00D5FF"/>
</g>
<g style="mix-blend-mode:overlay">
<path d="M65.2026 87.6108H90.2422V87.4598H65.2026V87.6108Z" fill="#00D5FF"/>
</g>
<g style="mix-blend-mode:overlay">
<path d="M61.0296 82.4766H62.1357V81.8222H61.0296V82.4766Z" fill="#00D5FF"/>
</g>
<g style="mix-blend-mode:overlay">
<path d="M76.616 82.9296H79.5322V81.3691H76.616V82.9296Z" fill="#00D5FF"/>
</g>
<g style="mix-blend-mode:overlay">
<path d="M65.4538 90.7319H70.0293V89.1211H65.4538V90.7319Z" fill="#00D5FF"/>
</g>
<g style="mix-blend-mode:overlay">
<path d="M73.8508 90.7319H82.2979V90.0775H73.8508V90.7319Z" fill="#00D5FF"/>
</g>
<g style="mix-blend-mode:overlay">
<path d="M103.969 89.5741H108.796V87.3089H103.969V89.5741Z" fill="#00D5FF"/>
</g>
<g style="mix-blend-mode:overlay">
<path d="M91.851 79.9092H124.231V79.1038H91.851V79.9092Z" fill="#00D5FF"/>
</g>
<g style="mix-blend-mode:overlay">
<path d="M87.1247 84.9933H103.365V84.4396H87.1247V84.9933Z" fill="#00D5FF"/>
</g>
<g style="mix-blend-mode:overlay">
<path d="M100.5 82.2249H128.305V82.0235H100.5V82.2249Z" fill="#00D5FF"/>
</g>
<g style="mix-blend-mode:overlay">
<path d="M95.9242 76.4358H97.1309V75.7311H95.9242V76.4358Z" fill="#00D5FF"/>
</g>
<g style="mix-blend-mode:overlay">
<path d="M113.12 76.9393H116.388V75.2278H113.12V76.9393Z" fill="#00D5FF"/>
</g>
<g style="mix-blend-mode:overlay">
<path d="M100.802 85.6478H105.88V83.8356H100.802V85.6478Z" fill="#00D5FF"/>
</g>
<g style="mix-blend-mode:overlay">
<path d="M110.053 85.6478H119.455V84.9431H110.053V85.6478Z" fill="#00D5FF"/>
</g>
<g style="mix-blend-mode:overlay">
<path d="M117.243 81.7717H122.07V79.4562H117.243V81.7717Z" fill="#00D5FF"/>
</g>
<g style="mix-blend-mode:overlay">
<path d="M104.975 71.9557H137.557V71.1503H104.975V71.9557Z" fill="#00D5FF"/>
</g>
<g style="mix-blend-mode:overlay">
<path d="M100.248 77.0902H116.589V76.5365H100.248V77.0902Z" fill="#00D5FF"/>
</g>
<g style="mix-blend-mode:overlay">
<path d="M113.724 74.3215H141.68V74.1202H113.724V74.3215Z" fill="#00D5FF"/>
</g>
<g style="mix-blend-mode:overlay">
<path d="M109.048 68.5831H110.305V67.8784H109.048V68.5831Z" fill="#00D5FF"/>
</g>
<g style="mix-blend-mode:overlay">
<path d="M126.445 69.0864H129.713V67.3749H126.445V69.0864Z" fill="#00D5FF"/>
</g>
<g style="mix-blend-mode:overlay">
<path d="M113.975 77.8452H119.104V76.033H113.975V77.8452Z" fill="#00D5FF"/>
</g>
<g style="mix-blend-mode:overlay">
<path d="M123.327 77.795H132.779V77.0903H123.327V77.795Z" fill="#00D5FF"/>
</g>
<g style="mix-blend-mode:overlay">
<path d="M131.271 65.3112H136.148V62.9956H131.271V65.3112Z" fill="#00D5FF"/>
</g>
<g style="mix-blend-mode:overlay">
<path d="M118.902 55.3441L151.836 55.3441V54.5387L118.902 54.5387V55.3441Z" fill="#00D5FF"/>
</g>
<g style="mix-blend-mode:overlay">
<path d="M114.125 60.5793H130.617V60.0256H114.125V60.5793Z" fill="#00D5FF"/>
</g>
<g style="mix-blend-mode:overlay">
<path d="M127.651 57.7604H155.959V57.559H127.651V57.7604Z" fill="#00D5FF"/>
</g>
<g style="mix-blend-mode:overlay">
<path d="M122.975 51.9211H124.232V51.2164H122.975V51.9211Z" fill="#00D5FF"/>
</g>
<g style="mix-blend-mode:overlay">
<path d="M140.573 52.4244H143.892V50.6626H140.573V52.4244Z" fill="#00D5FF"/>
</g>
<g style="mix-blend-mode:overlay">
<path d="M127.953 61.3344H133.132V59.4718H127.953V61.3344Z" fill="#00D5FF"/>
</g>
<g style="mix-blend-mode:overlay">
<path d="M137.455 61.2842H147.009V60.5794H137.455V61.2842Z" fill="#00D5FF"/>
</g>
<g style="mix-blend-mode:overlay">
<path d="M91.7004 108.401H96.3262V106.186H91.7004V108.401Z" fill="#00D5FF"/>
</g>
<g style="mix-blend-mode:overlay">
<path d="M80.0859 99.0378H111.159V98.2828H80.0859V99.0378Z" fill="#00D5FF"/>
</g>
<g style="mix-blend-mode:overlay">
<path d="M75.5107 103.971H91.0977V103.467H75.5107V103.971Z" fill="#00D5FF"/>
</g>
<g style="mix-blend-mode:overlay">
<path d="M88.3314 101.303H115.03V101.102H88.3314V101.303Z" fill="#00D5FF"/>
</g>
<g style="mix-blend-mode:overlay">
<path d="M83.9578 95.7659H85.1143V95.1115H83.9578V95.7659Z" fill="#00D5FF"/>
</g>
<g style="mix-blend-mode:overlay">
<path d="M100.5 96.2692H103.617V94.608H100.5V96.2692Z" fill="#00D5FF"/>
</g>
<g style="mix-blend-mode:overlay">
<path d="M88.6335 104.625H93.5107V102.863H88.6335V104.625Z" fill="#00D5FF"/>
</g>
<g style="mix-blend-mode:overlay">
<path d="M97.5829 104.625H106.583V103.971H97.5829V104.625Z" fill="#00D5FF"/>
</g>
<g style="mix-blend-mode:overlay">
<path d="M80.4382 114.894H85.2148V112.629H80.4382V114.894Z" fill="#00D5FF"/>
</g>
<g style="mix-blend-mode:overlay">
<path d="M68.3206 105.129H100.601V104.323H68.3206V105.129Z" fill="#00D5FF"/>
</g>
<g style="mix-blend-mode:overlay">
<path d="M63.5939 110.263H79.7842V109.709H63.5939V110.263Z" fill="#00D5FF"/>
</g>
<g style="mix-blend-mode:overlay">
<path d="M76.9186 107.495H104.623V107.293H76.9186V107.495Z" fill="#00D5FF"/>
</g>
<g style="mix-blend-mode:overlay">
<path d="M72.343 101.806H73.5498V101.102H72.343V101.806Z" fill="#00D5FF"/>
</g>
<g style="mix-blend-mode:overlay">
<path d="M89.5887 102.31H92.8066V100.598H89.5887V102.31Z" fill="#00D5FF"/>
</g>
<g style="mix-blend-mode:overlay">
<path d="M77.1698 110.917H82.248V109.105H77.1698V110.917Z" fill="#00D5FF"/>
</g>
<g style="mix-blend-mode:overlay">
<path d="M86.5219 110.917H95.874V110.213H86.5219V110.917Z" fill="#00D5FF"/>
</g>
<g style="mix-blend-mode:overlay">
<path d="M89.9915 130.096H94.7178V127.881H89.9915V130.096Z" fill="#00D5FF"/>
</g>
<g style="mix-blend-mode:overlay">
<path d="M78.0749 120.583H109.802V119.777H78.0749V120.583Z" fill="#00D5FF"/>
</g>
<g style="mix-blend-mode:overlay">
<path d="M73.4991 125.516H89.3877V125.012H73.4991V125.516Z" fill="#00D5FF"/>
</g>
<g style="mix-blend-mode:overlay">
<path d="M86.5215 122.848H113.773V122.646H86.5215V122.848Z" fill="#00D5FF"/>
</g>
<g style="mix-blend-mode:overlay">
<path d="M82.0472 117.21H83.2539V116.505H82.0472V117.21Z" fill="#00D5FF"/>
</g>
<g style="mix-blend-mode:overlay">
<path d="M98.9915 117.713H102.159V116.052H98.9915V117.713Z" fill="#00D5FF"/>
</g>
<g style="mix-blend-mode:overlay">
<path d="M86.8738 126.221H91.8516V124.459H86.8738V126.221Z" fill="#00D5FF"/>
</g>
<g style="mix-blend-mode:overlay">
<path d="M95.9745 126.271H105.176V125.566H95.9745V126.271Z" fill="#00D5FF"/>
</g>
<g style="mix-blend-mode:overlay">
<path d="M81.8961 122.697H86.3711V120.583H81.8961V122.697Z" fill="#00D5FF"/>
</g>
<g style="mix-blend-mode:overlay">
<path d="M70.5324 113.585H100.751V112.83H70.5324V113.585Z" fill="#00D5FF"/>
</g>
<g style="mix-blend-mode:overlay">
<path d="M66.2084 118.368H81.3428V117.864H66.2084V118.368Z" fill="#00D5FF"/>
</g>
<g style="mix-blend-mode:overlay">
<path d="M78.6276 115.8H104.572V115.599H78.6276V115.8Z" fill="#00D5FF"/>
</g>
<g style="mix-blend-mode:overlay">
<path d="M74.3035 110.465H75.46V109.81H74.3035V110.465Z" fill="#00D5FF"/>
</g>
<g style="mix-blend-mode:overlay">
<path d="M90.4432 110.917H93.46V109.307H90.4432V110.917Z" fill="#00D5FF"/>
</g>
<g style="mix-blend-mode:overlay">
<path d="M78.9289 119.022H83.6553V117.31H78.9289V119.022Z" fill="#00D5FF"/>
</g>
<g style="mix-blend-mode:overlay">
<path d="M87.5774 119.022H96.3262V118.368H87.5774V119.022Z" fill="#00D5FF"/>
</g>
<defs>
<radialGradient id="paint0_radial_873_83581" cx="0" cy="0" r="1" gradientUnits="userSpaceOnUse" gradientTransform="translate(88.3818 88.4164) scale(87.4878 87.5886)">
<stop stop-color="#80003F"/>
<stop offset="0.22" stop-color="#56002A"/>
<stop offset="0.45" stop-color="#310018"/>
<stop offset="0.66" stop-color="#16000A"/>
<stop offset="0.85" stop-color="#050002"/>
<stop offset="1"/>
</radialGradient>
</defs>
</svg>
