<svg width="176" height="176" viewBox="0 0 176 176" fill="none" xmlns="http://www.w3.org/2000/svg">
<path style="mix-blend-mode:screen" d="M175.264 87.6131C175.264 135.988 136.096 175.202 87.7764 175.202C39.457 175.202 0.338867 135.938 0.338867 87.6131C0.338867 39.2883 39.5073 0.0244141 87.8267 0.0244141C136.146 0.0244141 175.314 39.238 175.314 87.6131H175.264Z" fill="url(#paint0_radial_873_83879)"/>
<path d="M111.56 70.8505H65.2012V103.872H111.56L112.666 102.765V71.9579L111.56 70.8505ZM111.007 102.06L110.856 102.211H66.8604V72.5116H110.856L111.007 72.6626V102.06Z" fill="#800040"/>
<path d="M73.1954 127.833L73.0948 127.984H57.156V110.014L61.9326 105.282V69.6927L57.156 64.9609V46.9901H73.296L81.7933 55.5476H111.107V55.0946H81.9442L73.849 46.9901H83.8046V46.5874H73.4468L73.3462 46.4868L73.296 46.5874H64.4969V45.6813L63.793 44.9263H49.7145L49.0106 45.6813V46.3861H34.6807V60.9842H35.4851V53.3831L45.0384 62.9474V74.6762H45.8429V62.595L35.4851 52.2253V47.1915H56.3515V65.2629L60.0722 69.0383V105.936L56.3515 109.712V127.783H35.4851V122.749L45.8429 112.38V100.298H45.0384V112.027L35.4851 121.591V113.99H34.6807V128.589H49.0106V129.293L49.7145 130.048H63.793L64.4969 129.293V128.387H83.8046V127.984H73.6479L81.9442 119.679H111.107V119.226H81.7933L73.1954 127.833Z" fill="#FF0080"/>
<path d="M140.37 67.7296V68.535H141.175V67.6289L140.37 67.7296Z" fill="#FF0080"/>
<path d="M141.175 91.741H140.37V92.6974H141.175V91.741Z" fill="#FF0080"/>
<path d="M141.175 96.5734H140.37V97.5298H141.175V96.5734Z" fill="#FF0080"/>
<path d="M141.175 101.406H140.37V102.362H141.175V101.406Z" fill="#FF0080"/>
<path d="M141.175 77.2437H140.37V78.2001H141.175V77.2437Z" fill="#FF0080"/>
<path d="M141.175 72.4111H140.37V73.3676H141.175V72.4111Z" fill="#FF0080"/>
<path d="M141.175 86.9086H140.37V87.865H141.175V86.9086Z" fill="#FF0080"/>
<path d="M141.175 82.076H140.37V83.0325H141.175V82.076Z" fill="#FF0080"/>
<path d="M140.37 107.144H141.175V106.238L140.37 106.289V107.144Z" fill="#FF0080"/>
<path d="M63.3404 106.691L61.7314 108.302H108.04L106.431 106.691H63.3404Z" fill="#FF0080"/>
<path d="M61.7314 65.4139L63.3404 67.0248H106.431L108.04 65.4139H61.7314Z" fill="#FF0080"/>
<path d="M110.805 65.4139L109.196 67.0248H114.174L115.481 68.3336V86.8581V105.383L114.174 106.691H109.196L110.805 108.302H114.928L116.939 106.339V86.8581V67.4275L114.928 65.4139H110.805Z" fill="#FF0080"/>
<path opacity="0.2" d="M135.542 71.958V103.721C135.542 107.295 135.09 110.467 134.185 113.135C133.28 115.803 131.771 118.068 129.609 119.88C127.447 121.692 124.581 123.051 121.011 123.957C117.442 124.914 112.916 125.367 107.536 125.367H60.7756V114.141H107.587C110.251 114.141 112.464 113.94 114.224 113.588C115.983 113.235 117.391 112.631 118.447 111.876C119.503 111.071 120.207 110.014 120.659 108.655C121.112 107.295 121.313 105.584 121.313 103.57V71.9076C121.313 69.7431 121.112 67.9812 120.659 66.5214C120.207 65.0616 119.503 63.9542 118.447 63.0984C117.391 62.2427 115.983 61.6386 114.224 61.2862C112.464 60.9339 110.251 60.7325 107.587 60.7325H60.7756V49.5071H107.587C112.967 49.5071 117.442 49.9601 121.062 50.9166C124.632 51.873 127.498 53.2321 129.66 55.0946C131.822 56.9571 133.33 59.2727 134.235 62.0917C135.14 64.9106 135.593 68.1826 135.593 71.9076L135.542 71.958ZM52.4793 114.192V49.5574H38.1494V125.417H52.4793V114.192Z" fill="#00D5FF"/>
<g style="mix-blend-mode:screen">
<path d="M135.542 71.958V103.721C135.542 107.295 135.09 110.467 134.185 113.135C133.28 115.803 131.771 118.068 129.609 119.88C127.447 121.692 124.581 123.051 121.011 123.957C117.442 124.914 112.916 125.367 107.536 125.367H60.7756V114.141H107.587C110.251 114.141 112.464 113.94 114.224 113.588C115.983 113.235 117.391 112.631 118.447 111.876C119.503 111.071 120.207 110.014 120.659 108.655C121.112 107.295 121.313 105.584 121.313 103.57V71.9076C121.313 69.7431 121.112 67.9812 120.659 66.5214C120.207 65.0616 119.503 63.9542 118.447 63.0984C117.391 62.2427 115.983 61.6386 114.224 61.2862C112.464 60.9339 110.251 60.7325 107.587 60.7325H60.7756V49.5071H107.587C112.967 49.5071 117.442 49.9601 121.062 50.9166C124.632 51.873 127.498 53.2321 129.66 55.0946C131.822 56.9571 133.33 59.2727 134.235 62.0917C135.14 64.9106 135.593 68.1826 135.593 71.9076L135.542 71.958ZM52.4793 114.192V49.5574H38.1494V125.417H52.4793V114.192Z" stroke="black" stroke-width="18.7061" stroke-linecap="round" stroke-linejoin="round"/>
<path d="M135.542 71.958V103.721C135.542 107.295 135.09 110.467 134.185 113.135C133.28 115.803 131.771 118.068 129.609 119.88C127.447 121.692 124.581 123.051 121.011 123.957C117.442 124.914 112.916 125.367 107.536 125.367H60.7756V114.141H107.587C110.251 114.141 112.464 113.94 114.224 113.588C115.983 113.235 117.391 112.631 118.447 111.876C119.503 111.071 120.207 110.014 120.659 108.655C121.112 107.295 121.313 105.584 121.313 103.57V71.9076C121.313 69.7431 121.112 67.9812 120.659 66.5214C120.207 65.0616 119.503 63.9542 118.447 63.0984C117.391 62.2427 115.983 61.6386 114.224 61.2862C112.464 60.9339 110.251 60.7325 107.587 60.7325H60.7756V49.5071H107.587C112.967 49.5071 117.442 49.9601 121.062 50.9166C124.632 51.873 127.498 53.2321 129.66 55.0946C131.822 56.9571 133.33 59.2727 134.235 62.0917C135.14 64.9106 135.593 68.1826 135.593 71.9076L135.542 71.958ZM52.4793 114.192V49.5574H38.1494V125.417H52.4793V114.192Z" stroke="#000203" stroke-width="16.3764" stroke-linecap="round" stroke-linejoin="round"/>
<path d="M135.542 71.958V103.721C135.542 107.295 135.09 110.467 134.185 113.135C133.28 115.803 131.771 118.068 129.609 119.88C127.447 121.692 124.581 123.051 121.011 123.957C117.442 124.914 112.916 125.367 107.536 125.367H60.7756V114.141H107.587C110.251 114.141 112.464 113.94 114.224 113.588C115.983 113.235 117.391 112.631 118.447 111.876C119.503 111.071 120.207 110.014 120.659 108.655C121.112 107.295 121.313 105.584 121.313 103.57V71.9076C121.313 69.7431 121.112 67.9812 120.659 66.5214C120.207 65.0616 119.503 63.9542 118.447 63.0984C117.391 62.2427 115.983 61.6386 114.224 61.2862C112.464 60.9339 110.251 60.7325 107.587 60.7325H60.7756V49.5071H107.587C112.967 49.5071 117.442 49.9601 121.062 50.9166C124.632 51.873 127.498 53.2321 129.66 55.0946C131.822 56.9571 133.33 59.2727 134.235 62.0917C135.14 64.9106 135.593 68.1826 135.593 71.9076L135.542 71.958ZM52.4793 114.192V49.5574H38.1494V125.417H52.4793V114.192Z" stroke="#000506" stroke-width="14.0353" stroke-linecap="round" stroke-linejoin="round"/>
<path d="M135.542 71.958V103.721C135.542 107.295 135.09 110.467 134.185 113.135C133.28 115.803 131.771 118.068 129.609 119.88C127.447 121.692 124.581 123.051 121.011 123.957C117.442 124.914 112.916 125.367 107.536 125.367H60.7756V114.141H107.587C110.251 114.141 112.464 113.94 114.224 113.588C115.983 113.235 117.391 112.631 118.447 111.876C119.503 111.071 120.207 110.014 120.659 108.655C121.112 107.295 121.313 105.584 121.313 103.57V71.9076C121.313 69.7431 121.112 67.9812 120.659 66.5214C120.207 65.0616 119.503 63.9542 118.447 63.0984C117.391 62.2427 115.983 61.6386 114.224 61.2862C112.464 60.9339 110.251 60.7325 107.587 60.7325H60.7756V49.5071H107.587C112.967 49.5071 117.442 49.9601 121.062 50.9166C124.632 51.873 127.498 53.2321 129.66 55.0946C131.822 56.9571 133.33 59.2727 134.235 62.0917C135.14 64.9106 135.593 68.1826 135.593 71.9076L135.542 71.958ZM52.4793 114.192V49.5574H38.1494V125.417H52.4793V114.192Z" stroke="#000709" stroke-width="11.6942" stroke-linecap="round" stroke-linejoin="round"/>
<path d="M135.542 71.958V103.721C135.542 107.295 135.09 110.467 134.185 113.135C133.28 115.803 131.771 118.068 129.609 119.88C127.447 121.692 124.581 123.051 121.011 123.957C117.442 124.914 112.916 125.367 107.536 125.367H60.7756V114.141H107.587C110.251 114.141 112.464 113.94 114.224 113.588C115.983 113.235 117.391 112.631 118.447 111.876C119.503 111.071 120.207 110.014 120.659 108.655C121.112 107.295 121.313 105.584 121.313 103.57V71.9076C121.313 69.7431 121.112 67.9812 120.659 66.5214C120.207 65.0616 119.503 63.9542 118.447 63.0984C117.391 62.2427 115.983 61.6386 114.224 61.2862C112.464 60.9339 110.251 60.7325 107.587 60.7325H60.7756V49.5071H107.587C112.967 49.5071 117.442 49.9601 121.062 50.9166C124.632 51.873 127.498 53.2321 129.66 55.0946C131.822 56.9571 133.33 59.2727 134.235 62.0917C135.14 64.9106 135.593 68.1826 135.593 71.9076L135.542 71.958ZM52.4793 114.192V49.5574H38.1494V125.417H52.4793V114.192Z" stroke="#00090C" stroke-width="9.35307" stroke-linecap="round" stroke-linejoin="round"/>
<path d="M135.542 71.958V103.721C135.542 107.295 135.09 110.467 134.185 113.135C133.28 115.803 131.771 118.068 129.609 119.88C127.447 121.692 124.581 123.051 121.011 123.957C117.442 124.914 112.916 125.367 107.536 125.367H60.7756V114.141H107.587C110.251 114.141 112.464 113.94 114.224 113.588C115.983 113.235 117.391 112.631 118.447 111.876C119.503 111.071 120.207 110.014 120.659 108.655C121.112 107.295 121.313 105.584 121.313 103.57V71.9076C121.313 69.7431 121.112 67.9812 120.659 66.5214C120.207 65.0616 119.503 63.9542 118.447 63.0984C117.391 62.2427 115.983 61.6386 114.224 61.2862C112.464 60.9339 110.251 60.7325 107.587 60.7325H60.7756V49.5071H107.587C112.967 49.5071 117.442 49.9601 121.062 50.9166C124.632 51.873 127.498 53.2321 129.66 55.0946C131.822 56.9571 133.33 59.2727 134.235 62.0917C135.14 64.9106 135.593 68.1826 135.593 71.9076L135.542 71.958ZM52.4793 114.192V49.5574H38.1494V125.417H52.4793V114.192Z" stroke="#000C0F" stroke-width="7.01196" stroke-linecap="round" stroke-linejoin="round"/>
<path d="M135.542 71.958V103.721C135.542 107.295 135.09 110.467 134.185 113.135C133.28 115.803 131.771 118.068 129.609 119.88C127.447 121.692 124.581 123.051 121.011 123.957C117.442 124.914 112.916 125.367 107.536 125.367H60.7756V114.141H107.587C110.251 114.141 112.464 113.94 114.224 113.588C115.983 113.235 117.391 112.631 118.447 111.876C119.503 111.071 120.207 110.014 120.659 108.655C121.112 107.295 121.313 105.584 121.313 103.57V71.9076C121.313 69.7431 121.112 67.9812 120.659 66.5214C120.207 65.0616 119.503 63.9542 118.447 63.0984C117.391 62.2427 115.983 61.6386 114.224 61.2862C112.464 60.9339 110.251 60.7325 107.587 60.7325H60.7756V49.5071H107.587C112.967 49.5071 117.442 49.9601 121.062 50.9166C124.632 51.873 127.498 53.2321 129.66 55.0946C131.822 56.9571 133.33 59.2727 134.235 62.0917C135.14 64.9106 135.593 68.1826 135.593 71.9076L135.542 71.958ZM52.4793 114.192V49.5574H38.1494V125.417H52.4793V114.192Z" stroke="#000E12" stroke-width="4.68222" stroke-linecap="round" stroke-linejoin="round"/>
<path d="M135.542 71.958V103.721C135.542 107.295 135.09 110.467 134.185 113.135C133.28 115.803 131.771 118.068 129.609 119.88C127.447 121.692 124.581 123.051 121.011 123.957C117.442 124.914 112.916 125.367 107.536 125.367H60.7756V114.141H107.587C110.251 114.141 112.464 113.94 114.224 113.588C115.983 113.235 117.391 112.631 118.447 111.876C119.503 111.071 120.207 110.014 120.659 108.655C121.112 107.295 121.313 105.584 121.313 103.57V71.9076C121.313 69.7431 121.112 67.9812 120.659 66.5214C120.207 65.0616 119.503 63.9542 118.447 63.0984C117.391 62.2427 115.983 61.6386 114.224 61.2862C112.464 60.9339 110.251 60.7325 107.587 60.7325H60.7756V49.5071H107.587C112.967 49.5071 117.442 49.9601 121.062 50.9166C124.632 51.873 127.498 53.2321 129.66 55.0946C131.822 56.9571 133.33 59.2727 134.235 62.0917C135.14 64.9106 135.593 68.1826 135.593 71.9076L135.542 71.958ZM52.4793 114.192V49.5574H38.1494V125.417H52.4793V114.192Z" stroke="#001A20" stroke-width="3.98898" stroke-linecap="round" stroke-linejoin="round"/>
<path d="M135.542 71.958V103.721C135.542 107.295 135.09 110.467 134.185 113.135C133.28 115.803 131.771 118.068 129.609 119.88C127.447 121.692 124.581 123.051 121.011 123.957C117.442 124.914 112.916 125.367 107.536 125.367H60.7756V114.141H107.587C110.251 114.141 112.464 113.94 114.224 113.588C115.983 113.235 117.391 112.631 118.447 111.876C119.503 111.071 120.207 110.014 120.659 108.655C121.112 107.295 121.313 105.584 121.313 103.57V71.9076C121.313 69.7431 121.112 67.9812 120.659 66.5214C120.207 65.0616 119.503 63.9542 118.447 63.0984C117.391 62.2427 115.983 61.6386 114.224 61.2862C112.464 60.9339 110.251 60.7325 107.587 60.7325H60.7756V49.5071H107.587C112.967 49.5071 117.442 49.9601 121.062 50.9166C124.632 51.873 127.498 53.2321 129.66 55.0946C131.822 56.9571 133.33 59.2727 134.235 62.0917C135.14 64.9106 135.593 68.1826 135.593 71.9076L135.542 71.958ZM52.4793 114.192V49.5574H38.1494V125.417H52.4793V114.192Z" stroke="#00252E" stroke-width="3.3071" stroke-linecap="round" stroke-linejoin="round"/>
<path d="M135.542 71.958V103.721C135.542 107.295 135.09 110.467 134.185 113.135C133.28 115.803 131.771 118.068 129.609 119.88C127.447 121.692 124.581 123.051 121.011 123.957C117.442 124.914 112.916 125.367 107.536 125.367H60.7756V114.141H107.587C110.251 114.141 112.464 113.94 114.224 113.588C115.983 113.235 117.391 112.631 118.447 111.876C119.503 111.071 120.207 110.014 120.659 108.655C121.112 107.295 121.313 105.584 121.313 103.57V71.9076C121.313 69.7431 121.112 67.9812 120.659 66.5214C120.207 65.0616 119.503 63.9542 118.447 63.0984C117.391 62.2427 115.983 61.6386 114.224 61.2862C112.464 60.9339 110.251 60.7325 107.587 60.7325H60.7756V49.5071H107.587C112.967 49.5071 117.442 49.9601 121.062 50.9166C124.632 51.873 127.498 53.2321 129.66 55.0946C131.822 56.9571 133.33 59.2727 134.235 62.0917C135.14 64.9106 135.593 68.1826 135.593 71.9076L135.542 71.958ZM52.4793 114.192V49.5574H38.1494V125.417H52.4793V114.192Z" stroke="#00313C" stroke-width="2.62522" stroke-linecap="round" stroke-linejoin="round"/>
<path d="M135.542 71.958V103.721C135.542 107.295 135.09 110.467 134.185 113.135C133.28 115.803 131.771 118.068 129.609 119.88C127.447 121.692 124.581 123.051 121.011 123.957C117.442 124.914 112.916 125.367 107.536 125.367H60.7756V114.141H107.587C110.251 114.141 112.464 113.94 114.224 113.588C115.983 113.235 117.391 112.631 118.447 111.876C119.503 111.071 120.207 110.014 120.659 108.655C121.112 107.295 121.313 105.584 121.313 103.57V71.9076C121.313 69.7431 121.112 67.9812 120.659 66.5214C120.207 65.0616 119.503 63.9542 118.447 63.0984C117.391 62.2427 115.983 61.6386 114.224 61.2862C112.464 60.9339 110.251 60.7325 107.587 60.7325H60.7756V49.5071H107.587C112.967 49.5071 117.442 49.9601 121.062 50.9166C124.632 51.873 127.498 53.2321 129.66 55.0946C131.822 56.9571 133.33 59.2727 134.235 62.0917C135.14 64.9106 135.593 68.1826 135.593 71.9076L135.542 71.958ZM52.4793 114.192V49.5574H38.1494V125.417H52.4793V114.192Z" stroke="#003D4A" stroke-width="1.93198" stroke-linecap="round" stroke-linejoin="round"/>
<path d="M135.542 71.958V103.721C135.542 107.295 135.09 110.467 134.185 113.135C133.28 115.803 131.771 118.068 129.609 119.88C127.447 121.692 124.581 123.051 121.011 123.957C117.442 124.914 112.916 125.367 107.536 125.367H60.7756V114.141H107.587C110.251 114.141 112.464 113.94 114.224 113.588C115.983 113.235 117.391 112.631 118.447 111.876C119.503 111.071 120.207 110.014 120.659 108.655C121.112 107.295 121.313 105.584 121.313 103.57V71.9076C121.313 69.7431 121.112 67.9812 120.659 66.5214C120.207 65.0616 119.503 63.9542 118.447 63.0984C117.391 62.2427 115.983 61.6386 114.224 61.2862C112.464 60.9339 110.251 60.7325 107.587 60.7325H60.7756V49.5071H107.587C112.967 49.5071 117.442 49.9601 121.062 50.9166C124.632 51.873 127.498 53.2321 129.66 55.0946C131.822 56.9571 133.33 59.2727 134.235 62.0917C135.14 64.9106 135.593 68.1826 135.593 71.9076L135.542 71.958ZM52.4793 114.192V49.5574H38.1494V125.417H52.4793V114.192Z" stroke="#004858" stroke-width="1.25011" stroke-linecap="round" stroke-linejoin="round"/>
<path d="M135.542 71.958V103.721C135.542 107.295 135.09 110.467 134.185 113.135C133.28 115.803 131.771 118.068 129.609 119.88C127.447 121.692 124.581 123.051 121.011 123.957C117.442 124.914 112.916 125.367 107.536 125.367H60.7756V114.141H107.587C110.251 114.141 112.464 113.94 114.224 113.588C115.983 113.235 117.391 112.631 118.447 111.876C119.503 111.071 120.207 110.014 120.659 108.655C121.112 107.295 121.313 105.584 121.313 103.57V71.9076C121.313 69.7431 121.112 67.9812 120.659 66.5214C120.207 65.0616 119.503 63.9542 118.447 63.0984C117.391 62.2427 115.983 61.6386 114.224 61.2862C112.464 60.9339 110.251 60.7325 107.587 60.7325H60.7756V49.5071H107.587C112.967 49.5071 117.442 49.9601 121.062 50.9166C124.632 51.873 127.498 53.2321 129.66 55.0946C131.822 56.9571 133.33 59.2727 134.235 62.0917C135.14 64.9106 135.593 68.1826 135.593 71.9076L135.542 71.958ZM52.4793 114.192V49.5574H38.1494V125.417H52.4793V114.192Z" stroke="#005466" stroke-width="0.556866" stroke-linecap="round" stroke-linejoin="round"/>
<path d="M135.542 71.958V103.721C135.542 107.295 135.09 110.467 134.185 113.135C133.28 115.803 131.771 118.068 129.609 119.88C127.447 121.692 124.581 123.051 121.011 123.957C117.442 124.914 112.916 125.367 107.536 125.367H60.7756V114.141H107.587C110.251 114.141 112.464 113.94 114.224 113.588C115.983 113.235 117.391 112.631 118.447 111.876C119.503 111.071 120.207 110.014 120.659 108.655C121.112 107.295 121.313 105.584 121.313 103.57V71.9076C121.313 69.7431 121.112 67.9812 120.659 66.5214C120.207 65.0616 119.503 63.9542 118.447 63.0984C117.391 62.2427 115.983 61.6386 114.224 61.2862C112.464 60.9339 110.251 60.7325 107.587 60.7325H60.7756V49.5071H107.587C112.967 49.5071 117.442 49.9601 121.062 50.9166C124.632 51.873 127.498 53.2321 129.66 55.0946C131.822 56.9571 133.33 59.2727 134.235 62.0917C135.14 64.9106 135.593 68.1826 135.593 71.9076L135.542 71.958ZM52.4793 114.192V49.5574H38.1494V125.417H52.4793V114.192Z" stroke="#007180" stroke-width="0.488678" stroke-linecap="round" stroke-linejoin="round"/>
<path d="M135.542 71.958V103.721C135.542 107.295 135.09 110.467 134.185 113.135C133.28 115.803 131.771 118.068 129.609 119.88C127.447 121.692 124.581 123.051 121.011 123.957C117.442 124.914 112.916 125.367 107.536 125.367H60.7756V114.141H107.587C110.251 114.141 112.464 113.94 114.224 113.588C115.983 113.235 117.391 112.631 118.447 111.876C119.503 111.071 120.207 110.014 120.659 108.655C121.112 107.295 121.313 105.584 121.313 103.57V71.9076C121.313 69.7431 121.112 67.9812 120.659 66.5214C120.207 65.0616 119.503 63.9542 118.447 63.0984C117.391 62.2427 115.983 61.6386 114.224 61.2862C112.464 60.9339 110.251 60.7325 107.587 60.7325H60.7756V49.5071H107.587C112.967 49.5071 117.442 49.9601 121.062 50.9166C124.632 51.873 127.498 53.2321 129.66 55.0946C131.822 56.9571 133.33 59.2727 134.235 62.0917C135.14 64.9106 135.593 68.1826 135.593 71.9076L135.542 71.958ZM52.4793 114.192V49.5574H38.1494V125.417H52.4793V114.192Z" stroke="#008D99" stroke-width="0.409126" stroke-linecap="round" stroke-linejoin="round"/>
<path d="M135.542 71.958V103.721C135.542 107.295 135.09 110.467 134.185 113.135C133.28 115.803 131.771 118.068 129.609 119.88C127.447 121.692 124.581 123.051 121.011 123.957C117.442 124.914 112.916 125.367 107.536 125.367H60.7756V114.141H107.587C110.251 114.141 112.464 113.94 114.224 113.588C115.983 113.235 117.391 112.631 118.447 111.876C119.503 111.071 120.207 110.014 120.659 108.655C121.112 107.295 121.313 105.584 121.313 103.57V71.9076C121.313 69.7431 121.112 67.9812 120.659 66.5214C120.207 65.0616 119.503 63.9542 118.447 63.0984C117.391 62.2427 115.983 61.6386 114.224 61.2862C112.464 60.9339 110.251 60.7325 107.587 60.7325H60.7756V49.5071H107.587C112.967 49.5071 117.442 49.9601 121.062 50.9166C124.632 51.873 127.498 53.2321 129.66 55.0946C131.822 56.9571 133.33 59.2727 134.235 62.0917C135.14 64.9106 135.593 68.1826 135.593 71.9076L135.542 71.958ZM52.4793 114.192V49.5574H38.1494V125.417H52.4793V114.192Z" stroke="#00AAB3" stroke-width="0.329574" stroke-linecap="round" stroke-linejoin="round"/>
<path d="M135.542 71.958V103.721C135.542 107.295 135.09 110.467 134.185 113.135C133.28 115.803 131.771 118.068 129.609 119.88C127.447 121.692 124.581 123.051 121.011 123.957C117.442 124.914 112.916 125.367 107.536 125.367H60.7756V114.141H107.587C110.251 114.141 112.464 113.94 114.224 113.588C115.983 113.235 117.391 112.631 118.447 111.876C119.503 111.071 120.207 110.014 120.659 108.655C121.112 107.295 121.313 105.584 121.313 103.57V71.9076C121.313 69.7431 121.112 67.9812 120.659 66.5214C120.207 65.0616 119.503 63.9542 118.447 63.0984C117.391 62.2427 115.983 61.6386 114.224 61.2862C112.464 60.9339 110.251 60.7325 107.587 60.7325H60.7756V49.5071H107.587C112.967 49.5071 117.442 49.9601 121.062 50.9166C124.632 51.873 127.498 53.2321 129.66 55.0946C131.822 56.9571 133.33 59.2727 134.235 62.0917C135.14 64.9106 135.593 68.1826 135.593 71.9076L135.542 71.958ZM52.4793 114.192V49.5574H38.1494V125.417H52.4793V114.192Z" stroke="#00C6CC" stroke-width="0.250021" stroke-linecap="round" stroke-linejoin="round"/>
<path d="M135.542 71.958V103.721C135.542 107.295 135.09 110.467 134.185 113.135C133.28 115.803 131.771 118.068 129.609 119.88C127.447 121.692 124.581 123.051 121.011 123.957C117.442 124.914 112.916 125.367 107.536 125.367H60.7756V114.141H107.587C110.251 114.141 112.464 113.94 114.224 113.588C115.983 113.235 117.391 112.631 118.447 111.876C119.503 111.071 120.207 110.014 120.659 108.655C121.112 107.295 121.313 105.584 121.313 103.57V71.9076C121.313 69.7431 121.112 67.9812 120.659 66.5214C120.207 65.0616 119.503 63.9542 118.447 63.0984C117.391 62.2427 115.983 61.6386 114.224 61.2862C112.464 60.9339 110.251 60.7325 107.587 60.7325H60.7756V49.5071H107.587C112.967 49.5071 117.442 49.9601 121.062 50.9166C124.632 51.873 127.498 53.2321 129.66 55.0946C131.822 56.9571 133.33 59.2727 134.235 62.0917C135.14 64.9106 135.593 68.1826 135.593 71.9076L135.542 71.958ZM52.4793 114.192V49.5574H38.1494V125.417H52.4793V114.192Z" stroke="#00E2E5" stroke-width="0.170469" stroke-linecap="round" stroke-linejoin="round"/>
<path d="M135.542 71.958V103.721C135.542 107.295 135.09 110.467 134.185 113.135C133.28 115.803 131.771 118.068 129.609 119.88C127.447 121.692 124.581 123.051 121.011 123.957C117.442 124.914 112.916 125.367 107.536 125.367H60.7756V114.141H107.587C110.251 114.141 112.464 113.94 114.224 113.588C115.983 113.235 117.391 112.631 118.447 111.876C119.503 111.071 120.207 110.014 120.659 108.655C121.112 107.295 121.313 105.584 121.313 103.57V71.9076C121.313 69.7431 121.112 67.9812 120.659 66.5214C120.207 65.0616 119.503 63.9542 118.447 63.0984C117.391 62.2427 115.983 61.6386 114.224 61.2862C112.464 60.9339 110.251 60.7325 107.587 60.7325H60.7756V49.5071H107.587C112.967 49.5071 117.442 49.9601 121.062 50.9166C124.632 51.873 127.498 53.2321 129.66 55.0946C131.822 56.9571 133.33 59.2727 134.235 62.0917C135.14 64.9106 135.593 68.1826 135.593 71.9076L135.542 71.958ZM52.4793 114.192V49.5574H38.1494V125.417H52.4793V114.192Z" stroke="#00FFFF" stroke-width="0.0909169" stroke-linecap="round" stroke-linejoin="round"/>
</g>
<path d="M135.542 71.958V103.721C135.542 107.295 135.09 110.467 134.185 113.135C133.28 115.803 131.771 118.068 129.609 119.88C127.447 121.692 124.581 123.051 121.011 123.957C117.442 124.914 112.916 125.367 107.536 125.367H60.7756V114.141H107.587C110.251 114.141 112.464 113.94 114.224 113.588C115.983 113.235 117.391 112.631 118.447 111.876C119.503 111.071 120.207 110.014 120.659 108.655C121.112 107.295 121.313 105.584 121.313 103.57V71.9076C121.313 69.7431 121.112 67.9812 120.659 66.5214C120.207 65.0616 119.503 63.9542 118.447 63.0984C117.391 62.2427 115.983 61.6386 114.224 61.2862C112.464 60.9339 110.251 60.7325 107.587 60.7325H60.7756V49.5071H107.587C112.967 49.5071 117.442 49.9601 121.062 50.9166C124.632 51.873 127.498 53.2321 129.66 55.0946C131.822 56.9571 133.33 59.2727 134.235 62.0917C135.14 64.9106 135.593 68.1826 135.593 71.9076L135.542 71.958ZM52.4793 114.192V49.5574H38.1494V125.417H52.4793V114.192Z" stroke="white" stroke-width="0.0909169" stroke-linecap="round" stroke-linejoin="round"/>
<g style="mix-blend-mode:overlay">
<path d="M47.6029 112.984H43.0273V115.148H47.6029V112.984Z" fill="#00D5FF"/>
</g>
<g style="mix-blend-mode:overlay">
<path d="M59.2178 122.246H28.3457V123.001H59.2178V122.246Z" fill="#00D5FF"/>
</g>
<g style="mix-blend-mode:overlay">
<path d="M63.6924 117.413H48.2061V117.917H63.6924V117.413Z" fill="#00D5FF"/>
</g>
<g style="mix-blend-mode:overlay">
<path d="M50.9216 120.031H24.4238V120.232H50.9216V120.031Z" fill="#00D5FF"/>
</g>
<g style="mix-blend-mode:overlay">
<path d="M55.2961 125.518H54.1396V126.172H55.2961V125.518Z" fill="#00D5FF"/>
</g>
<g style="mix-blend-mode:overlay">
<path d="M38.9045 125.014H35.7871V126.625H38.9045V125.014Z" fill="#00D5FF"/>
</g>
<g style="mix-blend-mode:overlay">
<path d="M50.6697 116.709H45.8428V118.42H50.6697V116.709Z" fill="#00D5FF"/>
</g>
<g style="mix-blend-mode:overlay">
<path d="M41.7702 116.709H32.8203V117.363H41.7702V116.709Z" fill="#00D5FF"/>
</g>
<g style="mix-blend-mode:overlay">
<path d="M47.8035 83.8882H42.9766V86.1534H47.8035V83.8882Z" fill="#00D5FF"/>
</g>
<g style="mix-blend-mode:overlay">
<path d="M59.9718 93.6538H27.541V94.4592H59.9718V93.6538Z" fill="#00D5FF"/>
</g>
<g style="mix-blend-mode:overlay">
<path d="M64.6478 88.5192H48.4072V89.0729H64.6478V88.5192Z" fill="#00D5FF"/>
</g>
<g style="mix-blend-mode:overlay">
<path d="M51.2733 91.2878H23.418V91.4892H51.2733V91.2878Z" fill="#00D5FF"/>
</g>
<g style="mix-blend-mode:overlay">
<path d="M55.8991 97.0768H54.6924V97.7815H55.8991V97.0768Z" fill="#00D5FF"/>
</g>
<g style="mix-blend-mode:overlay">
<path d="M38.6022 96.5731H35.334V98.2846H38.6022V96.5731Z" fill="#00D5FF"/>
</g>
<g style="mix-blend-mode:overlay">
<path d="M51.0217 87.8145H45.9434V89.6266H51.0217V87.8145Z" fill="#00D5FF"/>
</g>
<g style="mix-blend-mode:overlay">
<path d="M41.67 87.8145H32.2676V88.5192H41.67V87.8145Z" fill="#00D5FF"/>
</g>
<g style="mix-blend-mode:overlay">
<path d="M50.067 54.9938H46.5977V56.6549H50.067V54.9938Z" fill="#00D5FF"/>
</g>
<g style="mix-blend-mode:overlay">
<path d="M58.7652 61.991H35.4854V62.5447H58.7652V61.991Z" fill="#00D5FF"/>
</g>
<g style="mix-blend-mode:overlay">
<path d="M62.1338 58.316H50.4688V58.7187H62.1338V58.316Z" fill="#00D5FF"/>
</g>
<g style="mix-blend-mode:overlay">
<path d="M52.5809 60.2794H32.5693V60.4304H52.5809V60.2794Z" fill="#00D5FF"/>
</g>
<g style="mix-blend-mode:overlay">
<path d="M55.8992 64.4575H54.9941V64.9609H55.8992V64.4575Z" fill="#00D5FF"/>
</g>
<g style="mix-blend-mode:overlay">
<path d="M43.4291 64.0547H41.1162V65.2628H43.4291V64.0547Z" fill="#00D5FF"/>
</g>
<g style="mix-blend-mode:overlay">
<path d="M52.3795 57.8127H48.709V59.1215H52.3795V57.8127Z" fill="#00D5FF"/>
</g>
<g style="mix-blend-mode:overlay">
<path d="M45.6419 57.8127H38.9043V58.3161H45.6419V57.8127Z" fill="#00D5FF"/>
</g>
<g style="mix-blend-mode:overlay">
<path d="M88.9336 43.9194H85.1123V45.7316H88.9336V43.9194Z" fill="#00D5FF"/>
</g>
<g style="mix-blend-mode:overlay">
<path d="M98.6371 51.6715H72.793V52.3259H98.6371V51.6715Z" fill="#00D5FF"/>
</g>
<g style="mix-blend-mode:overlay">
<path d="M102.459 47.5941H89.4863V48.0472H102.459V47.5941Z" fill="#00D5FF"/>
</g>
<g style="mix-blend-mode:overlay">
<path d="M91.7493 49.809H69.5254V49.96H91.7493V49.809Z" fill="#00D5FF"/>
</g>
<g style="mix-blend-mode:overlay">
<path d="M95.4192 54.3898H94.4639V54.9435H95.4192V54.3898Z" fill="#00D5FF"/>
</g>
<g style="mix-blend-mode:overlay">
<path d="M81.6429 53.9872H79.0283V55.3463H81.6429V53.9872Z" fill="#00D5FF"/>
</g>
<g style="mix-blend-mode:overlay">
<path d="M91.5483 47.0405H87.4756V48.5003H91.5483V47.0405Z" fill="#00D5FF"/>
</g>
<g style="mix-blend-mode:overlay">
<path d="M84.106 47.0405H76.6143V47.5942H84.106V47.0405Z" fill="#00D5FF"/>
</g>
<g style="mix-blend-mode:overlay">
<path d="M133.079 55.0443H128.554V57.2089H133.079V55.0443Z" fill="#00D5FF"/>
</g>
<g style="mix-blend-mode:overlay">
<path d="M144.594 64.2057H114.023V64.9608H144.594V64.2057Z" fill="#00D5FF"/>
</g>
<g style="mix-blend-mode:overlay">
<path d="M149.018 59.4237H133.683V59.9271H149.018V59.4237Z" fill="#00D5FF"/>
</g>
<g style="mix-blend-mode:overlay">
<path d="M136.398 61.991H110.151V62.1923H136.398V61.991Z" fill="#00D5FF"/>
</g>
<g style="mix-blend-mode:overlay">
<path d="M140.773 67.4275H139.616V68.0819H140.773V67.4275Z" fill="#00D5FF"/>
</g>
<g style="mix-blend-mode:overlay">
<path d="M124.431 66.9744H121.364V68.5852H124.431V66.9744Z" fill="#00D5FF"/>
</g>
<g style="mix-blend-mode:overlay">
<path d="M136.147 58.719H131.37V60.4305H136.147V58.719Z" fill="#00D5FF"/>
</g>
<g style="mix-blend-mode:overlay">
<path d="M127.347 58.719H118.498V59.3734H127.347V58.719Z" fill="#00D5FF"/>
</g>
<g style="mix-blend-mode:overlay">
<path d="M133.482 91.2878H129.912V92.9993H133.482V91.2878Z" fill="#00D5FF"/>
</g>
<g style="mix-blend-mode:overlay">
<path d="M142.533 98.5364H118.448V99.1404H142.533V98.5364Z" fill="#00D5FF"/>
</g>
<g style="mix-blend-mode:overlay">
<path d="M146.002 94.7108H133.935V95.1135H146.002V94.7108Z" fill="#00D5FF"/>
</g>
<g style="mix-blend-mode:overlay">
<path d="M136.046 96.7745H115.381V96.9256H136.046V96.7745Z" fill="#00D5FF"/>
</g>
<g style="mix-blend-mode:overlay">
<path d="M139.465 101.053H138.56V101.557H139.465V101.053Z" fill="#00D5FF"/>
</g>
<g style="mix-blend-mode:overlay">
<path d="M126.644 100.651H124.23V101.909H126.644V100.651Z" fill="#00D5FF"/>
</g>
<g style="mix-blend-mode:overlay">
<path d="M135.845 94.2073H132.074V95.5664H135.845V94.2073Z" fill="#00D5FF"/>
</g>
<g style="mix-blend-mode:overlay">
<path d="M128.957 94.2073H121.968V94.7107H128.957V94.2073Z" fill="#00D5FF"/>
</g>
<g style="mix-blend-mode:overlay">
<path d="M102.509 115.249H97.5811V117.564H102.509V115.249Z" fill="#00D5FF"/>
</g>
<g style="mix-blend-mode:overlay">
<path d="M114.878 125.216H81.8438V126.021H114.878V125.216Z" fill="#00D5FF"/>
</g>
<g style="mix-blend-mode:overlay">
<path d="M119.655 119.98H103.112V120.534H119.655V119.98Z" fill="#00D5FF"/>
</g>
<g style="mix-blend-mode:overlay">
<path d="M106.079 122.799H77.6709V123.001H106.079V122.799Z" fill="#00D5FF"/>
</g>
<g style="mix-blend-mode:overlay">
<path d="M110.755 128.689H109.498V129.394H110.755V128.689Z" fill="#00D5FF"/>
</g>
<g style="mix-blend-mode:overlay">
<path d="M93.1564 128.135H89.8379V129.897H93.1564V128.135Z" fill="#00D5FF"/>
</g>
<g style="mix-blend-mode:overlay">
<path d="M105.778 119.276H100.599V121.138H105.778V119.276Z" fill="#00D5FF"/>
</g>
<g style="mix-blend-mode:overlay">
<path d="M96.2242 119.276H86.6709V119.98H96.2242V119.276Z" fill="#00D5FF"/>
</g>
<g style="mix-blend-mode:overlay">
<path d="M40.9655 80.4147H45.6416V78.1998H40.9655V80.4147Z" fill="#00D5FF"/>
</g>
<g style="mix-blend-mode:overlay">
<path d="M29.1495 70.9006H60.625V70.0952H29.1495V70.9006Z" fill="#00D5FF"/>
</g>
<g style="mix-blend-mode:overlay">
<path d="M24.5743 75.8844H40.3623V75.381H24.5743V75.8844Z" fill="#00D5FF"/>
</g>
<g style="mix-blend-mode:overlay">
<path d="M37.5468 73.1661H64.5977V72.9648H37.5468V73.1661Z" fill="#00D5FF"/>
</g>
<g style="mix-blend-mode:overlay">
<path d="M33.0716 67.5784H34.2783V66.8736H33.0716V67.5784Z" fill="#00D5FF"/>
</g>
<g style="mix-blend-mode:overlay">
<path d="M49.9154 68.0817H53.083V66.4205H49.9154V68.0817Z" fill="#00D5FF"/>
</g>
<g style="mix-blend-mode:overlay">
<path d="M37.8489 76.5891H42.7764V74.8273H37.8489V76.5891Z" fill="#00D5FF"/>
</g>
<g style="mix-blend-mode:overlay">
<path d="M46.9491 76.5386H56.0498V75.8338H46.9491V76.5386Z" fill="#00D5FF"/>
</g>
<g style="mix-blend-mode:overlay">
<path d="M100.799 62.0413H105.123V59.9774H100.799V62.0413Z" fill="#00D5FF"/>
</g>
<g style="mix-blend-mode:overlay">
<path d="M89.8887 53.2825L119.102 53.2825V52.5777H89.8887V53.2825Z" fill="#00D5FF"/>
</g>
<g style="mix-blend-mode:overlay">
<path d="M85.6653 57.863H100.297V57.3597H85.6653V57.863Z" fill="#00D5FF"/>
</g>
<g style="mix-blend-mode:overlay">
<path d="M97.6816 55.3967H122.771V55.1954H97.6816V55.3967Z" fill="#00D5FF"/>
</g>
<g style="mix-blend-mode:overlay">
<path d="M93.5589 50.2115H94.665V49.5571H93.5589V50.2115Z" fill="#00D5FF"/>
</g>
<g style="mix-blend-mode:overlay">
<path d="M109.146 50.6647H112.062V49.1042H109.146V50.6647Z" fill="#00D5FF"/>
</g>
<g style="mix-blend-mode:overlay">
<path d="M97.9333 58.5176H102.509V56.8564H97.9333V58.5176Z" fill="#00D5FF"/>
</g>
<g style="mix-blend-mode:overlay">
<path d="M106.381 58.5176H114.828V57.8632H106.381V58.5176Z" fill="#00D5FF"/>
</g>
<g style="mix-blend-mode:overlay">
<path d="M67.9157 61.1855H72.4912V59.021H67.9157V61.1855Z" fill="#00D5FF"/>
</g>
<g style="mix-blend-mode:overlay">
<path d="M56.3515 51.9232L87.2236 51.9232V51.1681L56.3515 51.1681V51.9232Z" fill="#00D5FF"/>
</g>
<g style="mix-blend-mode:overlay">
<path d="M51.9272 56.7556H67.3633V56.2522H51.9272V56.7556Z" fill="#00D5FF"/>
</g>
<g style="mix-blend-mode:overlay">
<path d="M64.6478 54.1382H91.1455V53.9368H64.6478V54.1382Z" fill="#00D5FF"/>
</g>
<g style="mix-blend-mode:overlay">
<path d="M60.2732 48.6511H61.4297V47.9967H60.2732V48.6511Z" fill="#00D5FF"/>
</g>
<g style="mix-blend-mode:overlay">
<path d="M76.7151 49.1544H79.7822V47.5436H76.7151V49.1544Z" fill="#00D5FF"/>
</g>
<g style="mix-blend-mode:overlay">
<path d="M64.8489 57.4604H69.6758V55.7489H64.8489V57.4604Z" fill="#00D5FF"/>
</g>
<g style="mix-blend-mode:overlay">
<path d="M73.7483 57.4604H82.6982V56.8061H73.7483V57.4604Z" fill="#00D5FF"/>
</g>
<g style="mix-blend-mode:overlay">
<path d="M45.4405 59.0209H49.6641V57.0073H45.4405V59.0209Z" fill="#00D5FF"/>
</g>
<g style="mix-blend-mode:overlay">
<path d="M34.7308 50.413H63.29V49.7082H34.7308V50.413Z" fill="#00D5FF"/>
</g>
<g style="mix-blend-mode:overlay">
<path d="M30.5578 54.9436H44.8877V54.4906H30.5578V54.9436Z" fill="#00D5FF"/>
</g>
<g style="mix-blend-mode:overlay">
<path d="M42.3235 52.4771H66.8604V52.326H42.3235V52.4771Z" fill="#00D5FF"/>
</g>
<g style="mix-blend-mode:overlay">
<path d="M38.2503 47.3929H39.3564V46.7889H38.2503V47.3929Z" fill="#00D5FF"/>
</g>
<g style="mix-blend-mode:overlay">
<path d="M53.5364 47.8457H56.4023V46.3356H53.5364V47.8457Z" fill="#00D5FF"/>
</g>
<g style="mix-blend-mode:overlay">
<path d="M42.5749 55.5476H47.0498V53.9368H42.5749V55.5476Z" fill="#00D5FF"/>
</g>
<g style="mix-blend-mode:overlay">
<path d="M50.8209 55.5476H59.1172V54.9435H50.8209V55.5476Z" fill="#00D5FF"/>
</g>
<g style="mix-blend-mode:overlay">
<path d="M41.9718 110.668H46.3965V108.554H41.9718V110.668Z" fill="#00D5FF"/>
</g>
<g style="mix-blend-mode:overlay">
<path d="M30.7585 101.708H60.625V100.953H30.7585V101.708Z" fill="#00D5FF"/>
</g>
<g style="mix-blend-mode:overlay">
<path d="M26.4344 106.389H41.418V105.886H26.4344V106.389Z" fill="#00D5FF"/>
</g>
<g style="mix-blend-mode:overlay">
<path d="M38.7535 103.872H64.3965V103.671H38.7535V103.872Z" fill="#00D5FF"/>
</g>
<g style="mix-blend-mode:overlay">
<path d="M34.4793 98.5364H35.6357V97.882H34.4793V98.5364Z" fill="#00D5FF"/>
</g>
<g style="mix-blend-mode:overlay">
<path d="M50.4187 99.0397H53.4355V97.4792H50.4187V99.0397Z" fill="#00D5FF"/>
</g>
<g style="mix-blend-mode:overlay">
<path d="M39.0046 107.094H43.6807V105.433H39.0046V107.094Z" fill="#00D5FF"/>
</g>
<g style="mix-blend-mode:overlay">
<path d="M47.6535 107.094H56.3018V106.44H47.6535V107.094Z" fill="#00D5FF"/>
</g>
<g style="mix-blend-mode:overlay">
<path d="M126.593 89.1737H131.319V86.9085H126.593V89.1737Z" fill="#00D5FF"/>
</g>
<g style="mix-blend-mode:overlay">
<path d="M114.626 79.559H146.504V78.7535H114.626V79.559Z" fill="#00D5FF"/>
</g>
<g style="mix-blend-mode:overlay">
<path d="M110.051 84.5929H126.04V84.0895H110.051V84.5929Z" fill="#00D5FF"/>
</g>
<g style="mix-blend-mode:overlay">
<path d="M123.174 81.8746H150.526V81.6733H123.174V81.8746Z" fill="#00D5FF"/>
</g>
<g style="mix-blend-mode:overlay">
<path d="M118.649 76.2367H119.855V75.532H118.649V76.2367Z" fill="#00D5FF"/>
</g>
<g style="mix-blend-mode:overlay">
<path d="M135.594 76.74H138.812V75.0788H135.594V76.74Z" fill="#00D5FF"/>
</g>
<g style="mix-blend-mode:overlay">
<path d="M123.475 85.2976H128.453V83.5358H123.475V85.2976Z" fill="#00D5FF"/>
</g>
<g style="mix-blend-mode:overlay">
<path d="M132.577 85.2976H141.828V84.5929H132.577V85.2976Z" fill="#00D5FF"/>
</g>
<g style="mix-blend-mode:overlay">
<path d="M122.521 118.823H127.146V116.658H122.521V118.823Z" fill="#00D5FF"/>
</g>
<g style="mix-blend-mode:overlay">
<path d="M110.906 109.51H141.929V108.755H110.906V109.51Z" fill="#00D5FF"/>
</g>
<g style="mix-blend-mode:overlay">
<path d="M106.431 114.393H121.968V113.89H106.431V114.393Z" fill="#00D5FF"/>
</g>
<g style="mix-blend-mode:overlay">
<path d="M119.202 111.776H145.851V111.574H119.202V111.776Z" fill="#00D5FF"/>
</g>
<g style="mix-blend-mode:overlay">
<path d="M114.828 106.238H115.984V105.584H114.828V106.238Z" fill="#00D5FF"/>
</g>
<g style="mix-blend-mode:overlay">
<path d="M131.319 106.691H134.437V105.03H131.319V106.691Z" fill="#00D5FF"/>
</g>
<g style="mix-blend-mode:overlay">
<path d="M119.454 115.048H124.331V113.286H119.454V115.048Z" fill="#00D5FF"/>
</g>
<g style="mix-blend-mode:overlay">
<path d="M128.403 115.047H137.403V114.393H128.403V115.047Z" fill="#00D5FF"/>
</g>
<g style="mix-blend-mode:overlay">
<path d="M70.6814 125.719H75.458V123.454H70.6814V125.719Z" fill="#00D5FF"/>
</g>
<g style="mix-blend-mode:overlay">
<path d="M58.5638 116.054H90.8438V115.249H58.5638V116.054Z" fill="#00D5FF"/>
</g>
<g style="mix-blend-mode:overlay">
<path d="M53.8879 121.088H70.0781V120.534H53.8879V121.088Z" fill="#00D5FF"/>
</g>
<g style="mix-blend-mode:overlay">
<path d="M67.1617 118.37H94.8662V118.169H67.1617V118.37Z" fill="#00D5FF"/>
</g>
<g style="mix-blend-mode:overlay">
<path d="M62.637 112.631H63.8438V111.926H62.637V112.631Z" fill="#00D5FF"/>
</g>
<g style="mix-blend-mode:overlay">
<path d="M79.8328 113.135H83.0508V111.423H79.8328V113.135Z" fill="#00D5FF"/>
</g>
<g style="mix-blend-mode:overlay">
<path d="M67.4637 121.843H72.542V120.031H67.4637V121.843Z" fill="#00D5FF"/>
</g>
<g style="mix-blend-mode:overlay">
<path d="M76.765 121.843H86.1172V121.138H76.765V121.843Z" fill="#00D5FF"/>
</g>
<g style="mix-blend-mode:overlay">
<path d="M128.001 77.2433H132.526V75.1291H128.001V77.2433Z" fill="#00D5FF"/>
</g>
<g style="mix-blend-mode:overlay">
<path d="M116.638 68.1322H146.957V67.3771H116.638V68.1322Z" fill="#00D5FF"/>
</g>
<g style="mix-blend-mode:overlay">
<path d="M112.264 72.9142H127.448V72.4108H112.264V72.9142Z" fill="#00D5FF"/>
</g>
<g style="mix-blend-mode:overlay">
<path d="M124.783 70.2966H150.828V70.0953H124.783V70.2966Z" fill="#00D5FF"/>
</g>
<g style="mix-blend-mode:overlay">
<path d="M120.409 64.9104H121.565V64.256H120.409V64.9104Z" fill="#00D5FF"/>
</g>
<g style="mix-blend-mode:overlay">
<path d="M136.649 65.4139H139.666V63.8031H136.649V65.4139Z" fill="#00D5FF"/>
</g>
<g style="mix-blend-mode:overlay">
<path d="M125.035 73.5184H129.812V71.8069H125.035V73.5184Z" fill="#00D5FF"/>
</g>
<g style="mix-blend-mode:overlay">
<path d="M133.733 73.5687H142.532V72.9143H133.733V73.5687Z" fill="#00D5FF"/>
</g>
<defs>
<radialGradient id="paint0_radial_873_83879" cx="0" cy="0" r="1" gradientUnits="userSpaceOnUse" gradientTransform="translate(87.8267 87.613) scale(87.4878 87.5886)">
<stop/>
<stop offset="0.36" stop-color="#80003F"/>
<stop offset="0.5" stop-color="#56002A"/>
<stop offset="0.65" stop-color="#310018"/>
<stop offset="0.79" stop-color="#16000A"/>
<stop offset="0.91" stop-color="#050002"/>
<stop offset="1"/>
</radialGradient>
</defs>
</svg>
