<svg width="103" height="177" viewBox="0 0 103 177" fill="none" xmlns="http://www.w3.org/2000/svg">
<path d="M51.6515 128.799H46.7241L45.2156 130.258H42.4502V131.215L42.8022 131.517H51.9029L53.3108 132.926H56.6795L57.3332 132.222V131.467H54.3667L51.6515 128.799Z" fill="#800040"/>
<path d="M59.6963 96.3306L61.9589 98.5958V70.7084L59.6963 72.9736V96.3306Z" fill="#800040"/>
<path d="M59.4952 47.4521H58.0874L55.0203 44.3815H45.7687L44.6123 45.5393H51.9029L54.8695 48.4589H57.4338L61.2551 52.3349V56.4123L62.1098 57.2681V50.0697L59.4952 47.4521Z" fill="#800040"/>
<path d="M42.6008 73.0742L39.3828 69.8525V111.835L41.5449 109.67V108.009L42.6008 106.902V73.0742Z" fill="#800040"/>
<path d="M40.6394 116.617L39.835 115.761V121.6V122.557L40.6394 123.362V121.5V116.617Z" fill="#800040"/>
<path d="M51.8021 90.9444V77.9571L51.3998 77.5544V74.4334L52.9082 72.9233H56.9307L62.1095 67.7384V58.5768L61.2548 57.7211V67.386L56.5788 72.1178H52.5563L50.5451 74.081V76.6986L41.0421 67.235V51.4288L43.9583 48.4589H52.6066L50.9473 46.848H43.3047L39.3828 50.7241V67.8894L46.2209 74.7354V99.7032L49.4892 102.925V108.663L47.3271 110.828H42.4499L39.8354 113.446V114.956L40.6398 115.811V113.798L42.8019 111.684H47.6791L50.344 109.016V102.573L47.0757 99.3509V75.5912L50.1428 78.6618V91.6491L61.657 103.177V125.577L58.8414 128.396H53.2602L54.9195 130.057H59.5453L63.3163 126.282V102.522L51.8021 90.9444Z" fill="#FF0080"/>
<path d="M40.6394 124.319L39.835 123.463V129.654H44.0082L44.863 128.849H40.6394V124.319Z" fill="#FF0080"/>
<path opacity="0.2" d="M44.1592 126.383V50.5227H58.489V126.383H44.1592Z" fill="#00D5FF"/>
<g style="mix-blend-mode:screen">
<path d="M58.489 50.5227H44.1592V126.383H58.489V50.5227Z" stroke="black" stroke-width="18.7061" stroke-linecap="round" stroke-linejoin="round"/>
<path d="M58.489 50.5227H44.1592V126.383H58.489V50.5227Z" stroke="#000203" stroke-width="16.3764" stroke-linecap="round" stroke-linejoin="round"/>
<path d="M58.489 50.5227H44.1592V126.383H58.489V50.5227Z" stroke="#000506" stroke-width="14.0353" stroke-linecap="round" stroke-linejoin="round"/>
<path d="M58.489 50.5227H44.1592V126.383H58.489V50.5227Z" stroke="#000709" stroke-width="11.6942" stroke-linecap="round" stroke-linejoin="round"/>
<path d="M58.489 50.5227H44.1592V126.383H58.489V50.5227Z" stroke="#00090C" stroke-width="9.35307" stroke-linecap="round" stroke-linejoin="round"/>
<path d="M58.489 50.5227H44.1592V126.383H58.489V50.5227Z" stroke="#000C0F" stroke-width="7.01196" stroke-linecap="round" stroke-linejoin="round"/>
<path d="M58.489 50.5227H44.1592V126.383H58.489V50.5227Z" stroke="#000E12" stroke-width="4.68222" stroke-linecap="round" stroke-linejoin="round"/>
<path d="M44.1592 126.383V50.5227H58.489V126.383H44.1592Z" stroke="#001A20" stroke-width="3.98898" stroke-linecap="round" stroke-linejoin="round"/>
<path d="M44.1592 126.383V50.5227H58.489V126.383H44.1592Z" stroke="#00252E" stroke-width="3.3071" stroke-linecap="round" stroke-linejoin="round"/>
<path d="M44.1592 126.383V50.5227H58.489V126.383H44.1592Z" stroke="#00313C" stroke-width="2.62522" stroke-linecap="round" stroke-linejoin="round"/>
<path d="M44.1592 126.383V50.5227H58.489V126.383H44.1592Z" stroke="#003D4A" stroke-width="1.93198" stroke-linecap="round" stroke-linejoin="round"/>
<path d="M44.1592 126.383V50.5227H58.489V126.383H44.1592Z" stroke="#004858" stroke-width="1.25011" stroke-linecap="round" stroke-linejoin="round"/>
<path d="M44.1592 126.383V50.5227H58.489V126.383H44.1592Z" stroke="#005466" stroke-width="0.556866" stroke-linecap="round" stroke-linejoin="round"/>
<path d="M44.1592 126.383V50.5227H58.489V126.383H44.1592Z" stroke="#007180" stroke-width="0.488678" stroke-linecap="round" stroke-linejoin="round"/>
<path d="M44.1592 126.383V50.5227H58.489V126.383H44.1592Z" stroke="#008D99" stroke-width="0.409126" stroke-linecap="round" stroke-linejoin="round"/>
<path d="M44.1592 126.383V50.5227H58.489V126.383H44.1592Z" stroke="#00AAB3" stroke-width="0.329574" stroke-linecap="round" stroke-linejoin="round"/>
<path d="M44.1592 126.383V50.5227H58.489V126.383H44.1592Z" stroke="#00C6CC" stroke-width="0.250021" stroke-linecap="round" stroke-linejoin="round"/>
<path d="M44.1592 126.383V50.5227H58.489V126.383H44.1592Z" stroke="#00E2E5" stroke-width="0.170469" stroke-linecap="round" stroke-linejoin="round"/>
<path d="M44.1592 126.383V50.5227H58.489V126.383H44.1592Z" stroke="#00FFFF" stroke-width="0.0909169" stroke-linecap="round" stroke-linejoin="round"/>
</g>
<path d="M44.1592 126.383V50.5227H58.489V126.383H44.1592Z" stroke="white" stroke-width="0.0909169" stroke-linecap="round" stroke-linejoin="round"/>
<g style="mix-blend-mode:overlay">
<path d="M54.9193 90.894H50.1426V93.1593H54.9193V90.894Z" fill="#00D5FF"/>
<path d="M66.9359 100.509H34.9072V101.314H66.9359V100.509Z" fill="#00D5FF"/>
<path d="M71.5619 95.4749H55.5225V96.0286H71.5619V95.4749Z" fill="#00D5FF"/>
<path d="M58.3383 98.1931H30.835V98.3945H58.3383V98.1931Z" fill="#00D5FF"/>
<path d="M62.9138 103.881H61.707V104.586H62.9138V103.881Z" fill="#00D5FF"/>
<path d="M45.8185 103.378H42.6006V105.089H45.8185V103.378Z" fill="#00D5FF"/>
<path d="M58.0866 94.7701H53.0586V96.5823H58.0866V94.7701Z" fill="#00D5FF"/>
<path d="M48.8858 94.7701H39.584V95.4749H48.8858V94.7701Z" fill="#00D5FF"/>
</g>
<g style="mix-blend-mode:overlay">
<path d="M54.1143 71.262H50.3936V73.0238H54.1143V71.262Z" fill="#00D5FF"/>
<path d="M63.4669 78.7625H38.4775V79.3665H63.4669V78.7625Z" fill="#00D5FF"/>
<path d="M67.0872 74.8359H54.5674V75.2386H67.0872V74.8359Z" fill="#00D5FF"/>
<path d="M56.7793 76.9501H35.3096V77.1011H56.7793V76.9501Z" fill="#00D5FF"/>
<path d="M60.3489 81.38H59.3936V81.9337H60.3489V81.38Z" fill="#00D5FF"/>
<path d="M47.0248 80.9774H44.5107V82.2862H47.0248V80.9774Z" fill="#00D5FF"/>
<path d="M56.5782 74.2823H52.6562V75.6918H56.5782V74.2823Z" fill="#00D5FF"/>
<path d="M49.3878 74.2823H42.1475V74.8361H49.3878V74.2823Z" fill="#00D5FF"/>
</g>
<g style="mix-blend-mode:overlay">
<path d="M54.3153 49.6167H50.293V51.5296H54.3153V49.6167Z" fill="#00D5FF"/>
<path d="M64.4225 57.7212H37.4219V58.3756H64.4225V57.7212Z" fill="#00D5FF"/>
<path d="M68.3438 53.4425H54.8184V53.8956H68.3438V53.4425Z" fill="#00D5FF"/>
<path d="M57.2823 55.7578H34.0527V55.9088H57.2823V55.7578Z" fill="#00D5FF"/>
<path d="M61.0535 60.5903H60.0479V61.1944H61.0535V60.5903Z" fill="#00D5FF"/>
<path d="M46.6732 60.1372H43.958V61.5467H46.6732V60.1372Z" fill="#00D5FF"/>
<path d="M56.9804 52.8887H52.7568V54.3988H56.9804V52.8887Z" fill="#00D5FF"/>
<path d="M49.2373 52.8887H41.3936V53.4927H49.2373V52.8887Z" fill="#00D5FF"/>
</g>
<g style="mix-blend-mode:overlay">
<path d="M56.5278 60.2379H52.3545V62.2011H56.5278V60.2379Z" fill="#00D5FF"/>
</g>
<g style="mix-blend-mode:overlay">
<path d="M67.0867 68.7454H38.9297V69.4501H67.0867V68.7454Z" fill="#00D5FF"/>
</g>
<g style="mix-blend-mode:overlay">
<path d="M71.2098 64.2649H57.0811V64.7179H71.2098V64.2649Z" fill="#00D5FF"/>
</g>
<g style="mix-blend-mode:overlay">
<path d="M59.5452 66.6813H35.3604V66.8323H59.5452V66.6813Z" fill="#00D5FF"/>
</g>
<g style="mix-blend-mode:overlay">
<path d="M63.5676 71.7152H62.5117V72.3193H63.5676V71.7152Z" fill="#00D5FF"/>
</g>
<g style="mix-blend-mode:overlay">
<path d="M48.5335 71.2621H45.7178V72.7722H48.5335V71.2621Z" fill="#00D5FF"/>
</g>
<g style="mix-blend-mode:overlay">
<path d="M59.3436 63.6609H54.9189V65.2214H59.3436V63.6609Z" fill="#00D5FF"/>
</g>
<g style="mix-blend-mode:overlay">
<path d="M51.1981 63.6609H43.0527V64.2649H51.1981V63.6609Z" fill="#00D5FF"/>
</g>
<g style="mix-blend-mode:overlay">
<path d="M56.5279 82.135H52.8574V83.8969H56.5279V82.135Z" fill="#00D5FF"/>
</g>
<g style="mix-blend-mode:overlay">
<path d="M65.7794 89.5853H41.0918V90.1894H65.7794V89.5853Z" fill="#00D5FF"/>
</g>
<g style="mix-blend-mode:overlay">
<path d="M69.3495 85.7092H56.9805V86.1119H69.3495V85.7092Z" fill="#00D5FF"/>
</g>
<g style="mix-blend-mode:overlay">
<path d="M59.1929 87.8235H37.9746V87.9745H59.1929V87.8235Z" fill="#00D5FF"/>
</g>
<g style="mix-blend-mode:overlay">
<path d="M62.7131 92.2029H61.7578V92.7566H62.7131V92.2029Z" fill="#00D5FF"/>
</g>
<g style="mix-blend-mode:overlay">
<path d="M49.539 91.8003H47.0752V93.1091H49.539V91.8003Z" fill="#00D5FF"/>
</g>
<g style="mix-blend-mode:overlay">
<path d="M58.9917 85.1555H55.1201V86.5147H58.9917V85.1555Z" fill="#00D5FF"/>
</g>
<g style="mix-blend-mode:overlay">
<path d="M51.8517 85.1555H44.7119V85.7092H51.8517V85.1555Z" fill="#00D5FF"/>
</g>
<g style="mix-blend-mode:overlay">
<path d="M54.7182 106.952H50.7461V108.865H54.7182V106.952Z" fill="#00D5FF"/>
</g>
<g style="mix-blend-mode:overlay">
<path d="M37.9248 115.056V115.711H40.5394L39.8857 115.056H37.9248Z" fill="#00D5FF"/>
</g>
<g style="mix-blend-mode:overlay">
<path d="M64.8248 115.056H39.8857L40.5394 115.711H64.8248V115.056Z" fill="#00D5FF"/>
</g>
<g style="mix-blend-mode:overlay">
<path d="M68.6958 110.828H55.2207V111.281H68.6958V110.828Z" fill="#00D5FF"/>
</g>
<g style="mix-blend-mode:overlay">
<path d="M57.6343 113.093H34.5557V113.244H57.6343V113.093Z" fill="#00D5FF"/>
</g>
<g style="mix-blend-mode:overlay">
<path d="M61.405 117.875H60.3994V118.479H61.405V117.875Z" fill="#00D5FF"/>
</g>
<g style="mix-blend-mode:overlay">
<path d="M47.1253 117.473H44.4102V118.882H47.1253V117.473Z" fill="#00D5FF"/>
</g>
<g style="mix-blend-mode:overlay">
<path d="M57.3827 110.224H53.1592V111.734H57.3827V110.224Z" fill="#00D5FF"/>
</g>
<g style="mix-blend-mode:overlay">
<path d="M49.6401 110.224H41.8467V110.828H49.6401V110.224Z" fill="#00D5FF"/>
</g>
<g style="mix-blend-mode:overlay">
<path d="M57.0315 113.899H52.1543V116.214H57.0315V113.899Z" fill="#00D5FF"/>
</g>
<g style="mix-blend-mode:overlay">
<path d="M69.4502 123.815H36.5166V124.621H69.4502V123.815Z" fill="#00D5FF"/>
</g>
<g style="mix-blend-mode:overlay">
<path d="M74.1766 118.631H57.6846V119.184H74.1766V118.631Z" fill="#00D5FF"/>
</g>
<g style="mix-blend-mode:overlay">
<path d="M60.6516 121.399H32.3438V121.6H60.6516V121.399Z" fill="#00D5FF"/>
</g>
<g style="mix-blend-mode:overlay">
<path d="M65.3273 127.289H64.0703V127.993H65.3273V127.289Z" fill="#00D5FF"/>
</g>
<g style="mix-blend-mode:overlay">
<path d="M47.7287 126.785H44.4102V128.547H47.7287V126.785Z" fill="#00D5FF"/>
</g>
<g style="mix-blend-mode:overlay">
<path d="M60.3498 117.875H55.1709V119.738H60.3498V117.875Z" fill="#00D5FF"/>
</g>
<g style="mix-blend-mode:overlay">
<path d="M50.8462 117.875H41.293V118.58H50.8462V117.875Z" fill="#00D5FF"/>
</g>
<g style="mix-blend-mode:overlay">
<path d="M56.428 98.6462H51.8525V100.811H56.428V98.6462Z" fill="#00D5FF"/>
</g>
<g style="mix-blend-mode:overlay">
<path d="M67.9917 107.908H37.1699V108.663H67.9917V107.908Z" fill="#00D5FF"/>
</g>
<g style="mix-blend-mode:overlay">
<path d="M72.4166 103.026H56.9805V103.529H72.4166V103.026Z" fill="#00D5FF"/>
</g>
<g style="mix-blend-mode:overlay">
<path d="M59.7463 105.643H33.2988V105.844H59.7463V105.643Z" fill="#00D5FF"/>
</g>
<g style="mix-blend-mode:overlay">
<path d="M64.1204 111.13H62.9639V111.785H64.1204V111.13Z" fill="#00D5FF"/>
</g>
<g style="mix-blend-mode:overlay">
<path d="M47.6784 110.677H44.6113V112.288H47.6784V110.677Z" fill="#00D5FF"/>
</g>
<g style="mix-blend-mode:overlay">
<path d="M59.4441 102.371H54.6172V104.083H59.4441V102.371Z" fill="#00D5FF"/>
</g>
<g style="mix-blend-mode:overlay">
<path d="M50.6452 102.371H41.6953V103.025H50.6452V102.371Z" fill="#00D5FF"/>
</g>
<path style="mix-blend-mode:screen" d="M102.133 88.5282C102.133 136.903 79.406 176.117 51.3998 176.117C23.3937 176.117 0.666992 136.903 0.666992 88.5282C0.666992 40.1531 23.3937 0.939575 51.3998 0.939575C79.406 0.939575 102.133 40.1531 102.133 88.5282Z" fill="url(#paint0_radial_873_83478)"/>
<defs>
<radialGradient id="paint0_radial_873_83478" cx="0" cy="0" r="1" gradientUnits="userSpaceOnUse" gradientTransform="translate(51.2128 88.5785) scale(50.7429 87.5886)">
<stop stop-color="#80003F"/>
<stop offset="0.22" stop-color="#56002A"/>
<stop offset="0.45" stop-color="#310018"/>
<stop offset="0.66" stop-color="#16000A"/>
<stop offset="0.85" stop-color="#050002"/>
<stop offset="1"/>
</radialGradient>
</defs>
</svg>
