<svg width="160" height="158" viewBox="0 0 160 158" fill="none" xmlns="http://www.w3.org/2000/svg">
<path style="mix-blend-mode:screen" d="M159.656 45.8153C159.656 70.9341 124.963 91.2708 82.1241 91.2708C39.2853 91.2708 4.5918 70.9341 4.5918 45.8153C4.5918 20.6965 39.2853 0.359863 82.1241 0.359863C124.963 0.359863 159.656 20.6965 159.656 45.8153Z" fill="url(#paint0_radial_873_84399)"/>
<path style="mix-blend-mode:screen" d="M154.327 112.816C154.327 137.733 119.834 157.969 77.3474 157.969C34.8605 157.969 0.368164 137.783 0.368164 112.816C0.368164 87.8478 34.8605 67.6621 77.3474 67.6621C119.834 67.6621 154.327 87.8478 154.327 112.816Z" fill="url(#paint1_radial_873_84399)"/>
<path d="M72.3691 54.2722L70.7099 55.9334L69.4026 57.2422H48.9385L50.5977 58.9033H71.5144L73.1736 57.2422L74.4809 55.9334H110.331L111.94 54.2722H72.3691Z" fill="#800040"/>
<path d="M57.8887 68.0145H51.9556L49.7432 65.8499V59.7086L48.084 58.0475V66.5043L51.2517 69.6756H59.5479L57.8887 68.0145Z" fill="#800040"/>
<path d="M73.4754 69.6758H97.8613L97.0568 68.8704H72.6709L71.8664 68.0146H60.9053L62.5645 69.6758H70.5591H73.4754Z" fill="#800040"/>
<path d="M80.7158 103.251H56.3801L55.5254 104.107H79.9113H82.8276H90.8222L92.4814 102.446H81.5706L80.7158 103.251Z" fill="#800040"/>
<path d="M102.136 84.7771H81.7218L80.0625 86.4383H101.432L103.644 88.6028V100.231L101.432 102.446H95.4986L93.8896 104.107H102.136L105.303 100.936V87.9484L102.136 84.7771Z" fill="#800040"/>
<path d="M50.7995 52.3593H47.6318V52.8123H50.7995V52.3593Z" fill="#FF0080"/>
<path d="M50.7995 51H47.6318V51.4027H50.7995V51Z" fill="#FF0080"/>
<path d="M50.7995 49.5906H47.6318V49.9933H50.7995V49.5906Z" fill="#FF0080"/>
<path d="M50.7995 48.2316H47.6318V48.5839H50.7995V48.2316Z" fill="#FF0080"/>
<path d="M50.7995 46.8723H47.6318V47.1743H50.7995V46.8723Z" fill="#FF0080"/>
<path d="M50.7995 45.5133H47.6318V45.765H50.7995V45.5133Z" fill="#FF0080"/>
<path d="M50.7995 44.1541H47.6318V44.3554H50.7995V44.1541Z" fill="#FF0080"/>
<path d="M50.7995 42.7948H47.6318V42.9458H50.7995V42.7948Z" fill="#FF0080"/>
<path d="M50.7995 41.4358H47.6318V41.5365H50.7995V41.4358Z" fill="#FF0080"/>
<path d="M30.7376 107.178V106.875H29.1286L27.8213 108.134V108.436L29.1286 107.178H30.7376Z" fill="#FF0080"/>
<path d="M124.762 103.1L115.359 112.513V85.7335L107.968 78.3338H83.4313L76.9954 84.7771H50.2463L39.2852 73.8033V60.5643L43.9109 55.9332H67.8947L71.5149 52.3089V49.8926L81.8223 39.5733H119.885L121.544 41.2344V49.1375H123.203L124.359 47.9798V44.7581L123.203 43.55V40.5297L120.588 37.9121H81.1184L80.7161 38.3148H61.7605L60.9057 39.1706H79.8614L69.8556 49.1879V51.6545L67.1908 54.2721H51.3524L50.7491 53.7183H47.6317L47.0283 54.2721H43.207L37.6259 59.9099V72.7462L28.5755 63.6853V56.3359L27.7207 57.1917V64.0377L37.6259 73.904V74.508L49.5424 86.4382L50.9502 87.8477H57.3861L58.794 86.4382H77.6491L84.085 79.9949H107.264L113.7 86.4382V113.571L106.812 120.517H95.2975L86.4481 111.658H43.207L34.408 120.417H32.5979L30.7375 118.604V113.319H29.1285L27.8212 114.628V116.138L29.1285 117.396V119.309L31.8939 122.078H35.1119L43.9109 113.269H85.7442L93.3868 120.92H59.2968L60.1515 121.725H94.1913L94.6438 122.178H107.465L115.359 114.275V113.671L125.616 103.453V97.563H124.762V103.1Z" fill="#FF0080"/>
<path d="M27.8213 111.658L29.1286 110.399H30.7376V110.097H29.1286L27.8213 111.356V111.658Z" fill="#FF0080"/>
<path d="M27.8213 110.047L29.1286 108.788H30.7376V108.486H29.1286L27.8213 109.745V110.047Z" fill="#FF0080"/>
<path d="M27.8213 113.268L29.1286 112.01H30.7376V111.708H29.1286L27.8213 112.966V113.268Z" fill="#FF0080"/>
<path d="M125.566 95.4487H124.762V96.2541H125.566V95.4487Z" fill="#FF0080"/>
<path d="M125.566 93.3346H124.762V94.14H125.566V93.3346Z" fill="#FF0080"/>
<path d="M125.566 91.2203H124.762V92.0257H125.566V91.2203Z" fill="#FF0080"/>
<path d="M125.566 89.1062H124.762V89.9116H125.566V89.1062Z" fill="#FF0080"/>
<path opacity="0.2" d="M53.2634 41.5365C53.6656 41.5365 54.0679 41.5365 54.4701 41.5365H118.628V52.7619H54.4701C54.0679 52.7619 53.6656 52.7619 53.2634 52.7619V41.5365ZM121.494 82.2602C120.639 80.0453 119.231 78.1324 117.371 76.4713C115.46 74.8605 112.996 73.602 109.98 72.6959C106.963 71.7898 103.292 71.3368 99.0185 71.3368H54.4701C48.1348 71.3368 45.0174 69.0212 45.0174 64.3397V59.7086V42.4426C44.5146 42.5433 44.0118 42.6943 43.509 42.8453C40.4922 43.7514 38.0284 45.0098 36.1178 46.6207C34.2071 48.2315 32.8496 50.1444 31.9948 52.4096C31.14 54.6245 30.6875 57.091 30.6875 59.8596V64.2894C30.6875 67.0077 31.14 69.4743 31.9948 71.7395C32.8496 73.9544 34.2574 75.8672 36.1178 77.5284C38.0284 79.1392 40.4922 80.3977 43.509 81.3037C46.5258 82.2098 50.1963 82.6629 54.4701 82.6629H99.0185C105.354 82.6629 108.471 84.9785 108.471 89.6599V99.2242C108.471 99.2242 108.471 99.4759 108.471 99.6269V116.49C108.974 116.39 109.527 116.239 109.98 116.088C112.996 115.181 115.46 113.923 117.371 112.312C119.281 110.701 120.639 108.788 121.494 106.523C122.349 104.308 122.801 101.842 122.801 99.0732V89.7102C122.801 86.992 122.349 84.5254 121.494 82.2602ZM100.175 106.171C99.7727 106.171 99.4207 106.171 99.0185 106.171H33.1512V117.396H99.0185C99.4207 117.396 99.823 117.396 100.175 117.396V106.171Z" fill="#00D5FF"/>
<g style="mix-blend-mode:screen">
<path d="M53.2634 41.5365C53.6656 41.5365 54.0679 41.5365 54.4701 41.5365H118.628V52.7619H54.4701C54.0679 52.7619 53.6656 52.7619 53.2634 52.7619V41.5365ZM100.175 106.121C99.7727 106.121 99.4207 106.121 99.0185 106.121H33.1512V117.346H99.0185C99.4207 117.346 99.823 117.346 100.175 117.346V106.121ZM121.494 82.2098C120.639 79.9949 119.231 78.0821 117.371 76.4209C115.46 74.8101 112.996 73.5516 109.98 72.6456C106.963 71.7395 103.292 71.2864 99.0185 71.2864H54.4701C48.1348 71.2864 45.0174 68.9709 45.0174 64.2894V59.6583V42.3923C44.5146 42.4929 44.0118 42.6439 43.509 42.795C40.4922 43.701 38.0284 44.9595 36.1178 46.5703C34.2071 48.1812 32.8496 50.094 31.9948 52.3592C31.14 54.5741 30.6875 57.0407 30.6875 59.8093V64.2391C30.6875 66.9573 31.14 69.4239 31.9948 71.6891C32.8496 73.904 34.2574 75.8169 36.1178 77.478C38.0284 79.0889 40.4922 80.3473 43.509 81.2534C46.5258 82.1595 50.1963 82.6125 54.4701 82.6125H99.0185C105.354 82.6125 108.471 84.9281 108.471 89.6096V99.1738C108.471 99.1738 108.471 99.4255 108.471 99.5765V116.44C108.974 116.339 109.527 116.188 109.98 116.037C112.996 115.131 115.46 113.873 117.371 112.262C119.281 110.651 120.639 108.738 121.494 106.473C122.349 104.258 122.801 101.791 122.801 99.0228V89.6599C122.801 86.9416 122.349 84.4751 121.494 82.2098Z" stroke="black" stroke-width="18.7061" stroke-linecap="round" stroke-linejoin="round"/>
<path d="M53.2634 41.5365C53.6656 41.5365 54.0679 41.5365 54.4701 41.5365H118.628V52.7619H54.4701C54.0679 52.7619 53.6656 52.7619 53.2634 52.7619V41.5365ZM100.175 106.121C99.7727 106.121 99.4207 106.121 99.0185 106.121H33.1512V117.346H99.0185C99.4207 117.346 99.823 117.346 100.175 117.346V106.121ZM121.494 82.2098C120.639 79.9949 119.231 78.0821 117.371 76.4209C115.46 74.8101 112.996 73.5516 109.98 72.6456C106.963 71.7395 103.292 71.2864 99.0185 71.2864H54.4701C48.1348 71.2864 45.0174 68.9709 45.0174 64.2894V59.6583V42.3923C44.5146 42.4929 44.0118 42.6439 43.509 42.795C40.4922 43.701 38.0284 44.9595 36.1178 46.5703C34.2071 48.1812 32.8496 50.094 31.9948 52.3592C31.14 54.5741 30.6875 57.0407 30.6875 59.8093V64.2391C30.6875 66.9573 31.14 69.4239 31.9948 71.6891C32.8496 73.904 34.2574 75.8169 36.1178 77.478C38.0284 79.0889 40.4922 80.3473 43.509 81.2534C46.5258 82.1595 50.1963 82.6125 54.4701 82.6125H99.0185C105.354 82.6125 108.471 84.9281 108.471 89.6096V99.1738C108.471 99.1738 108.471 99.4255 108.471 99.5765V116.44C108.974 116.339 109.527 116.188 109.98 116.037C112.996 115.131 115.46 113.873 117.371 112.262C119.281 110.651 120.639 108.738 121.494 106.473C122.349 104.258 122.801 101.791 122.801 99.0228V89.6599C122.801 86.9416 122.349 84.4751 121.494 82.2098Z" stroke="#000203" stroke-width="16.3764" stroke-linecap="round" stroke-linejoin="round"/>
<path d="M53.2634 41.5365C53.6656 41.5365 54.0679 41.5365 54.4701 41.5365H118.628V52.7619H54.4701C54.0679 52.7619 53.6656 52.7619 53.2634 52.7619V41.5365ZM100.175 106.121C99.7727 106.121 99.4207 106.121 99.0185 106.121H33.1512V117.346H99.0185C99.4207 117.346 99.823 117.346 100.175 117.346V106.121ZM121.494 82.2098C120.639 79.9949 119.231 78.0821 117.371 76.4209C115.46 74.8101 112.996 73.5516 109.98 72.6456C106.963 71.7395 103.292 71.2864 99.0185 71.2864H54.4701C48.1348 71.2864 45.0174 68.9709 45.0174 64.2894V59.6583V42.3923C44.5146 42.4929 44.0118 42.6439 43.509 42.795C40.4922 43.701 38.0284 44.9595 36.1178 46.5703C34.2071 48.1812 32.8496 50.094 31.9948 52.3592C31.14 54.5741 30.6875 57.0407 30.6875 59.8093V64.2391C30.6875 66.9573 31.14 69.4239 31.9948 71.6891C32.8496 73.904 34.2574 75.8169 36.1178 77.478C38.0284 79.0889 40.4922 80.3473 43.509 81.2534C46.5258 82.1595 50.1963 82.6125 54.4701 82.6125H99.0185C105.354 82.6125 108.471 84.9281 108.471 89.6096V99.1738C108.471 99.1738 108.471 99.4255 108.471 99.5765V116.44C108.974 116.339 109.527 116.188 109.98 116.037C112.996 115.131 115.46 113.873 117.371 112.262C119.281 110.651 120.639 108.738 121.494 106.473C122.349 104.258 122.801 101.791 122.801 99.0228V89.6599C122.801 86.9416 122.349 84.4751 121.494 82.2098Z" stroke="#000506" stroke-width="14.0353" stroke-linecap="round" stroke-linejoin="round"/>
<path d="M53.2634 41.5365C53.6656 41.5365 54.0679 41.5365 54.4701 41.5365H118.628V52.7619H54.4701C54.0679 52.7619 53.6656 52.7619 53.2634 52.7619V41.5365ZM100.175 106.121C99.7727 106.121 99.4207 106.121 99.0185 106.121H33.1512V117.346H99.0185C99.4207 117.346 99.823 117.346 100.175 117.346V106.121ZM121.494 82.2098C120.639 79.9949 119.231 78.0821 117.371 76.4209C115.46 74.8101 112.996 73.5516 109.98 72.6456C106.963 71.7395 103.292 71.2864 99.0185 71.2864H54.4701C48.1348 71.2864 45.0174 68.9709 45.0174 64.2894V59.6583V42.3923C44.5146 42.4929 44.0118 42.6439 43.509 42.795C40.4922 43.701 38.0284 44.9595 36.1178 46.5703C34.2071 48.1812 32.8496 50.094 31.9948 52.3592C31.14 54.5741 30.6875 57.0407 30.6875 59.8093V64.2391C30.6875 66.9573 31.14 69.4239 31.9948 71.6891C32.8496 73.904 34.2574 75.8169 36.1178 77.478C38.0284 79.0889 40.4922 80.3473 43.509 81.2534C46.5258 82.1595 50.1963 82.6125 54.4701 82.6125H99.0185C105.354 82.6125 108.471 84.9281 108.471 89.6096V99.1738C108.471 99.1738 108.471 99.4255 108.471 99.5765V116.44C108.974 116.339 109.527 116.188 109.98 116.037C112.996 115.131 115.46 113.873 117.371 112.262C119.281 110.651 120.639 108.738 121.494 106.473C122.349 104.258 122.801 101.791 122.801 99.0228V89.6599C122.801 86.9416 122.349 84.4751 121.494 82.2098Z" stroke="#000709" stroke-width="11.6942" stroke-linecap="round" stroke-linejoin="round"/>
<path d="M53.2634 41.5365C53.6656 41.5365 54.0679 41.5365 54.4701 41.5365H118.628V52.7619H54.4701C54.0679 52.7619 53.6656 52.7619 53.2634 52.7619V41.5365ZM100.175 106.121C99.7727 106.121 99.4207 106.121 99.0185 106.121H33.1512V117.346H99.0185C99.4207 117.346 99.823 117.346 100.175 117.346V106.121ZM121.494 82.2098C120.639 79.9949 119.231 78.0821 117.371 76.4209C115.46 74.8101 112.996 73.5516 109.98 72.6456C106.963 71.7395 103.292 71.2864 99.0185 71.2864H54.4701C48.1348 71.2864 45.0174 68.9709 45.0174 64.2894V59.6583V42.3923C44.5146 42.4929 44.0118 42.6439 43.509 42.795C40.4922 43.701 38.0284 44.9595 36.1178 46.5703C34.2071 48.1812 32.8496 50.094 31.9948 52.3592C31.14 54.5741 30.6875 57.0407 30.6875 59.8093V64.2391C30.6875 66.9573 31.14 69.4239 31.9948 71.6891C32.8496 73.904 34.2574 75.8169 36.1178 77.478C38.0284 79.0889 40.4922 80.3473 43.509 81.2534C46.5258 82.1595 50.1963 82.6125 54.4701 82.6125H99.0185C105.354 82.6125 108.471 84.9281 108.471 89.6096V99.1738C108.471 99.1738 108.471 99.4255 108.471 99.5765V116.44C108.974 116.339 109.527 116.188 109.98 116.037C112.996 115.131 115.46 113.873 117.371 112.262C119.281 110.651 120.639 108.738 121.494 106.473C122.349 104.258 122.801 101.791 122.801 99.0228V89.6599C122.801 86.9416 122.349 84.4751 121.494 82.2098Z" stroke="#00090C" stroke-width="9.35307" stroke-linecap="round" stroke-linejoin="round"/>
<path d="M53.2634 41.5365C53.6656 41.5365 54.0679 41.5365 54.4701 41.5365H118.628V52.7619H54.4701C54.0679 52.7619 53.6656 52.7619 53.2634 52.7619V41.5365ZM100.175 106.121C99.7727 106.121 99.4207 106.121 99.0185 106.121H33.1512V117.346H99.0185C99.4207 117.346 99.823 117.346 100.175 117.346V106.121ZM121.494 82.2098C120.639 79.9949 119.231 78.0821 117.371 76.4209C115.46 74.8101 112.996 73.5516 109.98 72.6456C106.963 71.7395 103.292 71.2864 99.0185 71.2864H54.4701C48.1348 71.2864 45.0174 68.9709 45.0174 64.2894V59.6583V42.3923C44.5146 42.4929 44.0118 42.6439 43.509 42.795C40.4922 43.701 38.0284 44.9595 36.1178 46.5703C34.2071 48.1812 32.8496 50.094 31.9948 52.3592C31.14 54.5741 30.6875 57.0407 30.6875 59.8093V64.2391C30.6875 66.9573 31.14 69.4239 31.9948 71.6891C32.8496 73.904 34.2574 75.8169 36.1178 77.478C38.0284 79.0889 40.4922 80.3473 43.509 81.2534C46.5258 82.1595 50.1963 82.6125 54.4701 82.6125H99.0185C105.354 82.6125 108.471 84.9281 108.471 89.6096V99.1738C108.471 99.1738 108.471 99.4255 108.471 99.5765V116.44C108.974 116.339 109.527 116.188 109.98 116.037C112.996 115.131 115.46 113.873 117.371 112.262C119.281 110.651 120.639 108.738 121.494 106.473C122.349 104.258 122.801 101.791 122.801 99.0228V89.6599C122.801 86.9416 122.349 84.4751 121.494 82.2098Z" stroke="#000C0F" stroke-width="7.01196" stroke-linecap="round" stroke-linejoin="round"/>
<path d="M53.2634 41.5365C53.6656 41.5365 54.0679 41.5365 54.4701 41.5365H118.628V52.7619H54.4701C54.0679 52.7619 53.6656 52.7619 53.2634 52.7619V41.5365ZM100.175 106.121C99.7727 106.121 99.4207 106.121 99.0185 106.121H33.1512V117.346H99.0185C99.4207 117.346 99.823 117.346 100.175 117.346V106.121ZM121.494 82.2098C120.639 79.9949 119.231 78.0821 117.371 76.4209C115.46 74.8101 112.996 73.5516 109.98 72.6456C106.963 71.7395 103.292 71.2864 99.0185 71.2864H54.4701C48.1348 71.2864 45.0174 68.9709 45.0174 64.2894V59.6583V42.3923C44.5146 42.4929 44.0118 42.6439 43.509 42.795C40.4922 43.701 38.0284 44.9595 36.1178 46.5703C34.2071 48.1812 32.8496 50.094 31.9948 52.3592C31.14 54.5741 30.6875 57.0407 30.6875 59.8093V64.2391C30.6875 66.9573 31.14 69.4239 31.9948 71.6891C32.8496 73.904 34.2574 75.8169 36.1178 77.478C38.0284 79.0889 40.4922 80.3473 43.509 81.2534C46.5258 82.1595 50.1963 82.6125 54.4701 82.6125H99.0185C105.354 82.6125 108.471 84.9281 108.471 89.6096V99.1738C108.471 99.1738 108.471 99.4255 108.471 99.5765V116.44C108.974 116.339 109.527 116.188 109.98 116.037C112.996 115.131 115.46 113.873 117.371 112.262C119.281 110.651 120.639 108.738 121.494 106.473C122.349 104.258 122.801 101.791 122.801 99.0228V89.6599C122.801 86.9416 122.349 84.4751 121.494 82.2098Z" stroke="#000E12" stroke-width="4.68222" stroke-linecap="round" stroke-linejoin="round"/>
<path d="M53.2634 41.5365C53.6656 41.5365 54.0679 41.5365 54.4701 41.5365H118.628V52.7619H54.4701C54.0679 52.7619 53.6656 52.7619 53.2634 52.7619V41.5365ZM100.175 106.121C99.7727 106.121 99.4207 106.121 99.0185 106.121H33.1512V117.346H99.0185C99.4207 117.346 99.823 117.346 100.175 117.346V106.121ZM121.494 82.2098C120.639 79.9949 119.231 78.0821 117.371 76.4209C115.46 74.8101 112.996 73.5516 109.98 72.6456C106.963 71.7395 103.292 71.2864 99.0185 71.2864H54.4701C48.1348 71.2864 45.0174 68.9709 45.0174 64.2894V59.6583V42.3923C44.5146 42.4929 44.0118 42.6439 43.509 42.795C40.4922 43.701 38.0284 44.9595 36.1178 46.5703C34.2071 48.1812 32.8496 50.094 31.9948 52.3592C31.14 54.5741 30.6875 57.0407 30.6875 59.8093V64.2391C30.6875 66.9573 31.14 69.4239 31.9948 71.6891C32.8496 73.904 34.2574 75.8169 36.1178 77.478C38.0284 79.0889 40.4922 80.3473 43.509 81.2534C46.5258 82.1595 50.1963 82.6125 54.4701 82.6125H99.0185C105.354 82.6125 108.471 84.9281 108.471 89.6096V99.1738C108.471 99.1738 108.471 99.4255 108.471 99.5765V116.44C108.974 116.339 109.527 116.188 109.98 116.037C112.996 115.131 115.46 113.873 117.371 112.262C119.281 110.651 120.639 108.738 121.494 106.473C122.349 104.258 122.801 101.791 122.801 99.0228V89.6599C122.801 86.9416 122.349 84.4751 121.494 82.2098Z" stroke="#001A20" stroke-width="3.98898" stroke-linecap="round" stroke-linejoin="round"/>
<path d="M53.2634 41.5365C53.6656 41.5365 54.0679 41.5365 54.4701 41.5365H118.628V52.7619H54.4701C54.0679 52.7619 53.6656 52.7619 53.2634 52.7619V41.5365ZM100.175 106.121C99.7727 106.121 99.4207 106.121 99.0185 106.121H33.1512V117.346H99.0185C99.4207 117.346 99.823 117.346 100.175 117.346V106.121ZM121.494 82.2098C120.639 79.9949 119.231 78.0821 117.371 76.4209C115.46 74.8101 112.996 73.5516 109.98 72.6456C106.963 71.7395 103.292 71.2864 99.0185 71.2864H54.4701C48.1348 71.2864 45.0174 68.9709 45.0174 64.2894V59.6583V42.3923C44.5146 42.4929 44.0118 42.6439 43.509 42.795C40.4922 43.701 38.0284 44.9595 36.1178 46.5703C34.2071 48.1812 32.8496 50.094 31.9948 52.3592C31.14 54.5741 30.6875 57.0407 30.6875 59.8093V64.2391C30.6875 66.9573 31.14 69.4239 31.9948 71.6891C32.8496 73.904 34.2574 75.8169 36.1178 77.478C38.0284 79.0889 40.4922 80.3473 43.509 81.2534C46.5258 82.1595 50.1963 82.6125 54.4701 82.6125H99.0185C105.354 82.6125 108.471 84.9281 108.471 89.6096V99.1738C108.471 99.1738 108.471 99.4255 108.471 99.5765V116.44C108.974 116.339 109.527 116.188 109.98 116.037C112.996 115.131 115.46 113.873 117.371 112.262C119.281 110.651 120.639 108.738 121.494 106.473C122.349 104.258 122.801 101.791 122.801 99.0228V89.6599C122.801 86.9416 122.349 84.4751 121.494 82.2098Z" stroke="#00252E" stroke-width="3.3071" stroke-linecap="round" stroke-linejoin="round"/>
<path d="M53.2634 41.5365C53.6656 41.5365 54.0679 41.5365 54.4701 41.5365H118.628V52.7619H54.4701C54.0679 52.7619 53.6656 52.7619 53.2634 52.7619V41.5365ZM100.175 106.121C99.7727 106.121 99.4207 106.121 99.0185 106.121H33.1512V117.346H99.0185C99.4207 117.346 99.823 117.346 100.175 117.346V106.121ZM121.494 82.2098C120.639 79.9949 119.231 78.0821 117.371 76.4209C115.46 74.8101 112.996 73.5516 109.98 72.6456C106.963 71.7395 103.292 71.2864 99.0185 71.2864H54.4701C48.1348 71.2864 45.0174 68.9709 45.0174 64.2894V59.6583V42.3923C44.5146 42.4929 44.0118 42.6439 43.509 42.795C40.4922 43.701 38.0284 44.9595 36.1178 46.5703C34.2071 48.1812 32.8496 50.094 31.9948 52.3592C31.14 54.5741 30.6875 57.0407 30.6875 59.8093V64.2391C30.6875 66.9573 31.14 69.4239 31.9948 71.6891C32.8496 73.904 34.2574 75.8169 36.1178 77.478C38.0284 79.0889 40.4922 80.3473 43.509 81.2534C46.5258 82.1595 50.1963 82.6125 54.4701 82.6125H99.0185C105.354 82.6125 108.471 84.9281 108.471 89.6096V99.1738C108.471 99.1738 108.471 99.4255 108.471 99.5765V116.44C108.974 116.339 109.527 116.188 109.98 116.037C112.996 115.131 115.46 113.873 117.371 112.262C119.281 110.651 120.639 108.738 121.494 106.473C122.349 104.258 122.801 101.791 122.801 99.0228V89.6599C122.801 86.9416 122.349 84.4751 121.494 82.2098Z" stroke="#00313C" stroke-width="2.62522" stroke-linecap="round" stroke-linejoin="round"/>
<path d="M53.2634 41.5365C53.6656 41.5365 54.0679 41.5365 54.4701 41.5365H118.628V52.7619H54.4701C54.0679 52.7619 53.6656 52.7619 53.2634 52.7619V41.5365ZM100.175 106.121C99.7727 106.121 99.4207 106.121 99.0185 106.121H33.1512V117.346H99.0185C99.4207 117.346 99.823 117.346 100.175 117.346V106.121ZM121.494 82.2098C120.639 79.9949 119.231 78.0821 117.371 76.4209C115.46 74.8101 112.996 73.5516 109.98 72.6456C106.963 71.7395 103.292 71.2864 99.0185 71.2864H54.4701C48.1348 71.2864 45.0174 68.9709 45.0174 64.2894V59.6583V42.3923C44.5146 42.4929 44.0118 42.6439 43.509 42.795C40.4922 43.701 38.0284 44.9595 36.1178 46.5703C34.2071 48.1812 32.8496 50.094 31.9948 52.3592C31.14 54.5741 30.6875 57.0407 30.6875 59.8093V64.2391C30.6875 66.9573 31.14 69.4239 31.9948 71.6891C32.8496 73.904 34.2574 75.8169 36.1178 77.478C38.0284 79.0889 40.4922 80.3473 43.509 81.2534C46.5258 82.1595 50.1963 82.6125 54.4701 82.6125H99.0185C105.354 82.6125 108.471 84.9281 108.471 89.6096V99.1738C108.471 99.1738 108.471 99.4255 108.471 99.5765V116.44C108.974 116.339 109.527 116.188 109.98 116.037C112.996 115.131 115.46 113.873 117.371 112.262C119.281 110.651 120.639 108.738 121.494 106.473C122.349 104.258 122.801 101.791 122.801 99.0228V89.6599C122.801 86.9416 122.349 84.4751 121.494 82.2098Z" stroke="#003D4A" stroke-width="1.93198" stroke-linecap="round" stroke-linejoin="round"/>
<path d="M53.2634 41.5365C53.6656 41.5365 54.0679 41.5365 54.4701 41.5365H118.628V52.7619H54.4701C54.0679 52.7619 53.6656 52.7619 53.2634 52.7619V41.5365ZM100.175 106.121C99.7727 106.121 99.4207 106.121 99.0185 106.121H33.1512V117.346H99.0185C99.4207 117.346 99.823 117.346 100.175 117.346V106.121ZM121.494 82.2098C120.639 79.9949 119.231 78.0821 117.371 76.4209C115.46 74.8101 112.996 73.5516 109.98 72.6456C106.963 71.7395 103.292 71.2864 99.0185 71.2864H54.4701C48.1348 71.2864 45.0174 68.9709 45.0174 64.2894V59.6583V42.3923C44.5146 42.4929 44.0118 42.6439 43.509 42.795C40.4922 43.701 38.0284 44.9595 36.1178 46.5703C34.2071 48.1812 32.8496 50.094 31.9948 52.3592C31.14 54.5741 30.6875 57.0407 30.6875 59.8093V64.2391C30.6875 66.9573 31.14 69.4239 31.9948 71.6891C32.8496 73.904 34.2574 75.8169 36.1178 77.478C38.0284 79.0889 40.4922 80.3473 43.509 81.2534C46.5258 82.1595 50.1963 82.6125 54.4701 82.6125H99.0185C105.354 82.6125 108.471 84.9281 108.471 89.6096V99.1738C108.471 99.1738 108.471 99.4255 108.471 99.5765V116.44C108.974 116.339 109.527 116.188 109.98 116.037C112.996 115.131 115.46 113.873 117.371 112.262C119.281 110.651 120.639 108.738 121.494 106.473C122.349 104.258 122.801 101.791 122.801 99.0228V89.6599C122.801 86.9416 122.349 84.4751 121.494 82.2098Z" stroke="#004858" stroke-width="1.25011" stroke-linecap="round" stroke-linejoin="round"/>
<path d="M53.2634 41.5365C53.6656 41.5365 54.0679 41.5365 54.4701 41.5365H118.628V52.7619H54.4701C54.0679 52.7619 53.6656 52.7619 53.2634 52.7619V41.5365ZM100.175 106.121C99.7727 106.121 99.4207 106.121 99.0185 106.121H33.1512V117.346H99.0185C99.4207 117.346 99.823 117.346 100.175 117.346V106.121ZM121.494 82.2098C120.639 79.9949 119.231 78.0821 117.371 76.4209C115.46 74.8101 112.996 73.5516 109.98 72.6456C106.963 71.7395 103.292 71.2864 99.0185 71.2864H54.4701C48.1348 71.2864 45.0174 68.9709 45.0174 64.2894V59.6583V42.3923C44.5146 42.4929 44.0118 42.6439 43.509 42.795C40.4922 43.701 38.0284 44.9595 36.1178 46.5703C34.2071 48.1812 32.8496 50.094 31.9948 52.3592C31.14 54.5741 30.6875 57.0407 30.6875 59.8093V64.2391C30.6875 66.9573 31.14 69.4239 31.9948 71.6891C32.8496 73.904 34.2574 75.8169 36.1178 77.478C38.0284 79.0889 40.4922 80.3473 43.509 81.2534C46.5258 82.1595 50.1963 82.6125 54.4701 82.6125H99.0185C105.354 82.6125 108.471 84.9281 108.471 89.6096V99.1738C108.471 99.1738 108.471 99.4255 108.471 99.5765V116.44C108.974 116.339 109.527 116.188 109.98 116.037C112.996 115.131 115.46 113.873 117.371 112.262C119.281 110.651 120.639 108.738 121.494 106.473C122.349 104.258 122.801 101.791 122.801 99.0228V89.6599C122.801 86.9416 122.349 84.4751 121.494 82.2098Z" stroke="#005466" stroke-width="0.556866" stroke-linecap="round" stroke-linejoin="round"/>
<path d="M53.2634 41.5365C53.6656 41.5365 54.0679 41.5365 54.4701 41.5365H118.628V52.7619H54.4701C54.0679 52.7619 53.6656 52.7619 53.2634 52.7619V41.5365ZM100.175 106.121C99.7727 106.121 99.4207 106.121 99.0185 106.121H33.1512V117.346H99.0185C99.4207 117.346 99.823 117.346 100.175 117.346V106.121ZM121.494 82.2098C120.639 79.9949 119.231 78.0821 117.371 76.4209C115.46 74.8101 112.996 73.5516 109.98 72.6456C106.963 71.7395 103.292 71.2864 99.0185 71.2864H54.4701C48.1348 71.2864 45.0174 68.9709 45.0174 64.2894V59.6583V42.3923C44.5146 42.4929 44.0118 42.6439 43.509 42.795C40.4922 43.701 38.0284 44.9595 36.1178 46.5703C34.2071 48.1812 32.8496 50.094 31.9948 52.3592C31.14 54.5741 30.6875 57.0407 30.6875 59.8093V64.2391C30.6875 66.9573 31.14 69.4239 31.9948 71.6891C32.8496 73.904 34.2574 75.8169 36.1178 77.478C38.0284 79.0889 40.4922 80.3473 43.509 81.2534C46.5258 82.1595 50.1963 82.6125 54.4701 82.6125H99.0185C105.354 82.6125 108.471 84.9281 108.471 89.6096V99.1738C108.471 99.1738 108.471 99.4255 108.471 99.5765V116.44C108.974 116.339 109.527 116.188 109.98 116.037C112.996 115.131 115.46 113.873 117.371 112.262C119.281 110.651 120.639 108.738 121.494 106.473C122.349 104.258 122.801 101.791 122.801 99.0228V89.6599C122.801 86.9416 122.349 84.4751 121.494 82.2098Z" stroke="#007180" stroke-width="0.488678" stroke-linecap="round" stroke-linejoin="round"/>
<path d="M53.2634 41.5365C53.6656 41.5365 54.0679 41.5365 54.4701 41.5365H118.628V52.7619H54.4701C54.0679 52.7619 53.6656 52.7619 53.2634 52.7619V41.5365ZM100.175 106.121C99.7727 106.121 99.4207 106.121 99.0185 106.121H33.1512V117.346H99.0185C99.4207 117.346 99.823 117.346 100.175 117.346V106.121ZM121.494 82.2098C120.639 79.9949 119.231 78.0821 117.371 76.4209C115.46 74.8101 112.996 73.5516 109.98 72.6456C106.963 71.7395 103.292 71.2864 99.0185 71.2864H54.4701C48.1348 71.2864 45.0174 68.9709 45.0174 64.2894V59.6583V42.3923C44.5146 42.4929 44.0118 42.6439 43.509 42.795C40.4922 43.701 38.0284 44.9595 36.1178 46.5703C34.2071 48.1812 32.8496 50.094 31.9948 52.3592C31.14 54.5741 30.6875 57.0407 30.6875 59.8093V64.2391C30.6875 66.9573 31.14 69.4239 31.9948 71.6891C32.8496 73.904 34.2574 75.8169 36.1178 77.478C38.0284 79.0889 40.4922 80.3473 43.509 81.2534C46.5258 82.1595 50.1963 82.6125 54.4701 82.6125H99.0185C105.354 82.6125 108.471 84.9281 108.471 89.6096V99.1738C108.471 99.1738 108.471 99.4255 108.471 99.5765V116.44C108.974 116.339 109.527 116.188 109.98 116.037C112.996 115.131 115.46 113.873 117.371 112.262C119.281 110.651 120.639 108.738 121.494 106.473C122.349 104.258 122.801 101.791 122.801 99.0228V89.6599C122.801 86.9416 122.349 84.4751 121.494 82.2098Z" stroke="#008D99" stroke-width="0.409126" stroke-linecap="round" stroke-linejoin="round"/>
<path d="M53.2634 41.5365C53.6656 41.5365 54.0679 41.5365 54.4701 41.5365H118.628V52.7619H54.4701C54.0679 52.7619 53.6656 52.7619 53.2634 52.7619V41.5365ZM100.175 106.121C99.7727 106.121 99.4207 106.121 99.0185 106.121H33.1512V117.346H99.0185C99.4207 117.346 99.823 117.346 100.175 117.346V106.121ZM121.494 82.2098C120.639 79.9949 119.231 78.0821 117.371 76.4209C115.46 74.8101 112.996 73.5516 109.98 72.6456C106.963 71.7395 103.292 71.2864 99.0185 71.2864H54.4701C48.1348 71.2864 45.0174 68.9709 45.0174 64.2894V59.6583V42.3923C44.5146 42.4929 44.0118 42.6439 43.509 42.795C40.4922 43.701 38.0284 44.9595 36.1178 46.5703C34.2071 48.1812 32.8496 50.094 31.9948 52.3592C31.14 54.5741 30.6875 57.0407 30.6875 59.8093V64.2391C30.6875 66.9573 31.14 69.4239 31.9948 71.6891C32.8496 73.904 34.2574 75.8169 36.1178 77.478C38.0284 79.0889 40.4922 80.3473 43.509 81.2534C46.5258 82.1595 50.1963 82.6125 54.4701 82.6125H99.0185C105.354 82.6125 108.471 84.9281 108.471 89.6096V99.1738C108.471 99.1738 108.471 99.4255 108.471 99.5765V116.44C108.974 116.339 109.527 116.188 109.98 116.037C112.996 115.131 115.46 113.873 117.371 112.262C119.281 110.651 120.639 108.738 121.494 106.473C122.349 104.258 122.801 101.791 122.801 99.0228V89.6599C122.801 86.9416 122.349 84.4751 121.494 82.2098Z" stroke="#00AAB3" stroke-width="0.329574" stroke-linecap="round" stroke-linejoin="round"/>
<path d="M53.2634 41.5365C53.6656 41.5365 54.0679 41.5365 54.4701 41.5365H118.628V52.7619H54.4701C54.0679 52.7619 53.6656 52.7619 53.2634 52.7619V41.5365ZM100.175 106.121C99.7727 106.121 99.4207 106.121 99.0185 106.121H33.1512V117.346H99.0185C99.4207 117.346 99.823 117.346 100.175 117.346V106.121ZM121.494 82.2098C120.639 79.9949 119.231 78.0821 117.371 76.4209C115.46 74.8101 112.996 73.5516 109.98 72.6456C106.963 71.7395 103.292 71.2864 99.0185 71.2864H54.4701C48.1348 71.2864 45.0174 68.9709 45.0174 64.2894V59.6583V42.3923C44.5146 42.4929 44.0118 42.6439 43.509 42.795C40.4922 43.701 38.0284 44.9595 36.1178 46.5703C34.2071 48.1812 32.8496 50.094 31.9948 52.3592C31.14 54.5741 30.6875 57.0407 30.6875 59.8093V64.2391C30.6875 66.9573 31.14 69.4239 31.9948 71.6891C32.8496 73.904 34.2574 75.8169 36.1178 77.478C38.0284 79.0889 40.4922 80.3473 43.509 81.2534C46.5258 82.1595 50.1963 82.6125 54.4701 82.6125H99.0185C105.354 82.6125 108.471 84.9281 108.471 89.6096V99.1738C108.471 99.1738 108.471 99.4255 108.471 99.5765V116.44C108.974 116.339 109.527 116.188 109.98 116.037C112.996 115.131 115.46 113.873 117.371 112.262C119.281 110.651 120.639 108.738 121.494 106.473C122.349 104.258 122.801 101.791 122.801 99.0228V89.6599C122.801 86.9416 122.349 84.4751 121.494 82.2098Z" stroke="#00C6CC" stroke-width="0.250021" stroke-linecap="round" stroke-linejoin="round"/>
<path d="M53.2634 41.5365C53.6656 41.5365 54.0679 41.5365 54.4701 41.5365H118.628V52.7619H54.4701C54.0679 52.7619 53.6656 52.7619 53.2634 52.7619V41.5365ZM100.175 106.121C99.7727 106.121 99.4207 106.121 99.0185 106.121H33.1512V117.346H99.0185C99.4207 117.346 99.823 117.346 100.175 117.346V106.121ZM121.494 82.2098C120.639 79.9949 119.231 78.0821 117.371 76.4209C115.46 74.8101 112.996 73.5516 109.98 72.6456C106.963 71.7395 103.292 71.2864 99.0185 71.2864H54.4701C48.1348 71.2864 45.0174 68.9709 45.0174 64.2894V59.6583V42.3923C44.5146 42.4929 44.0118 42.6439 43.509 42.795C40.4922 43.701 38.0284 44.9595 36.1178 46.5703C34.2071 48.1812 32.8496 50.094 31.9948 52.3592C31.14 54.5741 30.6875 57.0407 30.6875 59.8093V64.2391C30.6875 66.9573 31.14 69.4239 31.9948 71.6891C32.8496 73.904 34.2574 75.8169 36.1178 77.478C38.0284 79.0889 40.4922 80.3473 43.509 81.2534C46.5258 82.1595 50.1963 82.6125 54.4701 82.6125H99.0185C105.354 82.6125 108.471 84.9281 108.471 89.6096V99.1738C108.471 99.1738 108.471 99.4255 108.471 99.5765V116.44C108.974 116.339 109.527 116.188 109.98 116.037C112.996 115.131 115.46 113.873 117.371 112.262C119.281 110.651 120.639 108.738 121.494 106.473C122.349 104.258 122.801 101.791 122.801 99.0228V89.6599C122.801 86.9416 122.349 84.4751 121.494 82.2098Z" stroke="#00E2E5" stroke-width="0.170469" stroke-linecap="round" stroke-linejoin="round"/>
<path d="M53.2634 41.5365C53.6656 41.5365 54.0679 41.5365 54.4701 41.5365H118.628V52.7619H54.4701C54.0679 52.7619 53.6656 52.7619 53.2634 52.7619V41.5365ZM100.175 106.121C99.7727 106.121 99.4207 106.121 99.0185 106.121H33.1512V117.346H99.0185C99.4207 117.346 99.823 117.346 100.175 117.346V106.121ZM121.494 82.2098C120.639 79.9949 119.231 78.0821 117.371 76.4209C115.46 74.8101 112.996 73.5516 109.98 72.6456C106.963 71.7395 103.292 71.2864 99.0185 71.2864H54.4701C48.1348 71.2864 45.0174 68.9709 45.0174 64.2894V59.6583V42.3923C44.5146 42.4929 44.0118 42.6439 43.509 42.795C40.4922 43.701 38.0284 44.9595 36.1178 46.5703C34.2071 48.1812 32.8496 50.094 31.9948 52.3592C31.14 54.5741 30.6875 57.0407 30.6875 59.8093V64.2391C30.6875 66.9573 31.14 69.4239 31.9948 71.6891C32.8496 73.904 34.2574 75.8169 36.1178 77.478C38.0284 79.0889 40.4922 80.3473 43.509 81.2534C46.5258 82.1595 50.1963 82.6125 54.4701 82.6125H99.0185C105.354 82.6125 108.471 84.9281 108.471 89.6096V99.1738C108.471 99.1738 108.471 99.4255 108.471 99.5765V116.44C108.974 116.339 109.527 116.188 109.98 116.037C112.996 115.131 115.46 113.873 117.371 112.262C119.281 110.651 120.639 108.738 121.494 106.473C122.349 104.258 122.801 101.791 122.801 99.0228V89.6599C122.801 86.9416 122.349 84.4751 121.494 82.2098Z" stroke="#00FFFF" stroke-width="0.0909169" stroke-linecap="round" stroke-linejoin="round"/>
</g>
<path d="M53.2634 41.5365C53.6656 41.5365 54.0679 41.5365 54.4701 41.5365H118.628V52.7619H54.4701C54.0679 52.7619 53.6656 52.7619 53.2634 52.7619V41.5365ZM100.175 106.121C99.7727 106.121 99.4207 106.121 99.0185 106.121H33.1512V117.346H99.0185C99.4207 117.346 99.823 117.346 100.175 117.346V106.121ZM121.494 82.2098C120.639 79.9949 119.231 78.0821 117.371 76.4209C115.46 74.8101 112.996 73.5516 109.98 72.6456C106.963 71.7395 103.292 71.2864 99.0185 71.2864H54.4701C48.1348 71.2864 45.0174 68.9709 45.0174 64.2894V59.6583V42.3923C44.5146 42.4929 44.0118 42.6439 43.509 42.795C40.4922 43.701 38.0284 44.9595 36.1178 46.5703C34.2071 48.1812 32.8496 50.094 31.9948 52.3592C31.14 54.5741 30.6875 57.0407 30.6875 59.8093V64.2391C30.6875 66.9573 31.14 69.4239 31.9948 71.6891C32.8496 73.904 34.2574 75.8169 36.1178 77.478C38.0284 79.0889 40.4922 80.3473 43.509 81.2534C46.5258 82.1595 50.1963 82.6125 54.4701 82.6125H99.0185C105.354 82.6125 108.471 84.9281 108.471 89.6096V99.1738C108.471 99.1738 108.471 99.4255 108.471 99.5765V116.44C108.974 116.339 109.527 116.188 109.98 116.037C112.996 115.131 115.46 113.873 117.371 112.262C119.281 110.651 120.639 108.738 121.494 106.473C122.349 104.258 122.801 101.791 122.801 99.0228V89.6599C122.801 86.9416 122.349 84.4751 121.494 82.2098Z" stroke="white" stroke-width="0.0909169" stroke-linecap="round" stroke-linejoin="round"/>
<g style="mix-blend-mode:overlay">
<path d="M49.6425 102.295H45.5195V104.258H49.6425V102.295Z" fill="#00D5FF"/>
</g>
<g style="mix-blend-mode:overlay">
<path d="M60.1517 110.701H32.2461V111.406H60.1517V110.701Z" fill="#00D5FF"/>
</g>
<g style="mix-blend-mode:overlay">
<path d="M64.1743 106.271H50.1963V106.725H64.1743V106.271Z" fill="#00D5FF"/>
</g>
<g style="mix-blend-mode:overlay">
<path d="M52.7103 108.637H28.7266V108.788H52.7103V108.637Z" fill="#00D5FF"/>
</g>
<g style="mix-blend-mode:overlay">
<path d="M56.6321 113.621H55.5762V114.225H56.6321V113.621Z" fill="#00D5FF"/>
</g>
<g style="mix-blend-mode:overlay">
<path d="M41.7991 113.168H38.9834V114.628H41.7991V113.168Z" fill="#00D5FF"/>
</g>
<g style="mix-blend-mode:overlay">
<path d="M52.4584 105.667H48.084V107.228H52.4584V105.667Z" fill="#00D5FF"/>
</g>
<g style="mix-blend-mode:overlay">
<path d="M44.4135 105.667H36.3184V106.272H44.4135V105.667Z" fill="#00D5FF"/>
</g>
<g style="mix-blend-mode:overlay">
<path d="M111.839 100.533H107.968V102.345H111.839V100.533Z" fill="#00D5FF"/>
</g>
<g style="mix-blend-mode:overlay">
<path d="M121.544 108.335H95.6494V108.99H121.544V108.335Z" fill="#00D5FF"/>
</g>
<g style="mix-blend-mode:overlay">
<path d="M125.264 104.208H112.292V104.661H125.264V104.208Z" fill="#00D5FF"/>
</g>
<g style="mix-blend-mode:overlay">
<path d="M114.605 106.422H92.3311V106.573H114.605V106.422Z" fill="#00D5FF"/>
</g>
<g style="mix-blend-mode:overlay">
<path d="M118.326 111.053H117.32V111.607H118.326V111.053Z" fill="#00D5FF"/>
</g>
<g style="mix-blend-mode:overlay">
<path d="M104.498 110.651H101.884V112.01H104.498V110.651Z" fill="#00D5FF"/>
</g>
<g style="mix-blend-mode:overlay">
<path d="M114.404 103.654H110.331V105.114H114.404V103.654Z" fill="#00D5FF"/>
</g>
<g style="mix-blend-mode:overlay">
<path d="M106.912 103.654H99.4199V104.207H106.912V103.654Z" fill="#00D5FF"/>
</g>
<g style="mix-blend-mode:overlay">
<path d="M85.3413 67.36H81.4697V69.1722H85.3413V67.36Z" fill="#00D5FF"/>
</g>
<g style="mix-blend-mode:overlay">
<path d="M95.0965 75.1624H69.1016V75.8168H95.0965V75.1624Z" fill="#00D5FF"/>
</g>
<g style="mix-blend-mode:overlay">
<path d="M98.8673 71.0851H85.8447V71.5381H98.8673V71.0851Z" fill="#00D5FF"/>
</g>
<g style="mix-blend-mode:overlay">
<path d="M88.1076 73.2997H65.7832V73.4507H88.1076V73.2997Z" fill="#00D5FF"/>
</g>
<g style="mix-blend-mode:overlay">
<path d="M91.8786 77.931H90.873V78.4848H91.8786V77.931Z" fill="#00D5FF"/>
</g>
<g style="mix-blend-mode:overlay">
<path d="M77.9505 77.4779H75.3359V78.837H77.9505V77.4779Z" fill="#00D5FF"/>
</g>
<g style="mix-blend-mode:overlay">
<path d="M87.9057 70.4808H83.833V71.9406H87.9057V70.4808Z" fill="#00D5FF"/>
</g>
<g style="mix-blend-mode:overlay">
<path d="M80.4141 70.4808H72.8721V71.0346H80.4141V70.4808Z" fill="#00D5FF"/>
</g>
<g style="mix-blend-mode:overlay">
<path d="M34.207 66.4036H30.084V68.3668H34.207V66.4036Z" fill="#00D5FF"/>
</g>
<g style="mix-blend-mode:overlay">
<path d="M44.6146 74.7598H16.9102V75.4645H44.6146V74.7598Z" fill="#00D5FF"/>
</g>
<g style="mix-blend-mode:overlay">
<path d="M48.5873 70.3804H34.71V70.8334H48.5873V70.3804Z" fill="#00D5FF"/>
</g>
<g style="mix-blend-mode:overlay">
<path d="M37.1732 72.7462H13.3906V72.8972H37.1732V72.7462Z" fill="#00D5FF"/>
</g>
<g style="mix-blend-mode:overlay">
<path d="M41.1457 77.6793H40.0898V78.2834H41.1457V77.6793Z" fill="#00D5FF"/>
</g>
<g style="mix-blend-mode:overlay">
<path d="M26.3123 77.2263H23.5469V78.6861H26.3123V77.2263Z" fill="#00D5FF"/>
</g>
<g style="mix-blend-mode:overlay">
<path d="M36.9218 69.776H32.5977V71.3365H36.9218V69.776Z" fill="#00D5FF"/>
</g>
<g style="mix-blend-mode:overlay">
<path d="M28.9775 69.776H20.9326V70.3801H28.9775V69.776Z" fill="#00D5FF"/>
</g>
<g style="mix-blend-mode:overlay">
<path d="M73.3252 35.5964H69.3027V37.5093H73.3252V35.5964Z" fill="#00D5FF"/>
</g>
<g style="mix-blend-mode:overlay">
<path d="M83.481 43.7512H56.3799V44.4056H83.481V43.7512Z" fill="#00D5FF"/>
</g>
<g style="mix-blend-mode:overlay">
<path d="M87.4038 39.4725H73.8281V39.9256H87.4038V39.4725Z" fill="#00D5FF"/>
</g>
<g style="mix-blend-mode:overlay">
<path d="M76.2407 41.7882H52.9609V41.9392H76.2407V41.7882Z" fill="#00D5FF"/>
</g>
<g style="mix-blend-mode:overlay">
<path d="M80.0622 46.6206H79.0566V47.2247H80.0622V46.6206Z" fill="#00D5FF"/>
</g>
<g style="mix-blend-mode:overlay">
<path d="M65.6321 46.1676H62.917V47.5771H65.6321V46.1676Z" fill="#00D5FF"/>
</g>
<g style="mix-blend-mode:overlay">
<path d="M76.0394 38.9187H71.7656V40.4289H76.0394V38.9187Z" fill="#00D5FF"/>
</g>
<g style="mix-blend-mode:overlay">
<path d="M68.1963 38.9187H60.3525V39.5228H68.1963V38.9187Z" fill="#00D5FF"/>
</g>
<g style="mix-blend-mode:overlay">
<path d="M125.817 40.4794H121.694V42.4426H125.817V40.4794Z" fill="#00D5FF"/>
</g>
<g style="mix-blend-mode:overlay">
<path d="M136.176 48.785H108.521V49.4898H136.176V48.785Z" fill="#00D5FF"/>
</g>
<g style="mix-blend-mode:overlay">
<path d="M140.147 44.4058H126.32V44.8588H140.147V44.4058Z" fill="#00D5FF"/>
</g>
<g style="mix-blend-mode:overlay">
<path d="M128.784 46.7716H105.052V46.9226H128.784V46.7716Z" fill="#00D5FF"/>
</g>
<g style="mix-blend-mode:overlay">
<path d="M132.706 51.7047H131.65V52.3088H132.706V51.7047Z" fill="#00D5FF"/>
</g>
<g style="mix-blend-mode:overlay">
<path d="M117.973 51.2517H115.208V52.7115H117.973V51.2517Z" fill="#00D5FF"/>
</g>
<g style="mix-blend-mode:overlay">
<path d="M128.533 43.8016H124.209V45.3621H128.533V43.8016Z" fill="#00D5FF"/>
</g>
<g style="mix-blend-mode:overlay">
<path d="M120.588 43.8016H112.594V44.4057H120.588V43.8016Z" fill="#00D5FF"/>
</g>
<g style="mix-blend-mode:overlay">
<path d="M100.426 51H105.202V48.7348H100.426V51Z" fill="#00D5FF"/>
</g>
<g style="mix-blend-mode:overlay">
<path d="M88.3084 41.2845L120.538 41.2845V40.4791L88.3084 40.4791V41.2845Z" fill="#00D5FF"/>
</g>
<g style="mix-blend-mode:overlay">
<path d="M83.6823 46.369H99.8223V45.8153H83.6823V46.369Z" fill="#00D5FF"/>
</g>
<g style="mix-blend-mode:overlay">
<path d="M96.9567 43.6505H124.661V43.4492H96.9567V43.6505Z" fill="#00D5FF"/>
</g>
<g style="mix-blend-mode:overlay">
<path d="M92.3812 37.8616H93.5879V37.1568H92.3812V37.8616Z" fill="#00D5FF"/>
</g>
<g style="mix-blend-mode:overlay">
<path d="M109.577 38.3652H112.795V36.6537H109.577V38.3652Z" fill="#00D5FF"/>
</g>
<g style="mix-blend-mode:overlay">
<path d="M97.2078 47.0737H102.286V45.2616H97.2078V47.0737Z" fill="#00D5FF"/>
</g>
<g style="mix-blend-mode:overlay">
<path d="M106.459 47.0232H115.812V46.3185H106.459V47.0232Z" fill="#00D5FF"/>
</g>
<g style="mix-blend-mode:overlay">
<path d="M85.3419 56.2855H89.7666V54.1713H85.3419V56.2855Z" fill="#00D5FF"/>
</g>
<g style="mix-blend-mode:overlay">
<path d="M74.1296 47.2749L103.996 47.2749V46.5198L74.1296 46.5198V47.2749Z" fill="#00D5FF"/>
</g>
<g style="mix-blend-mode:overlay">
<path d="M69.8558 52.0066H84.7891V51.5032H69.8558V52.0066Z" fill="#00D5FF"/>
</g>
<g style="mix-blend-mode:overlay">
<path d="M82.1236 49.4396H107.767V49.2382H82.1236V49.4396Z" fill="#00D5FF"/>
</g>
<g style="mix-blend-mode:overlay">
<path d="M77.9002 44.1035H79.0566V43.4491H77.9002V44.1035Z" fill="#00D5FF"/>
</g>
<g style="mix-blend-mode:overlay">
<path d="M93.8391 44.6072H96.8057V43.0467H93.8391V44.6072Z" fill="#00D5FF"/>
</g>
<g style="mix-blend-mode:overlay">
<path d="M82.3757 52.611H87.0518V50.9498H82.3757V52.611Z" fill="#00D5FF"/>
</g>
<g style="mix-blend-mode:overlay">
<path d="M90.9729 52.611H99.6211V51.9566H90.9729V52.611Z" fill="#00D5FF"/>
</g>
<g style="mix-blend-mode:overlay">
<path d="M63.1685 55.178H67.4424V53.1644H63.1685V55.178Z" fill="#00D5FF"/>
</g>
<g style="mix-blend-mode:overlay">
<path d="M52.3075 46.5199H81.1182V45.8152H52.3075V46.5199Z" fill="#00D5FF"/>
</g>
<g style="mix-blend-mode:overlay">
<path d="M48.134 51.0503H62.5645V50.5972H48.134V51.0503Z" fill="#00D5FF"/>
</g>
<g style="mix-blend-mode:overlay">
<path d="M60.0004 48.5836H84.7383V48.4326H60.0004V48.5836Z" fill="#00D5FF"/>
</g>
<g style="mix-blend-mode:overlay">
<path d="M55.928 43.4995H57.0342V42.8955H55.928V43.4995Z" fill="#00D5FF"/>
</g>
<g style="mix-blend-mode:overlay">
<path d="M71.3137 43.9025H74.1797V42.3923H71.3137V43.9025Z" fill="#00D5FF"/>
</g>
<g style="mix-blend-mode:overlay">
<path d="M60.2521 51.6543H64.7773V50.0435H60.2521V51.6543Z" fill="#00D5FF"/>
</g>
<g style="mix-blend-mode:overlay">
<path d="M68.5988 51.7047H76.9453V51.1007H68.5988V51.7047Z" fill="#00D5FF"/>
</g>
<g style="mix-blend-mode:overlay">
<path d="M39.738 57.2419H44.3135V55.0774H39.738V57.2419Z" fill="#00D5FF"/>
</g>
<g style="mix-blend-mode:overlay">
<path d="M28.1728 48.0302L58.9443 48.0302V47.2751L28.1728 47.2751V48.0302Z" fill="#00D5FF"/>
</g>
<g style="mix-blend-mode:overlay">
<path d="M23.6977 52.8625H39.1338V52.3592H23.6977V52.8625Z" fill="#00D5FF"/>
</g>
<g style="mix-blend-mode:overlay">
<path d="M36.3689 50.2953H62.8164V50.0939H36.3689V50.2953Z" fill="#00D5FF"/>
</g>
<g style="mix-blend-mode:overlay">
<path d="M32.0447 44.8083H33.2012V44.154H32.0447V44.8083Z" fill="#00D5FF"/>
</g>
<g style="mix-blend-mode:overlay">
<path d="M48.4866 45.2614H51.5537V43.6505H48.4866V45.2614Z" fill="#00D5FF"/>
</g>
<g style="mix-blend-mode:overlay">
<path d="M36.6702 53.5673H41.4971V51.8558H36.6702V53.5673Z" fill="#00D5FF"/>
</g>
<g style="mix-blend-mode:overlay">
<path d="M45.5701 53.5673H54.4697V52.9129H45.5701V53.5673Z" fill="#00D5FF"/>
</g>
<g style="mix-blend-mode:overlay">
<path d="M37.0725 68.0144H41.8994V65.6988H37.0725V68.0144Z" fill="#00D5FF"/>
</g>
<g style="mix-blend-mode:overlay">
<path d="M24.8046 58.2488L57.3359 58.2488V57.4434L24.8046 57.4434V58.2488Z" fill="#00D5FF"/>
</g>
<g style="mix-blend-mode:overlay">
<path d="M20.1281 63.3832H36.4189V62.8295H20.1281V63.3832Z" fill="#00D5FF"/>
</g>
<g style="mix-blend-mode:overlay">
<path d="M33.5031 60.5642H61.459V60.3629H33.5031V60.5642Z" fill="#00D5FF"/>
</g>
<g style="mix-blend-mode:overlay">
<path d="M28.8768 54.8256H30.1338V54.1208H28.8768V54.8256Z" fill="#00D5FF"/>
</g>
<g style="mix-blend-mode:overlay">
<path d="M46.2738 55.3292H49.542V53.6177H46.2738V55.3292Z" fill="#00D5FF"/>
</g>
<g style="mix-blend-mode:overlay">
<path d="M33.8543 64.0377H38.9326V62.2255H33.8543V64.0377Z" fill="#00D5FF"/>
</g>
<g style="mix-blend-mode:overlay">
<path d="M43.2069 64.0879H52.6094V63.3832H43.2069V64.0879Z" fill="#00D5FF"/>
</g>
<g style="mix-blend-mode:overlay">
<path d="M45.5197 83.3173H50.0449V81.1527H45.5197V83.3173Z" fill="#00D5FF"/>
</g>
<g style="mix-blend-mode:overlay">
<path d="M34.056 74.1052H64.6768V73.3502H34.056V74.1052Z" fill="#00D5FF"/>
</g>
<g style="mix-blend-mode:overlay">
<path d="M29.6313 78.9882H44.9668V78.4848H29.6313V78.9882Z" fill="#00D5FF"/>
</g>
<g style="mix-blend-mode:overlay">
<path d="M42.2015 76.3706H68.498V76.1693H42.2015V76.3706Z" fill="#00D5FF"/>
</g>
<g style="mix-blend-mode:overlay">
<path d="M37.9275 70.8837H39.084V70.2293H37.9275V70.8837Z" fill="#00D5FF"/>
</g>
<g style="mix-blend-mode:overlay">
<path d="M54.2181 71.387H57.2852V69.7761H54.2181V71.387Z" fill="#00D5FF"/>
</g>
<g style="mix-blend-mode:overlay">
<path d="M42.5534 79.6423H47.3301V77.9308H42.5534V79.6423Z" fill="#00D5FF"/>
</g>
<g style="mix-blend-mode:overlay">
<path d="M51.3518 79.5922H60.2012V78.9378H51.3518V79.5922Z" fill="#00D5FF"/>
</g>
<g style="mix-blend-mode:overlay">
<path d="M89.2638 85.7836H93.4873V83.77H89.2638V85.7836Z" fill="#00D5FF"/>
</g>
<g style="mix-blend-mode:overlay">
<path d="M78.6038 77.1758H107.062V76.471H78.6038V77.1758Z" fill="#00D5FF"/>
</g>
<g style="mix-blend-mode:overlay">
<path d="M74.4313 81.7064H88.7109V81.2534H74.4313V81.7064Z" fill="#00D5FF"/>
</g>
<g style="mix-blend-mode:overlay">
<path d="M86.1463 79.29H110.633V79.139H86.1463V79.29Z" fill="#00D5FF"/>
</g>
<g style="mix-blend-mode:overlay">
<path d="M82.1746 74.2059H83.2305V73.6019H82.1746V74.2059Z" fill="#00D5FF"/>
</g>
<g style="mix-blend-mode:overlay">
<path d="M97.3586 74.6589H100.225V73.1488H97.3586V74.6589Z" fill="#00D5FF"/>
</g>
<g style="mix-blend-mode:overlay">
<path d="M86.3981 82.3104H90.873V80.6996H86.3981V82.3104Z" fill="#00D5FF"/>
</g>
<g style="mix-blend-mode:overlay">
<path d="M94.6437 82.3104H102.89V81.7064H94.6437V82.3104Z" fill="#00D5FF"/>
</g>
<g style="mix-blend-mode:overlay">
<path d="M106.962 86.3879H111.89V84.0724H106.962V86.3879Z" fill="#00D5FF"/>
</g>
<g style="mix-blend-mode:overlay">
<path d="M94.4932 76.4209H127.628V75.6155H94.4932V76.4209Z" fill="#00D5FF"/>
</g>
<g style="mix-blend-mode:overlay">
<path d="M89.7161 81.6559H106.309V81.1022H89.7161V81.6559Z" fill="#00D5FF"/>
</g>
<g style="mix-blend-mode:overlay">
<path d="M103.342 78.8369H131.801V78.6356H103.342V78.8369Z" fill="#00D5FF"/>
</g>
<g style="mix-blend-mode:overlay">
<path d="M98.616 72.9474H99.873V72.2427H98.616V72.9474Z" fill="#00D5FF"/>
</g>
<g style="mix-blend-mode:overlay">
<path d="M116.314 73.5012H119.633V71.7394H116.314V73.5012Z" fill="#00D5FF"/>
</g>
<g style="mix-blend-mode:overlay">
<path d="M103.643 82.4111H108.822V80.5486H103.643V82.4111Z" fill="#00D5FF"/>
</g>
<g style="mix-blend-mode:overlay">
<path d="M113.146 82.3606H122.75V81.6559H113.146V82.3606Z" fill="#00D5FF"/>
</g>
<g style="mix-blend-mode:overlay">
<path d="M114.504 95.2976H118.728V93.2841H114.504V95.2976Z" fill="#00D5FF"/>
</g>
<g style="mix-blend-mode:overlay">
<path d="M103.795 86.7402H132.304V86.0355H103.795V86.7402Z" fill="#00D5FF"/>
</g>
<g style="mix-blend-mode:overlay">
<path d="M99.6716 91.2203H113.951V90.7673H99.6716V91.2203Z" fill="#00D5FF"/>
</g>
<g style="mix-blend-mode:overlay">
<path d="M111.437 88.804H135.924V88.6529H111.437V88.804Z" fill="#00D5FF"/>
</g>
<g style="mix-blend-mode:overlay">
<path d="M107.315 83.7198H108.421V83.1158H107.315V83.7198Z" fill="#00D5FF"/>
</g>
<g style="mix-blend-mode:overlay">
<path d="M122.549 84.173H125.415V82.6628H122.549V84.173Z" fill="#00D5FF"/>
</g>
<g style="mix-blend-mode:overlay">
<path d="M111.689 91.8746H116.164V90.2638H111.689V91.8746Z" fill="#00D5FF"/>
</g>
<g style="mix-blend-mode:overlay">
<path d="M119.885 91.8746H128.131V91.2706H119.885V91.8746Z" fill="#00D5FF"/>
</g>
<g style="mix-blend-mode:overlay">
<path d="M114.957 104.711H119.684V102.496H114.957V104.711Z" fill="#00D5FF"/>
</g>
<g style="mix-blend-mode:overlay">
<path d="M103.041 95.1971H134.768V94.3917H103.041V95.1971Z" fill="#00D5FF"/>
</g>
<g style="mix-blend-mode:overlay">
<path d="M98.4151 100.181H114.304V99.6772H98.4151V100.181Z" fill="#00D5FF"/>
</g>
<g style="mix-blend-mode:overlay">
<path d="M111.538 97.4623H138.79V97.2609H111.538V97.4623Z" fill="#00D5FF"/>
</g>
<g style="mix-blend-mode:overlay">
<path d="M107.013 91.8243H108.22V91.1196H107.013V91.8243Z" fill="#00D5FF"/>
</g>
<g style="mix-blend-mode:overlay">
<path d="M123.957 92.3276H127.125V90.6665H123.957V92.3276Z" fill="#00D5FF"/>
</g>
<g style="mix-blend-mode:overlay">
<path d="M111.84 100.885H116.817V99.1234H111.84V100.885Z" fill="#00D5FF"/>
</g>
<g style="mix-blend-mode:overlay">
<path d="M120.94 100.885H130.142V100.181H120.94V100.885Z" fill="#00D5FF"/>
</g>
<g style="mix-blend-mode:overlay">
<path d="M90.3698 120.014H94.7441V117.95H90.3698V120.014Z" fill="#00D5FF"/>
</g>
<g style="mix-blend-mode:overlay">
<path d="M79.3082 111.154H108.873V110.399H79.3082V111.154Z" fill="#00D5FF"/>
</g>
<g style="mix-blend-mode:overlay">
<path d="M74.9837 115.735H89.8164V115.232H74.9837V115.735Z" fill="#00D5FF"/>
</g>
<g style="mix-blend-mode:overlay">
<path d="M87.1524 113.268H112.544V113.067H87.1524V113.268Z" fill="#00D5FF"/>
</g>
<g style="mix-blend-mode:overlay">
<path d="M82.9788 108.033H84.085V107.379H82.9788V108.033Z" fill="#00D5FF"/>
</g>
<g style="mix-blend-mode:overlay">
<path d="M98.7161 108.486H101.683V106.926H98.7161V108.486Z" fill="#00D5FF"/>
</g>
<g style="mix-blend-mode:overlay">
<path d="M87.4533 116.44H92.0791V114.779H87.4533V116.44Z" fill="#00D5FF"/>
</g>
<g style="mix-blend-mode:overlay">
<path d="M95.9514 116.39H104.499V115.735H95.9514V116.39Z" fill="#00D5FF"/>
</g>
<g style="mix-blend-mode:overlay">
<path d="M76.5432 116.188H81.1689V113.973H76.5432V116.188Z" fill="#00D5FF"/>
</g>
<g style="mix-blend-mode:overlay">
<path d="M64.8779 106.825H95.9512V106.07H64.8779V106.825Z" fill="#00D5FF"/>
</g>
<g style="mix-blend-mode:overlay">
<path d="M60.4024 111.758H75.9893V111.255H60.4024V111.758Z" fill="#00D5FF"/>
</g>
<g style="mix-blend-mode:overlay">
<path d="M73.1742 109.09H99.873V108.889H73.1742V109.09Z" fill="#00D5FF"/>
</g>
<g style="mix-blend-mode:overlay">
<path d="M68.7996 103.553H69.9561V102.899H68.7996V103.553Z" fill="#00D5FF"/>
</g>
<g style="mix-blend-mode:overlay">
<path d="M85.3416 104.057H88.459V102.395H85.3416V104.057Z" fill="#00D5FF"/>
</g>
<g style="mix-blend-mode:overlay">
<path d="M73.4255 112.413H78.3027V110.651H73.4255V112.413Z" fill="#00D5FF"/>
</g>
<g style="mix-blend-mode:overlay">
<path d="M82.4256 112.413H91.4258V111.758H82.4256V112.413Z" fill="#00D5FF"/>
</g>
<g style="mix-blend-mode:overlay">
<path d="M63.218 120.467H67.9443V118.252H63.218V120.467Z" fill="#00D5FF"/>
</g>
<g style="mix-blend-mode:overlay">
<path d="M51.3019 110.953H82.9785V110.147H51.3019V110.953Z" fill="#00D5FF"/>
</g>
<g style="mix-blend-mode:overlay">
<path d="M46.7765 115.936H62.665V115.433H46.7765V115.936Z" fill="#00D5FF"/>
</g>
<g style="mix-blend-mode:overlay">
<path d="M59.7993 113.268H87.001V113.067H59.7993V113.268Z" fill="#00D5FF"/>
</g>
<g style="mix-blend-mode:overlay">
<path d="M55.2738 107.58H56.4805V106.876H55.2738V107.58Z" fill="#00D5FF"/>
</g>
<g style="mix-blend-mode:overlay">
<path d="M72.1683 108.084H75.3359V106.422H72.1683V108.084Z" fill="#00D5FF"/>
</g>
<g style="mix-blend-mode:overlay">
<path d="M60.0505 116.641H65.0283V114.879H60.0505V116.641Z" fill="#00D5FF"/>
</g>
<g style="mix-blend-mode:overlay">
<path d="M69.1513 116.591H78.3525V115.886H69.1513V116.591Z" fill="#00D5FF"/>
</g>
<defs>
<radialGradient id="paint0_radial_873_84399" cx="0" cy="0" r="1" gradientUnits="userSpaceOnUse" gradientTransform="translate(82.1241 49.8983) scale(77.5323 45.7968)">
<stop stop-color="#80003F"/>
<stop offset="0.22" stop-color="#56002A"/>
<stop offset="0.45" stop-color="#310018"/>
<stop offset="0.66" stop-color="#16000A"/>
<stop offset="0.85" stop-color="#050002"/>
<stop offset="1"/>
</radialGradient>
<radialGradient id="paint1_radial_873_84399" cx="0" cy="0" r="1" gradientUnits="userSpaceOnUse" gradientTransform="translate(77.3474 117.405) scale(76.9792 45.4701)">
<stop stop-color="#80003F"/>
<stop offset="0.22" stop-color="#56002A"/>
<stop offset="0.45" stop-color="#310018"/>
<stop offset="0.66" stop-color="#16000A"/>
<stop offset="0.85" stop-color="#050002"/>
<stop offset="1"/>
</radialGradient>
</defs>
</svg>
