<svg width="176" height="142" viewBox="0 0 176 142" fill="none" xmlns="http://www.w3.org/2000/svg">
<path style="mix-blend-mode:screen" d="M175.721 76.4064C175.721 112.247 136.552 141.292 88.2329 141.292C39.9135 141.292 0.745117 112.247 0.745117 76.4064C0.745117 40.5656 39.9135 11.5204 88.2329 11.5204C136.552 11.5204 175.721 40.5656 175.721 76.4064Z" fill="url(#paint0_radial_873_84048)"/>
<path d="M144.044 34.7267H143.239V35.5321H144.044V34.7267Z" fill="#FF0080"/>
<path d="M144.044 32.8138H143.239V33.6193H144.044V32.8138Z" fill="#FF0080"/>
<path d="M144.044 30.9008H143.239V31.7062H144.044V30.9008Z" fill="#FF0080"/>
<path d="M144.044 28.988H143.239V29.7934H144.044V28.988Z" fill="#FF0080"/>
<path d="M143.24 52.2946L138.161 57.3787H134.39L133.988 56.976H127.452L122.323 51.8415V21.9909L130.217 14.0878V10.8662L134.089 6.99012H140.525V5.32895L139.469 4.27185H134.491L133.435 5.32895L128.608 10.1614V13.3831L120.714 21.2862V52.4959L121.116 52.8986V66.8423L118.049 69.913H100.401L98.0377 72.2789H78.2272L75.864 69.913H58.2156L55.1485 66.8423V52.8986L55.5508 52.4959V21.2862L47.6568 13.3831V10.1614L42.8298 5.32895L41.774 4.27185H36.7962L35.7403 5.32895V6.99012H42.1762L46.0478 10.8662V14.0878L53.9418 21.9909V51.8415L48.8132 56.976H42.2768L41.8745 57.3787H38.1035L33.0252 52.2946V37.0421H32.2207V52.5966L37.7515 58.1338H41.0198L38.3549 60.8017V75.6012L53.2379 90.5013H64.4001L73.0986 81.7928H87.1771L88.1324 80.8364L89.0878 81.7928H103.166L111.865 90.5013H123.027L137.91 75.6012V60.8017L135.245 58.1338H138.513L144.044 52.5966V37.0421H143.24V52.2946ZM87.3279 79.0745L86.2721 80.1316H72.445L63.7465 88.8402H53.9418L40.0142 74.8965V61.5065L42.9304 58.5869H49.4669L54.344 53.704V67.1947L57.8637 70.7184H75.5121L77.8752 73.0843H87.2777V79.0745H87.3279ZM136.251 61.5065V74.8965L122.323 88.8402H112.518L103.82 80.1316H89.9928L88.9369 79.0745V73.0843H98.3393L100.703 70.7184H118.351L121.871 67.1947V53.704L126.748 58.5869H133.284L136.2 61.5065H136.251Z" fill="#FF0080"/>
<path d="M92.6577 39.9115L92.4062 39.6598V47.2609L92.6577 47.0092V39.9115Z" fill="#FF0080"/>
<path d="M92.6577 50.4322V47.9153L92.4063 48.167V50.3315L91.1995 51.5396H90.7973L90.5459 51.7913H91.3001L92.6577 50.4322Z" fill="#FF0080"/>
<path d="M83.8588 39.6598L83.6074 39.9115V47.0092L83.8588 47.2609V39.6598Z" fill="#FF0080"/>
<path d="M85.7192 51.7913L85.4678 51.5396H85.0656L83.8588 50.3315V48.167L83.6074 47.9153V50.4322L84.965 51.7913H85.7192Z" fill="#FF0080"/>
<path d="M88.1324 51.7914H89.5905L89.7916 51.5397H88.1324H86.4229L86.6742 51.7914H88.1324Z" fill="#FF0080"/>
<path d="M33.0252 34.7267H32.2207V35.5321H33.0252V34.7267Z" fill="#FF0080"/>
<path d="M33.0252 32.8138H32.2207V33.6193H33.0252V32.8138Z" fill="#FF0080"/>
<path d="M33.0252 30.9008H32.2207V31.7062H33.0252V30.9008Z" fill="#FF0080"/>
<path d="M33.0252 28.988H32.2207V29.7934H33.0252V28.988Z" fill="#FF0080"/>
<path d="M99.697 67.0436L98.44 68.3021H97.4847L96.3785 69.4095H90.9985L89.8924 68.3021H88.1326H86.3728L85.2666 69.4095H79.8866L78.7804 68.3021H77.8251L76.5681 67.0436H61.5846L59.9756 65.4832V67.245L61.0315 68.3021H76.5178L78.7302 70.517H88.1326H97.535L99.7473 68.3021H115.234L116.29 67.245V65.4832L114.681 67.0436H99.697Z" fill="#800040"/>
<path d="M117.597 64.1241L117.094 64.6274V66.3893L118.854 64.6274V36.287L117.597 37.5454V64.1241Z" fill="#800040"/>
<path d="M114.278 43.4351L113.977 43.7371V57.6808L114.278 57.3788V43.4351Z" fill="#800040"/>
<path d="M111.865 64.0737L114.279 61.6071V58.2848L113.977 58.5868V61.5064L111.714 63.7717H105.379L105.681 64.0737H111.865Z" fill="#800040"/>
<path d="M97.4848 65.5839L98.9932 64.0738H104.423L104.122 63.7717H98.8926L97.0322 65.5839H97.4848Z" fill="#800040"/>
<path d="M88.1323 83.7056H74.0538L70.333 87.4306V90.1489L71.4895 91.3066H82.1992L83.8081 92.9175H92.4564L94.0653 91.3066H104.775L105.931 90.1489V87.4306L102.211 83.7056H88.1323ZM102.613 89.4441L101.909 90.1489H97.4844L96.881 89.5448H93.0597L91.9536 90.6522H84.4115L83.3053 89.5448H79.484L78.8807 90.1489H74.456L73.7521 89.4441V88.085L75.1599 86.6755H79.9868L81.2941 85.3667H84.3109L84.9143 85.9708H91.5513L92.1547 85.3667H95.1715L96.4788 86.6755H101.306L102.714 88.085V89.4441H102.613Z" fill="#800040"/>
<path d="M120.664 8.1982V17.1081L126.497 11.2688V8.04719L130.368 4.17114H124.636L120.664 8.1982Z" fill="#800040"/>
<path d="M143.039 4.17114H141.128L142.184 5.27858V10.5138L134.894 17.8128V23.2997V41.2705L137.307 38.8542V20.8835L144.045 14.0878V5.22825L143.039 4.17114Z" fill="#800040"/>
<path d="M58.6681 37.5454L57.4111 36.287V64.6274L59.1709 66.3893V64.6274L58.6681 64.1241V37.5454Z" fill="#800040"/>
<path d="M62.288 43.7371L61.9863 43.4351V57.3788L62.288 57.6808V43.7371Z" fill="#800040"/>
<path d="M70.5843 64.0737L70.886 63.7717H64.5506L62.288 61.5064V58.5868L61.9863 58.2848V61.6071L64.3998 64.0737H70.5843Z" fill="#800040"/>
<path d="M78.7805 65.5839H79.233L77.3726 63.7717H72.1435L71.8418 64.0738H77.2721L78.7805 65.5839Z" fill="#800040"/>
<path d="M84.7637 66.6912L86.071 65.3824H88.1325H90.194L91.5013 66.6912H95.3729L97.1829 64.879H96.7304L95.2723 66.3388H91.6018L90.3448 65.0804H88.1325H85.9202L84.6632 66.3388H80.9927L79.5346 64.879H79.082L80.8921 66.6912H84.7637Z" fill="#800040"/>
<path d="M45.8965 4.17114L49.7681 8.04719V11.2688L55.6006 17.1081V8.1982L51.6284 4.17114H45.8965Z" fill="#800040"/>
<path d="M34.0811 5.27858L35.137 4.17114H33.2263L32.2207 5.22825V14.0878L38.9583 20.8835V38.8542L41.3717 41.2705V23.2997V17.8128L34.0811 10.5138V5.27858Z" fill="#800040"/>
<path opacity="0.2" d="M60.8803 74.0405H84.4115V85.2659H60.8803C56.5561 85.2659 52.936 84.8129 49.9192 83.9068C46.9023 83.0007 44.4386 81.7422 42.5279 80.1314C40.6173 78.5206 39.2597 76.6077 38.405 74.3425C37.5502 72.1276 37.0977 69.6611 37.0977 66.8925V9.40613H51.4276V67.0435C51.4276 71.7249 54.5952 74.0405 60.8803 74.0405ZM125.641 9.40613V67.0435C125.641 71.7249 122.474 74.0405 116.189 74.0405H92.6574V85.2659H119.205C123.53 85.2659 126.999 84.8129 129.714 83.9068C132.429 83.0007 134.541 81.7422 136.049 80.1314C137.608 78.5206 138.614 76.6077 139.167 74.3425C139.72 72.1276 139.971 69.6611 139.971 66.8925V9.40613H125.641Z" fill="#00D5FF"/>
<g style="mix-blend-mode:screen">
<path d="M125.692 9.40613V67.0435C125.692 71.7249 122.524 74.0405 116.239 74.0405H92.7082V85.2659H119.256C123.58 85.2659 127.05 84.8129 129.765 83.9068C132.48 83.0007 134.592 81.7422 136.1 80.1314C137.659 78.5206 138.664 76.6077 139.218 74.3425C139.771 72.1276 140.022 69.6611 140.022 66.8925V9.40613H125.692V9.40613ZM60.931 74.0405H84.4622V85.2659H60.931C56.6069 85.2659 52.9867 84.8129 49.9699 83.9068C46.9531 83.0007 44.4894 81.7422 42.5787 80.1314C40.6681 78.5206 39.3105 76.6077 38.4557 74.3425C37.601 72.1276 37.1484 69.6611 37.1484 66.8925V9.40613H51.4783V67.0435C51.4783 71.7249 54.646 74.0405 60.931 74.0405V74.0405Z" stroke="black" stroke-width="18.7061" stroke-linecap="round" stroke-linejoin="round"/>
<path d="M125.692 9.40613V67.0435C125.692 71.7249 122.524 74.0405 116.239 74.0405H92.7082V85.2659H119.256C123.58 85.2659 127.05 84.8129 129.765 83.9068C132.48 83.0007 134.592 81.7422 136.1 80.1314C137.659 78.5206 138.664 76.6077 139.218 74.3425C139.771 72.1276 140.022 69.6611 140.022 66.8925V9.40613H125.692V9.40613ZM60.931 74.0405H84.4622V85.2659H60.931C56.6069 85.2659 52.9867 84.8129 49.9699 83.9068C46.9531 83.0007 44.4894 81.7422 42.5787 80.1314C40.6681 78.5206 39.3105 76.6077 38.4557 74.3425C37.601 72.1276 37.1484 69.6611 37.1484 66.8925V9.40613H51.4783V67.0435C51.4783 71.7249 54.646 74.0405 60.931 74.0405V74.0405Z" stroke="#000203" stroke-width="16.3764" stroke-linecap="round" stroke-linejoin="round"/>
<path d="M125.692 9.40613V67.0435C125.692 71.7249 122.524 74.0405 116.239 74.0405H92.7082V85.2659H119.256C123.58 85.2659 127.05 84.8129 129.765 83.9068C132.48 83.0007 134.592 81.7422 136.1 80.1314C137.659 78.5206 138.664 76.6077 139.218 74.3425C139.771 72.1276 140.022 69.6611 140.022 66.8925V9.40613H125.692V9.40613ZM60.931 74.0405H84.4622V85.2659H60.931C56.6069 85.2659 52.9867 84.8129 49.9699 83.9068C46.9531 83.0007 44.4894 81.7422 42.5787 80.1314C40.6681 78.5206 39.3105 76.6077 38.4557 74.3425C37.601 72.1276 37.1484 69.6611 37.1484 66.8925V9.40613H51.4783V67.0435C51.4783 71.7249 54.646 74.0405 60.931 74.0405V74.0405Z" stroke="#000506" stroke-width="14.0353" stroke-linecap="round" stroke-linejoin="round"/>
<path d="M125.692 9.40613V67.0435C125.692 71.7249 122.524 74.0405 116.239 74.0405H92.7082V85.2659H119.256C123.58 85.2659 127.05 84.8129 129.765 83.9068C132.48 83.0007 134.592 81.7422 136.1 80.1314C137.659 78.5206 138.664 76.6077 139.218 74.3425C139.771 72.1276 140.022 69.6611 140.022 66.8925V9.40613H125.692V9.40613ZM60.931 74.0405H84.4622V85.2659H60.931C56.6069 85.2659 52.9867 84.8129 49.9699 83.9068C46.9531 83.0007 44.4894 81.7422 42.5787 80.1314C40.6681 78.5206 39.3105 76.6077 38.4557 74.3425C37.601 72.1276 37.1484 69.6611 37.1484 66.8925V9.40613H51.4783V67.0435C51.4783 71.7249 54.646 74.0405 60.931 74.0405V74.0405Z" stroke="#000709" stroke-width="11.6942" stroke-linecap="round" stroke-linejoin="round"/>
<path d="M125.692 9.40613V67.0435C125.692 71.7249 122.524 74.0405 116.239 74.0405H92.7082V85.2659H119.256C123.58 85.2659 127.05 84.8129 129.765 83.9068C132.48 83.0007 134.592 81.7422 136.1 80.1314C137.659 78.5206 138.664 76.6077 139.218 74.3425C139.771 72.1276 140.022 69.6611 140.022 66.8925V9.40613H125.692V9.40613ZM60.931 74.0405H84.4622V85.2659H60.931C56.6069 85.2659 52.9867 84.8129 49.9699 83.9068C46.9531 83.0007 44.4894 81.7422 42.5787 80.1314C40.6681 78.5206 39.3105 76.6077 38.4557 74.3425C37.601 72.1276 37.1484 69.6611 37.1484 66.8925V9.40613H51.4783V67.0435C51.4783 71.7249 54.646 74.0405 60.931 74.0405V74.0405Z" stroke="#00090C" stroke-width="9.35307" stroke-linecap="round" stroke-linejoin="round"/>
<path d="M125.692 9.40613V67.0435C125.692 71.7249 122.524 74.0405 116.239 74.0405H92.7082V85.2659H119.256C123.58 85.2659 127.05 84.8129 129.765 83.9068C132.48 83.0007 134.592 81.7422 136.1 80.1314C137.659 78.5206 138.664 76.6077 139.218 74.3425C139.771 72.1276 140.022 69.6611 140.022 66.8925V9.40613H125.692V9.40613ZM60.931 74.0405H84.4622V85.2659H60.931C56.6069 85.2659 52.9867 84.8129 49.9699 83.9068C46.9531 83.0007 44.4894 81.7422 42.5787 80.1314C40.6681 78.5206 39.3105 76.6077 38.4557 74.3425C37.601 72.1276 37.1484 69.6611 37.1484 66.8925V9.40613H51.4783V67.0435C51.4783 71.7249 54.646 74.0405 60.931 74.0405V74.0405Z" stroke="#000C0F" stroke-width="7.01196" stroke-linecap="round" stroke-linejoin="round"/>
<path d="M125.692 9.40613V67.0435C125.692 71.7249 122.524 74.0405 116.239 74.0405H92.7082V85.2659H119.256C123.58 85.2659 127.05 84.8129 129.765 83.9068C132.48 83.0007 134.592 81.7422 136.1 80.1314C137.659 78.5206 138.664 76.6077 139.218 74.3425C139.771 72.1276 140.022 69.6611 140.022 66.8925V9.40613H125.692V9.40613ZM60.931 74.0405H84.4622V85.2659H60.931C56.6069 85.2659 52.9867 84.8129 49.9699 83.9068C46.9531 83.0007 44.4894 81.7422 42.5787 80.1314C40.6681 78.5206 39.3105 76.6077 38.4557 74.3425C37.601 72.1276 37.1484 69.6611 37.1484 66.8925V9.40613H51.4783V67.0435C51.4783 71.7249 54.646 74.0405 60.931 74.0405V74.0405Z" stroke="#000E12" stroke-width="4.68222" stroke-linecap="round" stroke-linejoin="round"/>
<path d="M125.692 9.40613V67.0435C125.692 71.7249 122.524 74.0405 116.239 74.0405H92.7082V85.2659H119.256C123.58 85.2659 127.05 84.8129 129.765 83.9068C132.48 83.0007 134.592 81.7422 136.1 80.1314C137.659 78.5206 138.664 76.6077 139.218 74.3425C139.771 72.1276 140.022 69.6611 140.022 66.8925V9.40613H125.692V9.40613ZM60.931 74.0405H84.4622V85.2659H60.931C56.6069 85.2659 52.9867 84.8129 49.9699 83.9068C46.9531 83.0007 44.4894 81.7422 42.5787 80.1314C40.6681 78.5206 39.3105 76.6077 38.4557 74.3425C37.601 72.1276 37.1484 69.6611 37.1484 66.8925V9.40613H51.4783V67.0435C51.4783 71.7249 54.646 74.0405 60.931 74.0405V74.0405Z" stroke="#001A20" stroke-width="3.98898" stroke-linecap="round" stroke-linejoin="round"/>
<path d="M125.692 9.40613V67.0435C125.692 71.7249 122.524 74.0405 116.239 74.0405H92.7082V85.2659H119.256C123.58 85.2659 127.05 84.8129 129.765 83.9068C132.48 83.0007 134.592 81.7422 136.1 80.1314C137.659 78.5206 138.664 76.6077 139.218 74.3425C139.771 72.1276 140.022 69.6611 140.022 66.8925V9.40613H125.692V9.40613ZM60.931 74.0405H84.4622V85.2659H60.931C56.6069 85.2659 52.9867 84.8129 49.9699 83.9068C46.9531 83.0007 44.4894 81.7422 42.5787 80.1314C40.6681 78.5206 39.3105 76.6077 38.4557 74.3425C37.601 72.1276 37.1484 69.6611 37.1484 66.8925V9.40613H51.4783V67.0435C51.4783 71.7249 54.646 74.0405 60.931 74.0405V74.0405Z" stroke="#00252E" stroke-width="3.3071" stroke-linecap="round" stroke-linejoin="round"/>
<path d="M125.692 9.40613V67.0435C125.692 71.7249 122.524 74.0405 116.239 74.0405H92.7082V85.2659H119.256C123.58 85.2659 127.05 84.8129 129.765 83.9068C132.48 83.0007 134.592 81.7422 136.1 80.1314C137.659 78.5206 138.664 76.6077 139.218 74.3425C139.771 72.1276 140.022 69.6611 140.022 66.8925V9.40613H125.692V9.40613ZM60.931 74.0405H84.4622V85.2659H60.931C56.6069 85.2659 52.9867 84.8129 49.9699 83.9068C46.9531 83.0007 44.4894 81.7422 42.5787 80.1314C40.6681 78.5206 39.3105 76.6077 38.4557 74.3425C37.601 72.1276 37.1484 69.6611 37.1484 66.8925V9.40613H51.4783V67.0435C51.4783 71.7249 54.646 74.0405 60.931 74.0405V74.0405Z" stroke="#00313C" stroke-width="2.62522" stroke-linecap="round" stroke-linejoin="round"/>
<path d="M125.692 9.40613V67.0435C125.692 71.7249 122.524 74.0405 116.239 74.0405H92.7082V85.2659H119.256C123.58 85.2659 127.05 84.8129 129.765 83.9068C132.48 83.0007 134.592 81.7422 136.1 80.1314C137.659 78.5206 138.664 76.6077 139.218 74.3425C139.771 72.1276 140.022 69.6611 140.022 66.8925V9.40613H125.692V9.40613ZM60.931 74.0405H84.4622V85.2659H60.931C56.6069 85.2659 52.9867 84.8129 49.9699 83.9068C46.9531 83.0007 44.4894 81.7422 42.5787 80.1314C40.6681 78.5206 39.3105 76.6077 38.4557 74.3425C37.601 72.1276 37.1484 69.6611 37.1484 66.8925V9.40613H51.4783V67.0435C51.4783 71.7249 54.646 74.0405 60.931 74.0405V74.0405Z" stroke="#003D4A" stroke-width="1.93198" stroke-linecap="round" stroke-linejoin="round"/>
<path d="M125.692 9.40613V67.0435C125.692 71.7249 122.524 74.0405 116.239 74.0405H92.7082V85.2659H119.256C123.58 85.2659 127.05 84.8129 129.765 83.9068C132.48 83.0007 134.592 81.7422 136.1 80.1314C137.659 78.5206 138.664 76.6077 139.218 74.3425C139.771 72.1276 140.022 69.6611 140.022 66.8925V9.40613H125.692V9.40613ZM60.931 74.0405H84.4622V85.2659H60.931C56.6069 85.2659 52.9867 84.8129 49.9699 83.9068C46.9531 83.0007 44.4894 81.7422 42.5787 80.1314C40.6681 78.5206 39.3105 76.6077 38.4557 74.3425C37.601 72.1276 37.1484 69.6611 37.1484 66.8925V9.40613H51.4783V67.0435C51.4783 71.7249 54.646 74.0405 60.931 74.0405V74.0405Z" stroke="#004858" stroke-width="1.25011" stroke-linecap="round" stroke-linejoin="round"/>
<path d="M125.692 9.40613V67.0435C125.692 71.7249 122.524 74.0405 116.239 74.0405H92.7082V85.2659H119.256C123.58 85.2659 127.05 84.8129 129.765 83.9068C132.48 83.0007 134.592 81.7422 136.1 80.1314C137.659 78.5206 138.664 76.6077 139.218 74.3425C139.771 72.1276 140.022 69.6611 140.022 66.8925V9.40613H125.692V9.40613ZM60.931 74.0405H84.4622V85.2659H60.931C56.6069 85.2659 52.9867 84.8129 49.9699 83.9068C46.9531 83.0007 44.4894 81.7422 42.5787 80.1314C40.6681 78.5206 39.3105 76.6077 38.4557 74.3425C37.601 72.1276 37.1484 69.6611 37.1484 66.8925V9.40613H51.4783V67.0435C51.4783 71.7249 54.646 74.0405 60.931 74.0405V74.0405Z" stroke="#005466" stroke-width="0.556866" stroke-linecap="round" stroke-linejoin="round"/>
<path d="M125.692 9.40613V67.0435C125.692 71.7249 122.524 74.0405 116.239 74.0405H92.7082V85.2659H119.256C123.58 85.2659 127.05 84.8129 129.765 83.9068C132.48 83.0007 134.592 81.7422 136.1 80.1314C137.659 78.5206 138.664 76.6077 139.218 74.3425C139.771 72.1276 140.022 69.6611 140.022 66.8925V9.40613H125.692V9.40613ZM60.931 74.0405H84.4622V85.2659H60.931C56.6069 85.2659 52.9867 84.8129 49.9699 83.9068C46.9531 83.0007 44.4894 81.7422 42.5787 80.1314C40.6681 78.5206 39.3105 76.6077 38.4557 74.3425C37.601 72.1276 37.1484 69.6611 37.1484 66.8925V9.40613H51.4783V67.0435C51.4783 71.7249 54.646 74.0405 60.931 74.0405V74.0405Z" stroke="#007180" stroke-width="0.488678" stroke-linecap="round" stroke-linejoin="round"/>
<path d="M125.692 9.40613V67.0435C125.692 71.7249 122.524 74.0405 116.239 74.0405H92.7082V85.2659H119.256C123.58 85.2659 127.05 84.8129 129.765 83.9068C132.48 83.0007 134.592 81.7422 136.1 80.1314C137.659 78.5206 138.664 76.6077 139.218 74.3425C139.771 72.1276 140.022 69.6611 140.022 66.8925V9.40613H125.692V9.40613ZM60.931 74.0405H84.4622V85.2659H60.931C56.6069 85.2659 52.9867 84.8129 49.9699 83.9068C46.9531 83.0007 44.4894 81.7422 42.5787 80.1314C40.6681 78.5206 39.3105 76.6077 38.4557 74.3425C37.601 72.1276 37.1484 69.6611 37.1484 66.8925V9.40613H51.4783V67.0435C51.4783 71.7249 54.646 74.0405 60.931 74.0405V74.0405Z" stroke="#008D99" stroke-width="0.409126" stroke-linecap="round" stroke-linejoin="round"/>
<path d="M125.692 9.40613V67.0435C125.692 71.7249 122.524 74.0405 116.239 74.0405H92.7082V85.2659H119.256C123.58 85.2659 127.05 84.8129 129.765 83.9068C132.48 83.0007 134.592 81.7422 136.1 80.1314C137.659 78.5206 138.664 76.6077 139.218 74.3425C139.771 72.1276 140.022 69.6611 140.022 66.8925V9.40613H125.692V9.40613ZM60.931 74.0405H84.4622V85.2659H60.931C56.6069 85.2659 52.9867 84.8129 49.9699 83.9068C46.9531 83.0007 44.4894 81.7422 42.5787 80.1314C40.6681 78.5206 39.3105 76.6077 38.4557 74.3425C37.601 72.1276 37.1484 69.6611 37.1484 66.8925V9.40613H51.4783V67.0435C51.4783 71.7249 54.646 74.0405 60.931 74.0405V74.0405Z" stroke="#00AAB3" stroke-width="0.329574" stroke-linecap="round" stroke-linejoin="round"/>
<path d="M125.692 9.40613V67.0435C125.692 71.7249 122.524 74.0405 116.239 74.0405H92.7082V85.2659H119.256C123.58 85.2659 127.05 84.8129 129.765 83.9068C132.48 83.0007 134.592 81.7422 136.1 80.1314C137.659 78.5206 138.664 76.6077 139.218 74.3425C139.771 72.1276 140.022 69.6611 140.022 66.8925V9.40613H125.692V9.40613ZM60.931 74.0405H84.4622V85.2659H60.931C56.6069 85.2659 52.9867 84.8129 49.9699 83.9068C46.9531 83.0007 44.4894 81.7422 42.5787 80.1314C40.6681 78.5206 39.3105 76.6077 38.4557 74.3425C37.601 72.1276 37.1484 69.6611 37.1484 66.8925V9.40613H51.4783V67.0435C51.4783 71.7249 54.646 74.0405 60.931 74.0405V74.0405Z" stroke="#00C6CC" stroke-width="0.250021" stroke-linecap="round" stroke-linejoin="round"/>
<path d="M125.692 9.40613V67.0435C125.692 71.7249 122.524 74.0405 116.239 74.0405H92.7082V85.2659H119.256C123.58 85.2659 127.05 84.8129 129.765 83.9068C132.48 83.0007 134.592 81.7422 136.1 80.1314C137.659 78.5206 138.664 76.6077 139.218 74.3425C139.771 72.1276 140.022 69.6611 140.022 66.8925V9.40613H125.692V9.40613ZM60.931 74.0405H84.4622V85.2659H60.931C56.6069 85.2659 52.9867 84.8129 49.9699 83.9068C46.9531 83.0007 44.4894 81.7422 42.5787 80.1314C40.6681 78.5206 39.3105 76.6077 38.4557 74.3425C37.601 72.1276 37.1484 69.6611 37.1484 66.8925V9.40613H51.4783V67.0435C51.4783 71.7249 54.646 74.0405 60.931 74.0405V74.0405Z" stroke="#00E2E5" stroke-width="0.170469" stroke-linecap="round" stroke-linejoin="round"/>
<path d="M125.692 9.40613V67.0435C125.692 71.7249 122.524 74.0405 116.239 74.0405H92.7082V85.2659H119.256C123.58 85.2659 127.05 84.8129 129.765 83.9068C132.48 83.0007 134.592 81.7422 136.1 80.1314C137.659 78.5206 138.664 76.6077 139.218 74.3425C139.771 72.1276 140.022 69.6611 140.022 66.8925V9.40613H125.692V9.40613ZM60.931 74.0405H84.4622V85.2659H60.931C56.6069 85.2659 52.9867 84.8129 49.9699 83.9068C46.9531 83.0007 44.4894 81.7422 42.5787 80.1314C40.6681 78.5206 39.3105 76.6077 38.4557 74.3425C37.601 72.1276 37.1484 69.6611 37.1484 66.8925V9.40613H51.4783V67.0435C51.4783 71.7249 54.646 74.0405 60.931 74.0405V74.0405Z" stroke="#00FFFF" stroke-width="0.0909169" stroke-linecap="round" stroke-linejoin="round"/>
</g>
<path d="M125.692 9.40613V67.0435C125.692 71.7249 122.524 74.0405 116.239 74.0405H92.7082V85.2659H119.256C123.58 85.2659 127.05 84.8129 129.765 83.9068C132.48 83.0007 134.592 81.7422 136.1 80.1314C137.659 78.5206 138.664 76.6077 139.218 74.3425C139.771 72.1276 140.022 69.6611 140.022 66.8925V9.40613H125.692V9.40613ZM60.931 74.0405H84.4622V85.2659H60.931C56.6069 85.2659 52.9867 84.8129 49.9699 83.9068C46.9531 83.0007 44.4894 81.7422 42.5787 80.1314C40.6681 78.5206 39.3105 76.6077 38.4557 74.3425C37.601 72.1276 37.1484 69.6611 37.1484 66.8925V9.40613H51.4783V67.0435C51.4783 71.7249 54.646 74.0405 60.931 74.0405V74.0405Z" stroke="white" stroke-width="0.0909169" stroke-linecap="round" stroke-linejoin="round"/>
<g style="mix-blend-mode:overlay">
<path d="M50.9249 15.0443H47.6064V16.6048H50.9249V15.0443Z" fill="#00D5FF"/>
</g>
<g style="mix-blend-mode:overlay">
<path d="M59.2708 21.739H37.0469V22.2927H59.2708V21.739Z" fill="#00D5FF"/>
</g>
<g style="mix-blend-mode:overlay">
<path d="M62.4889 18.2157H51.377V18.5681H62.4889V18.2157Z" fill="#00D5FF"/>
</g>
<g style="mix-blend-mode:overlay">
<path d="M53.338 20.1284H34.2314V20.2794H53.338V20.1284Z" fill="#00D5FF"/>
</g>
<g style="mix-blend-mode:overlay">
<path d="M56.5061 24.1052H55.6514V24.6086H56.5061V24.1052Z" fill="#00D5FF"/>
</g>
<g style="mix-blend-mode:overlay">
<path d="M44.6401 23.7528H42.4277V24.9106H44.6401V23.7528Z" fill="#00D5FF"/>
</g>
<g style="mix-blend-mode:overlay">
<path d="M53.1373 17.7626H49.668V19.021H53.1373V17.7626Z" fill="#00D5FF"/>
</g>
<g style="mix-blend-mode:overlay">
<path d="M46.7513 17.7626H40.3154V18.266H46.7513V17.7626Z" fill="#00D5FF"/>
</g>
<g style="mix-blend-mode:overlay">
<path d="M50.7237 55.3149H47.0029V57.0768H50.7237V55.3149Z" fill="#00D5FF"/>
</g>
<g style="mix-blend-mode:overlay">
<path d="M60.0762 62.8656H35.0869V63.4697H60.0762V62.8656Z" fill="#00D5FF"/>
</g>
<g style="mix-blend-mode:overlay">
<path d="M63.6956 58.8888H51.1758V59.2915H63.6956V58.8888Z" fill="#00D5FF"/>
</g>
<g style="mix-blend-mode:overlay">
<path d="M53.3887 61.0535H31.9189V61.2045H53.3887V61.0535Z" fill="#00D5FF"/>
</g>
<g style="mix-blend-mode:overlay">
<path d="M56.9582 65.4832H56.0029V66.0369H56.9582V65.4832Z" fill="#00D5FF"/>
</g>
<g style="mix-blend-mode:overlay">
<path d="M43.6341 65.0806H41.1201V66.3894H43.6341V65.0806Z" fill="#00D5FF"/>
</g>
<g style="mix-blend-mode:overlay">
<path d="M53.1875 58.3855H49.2656V59.795H53.1875V58.3855Z" fill="#00D5FF"/>
</g>
<g style="mix-blend-mode:overlay">
<path d="M45.9972 58.3855H38.7568V58.9392H45.9972V58.3855Z" fill="#00D5FF"/>
</g>
<g style="mix-blend-mode:overlay">
<path d="M71.8913 83.0514H68.623V84.6119H71.8913V83.0514Z" fill="#00D5FF"/>
</g>
<g style="mix-blend-mode:overlay">
<path d="M80.2381 89.6959H58.0645V90.2496H80.2381V89.6959Z" fill="#00D5FF"/>
</g>
<g style="mix-blend-mode:overlay">
<path d="M83.4059 86.2227H72.2939V86.575H83.4059V86.2227Z" fill="#00D5FF"/>
</g>
<g style="mix-blend-mode:overlay">
<path d="M74.255 88.085H55.249V88.236H74.255V88.085Z" fill="#00D5FF"/>
</g>
<g style="mix-blend-mode:overlay">
<path d="M77.4221 92.0115H76.5674V92.5149H77.4221V92.0115Z" fill="#00D5FF"/>
</g>
<g style="mix-blend-mode:overlay">
<path d="M65.6069 91.6592H63.3945V92.817H65.6069V91.6592Z" fill="#00D5FF"/>
</g>
<g style="mix-blend-mode:overlay">
<path d="M74.1041 85.7191H70.6348V86.9776H74.1041V85.7191Z" fill="#00D5FF"/>
</g>
<g style="mix-blend-mode:overlay">
<path d="M67.7181 85.7191H61.2822V86.2225H67.7181V85.7191Z" fill="#00D5FF"/>
</g>
<g style="mix-blend-mode:overlay">
<path d="M125.39 71.5239H121.418V73.3864H125.39V71.5239Z" fill="#00D5FF"/>
</g>
<g style="mix-blend-mode:overlay">
<path d="M135.396 79.5779H108.747V80.2323H135.396V79.5779Z" fill="#00D5FF"/>
</g>
<g style="mix-blend-mode:overlay">
<path d="M139.267 75.3495H125.893V75.8025H139.267V75.3495Z" fill="#00D5FF"/>
</g>
<g style="mix-blend-mode:overlay">
<path d="M128.306 77.6146H105.378V77.7656H128.306V77.6146Z" fill="#00D5FF"/>
</g>
<g style="mix-blend-mode:overlay">
<path d="M132.077 82.3466H131.071V82.9506H132.077V82.3466Z" fill="#00D5FF"/>
</g>
<g style="mix-blend-mode:overlay">
<path d="M117.847 81.9437H115.183V83.3532H117.847V81.9437Z" fill="#00D5FF"/>
</g>
<g style="mix-blend-mode:overlay">
<path d="M128.055 74.7957H123.882V76.3058H128.055V74.7957Z" fill="#00D5FF"/>
</g>
<g style="mix-blend-mode:overlay">
<path d="M120.362 74.7957H112.619V75.3997H120.362V74.7957Z" fill="#00D5FF"/>
</g>
<g style="mix-blend-mode:overlay">
<path d="M143.943 38.7535H139.519V40.8677H143.943V38.7535Z" fill="#00D5FF"/>
</g>
<g style="mix-blend-mode:overlay">
<path d="M155.206 47.7642H125.289V48.5192H155.206V47.7642Z" fill="#00D5FF"/>
</g>
<g style="mix-blend-mode:overlay">
<path d="M159.53 43.0322H144.547V43.5356H159.53V43.0322Z" fill="#00D5FF"/>
</g>
<g style="mix-blend-mode:overlay">
<path d="M147.212 45.5995H121.519V45.8008H147.212V45.5995Z" fill="#00D5FF"/>
</g>
<g style="mix-blend-mode:overlay">
<path d="M151.486 50.9355H150.329V51.5899H151.486V50.9355Z" fill="#00D5FF"/>
</g>
<g style="mix-blend-mode:overlay">
<path d="M135.496 50.4319H132.479V51.9924H135.496V50.4319Z" fill="#00D5FF"/>
</g>
<g style="mix-blend-mode:overlay">
<path d="M146.96 42.3779H142.284V44.0391H146.96V42.3779Z" fill="#00D5FF"/>
</g>
<g style="mix-blend-mode:overlay">
<path d="M138.363 42.3779H129.664V43.0323H138.363V42.3779Z" fill="#00D5FF"/>
</g>
<g style="mix-blend-mode:overlay">
<path d="M136.854 17.712H133.083V19.4739H136.854V17.712Z" fill="#00D5FF"/>
</g>
<g style="mix-blend-mode:overlay">
<path d="M146.307 25.3132H121.016V25.9676H146.307V25.3132Z" fill="#00D5FF"/>
</g>
<g style="mix-blend-mode:overlay">
<path d="M149.977 21.3364H137.307V21.7391H149.977V21.3364Z" fill="#00D5FF"/>
</g>
<g style="mix-blend-mode:overlay">
<path d="M139.519 23.4507H117.798V23.6017H139.519V23.4507Z" fill="#00D5FF"/>
</g>
<g style="mix-blend-mode:overlay">
<path d="M143.139 27.9813H142.184V28.535H143.139V27.9813Z" fill="#00D5FF"/>
</g>
<g style="mix-blend-mode:overlay">
<path d="M129.614 27.5784H127.1V28.9375H129.614V27.5784Z" fill="#00D5FF"/>
</g>
<g style="mix-blend-mode:overlay">
<path d="M139.368 20.7827H135.396V22.1922H139.368V20.7827Z" fill="#00D5FF"/>
</g>
<g style="mix-blend-mode:overlay">
<path d="M132.077 20.7827H124.736V21.3364H132.077V20.7827Z" fill="#00D5FF"/>
</g>
<g style="mix-blend-mode:overlay">
<path d="M131.323 18.8699H135.898V16.7053H131.323V18.8699Z" fill="#00D5FF"/>
</g>
<g style="mix-blend-mode:overlay">
<path d="M119.859 9.70825L150.479 9.70825V8.95318L119.859 8.95318V9.70825Z" fill="#00D5FF"/>
</g>
<g style="mix-blend-mode:overlay">
<path d="M115.434 14.5408L130.77 14.5408V14.0374L115.434 14.0374V14.5408Z" fill="#00D5FF"/>
</g>
<g style="mix-blend-mode:overlay">
<path d="M128.055 11.9232L154.352 11.9232V11.7219L128.055 11.7219V11.9232Z" fill="#00D5FF"/>
</g>
<g style="mix-blend-mode:overlay">
<path d="M123.68 6.48669H124.837V5.8323H123.68V6.48669Z" fill="#00D5FF"/>
</g>
<g style="mix-blend-mode:overlay">
<path d="M140.022 6.93982H143.089V5.329H140.022V6.93982Z" fill="#00D5FF"/>
</g>
<g style="mix-blend-mode:overlay">
<path d="M128.256 15.1448H133.083V13.4333H128.256V15.1448Z" fill="#00D5FF"/>
</g>
<g style="mix-blend-mode:overlay">
<path d="M137.105 15.1953L146.005 15.1953V14.5409L137.105 14.5409V15.1953Z" fill="#00D5FF"/>
</g>
<g style="mix-blend-mode:overlay">
<path d="M131.122 38.9044H135.999V36.5889H131.122V38.9044Z" fill="#00D5FF"/>
</g>
<g style="mix-blend-mode:overlay">
<path d="M118.753 28.9879L151.586 28.9879V28.1825L118.753 28.1825V28.9879Z" fill="#00D5FF"/>
</g>
<g style="mix-blend-mode:overlay">
<path d="M113.976 34.1727H130.418V33.619H113.976V34.1727Z" fill="#00D5FF"/>
</g>
<g style="mix-blend-mode:overlay">
<path d="M127.552 31.4043L155.759 31.4043V31.2029L127.552 31.2029V31.4043Z" fill="#00D5FF"/>
</g>
<g style="mix-blend-mode:overlay">
<path d="M122.876 25.5146H124.133V24.8099H122.876V25.5146Z" fill="#00D5FF"/>
</g>
<g style="mix-blend-mode:overlay">
<path d="M140.373 26.0179H143.642V24.3064H140.373V26.0179Z" fill="#00D5FF"/>
</g>
<g style="mix-blend-mode:overlay">
<path d="M127.854 34.8774H132.982V33.0149H127.854V34.8774Z" fill="#00D5FF"/>
</g>
<g style="mix-blend-mode:overlay">
<path d="M137.256 34.8774H146.759V34.1727H137.256V34.8774Z" fill="#00D5FF"/>
</g>
<g style="mix-blend-mode:overlay">
<path d="M131.725 64.2249H136.351V62.01H131.725V64.2249Z" fill="#00D5FF"/>
</g>
<g style="mix-blend-mode:overlay">
<path d="M119.96 54.8115L151.234 54.8115V54.0565L119.96 54.0565V54.8115Z" fill="#00D5FF"/>
</g>
<g style="mix-blend-mode:overlay">
<path d="M115.435 59.6942H131.122V59.1908H115.435V59.6942Z" fill="#00D5FF"/>
</g>
<g style="mix-blend-mode:overlay">
<path d="M128.256 57.0768H155.156V56.8754H128.256V57.0768Z" fill="#00D5FF"/>
</g>
<g style="mix-blend-mode:overlay">
<path d="M123.831 51.489H125.038V50.7843H123.831V51.489Z" fill="#00D5FF"/>
</g>
<g style="mix-blend-mode:overlay">
<path d="M140.524 51.9927H143.642V50.3315H140.524V51.9927Z" fill="#00D5FF"/>
</g>
<g style="mix-blend-mode:overlay">
<path d="M128.558 60.399H133.485V58.6372H128.558V60.399Z" fill="#00D5FF"/>
</g>
<g style="mix-blend-mode:overlay">
<path d="M137.558 60.399H146.608V59.6943H137.558V60.399Z" fill="#00D5FF"/>
</g>
<g style="mix-blend-mode:overlay">
<path d="M128.608 74.0406H133.435V71.7251H128.608V74.0406Z" fill="#00D5FF"/>
</g>
<g style="mix-blend-mode:overlay">
<path d="M116.44 64.2249H148.972V63.4194L116.44 63.4194V64.2249Z" fill="#00D5FF"/>
</g>
<g style="mix-blend-mode:overlay">
<path d="M111.714 69.3591H128.005V68.8054H111.714V69.3591Z" fill="#00D5FF"/>
</g>
<g style="mix-blend-mode:overlay">
<path d="M125.088 66.5907H153.044V66.3893H125.088V66.5907Z" fill="#00D5FF"/>
</g>
<g style="mix-blend-mode:overlay">
<path d="M120.463 60.8016H121.72V60.0969H120.463V60.8016Z" fill="#00D5FF"/>
</g>
<g style="mix-blend-mode:overlay">
<path d="M137.86 61.3052H141.128V59.5937H137.86V61.3052Z" fill="#00D5FF"/>
</g>
<g style="mix-blend-mode:overlay">
<path d="M125.39 70.064H130.519V68.2518H125.39V70.064Z" fill="#00D5FF"/>
</g>
<g style="mix-blend-mode:overlay">
<path d="M134.742 70.064H144.194V69.3592H134.742V70.064Z" fill="#00D5FF"/>
</g>
<g style="mix-blend-mode:overlay">
<path d="M98.339 85.4172H102.764V83.303H98.339V85.4172Z" fill="#00D5FF"/>
</g>
<g style="mix-blend-mode:overlay">
<path d="M87.2267 76.4568H116.842V75.7017H87.2267V76.4568Z" fill="#00D5FF"/>
</g>
<g style="mix-blend-mode:overlay">
<path d="M82.9027 81.1383H97.7354V80.6349H82.9027V81.1383Z" fill="#00D5FF"/>
</g>
<g style="mix-blend-mode:overlay">
<path d="M95.1714 78.6215H120.613V78.4201H95.1714V78.6215Z" fill="#00D5FF"/>
</g>
<g style="mix-blend-mode:overlay">
<path d="M90.9476 73.3359H92.0537V72.6815H90.9476V73.3359Z" fill="#00D5FF"/>
</g>
<g style="mix-blend-mode:overlay">
<path d="M106.736 73.7891H109.702V72.2286H106.736V73.7891Z" fill="#00D5FF"/>
</g>
<g style="mix-blend-mode:overlay">
<path d="M95.423 81.7928H100.049V80.1317H95.423V81.7928Z" fill="#00D5FF"/>
</g>
<g style="mix-blend-mode:overlay">
<path d="M103.921 81.7928H112.519V81.1385H103.921V81.7928Z" fill="#00D5FF"/>
</g>
<g style="mix-blend-mode:overlay">
<path d="M73.903 84.662H78.3779V82.5478H73.903V84.662Z" fill="#00D5FF"/>
</g>
<g style="mix-blend-mode:overlay">
<path d="M62.5896 75.6011H92.6572V74.846H62.5896V75.6011Z" fill="#00D5FF"/>
</g>
<g style="mix-blend-mode:overlay">
<path d="M58.2655 80.3329H73.3496V79.8295H58.2655V80.3329Z" fill="#00D5FF"/>
</g>
<g style="mix-blend-mode:overlay">
<path d="M70.6349 77.816H96.4287V77.6147H70.6349V77.816Z" fill="#00D5FF"/>
</g>
<g style="mix-blend-mode:overlay">
<path d="M66.3611 72.4298H67.5176V71.7754H66.3611V72.4298Z" fill="#00D5FF"/>
</g>
<g style="mix-blend-mode:overlay">
<path d="M82.4002 72.9333H85.417V71.3225H82.4002V72.9333Z" fill="#00D5FF"/>
</g>
<g style="mix-blend-mode:overlay">
<path d="M70.886 81.0376H75.6123V79.3764H70.886V81.0376Z" fill="#00D5FF"/>
</g>
<g style="mix-blend-mode:overlay">
<path d="M79.5847 80.9873H88.2832V80.3329H79.5847V80.9873Z" fill="#00D5FF"/>
</g>
<g style="mix-blend-mode:overlay">
<path d="M53.4387 86.1219H58.0645V83.9574H53.4387V86.1219Z" fill="#00D5FF"/>
</g>
<g style="mix-blend-mode:overlay">
<path d="M41.8237 76.8091H72.8467V76.054H41.8237V76.8091Z" fill="#00D5FF"/>
</g>
<g style="mix-blend-mode:overlay">
<path d="M37.3491 81.6921H52.8857V81.1888H37.3491V81.6921Z" fill="#00D5FF"/>
</g>
<g style="mix-blend-mode:overlay">
<path d="M50.1708 79.0746H76.8193V78.8732H50.1708V79.0746Z" fill="#00D5FF"/>
</g>
<g style="mix-blend-mode:overlay">
<path d="M45.6951 73.5374H46.8516V72.883H45.6951V73.5374Z" fill="#00D5FF"/>
</g>
<g style="mix-blend-mode:overlay">
<path d="M62.2381 73.9905H65.3555V72.3293H62.2381V73.9905Z" fill="#00D5FF"/>
</g>
<g style="mix-blend-mode:overlay">
<path d="M50.3718 82.3466H55.249V80.5847H50.3718V82.3466Z" fill="#00D5FF"/>
</g>
<g style="mix-blend-mode:overlay">
<path d="M59.3211 82.3466H68.3213V81.6922H59.3211V82.3466Z" fill="#00D5FF"/>
</g>
<g style="mix-blend-mode:overlay">
<path d="M40.4158 79.88H45.293V77.5644H40.4158V79.88Z" fill="#00D5FF"/>
</g>
<g style="mix-blend-mode:overlay">
<path d="M28.1474 70.0137H60.8799V69.2083H28.1474V70.0137Z" fill="#00D5FF"/>
</g>
<g style="mix-blend-mode:overlay">
<path d="M23.4719 75.1479H39.8633V74.5942H23.4719V75.1479Z" fill="#00D5FF"/>
</g>
<g style="mix-blend-mode:overlay">
<path d="M36.947 72.4298H65.0537V72.2285H36.947V72.4298Z" fill="#00D5FF"/>
</g>
<g style="mix-blend-mode:overlay">
<path d="M32.2703 66.5402H33.5273V65.8354H32.2703V66.5402Z" fill="#00D5FF"/>
</g>
<g style="mix-blend-mode:overlay">
<path d="M49.7679 67.0438H53.0361V65.3323H49.7679V67.0438Z" fill="#00D5FF"/>
</g>
<g style="mix-blend-mode:overlay">
<path d="M37.1986 75.9032H42.3271V74.091H37.1986V75.9032Z" fill="#00D5FF"/>
</g>
<g style="mix-blend-mode:overlay">
<path d="M46.6005 75.8528H56.1035V75.1481H46.6005V75.8528Z" fill="#00D5FF"/>
</g>
<g style="mix-blend-mode:overlay">
<path d="M41.8747 59.6942H46.5508V57.4793H41.8747V59.6942Z" fill="#00D5FF"/>
</g>
<g style="mix-blend-mode:overlay">
<path d="M30.0084 50.2307L61.5342 50.2307V49.4253L30.0084 49.4253V50.2307Z" fill="#00D5FF"/>
</g>
<g style="mix-blend-mode:overlay">
<path d="M25.4825 55.2141H41.2705V54.7107H25.4825V55.2141Z" fill="#00D5FF"/>
</g>
<g style="mix-blend-mode:overlay">
<path d="M38.4052 52.496H65.4561V52.2946H38.4052V52.496Z" fill="#00D5FF"/>
</g>
<g style="mix-blend-mode:overlay">
<path d="M33.93 46.9587H35.1367V46.254H33.93V46.9587Z" fill="#00D5FF"/>
</g>
<g style="mix-blend-mode:overlay">
<path d="M50.7239 47.4119H53.8916V45.7507H50.7239V47.4119Z" fill="#00D5FF"/>
</g>
<g style="mix-blend-mode:overlay">
<path d="M38.7063 55.8687H43.6338V54.1068H38.7063V55.8687Z" fill="#00D5FF"/>
</g>
<g style="mix-blend-mode:overlay">
<path d="M47.7572 55.8687H56.9082V55.1639H47.7572V55.8687Z" fill="#00D5FF"/>
</g>
<g style="mix-blend-mode:overlay">
<path d="M41.0197 49.6265H45.6455V47.4619H41.0197V49.6265Z" fill="#00D5FF"/>
</g>
<g style="mix-blend-mode:overlay">
<path d="M29.4043 40.314L60.377 40.314V39.5589L29.4043 39.5589V40.314Z" fill="#00D5FF"/>
</g>
<g style="mix-blend-mode:overlay">
<path d="M24.9302 45.1969H40.4668V44.6935H24.9302V45.1969Z" fill="#00D5FF"/>
</g>
<g style="mix-blend-mode:overlay">
<path d="M37.701 42.5793H64.3496V42.378H37.701V42.5793Z" fill="#00D5FF"/>
</g>
<g style="mix-blend-mode:overlay">
<path d="M33.327 37.0419H34.4834V36.3875H33.327V37.0419Z" fill="#00D5FF"/>
</g>
<g style="mix-blend-mode:overlay">
<path d="M49.8182 37.5454H52.9355V35.8842H49.8182V37.5454Z" fill="#00D5FF"/>
</g>
<g style="mix-blend-mode:overlay">
<path d="M37.9529 45.9016H42.8301V44.1901H37.9529V45.9016Z" fill="#00D5FF"/>
</g>
<g style="mix-blend-mode:overlay">
<path d="M46.9022 45.9016H55.9023V45.2472H46.9022V45.9016Z" fill="#00D5FF"/>
</g>
<g style="mix-blend-mode:overlay">
<path d="M41.0695 38.5018H45.6953V36.287H41.0695V38.5018Z" fill="#00D5FF"/>
</g>
<g style="mix-blend-mode:overlay">
<path d="M29.3545 29.1388L60.5283 29.1388V28.3837L29.3545 28.3837V29.1388Z" fill="#00D5FF"/>
</g>
<g style="mix-blend-mode:overlay">
<path d="M24.8296 34.0217H40.4668V33.5183H24.8296V34.0217Z" fill="#00D5FF"/>
</g>
<g style="mix-blend-mode:overlay">
<path d="M37.6508 31.3538L64.4502 31.3538V31.1524L37.6508 31.1524V31.3538Z" fill="#00D5FF"/>
</g>
<g style="mix-blend-mode:overlay">
<path d="M33.2264 25.8165H34.3828V25.1621H33.2264V25.8165Z" fill="#00D5FF"/>
</g>
<g style="mix-blend-mode:overlay">
<path d="M49.9188 26.3198H53.0361V24.6587H49.9188V26.3198Z" fill="#00D5FF"/>
</g>
<g style="mix-blend-mode:overlay">
<path d="M37.9519 34.7266H42.8291V32.9647H37.9519V34.7266Z" fill="#00D5FF"/>
</g>
<g style="mix-blend-mode:overlay">
<path d="M46.9027 34.7266H55.9531V34.0722H46.9027V34.7266Z" fill="#00D5FF"/>
</g>
<g style="mix-blend-mode:overlay">
<path d="M42.4772 18.6685H46.8516V16.6046H42.4772V18.6685Z" fill="#00D5FF"/>
</g>
<g style="mix-blend-mode:overlay">
<path d="M31.3658 9.75879L60.9307 9.75879V9.00371L31.3658 9.00371V9.75879Z" fill="#00D5FF"/>
</g>
<g style="mix-blend-mode:overlay">
<path d="M27.0921 14.4401L41.9248 14.4401V13.9367L27.0921 13.9367V14.4401Z" fill="#00D5FF"/>
</g>
<g style="mix-blend-mode:overlay">
<path d="M39.3096 11.9232L64.7012 11.9232V11.7219L39.3096 11.7219V11.9232Z" fill="#00D5FF"/>
</g>
<g style="mix-blend-mode:overlay">
<path d="M35.0862 6.6377H36.1924V5.9833H35.0862V6.6377Z" fill="#00D5FF"/>
</g>
<g style="mix-blend-mode:overlay">
<path d="M50.8245 7.09082H53.791V5.53034H50.8245V7.09082Z" fill="#00D5FF"/>
</g>
<g style="mix-blend-mode:overlay">
<path d="M39.5109 15.0443H44.1367V13.3831H39.5109V15.0443Z" fill="#00D5FF"/>
</g>
<g style="mix-blend-mode:overlay">
<path d="M48.0588 15.0443L56.6064 15.0443V14.3899L48.0588 14.3899V15.0443Z" fill="#00D5FF"/>
</g>
<defs>
<radialGradient id="paint0_radial_873_84048" cx="0" cy="0" r="1" gradientUnits="userSpaceOnUse" gradientTransform="translate(88.2329 75.8718) scale(87.4878 64.8156)">
<stop stop-color="#80003F"/>
<stop offset="0.22" stop-color="#56002A"/>
<stop offset="0.45" stop-color="#310018"/>
<stop offset="0.66" stop-color="#16000A"/>
<stop offset="0.85" stop-color="#050002"/>
<stop offset="1"/>
</radialGradient>
</defs>
</svg>
