<svg width="176" height="176" viewBox="0 0 176 176" fill="none" xmlns="http://www.w3.org/2000/svg">
<path style="mix-blend-mode:screen" d="M175.352 87.7095C175.352 136.085 136.183 175.298 87.8638 175.298C39.5444 175.298 0.375977 136.085 0.375977 87.7095C0.375977 39.3344 39.5444 0.12085 87.8638 0.12085C136.183 0.12085 175.352 39.3344 175.352 87.7095Z" fill="url(#paint0_radial_873_83316)"/>
<path d="M98.8253 75.0241L99.7304 74.118H102.094L103.602 72.6079V71.9535H98.9761L97.2666 73.665V90.3773V107.14L98.9761 108.851H103.602V108.147L102.094 106.687H99.7304L98.8253 105.781V90.3773V75.0241Z" fill="#800040"/>
<path d="M95.6575 56.1473H92.8418V56.8521H95.6575V56.1473Z" fill="#FF0080"/>
<path d="M95.6072 54.5365H92.9424V55.1406H95.6072V54.5365Z" fill="#FF0080"/>
<path d="M95.5565 52.8754H92.9922V53.3284H95.5565V52.8754Z" fill="#FF0080"/>
<path d="M95.4564 51.2644H93.043V51.5664H95.4564V51.2644Z" fill="#FF0080"/>
<path d="M95.4057 49.6033H93.0928V49.8046H95.4057V49.6033Z" fill="#FF0080"/>
<path d="M95.6575 123.953H92.8418V124.658H95.6575V123.953Z" fill="#FF0080"/>
<path d="M95.6072 125.715H92.9424V126.319H95.6072V125.715Z" fill="#FF0080"/>
<path d="M95.5565 127.477H92.9922V127.93H95.5565V127.477Z" fill="#FF0080"/>
<path d="M95.4564 129.239H93.043V129.541H95.4564V129.239Z" fill="#FF0080"/>
<path d="M95.4057 130.95H93.0928V131.151H95.4057V130.95Z" fill="#FF0080"/>
<path d="M78.0592 56.2478H72.0758V57.0532H77.7072L82.6346 62.0367V86.3501L79.0145 89.9745H72.4781V82.8264H71.3719L70.668 83.5312V97.2735L71.3719 97.9782H72.4781V90.8302H79.0145L82.6346 94.4546V118.768L77.7072 123.701H72.0758V124.557H78.0592L83.4895 119.12V94.1022L79.7687 90.3772L83.4895 86.6521V61.6843L78.21 56.3485L78.0592 56.2478Z" fill="#FF0080"/>
<path d="M165.044 52.976L164.491 52.4222H163.686V57.6574H118.032L108.579 67.121H96.1597V59.9226H92.3887V120.832H96.1597V113.634H108.579L117.931 122.997L118.032 123.097H163.686V128.332H164.491L165.044 127.779V117.56V116.05L160.971 111.972H126.428H97.8693L94.0479 108.147V72.6079L97.8693 68.7822H160.971L165.044 64.7048V63.1946V52.976ZM126.428 113.684H160.267L163.686 117.107V122.342H118.384L109.735 113.684H126.428ZM163.686 63.7484L160.267 67.1714H109.735L118.384 58.5132H163.686V63.7484Z" fill="#FF0080"/>
<path d="M95.7073 57.8085H92.791V58.6139H95.7073V57.8085Z" fill="#FF0080"/>
<path d="M95.7073 122.191H92.791V122.997H95.7073V122.191Z" fill="#FF0080"/>
<path d="M72.4778 100.093H71.623V100.948H72.4778V100.093Z" fill="#FF0080"/>
<path d="M72.4778 103.415H71.623V104.271H72.4778V103.415Z" fill="#FF0080"/>
<path d="M72.4778 106.737H71.623V107.593H72.4778V106.737Z" fill="#FF0080"/>
<path d="M72.4778 110.009H71.623V110.865H72.4778V110.009Z" fill="#FF0080"/>
<path d="M72.4778 79.8566H71.623V80.7123H72.4778V79.8566Z" fill="#FF0080"/>
<path d="M72.4778 76.5343H71.623V77.3901H72.4778V76.5343Z" fill="#FF0080"/>
<path d="M72.4778 73.212H71.623V74.0678H72.4778V73.212Z" fill="#FF0080"/>
<path d="M72.4778 69.9401H71.623V70.7958H72.4778V69.9401Z" fill="#FF0080"/>
<path opacity="0.2" d="M99.0765 117.107H160.117V128.332H99.0765C98.6743 128.332 98.2721 128.332 97.8698 128.332V117.107C98.2721 117.107 98.6743 117.107 99.0765 117.107ZM89.6239 110.11V53.429C89.1211 53.5296 88.6183 53.6807 88.1154 53.8317C85.0986 54.7378 82.6349 55.9962 80.7242 57.607C78.8136 59.2179 77.456 61.1307 76.6012 63.3959C75.7464 65.6108 75.2939 68.0774 75.2939 70.846V110.06C75.2939 112.778 75.7464 115.244 76.6012 117.51C77.456 119.724 78.8639 121.637 80.7242 123.299C82.5846 124.96 85.0986 126.168 88.1154 127.074C88.6183 127.225 89.1211 127.326 89.6239 127.477V110.211V110.11ZM99.0765 52.4725C98.6743 52.4725 98.2721 52.4725 97.8698 52.4725V63.698C98.2721 63.698 98.6743 63.698 99.0765 63.698H160.117V52.4725H99.0765Z" fill="#00D5FF"/>
<g style="mix-blend-mode:screen">
<path d="M99.0765 52.4725C98.6743 52.4725 98.2721 52.4725 97.8698 52.4725V63.698C98.2721 63.698 98.6743 63.698 99.0765 63.698H160.117V52.4725H99.0765ZM99.0765 117.107H160.117V128.332H99.0765C98.6743 128.332 98.2721 128.332 97.8698 128.332V117.107C98.2721 117.107 98.6743 117.107 99.0765 117.107ZM89.6239 110.11V53.429C89.1211 53.5296 88.6183 53.6807 88.1154 53.8317C85.0986 54.7378 82.6349 55.9962 80.7242 57.607C78.8136 59.2179 77.456 61.1307 76.6012 63.3959C75.7464 65.6108 75.2939 68.0774 75.2939 70.846V110.06C75.2939 112.778 75.7464 115.244 76.6012 117.51C77.456 119.724 78.8639 121.637 80.7242 123.299C82.5846 124.96 85.0986 126.168 88.1154 127.074C88.6183 127.225 89.1211 127.326 89.6239 127.477V110.211V110.11Z" stroke="black" stroke-width="18.7061" stroke-linecap="round" stroke-linejoin="round"/>
<path d="M99.0765 52.4725C98.6743 52.4725 98.2721 52.4725 97.8698 52.4725V63.698C98.2721 63.698 98.6743 63.698 99.0765 63.698H160.117V52.4725H99.0765ZM99.0765 117.107H160.117V128.332H99.0765C98.6743 128.332 98.2721 128.332 97.8698 128.332V117.107C98.2721 117.107 98.6743 117.107 99.0765 117.107ZM89.6239 110.11V53.429C89.1211 53.5296 88.6183 53.6807 88.1154 53.8317C85.0986 54.7378 82.6349 55.9962 80.7242 57.607C78.8136 59.2179 77.456 61.1307 76.6012 63.3959C75.7464 65.6108 75.2939 68.0774 75.2939 70.846V110.06C75.2939 112.778 75.7464 115.244 76.6012 117.51C77.456 119.724 78.8639 121.637 80.7242 123.299C82.5846 124.96 85.0986 126.168 88.1154 127.074C88.6183 127.225 89.1211 127.326 89.6239 127.477V110.211V110.11Z" stroke="#000203" stroke-width="16.3764" stroke-linecap="round" stroke-linejoin="round"/>
<path d="M99.0765 52.4725C98.6743 52.4725 98.2721 52.4725 97.8698 52.4725V63.698C98.2721 63.698 98.6743 63.698 99.0765 63.698H160.117V52.4725H99.0765ZM99.0765 117.107H160.117V128.332H99.0765C98.6743 128.332 98.2721 128.332 97.8698 128.332V117.107C98.2721 117.107 98.6743 117.107 99.0765 117.107ZM89.6239 110.11V53.429C89.1211 53.5296 88.6183 53.6807 88.1154 53.8317C85.0986 54.7378 82.6349 55.9962 80.7242 57.607C78.8136 59.2179 77.456 61.1307 76.6012 63.3959C75.7464 65.6108 75.2939 68.0774 75.2939 70.846V110.06C75.2939 112.778 75.7464 115.244 76.6012 117.51C77.456 119.724 78.8639 121.637 80.7242 123.299C82.5846 124.96 85.0986 126.168 88.1154 127.074C88.6183 127.225 89.1211 127.326 89.6239 127.477V110.211V110.11Z" stroke="#000506" stroke-width="14.0353" stroke-linecap="round" stroke-linejoin="round"/>
<path d="M99.0765 52.4725C98.6743 52.4725 98.2721 52.4725 97.8698 52.4725V63.698C98.2721 63.698 98.6743 63.698 99.0765 63.698H160.117V52.4725H99.0765ZM99.0765 117.107H160.117V128.332H99.0765C98.6743 128.332 98.2721 128.332 97.8698 128.332V117.107C98.2721 117.107 98.6743 117.107 99.0765 117.107ZM89.6239 110.11V53.429C89.1211 53.5296 88.6183 53.6807 88.1154 53.8317C85.0986 54.7378 82.6349 55.9962 80.7242 57.607C78.8136 59.2179 77.456 61.1307 76.6012 63.3959C75.7464 65.6108 75.2939 68.0774 75.2939 70.846V110.06C75.2939 112.778 75.7464 115.244 76.6012 117.51C77.456 119.724 78.8639 121.637 80.7242 123.299C82.5846 124.96 85.0986 126.168 88.1154 127.074C88.6183 127.225 89.1211 127.326 89.6239 127.477V110.211V110.11Z" stroke="#000709" stroke-width="11.6942" stroke-linecap="round" stroke-linejoin="round"/>
<path d="M99.0765 52.4725C98.6743 52.4725 98.2721 52.4725 97.8698 52.4725V63.698C98.2721 63.698 98.6743 63.698 99.0765 63.698H160.117V52.4725H99.0765ZM99.0765 117.107H160.117V128.332H99.0765C98.6743 128.332 98.2721 128.332 97.8698 128.332V117.107C98.2721 117.107 98.6743 117.107 99.0765 117.107ZM89.6239 110.11V53.429C89.1211 53.5296 88.6183 53.6807 88.1154 53.8317C85.0986 54.7378 82.6349 55.9962 80.7242 57.607C78.8136 59.2179 77.456 61.1307 76.6012 63.3959C75.7464 65.6108 75.2939 68.0774 75.2939 70.846V110.06C75.2939 112.778 75.7464 115.244 76.6012 117.51C77.456 119.724 78.8639 121.637 80.7242 123.299C82.5846 124.96 85.0986 126.168 88.1154 127.074C88.6183 127.225 89.1211 127.326 89.6239 127.477V110.211V110.11Z" stroke="#00090C" stroke-width="9.35307" stroke-linecap="round" stroke-linejoin="round"/>
<path d="M99.0765 52.4725C98.6743 52.4725 98.2721 52.4725 97.8698 52.4725V63.698C98.2721 63.698 98.6743 63.698 99.0765 63.698H160.117V52.4725H99.0765ZM99.0765 117.107H160.117V128.332H99.0765C98.6743 128.332 98.2721 128.332 97.8698 128.332V117.107C98.2721 117.107 98.6743 117.107 99.0765 117.107ZM89.6239 110.11V53.429C89.1211 53.5296 88.6183 53.6807 88.1154 53.8317C85.0986 54.7378 82.6349 55.9962 80.7242 57.607C78.8136 59.2179 77.456 61.1307 76.6012 63.3959C75.7464 65.6108 75.2939 68.0774 75.2939 70.846V110.06C75.2939 112.778 75.7464 115.244 76.6012 117.51C77.456 119.724 78.8639 121.637 80.7242 123.299C82.5846 124.96 85.0986 126.168 88.1154 127.074C88.6183 127.225 89.1211 127.326 89.6239 127.477V110.211V110.11Z" stroke="#000C0F" stroke-width="7.01196" stroke-linecap="round" stroke-linejoin="round"/>
<path d="M99.0765 52.4725C98.6743 52.4725 98.2721 52.4725 97.8698 52.4725V63.698C98.2721 63.698 98.6743 63.698 99.0765 63.698H160.117V52.4725H99.0765ZM99.0765 117.107H160.117V128.332H99.0765C98.6743 128.332 98.2721 128.332 97.8698 128.332V117.107C98.2721 117.107 98.6743 117.107 99.0765 117.107ZM89.6239 110.11V53.429C89.1211 53.5296 88.6183 53.6807 88.1154 53.8317C85.0986 54.7378 82.6349 55.9962 80.7242 57.607C78.8136 59.2179 77.456 61.1307 76.6012 63.3959C75.7464 65.6108 75.2939 68.0774 75.2939 70.846V110.06C75.2939 112.778 75.7464 115.244 76.6012 117.51C77.456 119.724 78.8639 121.637 80.7242 123.299C82.5846 124.96 85.0986 126.168 88.1154 127.074C88.6183 127.225 89.1211 127.326 89.6239 127.477V110.211V110.11Z" stroke="#000E12" stroke-width="4.68222" stroke-linecap="round" stroke-linejoin="round"/>
<path d="M99.0765 52.4725C98.6743 52.4725 98.2721 52.4725 97.8698 52.4725V63.698C98.2721 63.698 98.6743 63.698 99.0765 63.698H160.117V52.4725H99.0765ZM99.0765 117.107H160.117V128.332H99.0765C98.6743 128.332 98.2721 128.332 97.8698 128.332V117.107C98.2721 117.107 98.6743 117.107 99.0765 117.107ZM89.6239 110.11V53.429C89.1211 53.5296 88.6183 53.6807 88.1154 53.8317C85.0986 54.7378 82.6349 55.9962 80.7242 57.607C78.8136 59.2179 77.456 61.1307 76.6012 63.3959C75.7464 65.6108 75.2939 68.0774 75.2939 70.846V110.06C75.2939 112.778 75.7464 115.244 76.6012 117.51C77.456 119.724 78.8639 121.637 80.7242 123.299C82.5846 124.96 85.0986 126.168 88.1154 127.074C88.6183 127.225 89.1211 127.326 89.6239 127.477V110.211V110.11Z" stroke="#001A20" stroke-width="3.98898" stroke-linecap="round" stroke-linejoin="round"/>
<path d="M99.0765 52.4725C98.6743 52.4725 98.2721 52.4725 97.8698 52.4725V63.698C98.2721 63.698 98.6743 63.698 99.0765 63.698H160.117V52.4725H99.0765ZM99.0765 117.107H160.117V128.332H99.0765C98.6743 128.332 98.2721 128.332 97.8698 128.332V117.107C98.2721 117.107 98.6743 117.107 99.0765 117.107ZM89.6239 110.11V53.429C89.1211 53.5296 88.6183 53.6807 88.1154 53.8317C85.0986 54.7378 82.6349 55.9962 80.7242 57.607C78.8136 59.2179 77.456 61.1307 76.6012 63.3959C75.7464 65.6108 75.2939 68.0774 75.2939 70.846V110.06C75.2939 112.778 75.7464 115.244 76.6012 117.51C77.456 119.724 78.8639 121.637 80.7242 123.299C82.5846 124.96 85.0986 126.168 88.1154 127.074C88.6183 127.225 89.1211 127.326 89.6239 127.477V110.211V110.11Z" stroke="#00252E" stroke-width="3.3071" stroke-linecap="round" stroke-linejoin="round"/>
<path d="M99.0765 52.4725C98.6743 52.4725 98.2721 52.4725 97.8698 52.4725V63.698C98.2721 63.698 98.6743 63.698 99.0765 63.698H160.117V52.4725H99.0765ZM99.0765 117.107H160.117V128.332H99.0765C98.6743 128.332 98.2721 128.332 97.8698 128.332V117.107C98.2721 117.107 98.6743 117.107 99.0765 117.107ZM89.6239 110.11V53.429C89.1211 53.5296 88.6183 53.6807 88.1154 53.8317C85.0986 54.7378 82.6349 55.9962 80.7242 57.607C78.8136 59.2179 77.456 61.1307 76.6012 63.3959C75.7464 65.6108 75.2939 68.0774 75.2939 70.846V110.06C75.2939 112.778 75.7464 115.244 76.6012 117.51C77.456 119.724 78.8639 121.637 80.7242 123.299C82.5846 124.96 85.0986 126.168 88.1154 127.074C88.6183 127.225 89.1211 127.326 89.6239 127.477V110.211V110.11Z" stroke="#00313C" stroke-width="2.62522" stroke-linecap="round" stroke-linejoin="round"/>
<path d="M99.0765 52.4725C98.6743 52.4725 98.2721 52.4725 97.8698 52.4725V63.698C98.2721 63.698 98.6743 63.698 99.0765 63.698H160.117V52.4725H99.0765ZM99.0765 117.107H160.117V128.332H99.0765C98.6743 128.332 98.2721 128.332 97.8698 128.332V117.107C98.2721 117.107 98.6743 117.107 99.0765 117.107ZM89.6239 110.11V53.429C89.1211 53.5296 88.6183 53.6807 88.1154 53.8317C85.0986 54.7378 82.6349 55.9962 80.7242 57.607C78.8136 59.2179 77.456 61.1307 76.6012 63.3959C75.7464 65.6108 75.2939 68.0774 75.2939 70.846V110.06C75.2939 112.778 75.7464 115.244 76.6012 117.51C77.456 119.724 78.8639 121.637 80.7242 123.299C82.5846 124.96 85.0986 126.168 88.1154 127.074C88.6183 127.225 89.1211 127.326 89.6239 127.477V110.211V110.11Z" stroke="#003D4A" stroke-width="1.93198" stroke-linecap="round" stroke-linejoin="round"/>
<path d="M99.0765 52.4725C98.6743 52.4725 98.2721 52.4725 97.8698 52.4725V63.698C98.2721 63.698 98.6743 63.698 99.0765 63.698H160.117V52.4725H99.0765ZM99.0765 117.107H160.117V128.332H99.0765C98.6743 128.332 98.2721 128.332 97.8698 128.332V117.107C98.2721 117.107 98.6743 117.107 99.0765 117.107ZM89.6239 110.11V53.429C89.1211 53.5296 88.6183 53.6807 88.1154 53.8317C85.0986 54.7378 82.6349 55.9962 80.7242 57.607C78.8136 59.2179 77.456 61.1307 76.6012 63.3959C75.7464 65.6108 75.2939 68.0774 75.2939 70.846V110.06C75.2939 112.778 75.7464 115.244 76.6012 117.51C77.456 119.724 78.8639 121.637 80.7242 123.299C82.5846 124.96 85.0986 126.168 88.1154 127.074C88.6183 127.225 89.1211 127.326 89.6239 127.477V110.211V110.11Z" stroke="#004858" stroke-width="1.25011" stroke-linecap="round" stroke-linejoin="round"/>
<path d="M99.0765 52.4725C98.6743 52.4725 98.2721 52.4725 97.8698 52.4725V63.698C98.2721 63.698 98.6743 63.698 99.0765 63.698H160.117V52.4725H99.0765ZM99.0765 117.107H160.117V128.332H99.0765C98.6743 128.332 98.2721 128.332 97.8698 128.332V117.107C98.2721 117.107 98.6743 117.107 99.0765 117.107ZM89.6239 110.11V53.429C89.1211 53.5296 88.6183 53.6807 88.1154 53.8317C85.0986 54.7378 82.6349 55.9962 80.7242 57.607C78.8136 59.2179 77.456 61.1307 76.6012 63.3959C75.7464 65.6108 75.2939 68.0774 75.2939 70.846V110.06C75.2939 112.778 75.7464 115.244 76.6012 117.51C77.456 119.724 78.8639 121.637 80.7242 123.299C82.5846 124.96 85.0986 126.168 88.1154 127.074C88.6183 127.225 89.1211 127.326 89.6239 127.477V110.211V110.11Z" stroke="#005466" stroke-width="0.556866" stroke-linecap="round" stroke-linejoin="round"/>
<path d="M99.0765 52.4725C98.6743 52.4725 98.2721 52.4725 97.8698 52.4725V63.698C98.2721 63.698 98.6743 63.698 99.0765 63.698H160.117V52.4725H99.0765ZM99.0765 117.107H160.117V128.332H99.0765C98.6743 128.332 98.2721 128.332 97.8698 128.332V117.107C98.2721 117.107 98.6743 117.107 99.0765 117.107ZM89.6239 110.11V53.429C89.1211 53.5296 88.6183 53.6807 88.1154 53.8317C85.0986 54.7378 82.6349 55.9962 80.7242 57.607C78.8136 59.2179 77.456 61.1307 76.6012 63.3959C75.7464 65.6108 75.2939 68.0774 75.2939 70.846V110.06C75.2939 112.778 75.7464 115.244 76.6012 117.51C77.456 119.724 78.8639 121.637 80.7242 123.299C82.5846 124.96 85.0986 126.168 88.1154 127.074C88.6183 127.225 89.1211 127.326 89.6239 127.477V110.211V110.11Z" stroke="#007180" stroke-width="0.488678" stroke-linecap="round" stroke-linejoin="round"/>
<path d="M99.0765 52.4725C98.6743 52.4725 98.2721 52.4725 97.8698 52.4725V63.698C98.2721 63.698 98.6743 63.698 99.0765 63.698H160.117V52.4725H99.0765ZM99.0765 117.107H160.117V128.332H99.0765C98.6743 128.332 98.2721 128.332 97.8698 128.332V117.107C98.2721 117.107 98.6743 117.107 99.0765 117.107ZM89.6239 110.11V53.429C89.1211 53.5296 88.6183 53.6807 88.1154 53.8317C85.0986 54.7378 82.6349 55.9962 80.7242 57.607C78.8136 59.2179 77.456 61.1307 76.6012 63.3959C75.7464 65.6108 75.2939 68.0774 75.2939 70.846V110.06C75.2939 112.778 75.7464 115.244 76.6012 117.51C77.456 119.724 78.8639 121.637 80.7242 123.299C82.5846 124.96 85.0986 126.168 88.1154 127.074C88.6183 127.225 89.1211 127.326 89.6239 127.477V110.211V110.11Z" stroke="#008D99" stroke-width="0.409126" stroke-linecap="round" stroke-linejoin="round"/>
<path d="M99.0765 52.4725C98.6743 52.4725 98.2721 52.4725 97.8698 52.4725V63.698C98.2721 63.698 98.6743 63.698 99.0765 63.698H160.117V52.4725H99.0765ZM99.0765 117.107H160.117V128.332H99.0765C98.6743 128.332 98.2721 128.332 97.8698 128.332V117.107C98.2721 117.107 98.6743 117.107 99.0765 117.107ZM89.6239 110.11V53.429C89.1211 53.5296 88.6183 53.6807 88.1154 53.8317C85.0986 54.7378 82.6349 55.9962 80.7242 57.607C78.8136 59.2179 77.456 61.1307 76.6012 63.3959C75.7464 65.6108 75.2939 68.0774 75.2939 70.846V110.06C75.2939 112.778 75.7464 115.244 76.6012 117.51C77.456 119.724 78.8639 121.637 80.7242 123.299C82.5846 124.96 85.0986 126.168 88.1154 127.074C88.6183 127.225 89.1211 127.326 89.6239 127.477V110.211V110.11Z" stroke="#00AAB3" stroke-width="0.329574" stroke-linecap="round" stroke-linejoin="round"/>
<path d="M99.0765 52.4725C98.6743 52.4725 98.2721 52.4725 97.8698 52.4725V63.698C98.2721 63.698 98.6743 63.698 99.0765 63.698H160.117V52.4725H99.0765ZM99.0765 117.107H160.117V128.332H99.0765C98.6743 128.332 98.2721 128.332 97.8698 128.332V117.107C98.2721 117.107 98.6743 117.107 99.0765 117.107ZM89.6239 110.11V53.429C89.1211 53.5296 88.6183 53.6807 88.1154 53.8317C85.0986 54.7378 82.6349 55.9962 80.7242 57.607C78.8136 59.2179 77.456 61.1307 76.6012 63.3959C75.7464 65.6108 75.2939 68.0774 75.2939 70.846V110.06C75.2939 112.778 75.7464 115.244 76.6012 117.51C77.456 119.724 78.8639 121.637 80.7242 123.299C82.5846 124.96 85.0986 126.168 88.1154 127.074C88.6183 127.225 89.1211 127.326 89.6239 127.477V110.211V110.11Z" stroke="#00C6CC" stroke-width="0.250021" stroke-linecap="round" stroke-linejoin="round"/>
<path d="M99.0765 52.4725C98.6743 52.4725 98.2721 52.4725 97.8698 52.4725V63.698C98.2721 63.698 98.6743 63.698 99.0765 63.698H160.117V52.4725H99.0765ZM99.0765 117.107H160.117V128.332H99.0765C98.6743 128.332 98.2721 128.332 97.8698 128.332V117.107C98.2721 117.107 98.6743 117.107 99.0765 117.107ZM89.6239 110.11V53.429C89.1211 53.5296 88.6183 53.6807 88.1154 53.8317C85.0986 54.7378 82.6349 55.9962 80.7242 57.607C78.8136 59.2179 77.456 61.1307 76.6012 63.3959C75.7464 65.6108 75.2939 68.0774 75.2939 70.846V110.06C75.2939 112.778 75.7464 115.244 76.6012 117.51C77.456 119.724 78.8639 121.637 80.7242 123.299C82.5846 124.96 85.0986 126.168 88.1154 127.074C88.6183 127.225 89.1211 127.326 89.6239 127.477V110.211V110.11Z" stroke="#00E2E5" stroke-width="0.170469" stroke-linecap="round" stroke-linejoin="round"/>
<path d="M99.0765 52.4725C98.6743 52.4725 98.2721 52.4725 97.8698 52.4725V63.698C98.2721 63.698 98.6743 63.698 99.0765 63.698H160.117V52.4725H99.0765ZM99.0765 117.107H160.117V128.332H99.0765C98.6743 128.332 98.2721 128.332 97.8698 128.332V117.107C98.2721 117.107 98.6743 117.107 99.0765 117.107ZM89.6239 110.11V53.429C89.1211 53.5296 88.6183 53.6807 88.1154 53.8317C85.0986 54.7378 82.6349 55.9962 80.7242 57.607C78.8136 59.2179 77.456 61.1307 76.6012 63.3959C75.7464 65.6108 75.2939 68.0774 75.2939 70.846V110.06C75.2939 112.778 75.7464 115.244 76.6012 117.51C77.456 119.724 78.8639 121.637 80.7242 123.299C82.5846 124.96 85.0986 126.168 88.1154 127.074C88.6183 127.225 89.1211 127.326 89.6239 127.477V110.211V110.11Z" stroke="#00FFFF" stroke-width="0.0909169" stroke-linecap="round" stroke-linejoin="round"/>
</g>
<path d="M99.0765 52.4725C98.6743 52.4725 98.2721 52.4725 97.8698 52.4725V63.698C98.2721 63.698 98.6743 63.698 99.0765 63.698H160.117V52.4725H99.0765ZM99.0765 117.107H160.117V128.332H99.0765C98.6743 128.332 98.2721 128.332 97.8698 128.332V117.107C98.2721 117.107 98.6743 117.107 99.0765 117.107ZM89.6239 110.11V53.429C89.1211 53.5296 88.6183 53.6807 88.1154 53.8317C85.0986 54.7378 82.6349 55.9962 80.7242 57.607C78.8136 59.2179 77.456 61.1307 76.6012 63.3959C75.7464 65.6108 75.2939 68.0774 75.2939 70.846V110.06C75.2939 112.778 75.7464 115.244 76.6012 117.51C77.456 119.724 78.8639 121.637 80.7242 123.299C82.5846 124.96 85.0986 126.168 88.1154 127.074C88.6183 127.225 89.1211 127.326 89.6239 127.477V110.211V110.11Z" stroke="white" stroke-width="0.0909169" stroke-linecap="round" stroke-linejoin="round"/>
<g style="mix-blend-mode:overlay">
<path d="M86.9578 55.9459H82.332V58.1608H86.9578V55.9459Z" fill="#00D5FF"/>
</g>
<g style="mix-blend-mode:overlay">
<path d="M98.6738 65.3087H67.5V66.0638H98.6738V65.3087Z" fill="#00D5FF"/>
</g>
<g style="mix-blend-mode:overlay">
<path d="M103.199 60.3755H87.5615V60.8789H103.199V60.3755Z" fill="#00D5FF"/>
</g>
<g style="mix-blend-mode:overlay">
<path d="M90.3776 63.0436H63.5781V63.2449H90.3776V63.0436Z" fill="#00D5FF"/>
</g>
<g style="mix-blend-mode:overlay">
<path d="M94.8025 68.5808H93.5957V69.2855H94.8025V68.5808Z" fill="#00D5FF"/>
</g>
<g style="mix-blend-mode:overlay">
<path d="M78.1593 68.1277H75.042V69.7888H78.1593V68.1277Z" fill="#00D5FF"/>
</g>
<g style="mix-blend-mode:overlay">
<path d="M90.0754 59.7213H85.1982V61.4832H90.0754V59.7213Z" fill="#00D5FF"/>
</g>
<g style="mix-blend-mode:overlay">
<path d="M81.1257 59.7213H72.0752V60.3757H81.1257V59.7213Z" fill="#00D5FF"/>
</g>
<g style="mix-blend-mode:overlay">
<path d="M84.8467 79.9067H81.126V81.6686H84.8467V79.9067Z" fill="#00D5FF"/>
</g>
<g style="mix-blend-mode:overlay">
<path d="M94.1485 87.4072H69.2598V88.0113H94.1485V87.4072Z" fill="#00D5FF"/>
</g>
<g style="mix-blend-mode:overlay">
<path d="M97.7683 83.481H85.2988V83.8837H97.7683V83.481Z" fill="#00D5FF"/>
</g>
<g style="mix-blend-mode:overlay">
<path d="M87.4609 85.5952H66.0918V85.7462H87.4609V85.5952Z" fill="#00D5FF"/>
</g>
<g style="mix-blend-mode:overlay">
<path d="M91.0315 90.0248H90.0762V90.5785H91.0315V90.0248Z" fill="#00D5FF"/>
</g>
<g style="mix-blend-mode:overlay">
<path d="M77.7572 89.6222H75.2432V90.931H77.7572V89.6222Z" fill="#00D5FF"/>
</g>
<g style="mix-blend-mode:overlay">
<path d="M87.3105 82.9271H83.3887V84.3366H87.3105V82.9271Z" fill="#00D5FF"/>
</g>
<g style="mix-blend-mode:overlay">
<path d="M80.1202 82.9271H72.8799V83.4808H80.1202V82.9271Z" fill="#00D5FF"/>
</g>
<g style="mix-blend-mode:overlay">
<path d="M88.6174 98.0791H84.042V100.244H88.6174V98.0791Z" fill="#00D5FF"/>
</g>
<g style="mix-blend-mode:overlay">
<path d="M100.131 107.341H69.4102V108.096H100.131V107.341Z" fill="#00D5FF"/>
</g>
<g style="mix-blend-mode:overlay">
<path d="M104.557 102.509H89.1709V103.012H104.557V102.509Z" fill="#00D5FF"/>
</g>
<g style="mix-blend-mode:overlay">
<path d="M91.9362 105.126H65.5391V105.328H91.9362V105.126Z" fill="#00D5FF"/>
</g>
<g style="mix-blend-mode:overlay">
<path d="M96.2599 110.563H95.1035V111.217H96.2599V110.563Z" fill="#00D5FF"/>
</g>
<g style="mix-blend-mode:overlay">
<path d="M79.8689 110.11H76.8018V111.721H79.8689V110.11Z" fill="#00D5FF"/>
</g>
<g style="mix-blend-mode:overlay">
<path d="M91.6346 101.804H86.8076V103.515H91.6346V101.804Z" fill="#00D5FF"/>
</g>
<g style="mix-blend-mode:overlay">
<path d="M82.7854 101.804H73.8857V102.458H82.7854V101.804Z" fill="#00D5FF"/>
</g>
<g style="mix-blend-mode:overlay">
<path d="M89.2209 118.114H85.7012V119.775H89.2209V118.114Z" fill="#00D5FF"/>
</g>
<g style="mix-blend-mode:overlay">
<path d="M98.0698 125.211H74.4883V125.815H98.0698V125.211Z" fill="#00D5FF"/>
</g>
<g style="mix-blend-mode:overlay">
<path d="M101.49 121.486H89.6738V121.889H101.49V121.486Z" fill="#00D5FF"/>
</g>
<g style="mix-blend-mode:overlay">
<path d="M91.7854 123.5H71.5225V123.651H91.7854V123.5Z" fill="#00D5FF"/>
</g>
<g style="mix-blend-mode:overlay">
<path d="M95.1033 127.678H94.1982V128.181H95.1033V127.678Z" fill="#00D5FF"/>
</g>
<g style="mix-blend-mode:overlay">
<path d="M82.5341 127.325H80.1709V128.584H82.5341V127.325Z" fill="#00D5FF"/>
</g>
<g style="mix-blend-mode:overlay">
<path d="M91.5841 120.983H87.8633V122.292H91.5841V120.983Z" fill="#00D5FF"/>
</g>
<g style="mix-blend-mode:overlay">
<path d="M84.7463 120.983H77.9082V121.486H84.7463V120.983Z" fill="#00D5FF"/>
</g>
<g style="mix-blend-mode:overlay">
<path d="M122.808 121.083H119.238V122.795H122.808V121.083Z" fill="#00D5FF"/>
</g>
<g style="mix-blend-mode:overlay">
<path d="M131.858 128.383H107.724V128.987H131.858V128.383Z" fill="#00D5FF"/>
</g>
<g style="mix-blend-mode:overlay">
<path d="M135.328 124.557H123.261V124.96H135.328V124.557Z" fill="#00D5FF"/>
</g>
<g style="mix-blend-mode:overlay">
<path d="M125.423 126.621H104.707V126.772H125.423V126.621Z" fill="#00D5FF"/>
</g>
<g style="mix-blend-mode:overlay">
<path d="M128.842 130.9H127.937V131.403H128.842V130.9Z" fill="#00D5FF"/>
</g>
<g style="mix-blend-mode:overlay">
<path d="M115.97 130.497H113.557V131.755H115.97V130.497Z" fill="#00D5FF"/>
</g>
<g style="mix-blend-mode:overlay">
<path d="M125.171 124.053H121.4V125.413H125.171V124.053Z" fill="#00D5FF"/>
</g>
<g style="mix-blend-mode:overlay">
<path d="M118.233 124.053H111.244V124.557H118.233V124.053Z" fill="#00D5FF"/>
</g>
<g style="mix-blend-mode:overlay">
<path d="M154.334 118.013H150.915V119.624H154.334V118.013Z" fill="#00D5FF"/>
</g>
<g style="mix-blend-mode:overlay">
<path d="M162.983 124.96H139.954V125.513H162.983V124.96Z" fill="#00D5FF"/>
</g>
<g style="mix-blend-mode:overlay">
<path d="M166.351 121.335H154.786V121.738H166.351V121.335Z" fill="#00D5FF"/>
</g>
<g style="mix-blend-mode:overlay">
<path d="M156.848 123.298H137.037V123.449H156.848V123.298Z" fill="#00D5FF"/>
</g>
<g style="mix-blend-mode:overlay">
<path d="M160.066 127.376H159.211V127.879H160.066V127.376Z" fill="#00D5FF"/>
</g>
<g style="mix-blend-mode:overlay">
<path d="M147.797 127.024H145.484V128.232H147.797V127.024Z" fill="#00D5FF"/>
</g>
<g style="mix-blend-mode:overlay">
<path d="M156.647 120.832H153.026V122.141H156.647V120.832Z" fill="#00D5FF"/>
</g>
<g style="mix-blend-mode:overlay">
<path d="M150.01 120.832H143.322V121.335H150.01V120.832Z" fill="#00D5FF"/>
</g>
<g style="mix-blend-mode:overlay">
<path d="M159.312 51.5161H155.34V53.429H159.312V51.5161Z" fill="#00D5FF"/>
</g>
<g style="mix-blend-mode:overlay">
<path d="M169.418 59.5701H142.568V60.2245H169.418V59.5701Z" fill="#00D5FF"/>
</g>
<g style="mix-blend-mode:overlay">
<path d="M173.29 55.3417H159.865V55.7947H173.29V55.3417Z" fill="#00D5FF"/>
</g>
<g style="mix-blend-mode:overlay">
<path d="M162.228 57.6573H139.199V57.8084H162.228V57.6573Z" fill="#00D5FF"/>
</g>
<g style="mix-blend-mode:overlay">
<path d="M166.05 62.389H165.044V62.9931H166.05V62.389Z" fill="#00D5FF"/>
</g>
<g style="mix-blend-mode:overlay">
<path d="M151.72 61.9865H149.055V63.3959H151.72V61.9865Z" fill="#00D5FF"/>
</g>
<g style="mix-blend-mode:overlay">
<path d="M162.027 54.7881H157.804V56.2982H162.027V54.7881Z" fill="#00D5FF"/>
</g>
<g style="mix-blend-mode:overlay">
<path d="M154.284 54.7881H146.49V55.3921H154.284V54.7881Z" fill="#00D5FF"/>
</g>
<g style="mix-blend-mode:overlay">
<path d="M120.194 52.3717H116.222V54.2342H120.194V52.3717Z" fill="#00D5FF"/>
</g>
<g style="mix-blend-mode:overlay">
<path d="M130.15 60.3755H103.602V61.0299H130.15V60.3755Z" fill="#00D5FF"/>
</g>
<g style="mix-blend-mode:overlay">
<path d="M134.021 56.1976H120.696V56.6507H134.021V56.1976Z" fill="#00D5FF"/>
</g>
<g style="mix-blend-mode:overlay">
<path d="M123.06 58.4628H100.232V58.6138H123.06V58.4628Z" fill="#00D5FF"/>
</g>
<g style="mix-blend-mode:overlay">
<path d="M126.831 63.1945H125.825V63.7482H126.831V63.1945Z" fill="#00D5FF"/>
</g>
<g style="mix-blend-mode:overlay">
<path d="M112.651 62.7919H109.986V64.2013H112.651V62.7919Z" fill="#00D5FF"/>
</g>
<g style="mix-blend-mode:overlay">
<path d="M122.808 55.5936H118.635V57.1038H122.808V55.5936Z" fill="#00D5FF"/>
</g>
<g style="mix-blend-mode:overlay">
<path d="M115.166 55.5936H107.473V56.1473H115.166V55.5936Z" fill="#00D5FF"/>
</g>
<g style="mix-blend-mode:overlay">
<path d="M78.3099 120.127H83.2373V117.812H78.3099V120.127Z" fill="#00D5FF"/>
</g>
<g style="mix-blend-mode:overlay">
<path d="M65.941 110.11H99.0254V109.304H65.941V110.11Z" fill="#00D5FF"/>
</g>
<g style="mix-blend-mode:overlay">
<path d="M61.1145 115.345H77.707V114.791H61.1145V115.345Z" fill="#00D5FF"/>
</g>
<g style="mix-blend-mode:overlay">
<path d="M74.7909 112.526H103.199V112.325H74.7909V112.526Z" fill="#00D5FF"/>
</g>
<g style="mix-blend-mode:overlay">
<path d="M70.0643 106.687H71.3213V105.982H70.0643V106.687Z" fill="#00D5FF"/>
</g>
<g style="mix-blend-mode:overlay">
<path d="M87.7127 107.19H91.0312V105.428H87.7127V107.19Z" fill="#00D5FF"/>
</g>
<g style="mix-blend-mode:overlay">
<path d="M75.0418 116.1H80.2207V114.238H75.0418V116.1Z" fill="#00D5FF"/>
</g>
<g style="mix-blend-mode:overlay">
<path d="M84.545 116.05H94.1484V115.345H84.545V116.05Z" fill="#00D5FF"/>
</g>
<g style="mix-blend-mode:overlay">
<path d="M80.3712 99.8911H84.7959V97.7769H80.3712V99.8911Z" fill="#00D5FF"/>
</g>
<g style="mix-blend-mode:overlay">
<path d="M69.1589 90.9309H98.9248V90.1758H69.1589V90.9309Z" fill="#00D5FF"/>
</g>
<g style="mix-blend-mode:overlay">
<path d="M64.8851 95.6124H79.8184V95.1091H64.8851V95.6124Z" fill="#00D5FF"/>
</g>
<g style="mix-blend-mode:overlay">
<path d="M77.1539 93.1459H102.696V92.9445H77.1539V93.1459Z" fill="#00D5FF"/>
</g>
<g style="mix-blend-mode:overlay">
<path d="M72.93 87.8098H74.0361V87.1554H72.93V87.8098Z" fill="#00D5FF"/>
</g>
<g style="mix-blend-mode:overlay">
<path d="M88.8186 88.2629H91.7852V86.7025H88.8186V88.2629Z" fill="#00D5FF"/>
</g>
<g style="mix-blend-mode:overlay">
<path d="M77.4049 96.2667H82.0811V94.6056H77.4049V96.2667Z" fill="#00D5FF"/>
</g>
<g style="mix-blend-mode:overlay">
<path d="M85.9524 96.3173H94.6006V95.6629H85.9524V96.3173Z" fill="#00D5FF"/>
</g>
<g style="mix-blend-mode:overlay">
<path d="M80.4719 81.9203H85.2988V79.6047H80.4719V81.9203Z" fill="#00D5FF"/>
</g>
<g style="mix-blend-mode:overlay">
<path d="M68.2543 72.1045H100.836V71.2991H68.2543V72.1045Z" fill="#00D5FF"/>
</g>
<g style="mix-blend-mode:overlay">
<path d="M63.528 77.1886H79.8691V76.6349H63.528V77.1886Z" fill="#00D5FF"/>
</g>
<g style="mix-blend-mode:overlay">
<path d="M76.9021 74.4703H104.908V74.269H76.9021V74.4703Z" fill="#00D5FF"/>
</g>
<g style="mix-blend-mode:overlay">
<path d="M72.2762 68.631H73.5332V67.9262H72.2762V68.631Z" fill="#00D5FF"/>
</g>
<g style="mix-blend-mode:overlay">
<path d="M89.724 69.1345H92.9922V67.423H89.724V69.1345Z" fill="#00D5FF"/>
</g>
<g style="mix-blend-mode:overlay">
<path d="M77.2035 77.9438H82.332V76.1317H77.2035V77.9438Z" fill="#00D5FF"/>
</g>
<g style="mix-blend-mode:overlay">
<path d="M86.6059 77.9438H96.0586V77.2391H86.6059V77.9438Z" fill="#00D5FF"/>
</g>
<g style="mix-blend-mode:overlay">
<path d="M134.372 63.4462H139.099V61.2313H134.372V63.4462Z" fill="#00D5FF"/>
</g>
<g style="mix-blend-mode:overlay">
<path d="M122.507 53.9321L154.133 53.9321V53.1267L122.507 53.1267V53.9321Z" fill="#00D5FF"/>
</g>
<g style="mix-blend-mode:overlay">
<path d="M117.931 58.9159H133.77V58.4125H117.931V58.9159Z" fill="#00D5FF"/>
</g>
<g style="mix-blend-mode:overlay">
<path d="M130.954 56.1976H158.155V55.9963H130.954V56.1976Z" fill="#00D5FF"/>
</g>
<g style="mix-blend-mode:overlay">
<path d="M126.428 50.5597H127.635V49.855H126.428V50.5597Z" fill="#00D5FF"/>
</g>
<g style="mix-blend-mode:overlay">
<path d="M143.372 51.063H146.54V49.4018H143.372V51.063Z" fill="#00D5FF"/>
</g>
<g style="mix-blend-mode:overlay">
<path d="M131.205 59.6206H136.183V57.8588H131.205V59.6206Z" fill="#00D5FF"/>
</g>
<g style="mix-blend-mode:overlay">
<path d="M140.356 59.5701H149.507V58.8653H140.356V59.5701Z" fill="#00D5FF"/>
</g>
<g style="mix-blend-mode:overlay">
<path d="M103.601 127.175H108.528V124.809H103.601V127.175Z" fill="#00D5FF"/>
</g>
<g style="mix-blend-mode:overlay">
<path d="M91.0811 117.208H124.316V116.402H91.0811V117.208Z" fill="#00D5FF"/>
</g>
<g style="mix-blend-mode:overlay">
<path d="M86.3044 122.392H102.947V121.839H86.3044V122.392Z" fill="#00D5FF"/>
</g>
<g style="mix-blend-mode:overlay">
<path d="M99.931 119.624H128.49V119.422H99.931V119.624Z" fill="#00D5FF"/>
</g>
<g style="mix-blend-mode:overlay">
<path d="M95.2547 113.684H96.5117V112.979H95.2547V113.684Z" fill="#00D5FF"/>
</g>
<g style="mix-blend-mode:overlay">
<path d="M112.953 114.187H116.271V112.426H112.953V114.187Z" fill="#00D5FF"/>
</g>
<g style="mix-blend-mode:overlay">
<path d="M100.233 123.147H105.462V121.285H100.233V123.147Z" fill="#00D5FF"/>
</g>
<g style="mix-blend-mode:overlay">
<path d="M109.786 123.147H119.439V122.443H109.786V123.147Z" fill="#00D5FF"/>
</g>
<g style="mix-blend-mode:overlay">
<path d="M132.663 129.44H137.439V127.174H132.663V129.44Z" fill="#00D5FF"/>
</g>
<g style="mix-blend-mode:overlay">
<path d="M120.596 119.724H152.775V118.919H120.596V119.724Z" fill="#00D5FF"/>
</g>
<g style="mix-blend-mode:overlay">
<path d="M115.87 124.809H132.01V124.255H115.87V124.809Z" fill="#00D5FF"/>
</g>
<g style="mix-blend-mode:overlay">
<path d="M129.144 122.09H156.798V121.889H129.144V122.09Z" fill="#00D5FF"/>
</g>
<g style="mix-blend-mode:overlay">
<path d="M124.618 116.402H125.825V115.697H124.618V116.402Z" fill="#00D5FF"/>
</g>
<g style="mix-blend-mode:overlay">
<path d="M141.814 116.855H145.032V115.144H141.814V116.855Z" fill="#00D5FF"/>
</g>
<g style="mix-blend-mode:overlay">
<path d="M129.495 125.513H134.523V123.701H129.495V125.513Z" fill="#00D5FF"/>
</g>
<g style="mix-blend-mode:overlay">
<path d="M138.697 125.564H148.049V124.859H138.697V125.564Z" fill="#00D5FF"/>
</g>
<defs>
<radialGradient id="paint0_radial_873_83316" cx="0" cy="0" r="1" gradientUnits="userSpaceOnUse" gradientTransform="translate(87.8638 87.7095) scale(87.4878 87.5886)">
<stop stop-color="#80003F"/>
<stop offset="0.22" stop-color="#56002A"/>
<stop offset="0.45" stop-color="#310018"/>
<stop offset="0.66" stop-color="#16000A"/>
<stop offset="0.85" stop-color="#050002"/>
<stop offset="1"/>
</radialGradient>
</defs>
</svg>
