<svg width="528" height="64" viewBox="0 0 528 64" fill="none" xmlns="http://www.w3.org/2000/svg">
<g style="mix-blend-mode:overlay">
<path d="M415.375 38.7317L437.619 38.7317L437.619 30.4013L415.375 30.4013L415.375 38.7317Z" fill="#00D5FF"/>
</g>
<g style="mix-blend-mode:overlay">
<path d="M359.037 3.51805L508.945 3.51807L508.945 0.678142L359.037 0.678129L359.037 3.51805Z" fill="#00D5FF"/>
</g>
<g style="mix-blend-mode:overlay">
<path d="M337.277 22.071L412.473 22.071L412.473 20.1778L337.277 20.1778L337.277 22.071Z" fill="#00D5FF"/>
</g>
<g style="mix-blend-mode:overlay">
<path d="M398.932 12.0369L527.805 12.0369L527.805 11.2796L398.932 11.2795L398.932 12.0369Z" fill="#00D5FF"/>
</g>
<g style="mix-blend-mode:overlay">
<path d="M400.382 24.532L423.835 24.532L423.835 17.9055L400.382 17.9055L400.382 24.532Z" fill="#00D5FF"/>
</g>
<g style="mix-blend-mode:overlay">
<path d="M443.422 24.532L486.943 24.532L486.943 22.0707L443.422 22.0707L443.422 24.532Z" fill="#00D5FF"/>
</g>
<g style="mix-blend-mode:overlay">
<path d="M67.441 55.3931L86.542 55.3931L86.542 48.1986L67.441 48.1986L67.441 55.3931Z" fill="#00D5FF"/>
</g>
<g style="mix-blend-mode:overlay">
<path d="M18.8437 25.1013L147.958 25.1013L147.958 22.6401L18.8437 22.64L18.8437 25.1013Z" fill="#00D5FF"/>
</g>
<g style="mix-blend-mode:overlay">
<path d="M0.224716 41.0049L64.7822 41.0049L64.7822 39.3009L0.224716 39.3009L0.224716 41.0049Z" fill="#00D5FF"/>
</g>
<g style="mix-blend-mode:overlay">
<path d="M53.4196 32.2952L164.158 32.2952L164.158 31.7272L53.4196 31.7272L53.4196 32.2952Z" fill="#00D5FF"/>
</g>
<g style="mix-blend-mode:overlay">
<path d="M35.0413 14.4988L39.877 14.4988L39.877 12.2269L35.0413 12.2269L35.0413 14.4988Z" fill="#00D5FF"/>
</g>
<g style="mix-blend-mode:overlay">
<path d="M103.951 16.0132L116.766 16.0132L116.766 10.712L103.951 10.712L103.951 16.0132Z" fill="#00D5FF"/>
</g>
<g style="mix-blend-mode:overlay">
<path d="M54.3843 43.0864L74.6943 43.0864L74.6943 37.4066L54.3843 37.4066L54.3843 43.0864Z" fill="#00D5FF"/>
</g>
<g style="mix-blend-mode:overlay">
<path d="M91.6219 43.0864L129.099 43.0864L129.099 40.8145L91.6219 40.8145L91.6219 43.0864Z" fill="#00D5FF"/>
</g>
<g style="mix-blend-mode:overlay">
<path d="M255.551 52.1743L274.652 52.1743L274.652 45.1692L255.551 45.1692L255.551 52.1743Z" fill="#00D5FF"/>
</g>
<g style="mix-blend-mode:overlay">
<path d="M207.678 22.071L335.342 22.071L335.342 19.6098L207.678 19.6098L207.678 22.071Z" fill="#00D5FF"/>
</g>
<g style="mix-blend-mode:overlay">
<path d="M189.061 37.7852L253.135 37.7852L253.135 36.0812L189.061 36.0812L189.061 37.7852Z" fill="#00D5FF"/>
</g>
<g style="mix-blend-mode:overlay">
<path d="M241.77 29.2663L351.542 29.2664L351.542 28.6984L241.77 28.6984L241.77 29.2663Z" fill="#00D5FF"/>
</g>
<g style="mix-blend-mode:overlay">
<path d="M291.82 12.9832L304.635 12.9832L304.635 7.68197L291.82 7.68197L291.82 12.9832Z" fill="#00D5FF"/>
</g>
<g style="mix-blend-mode:overlay">
<path d="M242.98 40.0574L263.049 40.0574L263.049 34.3775L242.98 34.3775L242.98 40.0574Z" fill="#00D5FF"/>
</g>
<g style="mix-blend-mode:overlay">
<path d="M279.73 40.0574L316.724 40.0574L316.724 37.9748L279.73 37.9748L279.73 40.0574Z" fill="#00D5FF"/>
</g>
<g style="mix-blend-mode:overlay">
<path d="M187.368 10.5222L164.64 10.5222L164.64 18.8526L187.368 18.8526L187.368 10.5222Z" fill="#00D5FF"/>
</g>
<g style="mix-blend-mode:overlay">
<path d="M244.431 46.3062L92.3467 46.3062L92.3467 49.3354L244.431 49.3354L244.431 46.3062Z" fill="#00D5FF"/>
</g>
<g style="mix-blend-mode:overlay">
<path d="M266.433 27.562L190.27 27.562L190.27 29.4553L266.433 29.4553L266.433 27.562Z" fill="#00D5FF"/>
</g>
<g style="mix-blend-mode:overlay">
<path d="M203.809 37.7852L73.002 37.7852L73.002 38.5425L203.809 38.5425L203.809 37.7852Z" fill="#00D5FF"/>
</g>
<g style="mix-blend-mode:overlay">
<path d="M225.57 58.99L219.767 58.99L219.767 61.6406L225.57 61.6406L225.57 58.99Z" fill="#00D5FF"/>
</g>
<g style="mix-blend-mode:overlay">
<path d="M144.088 57.0974L128.855 57.0974L128.855 63.3452L144.088 63.3452L144.088 57.0974Z" fill="#00D5FF"/>
</g>
<g style="mix-blend-mode:overlay">
<path d="M202.602 24.9116L178.665 24.9116L178.665 31.5381L202.602 31.5381L202.602 24.9116Z" fill="#00D5FF"/>
</g>
<g style="mix-blend-mode:overlay">
<path d="M158.595 25.1011L114.59 25.1011L114.59 27.7517L158.595 27.7517L158.595 25.1011Z" fill="#00D5FF"/>
</g>
</svg>
