<svg width="176" height="533" viewBox="0 0 176 533" fill="none" xmlns="http://www.w3.org/2000/svg">
<path d="M103.143 229.358L103.143 208.794L97.9957 208.794L97.9957 229.358L103.143 229.358Z" fill="#5A1E7D"/>
<path d="M90.2754 228.991L90.2754 209.529L85.8638 209.529L85.8638 228.991L90.2754 228.991Z" fill="#5A1E7D"/>
<path d="M77.4082 228.624L77.4082 209.896L74.0996 209.896L74.0996 228.624L77.4082 228.624Z" fill="#5A1E7D"/>
<path d="M64.54 227.889L64.54 210.263L62.3342 210.263L62.3342 227.889L64.54 227.889Z" fill="#5A1E7D"/>
<path d="M52.042 227.522L52.042 210.63L50.5714 210.63L50.5714 227.522L52.042 227.522Z" fill="#5A1E7D"/>
<path d="M116.01 229.725L116.01 208.427L110.128 208.427L110.128 229.725L116.01 229.725Z" fill="#5A1E7D"/>
<g style="mix-blend-mode:overlay">
<path d="M157.977 231.948L157.977 193.405L146.786 193.405L146.786 231.948L157.977 231.948Z" fill="#00D5FF" fill-opacity="0.6"/>
</g>
<g style="mix-blend-mode:overlay">
<path d="M110.094 328.942L110.094 70.1499L106.19 70.1499L106.19 328.942L110.094 328.942Z" fill="#00D5FF" fill-opacity="0.6"/>
</g>
<g style="mix-blend-mode:overlay">
<path d="M135.076 366.215L135.076 236.607L132.474 236.607L132.474 366.215L135.076 366.215Z" fill="#00D5FF" fill-opacity="0.6"/>
</g>
<g style="mix-blend-mode:overlay">
<path d="M93.4385 296.328L93.4385 286.587L90.0554 286.587L90.0554 296.328L93.4385 296.328Z" fill="#00D5FF" fill-opacity="0.6"/>
</g>
<g style="mix-blend-mode:overlay">
<path d="M95.7803 158.249L95.7803 132.413L87.4527 132.413L87.4527 158.249L95.7803 158.249Z" fill="#00D5FF" fill-opacity="0.6"/>
</g>
<g style="mix-blend-mode:overlay">
<path d="M138.72 257.362L138.72 216.7L129.872 216.7L129.872 257.362L138.72 257.362Z" fill="#00D5FF" fill-opacity="0.6"/>
</g>
<g style="mix-blend-mode:overlay">
<path d="M138.72 182.816L138.72 107.846L135.337 107.846L135.337 182.816L138.72 182.816Z" fill="#00D5FF" fill-opacity="0.6"/>
</g>
<g style="mix-blend-mode:overlay">
<path d="M54.4033 237.031L54.4033 207.381L45.8155 207.381L45.8155 237.031L54.4033 237.031Z" fill="#00D5FF" fill-opacity="0.6"/>
</g>
<g style="mix-blend-mode:overlay">
<path d="M17.7109 311.577L17.7109 112.929L14.5881 112.929L14.5881 311.577L17.7109 311.577Z" fill="#00D5FF" fill-opacity="0.6"/>
</g>
<g style="mix-blend-mode:overlay">
<path d="M26.5576 258.632L26.5576 87.939L25.7769 87.939L25.7769 258.632L26.5576 258.632Z" fill="#00D5FF" fill-opacity="0.6"/>
</g>
<g style="mix-blend-mode:overlay">
<path d="M4.95898 286.587L4.95898 278.963L2.35662 278.963L2.35662 286.587L4.95898 286.587Z" fill="#00D5FF" fill-opacity="0.6"/>
</g>
<g style="mix-blend-mode:overlay">
<path d="M6.78027 180.698L6.78027 160.791L0.274384 160.791L0.274383 180.698L6.78027 180.698Z" fill="#00D5FF" fill-opacity="0.6"/>
</g>
<g style="mix-blend-mode:overlay">
<path d="M39.5703 199.335L39.5703 141.731L36.9679 141.731L36.9679 199.335L39.5703 199.335Z" fill="#00D5FF" fill-opacity="0.6"/>
</g>
<g style="mix-blend-mode:overlay">
<path d="M43.9941 145.119L43.9941 186.627L55.965 186.627L55.965 145.119L43.9941 145.119Z" fill="#00D5FF" fill-opacity="0.6"/>
</g>
<g style="mix-blend-mode:overlay">
<path d="M95.7803 40.9245L95.7803 319.623L99.944 319.623L99.9441 40.9245L95.7803 40.9245Z" fill="#00D5FF" fill-opacity="0.6"/>
</g>
<g style="mix-blend-mode:overlay">
<path d="M68.7168 0.263L68.7168 140.036L71.5794 140.036L71.5794 0.263001L68.7168 0.263Z" fill="#00D5FF" fill-opacity="0.6"/>
</g>
<g style="mix-blend-mode:overlay">
<path d="M83.29 115.471L83.29 354.779L84.331 354.779L84.331 115.471L83.29 115.471Z" fill="#00D5FF" fill-opacity="0.6"/>
</g>
<g style="mix-blend-mode:overlay">
<path d="M113.477 75.656L113.477 86.2449L117.12 86.2449L117.12 75.656L113.477 75.656Z" fill="#00D5FF" fill-opacity="0.6"/>
</g>
<g style="mix-blend-mode:overlay">
<path d="M110.874 224.323L110.874 252.278L119.982 252.278L119.982 224.323L110.874 224.323Z" fill="#00D5FF" fill-opacity="0.6"/>
</g>
<g style="mix-blend-mode:overlay">
<path d="M64.8125 117.588L64.8125 161.214L74.4412 161.214L74.4412 117.588L64.8125 117.588Z" fill="#00D5FF" fill-opacity="0.6"/>
</g>
<g style="mix-blend-mode:overlay">
<path d="M148.608 162.485L148.608 199.758L159.538 199.758L159.538 162.485L148.608 162.485Z" fill="#00D5FF" fill-opacity="0.6"/>
</g>
<g style="mix-blend-mode:overlay">
<path d="M170.729 32.0302L170.729 157.826L173.331 157.826L173.331 32.0302L170.729 32.0302Z" fill="#00D5FF" fill-opacity="0.6"/>
</g>
<g style="mix-blend-mode:overlay">
<path d="M167.346 137.495L167.346 176.886L175.933 176.886L175.933 137.495L167.346 137.495Z" fill="#00D5FF" fill-opacity="0.6"/>
</g>
<g style="mix-blend-mode:overlay">
<path d="M167.085 209.499L167.085 282.351L170.468 282.351L170.468 209.499L167.085 209.499Z" fill="#00D5FF" fill-opacity="0.6"/>
</g>
<g style="mix-blend-mode:overlay">
<path d="M59.0879 252.702L59.0879 532.672L63.2517 532.672L63.2517 252.702L59.0879 252.702Z" fill="#00D5FF" fill-opacity="0.6"/>
</g>
<g style="mix-blend-mode:overlay">
<path d="M32.2842 212.464L32.2842 352.661L35.1468 352.661L35.1468 212.464L32.2842 212.464Z" fill="#00D5FF" fill-opacity="0.6"/>
</g>
<g style="mix-blend-mode:overlay">
<path d="M77.3047 287.857L77.3047 298.446L80.948 298.446L80.948 287.857L77.3047 287.857Z" fill="#00D5FF" fill-opacity="0.6"/>
</g>
</svg>
