<svg width="347" height="40" viewBox="0 0 347 40" fill="none" xmlns="http://www.w3.org/2000/svg">
<g style="mix-blend-mode:overlay">
<path d="M87.678 38.1787H0V38.8375H87.678V38.1787Z" fill="#00D5FF"/>
</g>
<g style="mix-blend-mode:overlay">
<path d="M86.6908 27.3096H70.7344V33.0737H86.6908V27.3096Z" fill="#00D5FF"/>
</g>
<g style="mix-blend-mode:overlay">
<path d="M57.4107 27.3096H27.8008V29.4505H57.4107V27.3096Z" fill="#00D5FF"/>
</g>
<g style="mix-blend-mode:overlay">
<path d="M313.206 0.465332H300.211V6.7235H313.206V0.465332Z" fill="#00D5FF"/>
</g>
<g style="mix-blend-mode:overlay">
<path d="M346.27 26.8149H258.428V28.9559H346.27V26.8149Z" fill="#00D5FF"/>
</g>
<g style="mix-blend-mode:overlay">
<path d="M288.367 34.7202H279.648V39.3315H288.367V34.7202Z" fill="#00D5FF"/>
</g>
<g style="mix-blend-mode:overlay">
<path d="M322.089 11.1702H308.271V16.1108H322.089V11.1702Z" fill="#00D5FF"/>
</g>
<g style="mix-blend-mode:overlay">
<path d="M296.756 11.1699H271.259V13.1462H296.756V11.1699Z" fill="#00D5FF"/>
</g>
<g style="mix-blend-mode:overlay">
<path d="M185.226 3.26465H172.23V9.35813H185.226V3.26465Z" fill="#00D5FF"/>
</g>
<g style="mix-blend-mode:overlay">
<path d="M217.797 29.45H130.941V31.5909H217.797V29.45Z" fill="#00D5FF"/>
</g>
<g style="mix-blend-mode:overlay">
<path d="M193.78 13.8052H180.127V18.7458H193.78V13.8052Z" fill="#00D5FF"/>
</g>
<g style="mix-blend-mode:overlay">
<path d="M168.776 13.8052H143.607V15.6167H168.776V13.8052Z" fill="#00D5FF"/>
</g>
<g style="mix-blend-mode:overlay">
<path d="M231.615 39.4956H247.078V32.2493H231.615V39.4956Z" fill="#00D5FF"/>
</g>
<g style="mix-blend-mode:overlay">
<path d="M192.793 8.36987L296.263 8.36987V5.73486L192.793 5.73486V8.36987Z" fill="#00D5FF"/>
</g>
<g style="mix-blend-mode:overlay">
<path d="M221.251 26.98L237.536 26.98V21.2159H221.251V26.98Z" fill="#00D5FF"/>
</g>
<path d="M274.822 12.34L274.822 0L251.332 -1.02678e-06L251.332 12.34L274.822 12.34Z" fill="#5A1E7D"/>
<g style="mix-blend-mode:overlay">
<path d="M251.19 26.8149L281.129 26.8149V24.5093L251.19 24.5093V26.8149Z" fill="#00D5FF"/>
</g>
</svg>
