<svg width="305" height="44" viewBox="0 0 305 44" fill="none" xmlns="http://www.w3.org/2000/svg">
<g style="mix-blend-mode:overlay">
<path d="M239.281 29.7646L252.097 29.7646L252.097 25.2099L239.281 25.2099L239.281 29.7646Z" fill="#00D5FF"/>
</g>
<g style="mix-blend-mode:overlay">
<path d="M206.825 10.5112L293.189 10.5112L293.189 8.95849L206.825 8.95848L206.825 10.5112Z" fill="#00D5FF"/>
</g>
<g style="mix-blend-mode:overlay">
<path d="M194.289 20.6555L237.61 20.6555L237.61 19.6204L194.289 19.6204L194.289 20.6555Z" fill="#00D5FF"/>
</g>
<g style="mix-blend-mode:overlay">
<path d="M229.809 15.1689L304.055 15.1689L304.055 14.7549L229.809 14.7549L229.809 15.1689Z" fill="#00D5FF"/>
</g>
<g style="mix-blend-mode:overlay">
<path d="M230.645 22.001L244.157 22.001L244.157 18.3779L230.645 18.3779L230.645 22.001Z" fill="#00D5FF"/>
</g>
<g style="mix-blend-mode:overlay">
<path d="M255.44 22.0007L280.514 22.0007L280.514 20.655L255.44 20.655L255.44 22.0007Z" fill="#00D5FF"/>
</g>
<g style="mix-blend-mode:overlay">
<path d="M38.8325 38.8743L49.8369 38.8743L49.8369 34.9407L38.8325 34.9407L38.8325 38.8743Z" fill="#00D5FF"/>
</g>
<g style="mix-blend-mode:overlay">
<path d="M10.834 22.312L85.2188 22.312L85.2188 20.9663L10.834 20.9663L10.834 22.312Z" fill="#00D5FF"/>
</g>
<g style="mix-blend-mode:overlay">
<path d="M0.1082 31.0076L37.3008 31.0076L37.3008 30.0759L0.1082 30.0759L0.1082 31.0076Z" fill="#00D5FF"/>
</g>
<g style="mix-blend-mode:overlay">
<path d="M30.7535 26.2456L94.5518 26.2456L94.5518 25.9351L30.7535 25.9351L30.7535 26.2456Z" fill="#00D5FF"/>
</g>
<g style="mix-blend-mode:overlay">
<path d="M20.1662 16.5151L22.9521 16.5151L22.9521 15.2729L20.1662 15.2729L20.1662 16.5151Z" fill="#00D5FF"/>
</g>
<g style="mix-blend-mode:overlay">
<path d="M59.8663 17.3433L67.249 17.3433L67.249 14.4448L59.8663 14.4448L59.8663 17.3433Z" fill="#00D5FF"/>
</g>
<g style="mix-blend-mode:overlay">
<path d="M31.3098 32.1455L43.0107 32.1455L43.0107 29.04L31.3098 29.04L31.3098 32.1455Z" fill="#00D5FF"/>
</g>
<g style="mix-blend-mode:overlay">
<path d="M52.7626 32.1455L74.3535 32.1455L74.3535 30.9033L52.7626 30.9033L52.7626 32.1455Z" fill="#00D5FF"/>
</g>
<g style="mix-blend-mode:overlay">
<path d="M147.206 37.1145L158.21 37.1145L158.21 33.2844L147.206 33.2844L147.206 37.1145Z" fill="#00D5FF"/>
</g>
<g style="mix-blend-mode:overlay">
<path d="M119.625 20.6555L193.174 20.6555L193.174 19.3098L119.625 19.3098L119.625 20.6555Z" fill="#00D5FF"/>
</g>
<g style="mix-blend-mode:overlay">
<path d="M108.899 29.2471L145.812 29.2471L145.813 28.3154L108.899 28.3154L108.899 29.2471Z" fill="#00D5FF"/>
</g>
<g style="mix-blend-mode:overlay">
<path d="M139.266 24.5893L202.507 24.5894L202.507 24.2788L139.266 24.2788L139.266 24.5893Z" fill="#00D5FF"/>
</g>
<g style="mix-blend-mode:overlay">
<path d="M168.1 15.6865L175.482 15.6865L175.482 12.7881L168.1 12.7881L168.1 15.6865Z" fill="#00D5FF"/>
</g>
<g style="mix-blend-mode:overlay">
<path d="M139.963 30.4895L151.524 30.4895L151.524 27.384L139.963 27.384L139.963 30.4895Z" fill="#00D5FF"/>
</g>
<g style="mix-blend-mode:overlay">
<path d="M161.136 30.4895L182.448 30.4895L182.448 29.3508L161.136 29.3508L161.136 30.4895Z" fill="#00D5FF"/>
</g>
<g style="mix-blend-mode:overlay">
<path d="M107.924 14.3411L94.8301 14.3411L94.8301 18.8958L107.924 18.8958L107.924 14.3411Z" fill="#00D5FF"/>
</g>
<g style="mix-blend-mode:overlay">
<path d="M140.799 33.906L53.1807 33.906L53.1807 35.5623L140.799 35.5623L140.799 33.906Z" fill="#00D5FF"/>
</g>
<g style="mix-blend-mode:overlay">
<path d="M153.474 23.6577L109.596 23.6577L109.596 24.6929L153.474 24.6929L153.474 23.6577Z" fill="#00D5FF"/>
</g>
<g style="mix-blend-mode:overlay">
<path d="M117.396 29.2471L42.0361 29.2471L42.0361 29.6611L117.396 29.6611L117.396 29.2471Z" fill="#00D5FF"/>
</g>
<g style="mix-blend-mode:overlay">
<path d="M129.933 40.8411L126.59 40.8411L126.59 42.2903L129.933 42.2903L129.933 40.8411Z" fill="#00D5FF"/>
</g>
<g style="mix-blend-mode:overlay">
<path d="M82.9897 39.8062L74.2139 39.8062L74.2139 43.2222L82.9897 43.2222L82.9897 39.8062Z" fill="#00D5FF"/>
</g>
<g style="mix-blend-mode:overlay">
<path d="M116.7 22.2085L102.91 22.2085L102.91 25.8316L116.7 25.8316L116.7 22.2085Z" fill="#00D5FF"/>
</g>
<g style="mix-blend-mode:overlay">
<path d="M91.3481 22.3123L65.9961 22.3123L65.9961 23.7615L91.3481 23.7615L91.3481 22.3123Z" fill="#00D5FF"/>
</g>
</svg>
