<svg width="387" height="44" viewBox="0 0 387 44" fill="none" xmlns="http://www.w3.org/2000/svg">
<g style="mix-blend-mode:overlay">
<path d="M304.386 26.7473L320.693 26.7473L320.693 20.9515L304.386 20.9515L304.386 26.7473Z" fill="#00D5FF"/>
</g>
<g style="mix-blend-mode:overlay">
<path d="M263.085 2.24755L372.983 2.24756L372.983 0.271697L263.085 0.271687L263.085 2.24755Z" fill="#00D5FF"/>
</g>
<g style="mix-blend-mode:overlay">
<path d="M247.132 15.156L302.259 15.156L302.259 13.8388L247.132 13.8388L247.132 15.156Z" fill="#00D5FF"/>
</g>
<g style="mix-blend-mode:overlay">
<path d="M292.332 8.17431L386.81 8.17432L386.81 7.64742L292.332 7.64741L292.332 8.17431Z" fill="#00D5FF"/>
</g>
<g style="mix-blend-mode:overlay">
<path d="M293.396 16.8682L310.59 16.8682L310.59 12.2578L293.396 12.2578L293.396 16.8682Z" fill="#00D5FF"/>
</g>
<g style="mix-blend-mode:overlay">
<path d="M324.947 16.8679L356.854 16.8679L356.854 15.1555L324.947 15.1555L324.947 16.8679Z" fill="#00D5FF"/>
</g>
<g style="mix-blend-mode:overlay">
<path d="M49.3143 38.3394L63.3174 38.3394L63.3174 33.3339L49.3143 33.3339L49.3143 38.3394Z" fill="#00D5FF"/>
</g>
<g style="mix-blend-mode:overlay">
<path d="M13.6873 17.2639L108.342 17.2639L108.342 15.5515L13.6873 15.5515L13.6873 17.2639Z" fill="#00D5FF"/>
</g>
<g style="mix-blend-mode:overlay">
<path d="M0.0377426 28.3289L47.3652 28.3289L47.3652 27.1433L0.0377427 27.1433L0.0377426 28.3289Z" fill="#00D5FF"/>
</g>
<g style="mix-blend-mode:overlay">
<path d="M39.0347 22.2693L120.218 22.2693L120.218 21.8741L39.0347 21.8741L39.0347 22.2693Z" fill="#00D5FF"/>
</g>
<g style="mix-blend-mode:overlay">
<path d="M25.5624 9.88745L29.1074 9.88745L29.1074 8.30677L25.5624 8.30677L25.5624 9.88745Z" fill="#00D5FF"/>
</g>
<g style="mix-blend-mode:overlay">
<path d="M76.0801 10.9412L85.4746 10.9412L85.4746 7.25289L76.0801 7.25289L76.0801 10.9412Z" fill="#00D5FF"/>
</g>
<g style="mix-blend-mode:overlay">
<path d="M39.7424 29.7771L54.6318 29.7771L54.6318 25.8254L39.7424 25.8254L39.7424 29.7771Z" fill="#00D5FF"/>
</g>
<g style="mix-blend-mode:overlay">
<path d="M67.0412 29.7771L94.5156 29.7771L94.5156 28.1964L67.0412 28.1964L67.0412 29.7771Z" fill="#00D5FF"/>
</g>
<g style="mix-blend-mode:overlay">
<path d="M187.22 36.1001L201.223 36.1001L201.223 31.2263L187.22 31.2263L187.22 36.1001Z" fill="#00D5FF"/>
</g>
<g style="mix-blend-mode:overlay">
<path d="M152.123 15.156L245.714 15.156L245.714 13.4436L152.123 13.4436L152.123 15.156Z" fill="#00D5FF"/>
</g>
<g style="mix-blend-mode:overlay">
<path d="M138.475 26.0889L185.447 26.0889L185.447 24.9034L138.475 24.9033L138.475 26.0889Z" fill="#00D5FF"/>
</g>
<g style="mix-blend-mode:overlay">
<path d="M177.116 20.1619L257.59 20.1619L257.59 19.7667L177.116 19.7667L177.116 20.1619Z" fill="#00D5FF"/>
</g>
<g style="mix-blend-mode:overlay">
<path d="M213.808 8.83301L223.202 8.83301L223.202 5.14474L213.808 5.14474L213.808 8.83301Z" fill="#00D5FF"/>
</g>
<g style="mix-blend-mode:overlay">
<path d="M178.003 27.6697L192.715 27.6697L192.715 23.718L178.003 23.718L178.003 27.6697Z" fill="#00D5FF"/>
</g>
<g style="mix-blend-mode:overlay">
<path d="M204.945 27.6697L232.065 27.6697L232.065 26.2207L204.945 26.2207L204.945 27.6697Z" fill="#00D5FF"/>
</g>
<g style="mix-blend-mode:overlay">
<path d="M137.233 7.12085L120.571 7.12085L120.571 12.9167L137.233 12.9167L137.233 7.12085Z" fill="#00D5FF"/>
</g>
<g style="mix-blend-mode:overlay">
<path d="M179.066 32.0173L67.5723 32.0173L67.5723 34.1249L179.066 34.1249L179.066 32.0173Z" fill="#00D5FF"/>
</g>
<g style="mix-blend-mode:overlay">
<path d="M195.196 18.9763L139.36 18.9763L139.36 20.2935L195.196 20.2936L195.196 18.9763Z" fill="#00D5FF"/>
</g>
<g style="mix-blend-mode:overlay">
<path d="M149.287 26.0889L53.3916 26.0889L53.3916 26.6158L149.287 26.6158L149.287 26.0889Z" fill="#00D5FF"/>
</g>
<g style="mix-blend-mode:overlay">
<path d="M165.24 40.842L160.985 40.842L160.985 42.6862L165.24 42.6862L165.24 40.842Z" fill="#00D5FF"/>
</g>
<g style="mix-blend-mode:overlay">
<path d="M105.505 39.5251L94.3379 39.5251L94.3379 43.872L105.505 43.872L105.505 39.5251Z" fill="#00D5FF"/>
</g>
<g style="mix-blend-mode:overlay">
<path d="M148.402 17.1321L130.854 17.1321L130.854 21.7424L148.402 21.7424L148.402 17.1321Z" fill="#00D5FF"/>
</g>
<g style="mix-blend-mode:overlay">
<path d="M116.14 17.2642L83.8799 17.2642L83.8799 19.1083L116.14 19.1083L116.14 17.2642Z" fill="#00D5FF"/>
</g>
</svg>
