<svg width="1804" height="1746" viewBox="0 0 1804 1746" fill="none" xmlns="http://www.w3.org/2000/svg">
<path d="M1694.66 868C1694.69 1033.52 1643.62 1195.01 1548.41 1330.41C1453.21 1465.8 1318.52 1568.5 1162.75 1624.47C1006.98 1680.43 837.724 1686.93 678.119 1643.08C518.515 1599.24 376.342 1507.17 271.03 1379.48C165.662 1252.23 102.32 1095.44 89.72 930.71C83.1412 845.615 90.0362 760.015 110.15 677.07C149.04 517.691 235.8 374.042 358.763 265.441C481.727 156.84 634.997 88.4962 797.96 69.6001C882.6 59.8875 968.241 63.5318 1051.75 80.3999C1212.51 113.191 1359.38 194.396 1472.63 313.105C1585.88 431.814 1660.09 582.339 1685.29 744.46C1691.56 785.34 1694.7 826.641 1694.66 868C1694.66 881.51 1715.66 881.54 1715.66 868C1715.58 751.441 1690.8 636.223 1642.94 529.943C1595.08 423.663 1525.23 328.735 1438.01 251.419C1350.78 174.104 1248.16 116.156 1136.9 81.3982C1025.65 46.6401 908.286 35.8609 792.56 49.7715C676.834 63.6821 565.372 101.967 465.522 162.1C365.673 222.234 279.704 302.85 213.286 398.634C146.868 494.418 101.509 603.194 80.1993 717.788C58.8898 832.383 62.1144 950.193 89.6602 1063.45C109.488 1144.95 141.699 1222.93 185.17 1294.67C273.324 1440.3 404.341 1555.11 560.279 1623.39C716.217 1691.67 889.449 1710.07 1056.25 1676.07C1138.73 1659.3 1218.13 1629.93 1291.67 1589C1437.31 1507.83 1555.05 1384.59 1629.49 1235.4C1667.22 1159.68 1692.99 1078.58 1705.88 994.97C1712.32 952.969 1715.59 910.542 1715.66 868.05C1715.67 854.49 1694.67 854.47 1694.66 868Z" fill="#04DBEA"/>
<path d="M1001.12 1176.52C996.685 1179.76 991.889 1182.48 986.83 1184.61L989.34 1183.55C981.552 1186.8 973.367 1188.99 965 1190.08L967.79 1189.7C960.577 1190.75 953.259 1190.85 946.02 1190L948.81 1190.38C945.833 1189.92 942.907 1189.18 940.07 1188.16C935.33 1186.57 930.551 1185.06 925.691 1183.87C919.893 1182.38 913.959 1181.48 907.98 1181.19C904.764 1181.12 901.548 1181.34 898.37 1181.84C895.778 1182.3 893.216 1182.92 890.7 1183.7C885.041 1185.22 879.289 1186.36 873.48 1187.13L876.27 1186.76C874.618 1187.05 872.948 1187.25 871.27 1187.33C869.576 1187.25 867.89 1187.06 866.22 1186.76L869.01 1187.13C863.962 1186.46 858.954 1185.5 854.01 1184.28C851.35 1183.62 848.74 1182.69 846.01 1182.16C842.826 1181.52 839.588 1181.19 836.34 1181.16C825.34 1181.16 814.4 1184.17 804.03 1187.61C800.646 1188.85 797.155 1189.78 793.6 1190.39L796.39 1190.01C789.156 1190.86 781.84 1190.76 774.63 1189.71L777.421 1190.09C769.051 1189 760.863 1186.81 753.07 1183.56L755.58 1184.62C750.526 1182.48 745.734 1179.77 741.3 1176.53C739.24 1175.01 735.56 1174.82 733.21 1175.47C731.881 1175.84 730.636 1176.47 729.547 1177.32C728.459 1178.17 727.548 1179.22 726.866 1180.42C726.185 1181.63 725.746 1182.95 725.575 1184.32C725.404 1185.7 725.505 1187.09 725.87 1188.42C726.23 1189.26 726.581 1190.1 726.931 1190.94C727.847 1192.5 729.144 1193.8 730.7 1194.72C737.061 1199.24 744.026 1202.84 751.39 1205.41C757.774 1207.73 764.384 1209.37 771.11 1210.29C782.95 1211.97 795.51 1212.69 807.02 1208.79C815.02 1206.09 823.071 1203.57 831.431 1202.4L828.63 1202.78C832.809 1202.15 837.051 1202.07 841.25 1202.54L838.46 1202.16C840.97 1202.59 843.448 1203.19 845.88 1203.94C848.694 1204.71 851.52 1205.37 854.36 1205.95C859.18 1206.95 864.06 1207.63 868.95 1208.18C870.143 1208.34 871.35 1208.38 872.55 1208.28C877.13 1207.8 881.71 1207.14 886.24 1206.27C889.24 1205.7 892.24 1205.04 895.24 1204.26C898.092 1203.38 900.994 1202.67 903.931 1202.14L901.14 1202.52C905.337 1202.05 909.575 1202.13 913.75 1202.76L910.96 1202.38C918.447 1203.57 925.81 1205.44 932.96 1207.97C935.254 1208.8 937.59 1209.52 939.96 1210.1C943.032 1210.74 946.142 1211.17 949.27 1211.4C955.019 1211.81 960.794 1211.65 966.51 1210.91C974.003 1210.11 981.395 1208.55 988.57 1206.24C996.835 1203.62 1004.64 1199.73 1011.71 1194.7C1013.98 1193.01 1015.71 1191.24 1016.53 1188.4C1017.26 1185.66 1016.88 1182.75 1015.47 1180.29C1014.08 1177.92 1011.84 1176.19 1009.2 1175.45C1006.61 1174.86 1003.34 1174.86 1001.11 1176.51L1001.12 1176.52Z" fill="#04DBEA"/>
<path d="M1219.39 966.19C1175.99 981.399 1131.64 993.753 1086.64 1003.17C1041.45 1012.65 995.685 1019.08 949.64 1022.4C901.935 1025.87 854.052 1026.15 806.31 1023.24C759.965 1020.46 713.861 1014.54 668.31 1005.53C623.386 996.661 579.085 984.866 535.69 970.221C530.27 968.389 524.86 966.514 519.46 964.596C514.11 962.69 507.97 966.741 506.54 971.946C504.95 977.772 508.54 982.977 513.88 984.902C557.348 1000.35 601.776 1012.94 646.88 1022.59C787.689 1052.61 933.059 1054.12 1074.46 1027.04C1119.93 1018.35 1164.78 1006.66 1208.72 992.052C1214.16 990.247 1219.58 988.382 1225 986.497C1230.42 984.611 1233.9 979.287 1232.33 973.541C1230.9 968.326 1224.79 964.305 1219.41 966.19H1219.39Z" fill="#04DBEA"/>
<path d="M912.25 263.798C915.1 264.069 917.96 264.36 920.81 264.691C922.23 264.851 923.65 265.022 925.06 265.202L927.19 265.473L928.6 265.654L927.22 265.473C928.46 265.292 930.22 265.884 931.45 266.075C932.86 266.275 934.27 266.496 935.67 266.716C938.47 267.158 941.267 267.626 944.06 268.12C955.14 270.126 966.14 272.553 977.06 275.401C987.827 278.235 998.47 281.505 1008.99 285.208C1014.21 287.033 1019.39 288.969 1024.54 291.014C1027.1 292.017 1029.65 293.09 1032.2 294.143C1034.45 295.086 1029.99 293.19 1032.2 294.143L1034.09 294.955C1035.36 295.507 1036.62 296.058 1037.87 296.62C1057.89 305.543 1077.18 316.028 1095.57 327.978C1104.7 333.901 1113.6 340.182 1122.25 346.82C1122.8 347.241 1124.69 348.294 1122.25 346.82C1122.81 347.209 1123.35 347.628 1123.86 348.074L1127.05 350.611C1129.18 352.306 1131.28 354.02 1133.37 355.765C1137.55 359.235 1141.66 362.788 1145.7 366.425C1161.86 380.957 1176.88 396.714 1190.63 413.557C1192.35 415.663 1194.05 417.788 1195.73 419.934L1196.98 421.539C1198.47 423.434 1195.54 419.644 1196.98 421.539C1197.81 422.622 1198.63 423.705 1199.45 424.798C1202.72 429.15 1205.9 433.569 1209.01 438.055C1215.22 447.027 1221.08 456.239 1226.6 465.692C1232.12 475.145 1237.27 484.839 1242.05 494.774C1244.44 499.741 1246.74 504.755 1248.94 509.816C1249.49 511.079 1250.03 512.353 1250.58 513.616C1251.58 515.873 1249.66 511.39 1250.58 513.616C1250.84 514.258 1251.11 514.9 1251.37 515.532C1252.42 518.099 1253.44 520.669 1254.44 523.243C1262.52 544.091 1268.92 565.552 1273.59 587.422C1274.78 592.958 1275.86 598.52 1276.81 604.109C1277.29 606.904 1277.74 609.711 1278.17 612.532C1278.38 613.946 1278.59 615.35 1278.79 616.764C1278.95 617.464 1279.04 618.175 1279.08 618.89C1279.22 616.113 1278.97 618.078 1279.08 618.89C1280.55 630.329 1281.55 641.818 1282.08 653.356C1282.72 666.944 1282.56 680.562 1282.57 694.16C1282.57 710.326 1282.53 726.487 1282.46 742.646C1282.41 750.628 1282.33 758.61 1282.22 766.593C1282.15 772.098 1287.11 777.373 1292.72 777.122C1295.49 777.071 1298.13 775.945 1300.09 773.981C1302.05 772.018 1303.17 769.369 1303.22 766.593C1303.66 734.212 1303.87 701.782 1303.54 669.401C1303.26 645.381 1301.05 621.422 1296.91 597.761C1281.05 507.362 1236.85 424.39 1170.74 360.905C1104.63 297.42 1020.06 256.729 929.31 244.745C923.643 243.983 917.957 243.331 912.25 242.79C906.77 242.268 901.51 248.004 901.75 253.319C902.02 259.466 906.37 263.287 912.25 263.849V263.798Z" fill="#04DBEA"/>
<path d="M461.57 763.053C460.87 746.005 460.72 728.958 460.73 711.91C460.73 696.106 460.59 680.292 460.93 664.488C461.203 652.454 461.97 640.457 463.23 628.497C463.55 625.449 463.906 622.407 464.3 619.372C464.35 618.961 464.66 616.634 464.43 618.319C464.2 620.003 464.52 617.677 464.58 617.316C464.79 615.802 465.01 614.308 465.24 612.793C466.133 606.904 467.133 601.037 468.24 595.194C472.722 572.141 479.125 549.505 487.38 527.525C488.38 524.858 489.38 522.2 490.47 519.563C491.02 518.189 491.57 516.815 492.13 515.451L492.91 513.566C493.84 511.33 492.35 514.88 493.05 513.255C495.33 507.94 497.68 502.666 500.16 497.451C505.053 487.162 510.353 477.081 516.06 467.207C521.766 457.332 527.9 447.662 534.46 438.195C537.713 433.516 541.046 428.89 544.46 424.317L545.67 422.702C545.91 422.401 547.24 420.596 546.28 421.91C545.32 423.224 546.9 421.118 547.1 420.847L548.56 419.002C550.286 416.803 552.04 414.626 553.82 412.474C568.301 394.854 584.179 378.439 601.3 363.387C605.566 359.63 609.92 355.953 614.36 352.356C615.36 351.514 616.44 350.671 617.49 349.839C617.88 349.528 620.97 347.492 620.92 347.141L620.12 347.763L620.92 347.151C621.45 346.74 621.98 346.329 622.52 345.928C623.76 344.975 625.02 344.043 626.27 343.11C635.35 336.365 644.683 329.99 654.27 323.987C663.99 317.91 673.947 312.227 684.14 306.939C689.26 304.265 694.427 301.731 699.64 299.338C702.2 298.144 704.78 296.981 707.36 295.838L711.41 294.083L712.35 293.682L711.35 294.083C712.109 293.842 712.845 293.533 713.55 293.16C735.118 284.243 757.392 277.152 780.14 271.961C791.593 269.354 803.136 267.228 814.77 265.583L816.86 265.293C816.86 265.293 814.6 265.583 815.81 265.433L817.2 265.252C818.72 265.062 820.2 264.871 821.75 264.701C824.67 264.353 827.596 264.039 830.53 263.758C836.53 263.183 842.553 262.736 848.6 262.415C854.646 262.094 860.62 261.903 866.52 261.843C872.01 261.783 877.28 257.05 877.02 251.314C876.76 245.578 872.41 240.714 866.52 240.784C841.492 241.094 816.536 243.533 791.92 248.075C768.633 252.36 745.751 258.62 723.52 266.787C678.608 283.158 636.752 306.963 599.69 337.213C581.795 351.692 565.106 367.609 549.79 384.806C533.992 402.529 519.649 421.504 506.9 441.545C494.434 461.17 483.607 481.794 474.53 503.207C464.988 525.527 457.324 548.609 451.62 572.21C445.89 596.404 442.211 621.04 440.62 645.856C439.74 659.353 439.73 672.831 439.69 686.349C439.63 703.567 439.51 720.795 439.77 738.023C439.89 746.346 440.116 754.673 440.45 763.003C440.68 768.498 445.12 773.793 450.95 773.532C456.45 773.282 461.7 768.889 461.45 763.003L461.57 763.053Z" fill="#04DBEA"/>
<path d="M830.57 494.643C853.156 492.019 875.917 491.231 898.63 492.287C908.083 492.721 917.51 493.483 926.91 494.573C929.017 494.813 931.133 495.074 933.26 495.355C935.58 495.646 930.68 494.994 933 495.355L934.26 495.526L938.36 496.127C942.86 496.796 947.347 497.548 951.82 498.383C969.721 501.694 987.384 506.193 1004.69 511.851C1013.36 514.679 1021.91 517.791 1030.34 521.187C1032.25 521.959 1034.15 522.742 1036.06 523.534C1038.15 524.406 1033.74 522.531 1035.82 523.443L1036.96 523.925L1040.35 525.409C1044.48 527.227 1048.58 529.116 1052.66 531.075C1068.68 538.791 1084.19 547.53 1099.09 557.238C1106.5 562.071 1113.75 567.139 1120.85 572.44C1122.56 573.717 1124.26 575.007 1125.95 576.311C1127.65 577.615 1124.38 575.078 1125.51 575.97L1126.71 576.903L1129.58 579.179C1133.07 581.967 1136.51 584.812 1139.91 587.713C1153.34 599.183 1166.03 611.495 1177.91 624.576C1183.78 631.041 1189.44 637.689 1194.91 644.522C1196.3 646.266 1197.65 648.061 1199.05 649.796C1196.94 647.189 1199.17 649.957 1199.64 650.569C1200.38 651.571 1201.11 652.514 1201.84 653.497C1204.51 657.087 1207.12 660.717 1209.69 664.387C1219.85 678.969 1229.06 694.193 1237.27 709.964C1241.35 717.8 1245.18 725.762 1248.75 733.851C1249.67 735.917 1250.52 738.023 1251.45 740.089C1251.38 739.948 1250.45 737.662 1251.11 739.286L1251.82 741.001C1252.29 742.144 1252.76 743.298 1253.22 744.441C1254.91 748.673 1256.53 752.924 1258.09 757.196C1259.58 761.301 1261 765.423 1262.36 769.561C1264.08 774.776 1269.7 778.726 1275.28 776.911C1280.47 775.227 1284.45 769.561 1282.61 763.955C1253.19 673.764 1194.54 596.025 1115.99 543.102C1037.45 490.179 943.509 465.109 849.12 471.879C842.933 472.321 836.753 472.902 830.58 473.624C827.7 473.955 825.28 474.627 823.15 476.713C821.197 478.696 820.095 481.367 820.08 484.154C820.31 489.318 824.74 495.365 830.58 494.683L830.57 494.643Z" fill="#04DBEA"/>
<path d="M495.77 769.521C499.27 758.825 503.197 748.312 507.55 737.983C507.19 738.825 506.84 739.668 506.49 740.5C517.293 714.831 530.654 690.321 546.37 667.346C550.79 660.874 555.39 654.523 560.17 648.292C559.62 648.994 559.08 649.706 558.53 650.418C567.01 639.421 576.01 628.858 585.53 618.73C595.05 608.602 605.01 599.035 615.41 590.03C621.317 584.895 627.36 579.935 633.54 575.148L631.42 576.793C649.594 562.722 668.896 550.181 689.13 539.298C694.91 536.189 700.764 533.225 706.69 530.403C708.95 529.32 710.87 526.452 711.51 524.106C712.236 521.367 711.855 518.452 710.45 515.993C709.063 513.628 706.816 511.895 704.18 511.159C701.444 510.531 698.573 510.909 696.09 512.222C676.218 521.716 657.131 532.782 639.01 545.315C601.786 570.885 568.886 602.269 541.56 638.274C528.253 655.626 516.332 674.004 505.91 693.238C494.968 713.467 485.662 734.543 478.08 756.264C477.187 758.798 476.327 761.342 475.5 763.895C473.78 769.13 477.5 775.628 482.83 776.852C485.513 777.532 488.355 777.147 490.762 775.777C493.169 774.408 494.956 772.16 495.75 769.501L495.77 769.521Z" fill="#04DBEA"/>
<path d="M933.38 545.024C958.19 548.728 982.577 554.868 1006.19 563.355C1012.72 565.701 1019.18 568.225 1025.57 570.926L1023.07 569.863C1046.96 579.974 1069.77 592.475 1091.15 607.177C1097.15 611.289 1103.02 615.571 1108.75 620.023L1106.62 618.379C1126.97 634.152 1145.72 651.911 1162.57 671.397C1167.31 676.892 1171.9 682.514 1176.33 688.264L1174.69 686.138C1190.4 706.541 1204.04 728.467 1215.41 751.591C1218.65 758.189 1221.7 764.874 1224.56 771.647C1225.51 773.893 1228.61 775.869 1230.84 776.48C1233.57 777.211 1236.48 776.833 1238.93 775.427C1241.29 774.03 1243.01 771.774 1243.75 769.13C1243.88 768.197 1244 767.264 1244.13 766.332C1244.13 764.463 1243.63 762.629 1242.69 761.017C1232.69 737.337 1220.36 714.718 1205.88 693.498C1161.21 627.672 1097.82 576.855 1023.95 547.661C999.638 537.971 974.4 530.807 948.63 526.281C945.41 525.72 942.187 525.198 938.96 524.717C936.06 524.286 933.5 524.236 930.87 525.78C929.678 526.476 928.634 527.4 927.799 528.501C926.964 529.602 926.354 530.857 926.004 532.195C925.653 533.533 925.57 534.927 925.758 536.297C925.946 537.668 926.402 538.987 927.1 540.18C928.48 542.326 930.74 544.633 933.38 545.024Z" fill="#04DBEA"/>
<path d="M764.78 558.983C781.296 553.711 798.147 549.563 815.22 546.568C820.1 545.712 825 544.954 829.92 544.292L827.13 544.663C835.95 543.48 844.804 542.594 853.69 542.005C856.464 541.94 859.114 540.838 861.12 538.917C863.087 536.941 864.192 534.263 864.192 531.471C864.192 528.679 863.087 526.001 861.12 524.025C860.145 523.046 858.987 522.27 857.712 521.742C856.437 521.213 855.07 520.943 853.69 520.947C828.4 522.572 803.321 526.601 778.79 532.98C772.21 534.698 765.68 536.594 759.2 538.666C756.583 539.449 754.347 541.174 752.92 543.51C752.224 544.704 751.768 546.024 751.581 547.395C751.393 548.766 751.477 550.16 751.827 551.498C752.177 552.837 752.787 554.092 753.621 555.194C754.456 556.296 755.499 557.222 756.69 557.92C757.903 558.623 759.242 559.077 760.63 559.258C762.019 559.439 763.429 559.342 764.78 558.973V558.983Z" fill="#04DBEA"/>
<path d="M533.39 772.038C543.458 748.114 555.904 725.269 570.54 703.848C574.653 697.831 578.934 691.938 583.38 686.168L581.73 688.294C597.434 667.922 615.114 649.161 634.51 632.288C639.99 627.514 645.604 622.901 651.35 618.449L649.23 620.094C661.163 610.848 673.624 602.31 686.55 594.522C690.243 592.296 693.97 590.137 697.73 588.044C698.92 587.346 699.962 586.42 700.796 585.318C701.629 584.217 702.238 582.961 702.588 581.623C702.937 580.286 703.021 578.892 702.833 577.522C702.646 576.152 702.191 574.833 701.495 573.639C700.799 572.445 699.876 571.4 698.777 570.565C697.678 569.729 696.426 569.118 695.092 568.768C693.758 568.417 692.369 568.333 691.003 568.521C689.636 568.709 688.321 569.165 687.13 569.863C672.455 578.042 658.328 587.174 644.84 597.2C630.868 607.537 617.567 618.757 605.02 630.793C592.965 642.416 581.675 654.809 571.22 667.897C560.26 681.535 550.189 695.868 541.07 710.807C532.331 725.201 524.544 740.155 517.76 755.572C516.907 757.497 516.073 759.433 515.26 761.378C514.503 762.546 514.075 763.897 514.02 765.289C513.706 766.681 513.768 768.131 514.2 769.491C514.951 772.128 516.679 774.377 519.03 775.779C520.241 776.485 521.58 776.943 522.969 777.125C524.357 777.308 525.769 777.211 527.12 776.842C529.53 776.059 532.36 774.455 533.39 772.008V772.038Z" fill="#04DBEA"/>
<path d="M882.16 481.296C882.16 479.29 882.07 477.285 882.03 475.279C881.91 469.864 881.787 464.446 881.66 459.024L881.12 434.957L880.46 405.364C880.213 394.554 879.97 383.744 879.73 372.933L879.01 340.011C878.783 329.642 878.557 319.28 878.33 308.925L877.76 282.34C877.62 275.755 877.487 269.17 877.36 262.585C877.29 259.075 877.21 255.566 877.18 252.076C877.16 250.789 877.23 249.502 877.39 248.225L877.01 251.023C877.29 249.11 877.801 247.237 878.53 245.447C878.17 246.28 877.82 247.122 877.47 247.964C878.247 246.115 879.255 244.373 880.47 242.78L878.82 244.916C880.045 243.346 881.455 241.932 883.02 240.704L880.89 242.359C882.479 241.14 884.216 240.129 886.06 239.35L883.55 240.413C885.335 239.685 887.202 239.176 889.11 238.899L886.32 239.27C888.411 238.999 890.529 238.999 892.62 239.27L889.83 238.899C891.741 239.176 893.611 239.685 895.4 240.413L892.89 239.35C894.73 240.129 896.464 241.14 898.05 242.359L895.93 240.704C897.494 241.93 898.901 243.344 900.12 244.916L898.48 242.78C899.691 244.376 900.699 246.117 901.48 247.964C901.12 247.122 900.77 246.28 900.42 245.447C901.146 247.238 901.653 249.11 901.93 251.023C901.8 250.09 901.68 249.158 901.55 248.225C902.04 251.975 901.77 255.916 901.77 259.687V473.584C901.77 476.483 901.77 479.371 901.77 482.259V482.63C901.804 485.418 902.907 488.086 904.85 490.08C906.319 491.552 908.19 492.553 910.226 492.959C912.263 493.364 914.374 493.154 916.291 492.357C918.209 491.56 919.849 490.21 921.002 488.479C922.155 486.747 922.77 484.712 922.77 482.63V254.031C922.834 250.669 922.559 247.31 921.95 244.003C920.873 239.066 918.677 234.445 915.531 230.497C912.385 226.549 908.374 223.382 903.81 221.24C898.795 218.846 893.267 217.737 887.72 218.011C879.452 218.436 871.641 221.943 865.817 227.844C859.994 233.745 856.578 241.614 856.24 249.91C856.02 253.449 856.24 257.05 856.34 260.59C856.473 267.429 856.613 274.261 856.76 281.087C856.947 290.613 857.147 300.14 857.36 309.667C857.613 320.865 857.86 332.069 858.1 343.281L858.88 378.72C859.14 390.225 859.397 401.724 859.65 413.216C859.877 423.337 860.103 433.452 860.33 443.561C860.51 451.262 860.683 458.95 860.85 466.625L861.15 479.561V481.236C861.202 484.02 862.302 486.682 864.23 488.687C866.208 490.644 868.871 491.749 871.65 491.765C877.24 491.515 882.29 487.132 882.15 481.236L882.16 481.296Z" fill="#04DBEA"/>
<path d="M700.45 488.596C699.93 489.92 699.45 491.274 698.99 492.607C697.68 496.348 696.47 500.118 695.33 503.909C693.617 509.585 692.06 515.301 690.66 521.057C688.9 528.297 687.383 535.588 686.11 542.928C684.53 552.064 683.3 561.289 682.51 570.535C681.71 579.577 681.43 588.657 681.67 597.731C681.953 607.894 682.979 618.023 684.74 628.036C686.341 637.371 688.839 646.529 692.2 655.382C695.829 665.118 700.596 674.388 706.4 682.999C712.507 691.981 719.785 700.102 728.04 707.147C730.66 709.353 733.37 711.449 736.11 713.474L738.62 714.537C739.975 714.974 741.421 715.039 742.81 714.728C745.081 714.478 747.199 713.455 748.81 711.83C750.034 710.496 750.955 708.912 751.51 707.187C752.42 704.349 751.57 701.642 750.45 699.074L750.39 698.924L751.44 701.431C750.51 699.205 749.72 696.918 748.98 694.622C747.324 689.466 745.949 684.224 744.86 678.918C744.02 674.867 743.327 670.795 742.78 666.704C742.9 667.637 743.03 668.569 743.15 669.502C741.613 658.027 741.227 646.427 742 634.875C742.26 631.165 742.633 627.464 743.12 623.774C743 624.707 742.87 625.639 742.75 626.572C744.26 615.349 746.9 604.309 750.63 593.62C751.79 590.277 753.05 587.005 754.41 583.802C754.06 584.635 753.7 585.477 753.35 586.319C758.056 575.2 763.865 564.584 770.69 554.631C772.8 551.542 775.01 548.514 777.29 545.545L775.65 547.681C784.98 535.69 795.486 524.668 807.01 514.78C810.683 511.611 814.433 508.542 818.26 505.574L816.13 507.228C822.51 502.285 829.13 497.622 835.84 493.189C838.164 491.758 839.883 489.52 840.67 486.902C841.391 484.163 841.011 481.249 839.61 478.789C838.915 477.594 837.991 476.548 836.892 475.711C835.793 474.875 834.541 474.263 833.206 473.912C831.872 473.561 830.481 473.477 829.114 473.665C827.748 473.854 826.431 474.31 825.24 475.009C811.544 483.909 798.592 493.909 786.51 504.912C776.14 514.478 766.649 524.959 758.15 536.229C737.993 562.323 725.414 593.493 721.8 626.301C720.844 634.383 720.467 642.523 720.67 650.659C720.906 658.527 721.614 666.373 722.79 674.155C723.586 679.712 724.664 685.224 726.02 690.671C726.96 694.451 728.02 698.212 729.29 701.902C729.87 703.617 730.49 705.312 731.17 706.976C731.55 707.879 731.92 708.791 732.32 709.694L746.68 695.284C745.91 694.712 745.15 694.141 744.4 693.559L746.52 695.203C738.943 689.329 732.142 682.512 726.28 674.917L727.92 677.053C721.798 669.02 716.727 660.234 712.83 650.91C713.18 651.752 713.54 652.584 713.89 653.427C709.961 643.934 707.058 634.047 705.23 623.934C704.71 621.106 704.257 618.265 703.87 615.41C704 616.343 704.12 617.286 704.25 618.218C702.239 602.135 702.001 585.879 703.54 569.743C703.92 565.505 704.393 561.273 704.96 557.048L704.59 559.845C706.354 546.849 708.906 533.973 712.23 521.288C714.23 513.456 716.58 505.684 719.23 498.043C719.69 496.749 720.14 495.456 720.64 494.172C721.58 491.785 720.82 488.155 719.59 486.059C718.189 483.701 715.942 481.969 713.31 481.216C711.958 480.85 710.548 480.756 709.159 480.938C707.771 481.12 706.432 481.576 705.22 482.279L703.1 483.923C701.808 485.211 700.874 486.815 700.39 488.576L700.45 488.596Z" fill="#04DBEA"/>
<path d="M824.32 486.48C825.8 490.151 827.277 493.828 828.75 497.511L839.4 523.945L852.24 555.814L863.37 583.461C865.17 587.934 866.973 592.406 868.78 596.879L868.85 597.069C869.92 599.707 871.13 601.863 873.68 603.357C874.87 604.056 876.185 604.512 877.551 604.701C878.916 604.89 880.306 604.807 881.639 604.456C882.973 604.106 884.225 603.496 885.323 602.66C886.422 601.824 887.345 600.78 888.04 599.586C889.28 597.24 890.14 594.041 889.1 591.464L884.67 580.433L874.02 553.989L861.18 522.13L850.05 494.483C848.25 490.01 846.447 485.538 844.64 481.065L844.57 480.875C843.5 478.227 842.29 476.081 839.74 474.587C838.551 473.888 837.235 473.431 835.87 473.243C834.504 473.054 833.115 473.137 831.781 473.487C830.447 473.838 829.195 474.448 828.097 475.284C826.999 476.119 826.076 477.164 825.38 478.358C824.15 480.694 823.28 483.903 824.32 486.47V486.48Z" fill="#04DBEA"/>
<path d="M944.82 485.417L940.56 495.997L930.37 521.287L918.06 551.863C914.493 560.708 910.93 569.552 907.37 578.397C905.65 582.669 903.85 586.931 902.2 591.233C902.172 591.291 902.149 591.352 902.13 591.413L912.25 583.692H878.98L889.1 591.413L884.67 580.382L874.02 553.939L861.18 522.08L850.05 494.432C848.25 489.96 846.447 485.488 844.64 481.015L844.57 480.824C843.5 478.177 842.29 476.031 839.74 474.537C838.551 473.838 837.235 473.381 835.87 473.193C834.504 473.004 833.115 473.087 831.781 473.437C830.447 473.787 829.195 474.398 828.097 475.234C826.999 476.069 826.076 477.114 825.38 478.307C824.15 480.644 823.28 483.853 824.32 486.42C825.8 490.09 827.277 493.767 828.75 497.451L839.4 523.885L852.24 555.754L863.37 583.401C865.17 587.873 866.96 592.356 868.78 596.819L868.85 597.009C869.21 597.841 869.56 598.684 869.91 599.526C870.547 600.726 871.48 601.741 872.62 602.474C874.425 603.926 876.666 604.724 878.98 604.741H912.25C914.562 604.714 916.8 603.917 918.61 602.474C920.368 601.057 921.678 599.158 922.38 597.009L926.64 586.419L936.82 561.139L949.14 530.553L959.82 504.029C961.54 499.757 963.4 495.505 964.99 491.183L965.07 491.003C966.02 488.636 965.23 484.986 964.01 482.89C963.315 481.695 962.391 480.65 961.292 479.813C960.194 478.976 958.941 478.365 957.607 478.014C956.272 477.662 954.881 477.578 953.514 477.767C952.148 477.955 950.831 478.411 949.64 479.11L947.52 480.754C946.234 482.045 945.304 483.648 944.82 485.407V485.417Z" fill="#04DBEA"/>
<path d="M472 908.649C471 906.734 470.14 904.768 469.25 902.813C468.8 901.81 468.35 900.807 467.91 899.805C467.68 899.263 467.45 898.722 467.21 898.18C466.13 895.683 468.05 900.246 466.96 897.588C465.61 894.309 464.3 891.03 463.03 887.721C454.731 865.771 447.778 843.334 442.21 820.533C437.56 801.841 433.71 782.958 430.48 763.965L420.35 777.302L518.54 780.311L675.07 785.074L711.07 786.167L702 780.953L725.51 813.694C728.76 818.217 731.6 822.719 737.89 822.98C739.77 823.06 741.67 822.98 743.55 822.98H999.12C1006.4 822.98 1014.26 824.384 1019.19 817.745C1027.24 806.885 1034.97 795.764 1042.85 784.783L1045.6 780.953L1036.53 786.167L1134.71 783.159L1291.25 778.405L1327.25 777.312L1317.12 763.975C1312.03 794.7 1304.93 825.056 1295.87 854.849C1292.81 864.797 1289.49 874.654 1285.87 884.402C1284.54 888.059 1283.12 891.699 1281.62 895.322C1281.3 896.084 1280.99 896.846 1280.62 897.618C1279.62 900.005 1281.1 896.525 1280.62 897.719C1280.14 898.912 1279.62 900.135 1279.05 901.339C1277.96 903.816 1276.86 906.293 1275.62 908.71C1273.04 913.724 1274.31 920.131 1279.39 923.11C1284.08 925.867 1291.16 924.413 1293.76 919.339C1297.8 911.11 1301.41 902.675 1304.57 894.069C1312.91 872.125 1319.9 849.687 1325.49 826.881C1330.21 807.958 1334.13 788.855 1337.39 769.631C1338.49 763.173 1334.65 756.073 1327.27 756.304L1289.07 757.457L1201.76 760.114L1106.23 763.023L1043.38 764.928C1036.69 765.138 1031.56 764.797 1026.92 771.145C1018.97 782.025 1011.19 793.056 1003.32 804.017L1001.06 807.166L1010.13 801.951H737.5L746.56 807.166L724.77 776.811C721.13 771.737 717.97 765.65 711.04 765.138C709.94 765.058 708.82 765.068 707.72 765.038L651.72 763.333L558 760.485L467.47 757.728C452.04 757.266 436.47 756.093 421.01 756.324H420.33C412.95 756.093 409.11 763.193 410.21 769.651C418.44 818.106 430.45 866.732 450.32 911.828C451.45 914.375 452.58 916.932 453.85 919.409C456.43 924.423 463.51 925.938 468.21 923.18C473.34 920.171 474.58 913.854 471.98 908.78L472 908.649Z" fill="#04DBEA"/>
<path d="M514.2 1038.56L520.13 1061.28L534.71 1117.21C540.857 1140.8 547.01 1164.4 553.17 1188L570.66 1255.09L582.51 1300.53C583.29 1303.54 583.99 1306.55 584.85 1309.5C586.22 1314.2 589.42 1315.97 593.1 1318.14L631 1340.58L691.88 1376.6L751.17 1411.69L784.93 1431.67L786.55 1432.67C788.753 1433.94 791.337 1434.36 793.826 1433.86C796.314 1433.36 798.539 1431.98 800.09 1429.97C803.48 1425.57 802.64 1420.25 799.27 1416.14L782.76 1396.08L741.34 1345.63L686.54 1278.89L629.57 1209.44C613.95 1190.41 598.333 1171.39 582.72 1152.38L557.18 1121.29C555.394 1119.17 553.243 1117.39 550.83 1116.03C541.609 1110.42 532.678 1104.35 524.07 1097.84C523.29 1097.27 522.53 1096.68 521.76 1096.1C520.99 1095.52 518.53 1093.58 521.31 1095.76C519.54 1094.37 517.76 1092.98 516.01 1091.57C512.583 1088.8 509.21 1085.98 505.89 1083.09C498.49 1076.64 491.37 1069.86 484.63 1062.72C480.997 1058.88 477.487 1054.93 474.1 1050.88C472.61 1049.08 471.16 1047.26 469.71 1045.44C468.26 1043.63 471.12 1047.32 469.64 1045.35L468.37 1043.67C467.53 1042.54 466.7 1041.4 465.88 1040.26C459.672 1031.67 454.263 1022.54 449.72 1012.96C449.22 1011.89 448.72 1010.83 448.26 1009.74C448.15 1009.48 447.26 1007.31 448 1009.17C447.63 1008.28 447.27 1007.4 446.91 1006.5C445.663 1003.34 444.497 1000.16 443.41 996.946C441.335 990.84 439.665 984.602 438.41 978.274C438.16 977.011 437.93 975.737 437.72 974.463C437.6 973.721 437.49 972.969 437.38 972.217C437.08 970.212 437.38 972.628 437.45 972.809C436.93 971.736 437.1 969.69 437 968.487C436.89 967.103 436.8 965.699 436.74 964.305C436.627 961.878 436.627 959.445 436.74 957.005C436.74 955.952 436.84 954.899 436.93 953.846C436.93 953.234 437.03 952.623 437.09 952.001C437.09 951.63 437.45 948.992 437.19 950.998C436.93 953.004 437.19 950.998 437.26 950.637C437.35 950.055 437.45 949.484 437.56 948.912C437.73 947.99 437.93 947.057 438.15 946.134C438.635 944.027 439.246 941.951 439.98 939.917C440.15 939.426 440.34 938.914 440.52 938.463C440.88 937.46 441.21 938.042 440.05 939.566C440.546 938.701 440.967 937.795 441.31 936.858C442.105 935.3 442.996 933.792 443.98 932.346C444.23 931.965 444.52 931.604 444.77 931.223C445.77 929.679 443.01 933.289 444.24 931.915C444.74 931.363 445.24 930.772 445.7 930.23C446.9 928.936 448.27 927.904 449.52 926.69C447.04 929.087 448.52 927.482 449.46 926.851C450.11 926.429 450.76 926.028 451.46 925.647C452.16 925.266 452.83 924.965 453.46 924.644C455.05 923.822 450.81 925.647 452.46 925.045C452.85 924.915 453.24 924.755 453.64 924.614C455.114 924.134 456.617 923.749 458.14 923.461C460.64 922.94 455.39 923.662 457.9 923.461C458.9 923.391 459.95 923.311 460.97 923.311C462.49 923.311 463.97 923.601 465.5 923.601C461.72 923.601 464.78 923.531 465.97 923.782C466.97 924.013 468.05 924.273 469.08 924.574C470.11 924.875 470.92 925.156 471.82 925.497C472.72 925.838 474.12 926.75 471.43 925.296C471.93 925.557 472.43 925.758 472.98 925.998C474.83 926.905 476.621 927.93 478.34 929.067C479.27 929.688 480.14 930.381 481.06 931.012C478.2 929.007 480.91 930.952 481.53 931.484C483.199 932.947 484.788 934.5 486.29 936.136C486.92 936.818 487.53 937.51 488.13 938.222C488.73 938.934 490.92 942.073 488.9 939.105C490.03 940.769 491.26 942.344 492.36 944.029C494.553 947.42 496.536 950.944 498.3 954.578C499.02 956.056 499.713 957.543 500.38 959.041C500.56 959.472 500.73 959.923 500.94 960.344C499.42 957.276 500.28 958.77 500.59 959.542C500.9 960.314 501.26 961.197 501.59 962.029C502.617 964.703 503.557 967.414 504.41 970.161C505.16 972.588 505.89 975.055 506.41 977.542C507.58 982.937 514.14 986.567 519.33 984.893C521.98 984.098 524.222 982.308 525.588 979.896C526.954 977.484 527.338 974.636 526.66 971.946C524.355 962.066 520.845 952.507 516.21 943.487C507.86 926.63 494.94 911.457 476.86 904.989C460.86 899.273 442.28 902.733 430.63 915.499C417.5 929.899 414.28 950.727 416.06 969.55C420.55 1017.11 448.24 1058.18 482.24 1090.07C495.235 1102.18 509.088 1113.34 523.69 1123.45C528.01 1126.46 532.4 1129.37 536.86 1132.17C538.688 1133.44 540.591 1134.59 542.56 1135.62C540.06 1134.47 539.98 1133.39 541.46 1135.19C542.53 1136.49 543.59 1137.79 544.66 1139.09L556.81 1153.89C570.87 1171 584.923 1188.12 598.97 1205.24L654.82 1273.26L712.23 1343.18L759.09 1400.24C767.143 1410.05 775.197 1419.86 783.25 1429.68L784.32 1430.98L797.05 1414.44L777.41 1402.83L730.57 1375.06L673.83 1341.48L624.57 1312.34C616.62 1307.63 608.79 1302.56 600.66 1298.19L600.34 1298L605.16 1304.28L598.11 1277.21C592.457 1255.56 586.81 1233.9 581.17 1212.26C574.363 1186.19 567.56 1160.09 560.76 1133.97L543.12 1066.32C540.26 1055.37 537.67 1044.26 534.54 1033.42C534.49 1033.27 534.45 1033.11 534.41 1032.95C533.02 1027.62 526.84 1023.86 521.5 1025.6C518.843 1026.38 516.594 1028.17 515.225 1030.59C513.856 1033.01 513.475 1035.86 514.16 1038.55L514.2 1038.56Z" fill="#04DBEA"/>
<path d="M1206.57 1032.95C1204.22 1041.97 1201.86 1051 1199.51 1060.02C1193.87 1081.68 1188.23 1103.33 1182.58 1124.98C1175.77 1151.06 1168.97 1177.15 1162.16 1203.26L1144.52 1270.91C1141.67 1281.85 1138.37 1292.77 1135.94 1303.81C1135.94 1303.97 1135.86 1304.12 1135.82 1304.29L1140.65 1298L1121.02 1309.61L1074.1 1337.38L1017.36 1370.95L968.11 1400.1C960.11 1404.81 951.96 1409.24 944.2 1414.25C944.097 1414.32 943.99 1414.39 943.88 1414.44L956.6 1430.98L973.46 1410.45L1016.08 1358.55L1072.08 1290.36L1129.55 1220.36L1176.04 1163.74C1183.88 1154.2 1191.72 1144.65 1199.57 1135.09C1201.02 1133.32 1200.62 1134.53 1198.42 1135.6C1200.52 1134.48 1202.55 1133.24 1204.52 1131.9C1216.3 1124.43 1227.65 1116.29 1238.52 1107.54C1253.94 1095.39 1268.13 1081.76 1280.88 1066.83C1296.28 1048.55 1308.6 1028.54 1316.68 1005.97C1324.29 984.702 1328.76 960.083 1322.45 937.881C1317.87 921.837 1306.31 906.795 1289.25 903.295C1270.39 899.404 1251.57 908.018 1239.08 922.087C1228.35 934.121 1221.14 949.073 1216.36 964.416C1215.59 966.902 1214.85 969.43 1214.3 971.957C1213.14 977.322 1215.89 983.599 1221.63 984.903C1226.92 986.116 1233.31 983.308 1234.55 977.552C1235.12 974.905 1235.9 972.288 1236.71 969.7C1237.61 966.846 1238.61 964.018 1239.71 961.217C1239.99 960.515 1240.28 959.823 1240.55 959.131C1241.25 957.366 1239.44 961.678 1240.22 959.923L1240.6 959.051C1241.39 957.232 1242.23 955.44 1243.12 953.676C1244.89 950.12 1246.88 946.674 1249.06 943.357C1249.62 942.524 1250.18 941.702 1250.77 940.89C1251.24 940.228 1253.41 937.721 1251.1 940.378C1252.56 938.694 1253.9 936.949 1255.44 935.364C1256.84 933.882 1258.32 932.476 1259.87 931.153C1260.63 930.501 1263.19 929.027 1260.35 930.712C1261.3 930.15 1262.17 929.398 1263.1 928.796C1264.83 927.669 1266.64 926.664 1268.51 925.788C1269.36 925.396 1270.87 925.206 1268.08 925.938C1268.44 925.822 1268.8 925.685 1269.15 925.527C1270.42 925.059 1271.71 924.648 1273.02 924.293C1273.83 924.073 1274.65 923.882 1275.48 923.722C1275.94 923.622 1276.41 923.562 1276.88 923.461C1278.69 923.07 1274.38 923.722 1275.7 923.612C1277.42 923.428 1279.16 923.344 1280.89 923.361C1281.69 923.361 1282.49 923.451 1283.29 923.511C1284.29 923.582 1284.96 924.123 1281.99 923.321C1282.4 923.431 1282.84 923.451 1283.26 923.531C1284.85 923.842 1286.41 924.275 1287.93 924.825C1290.56 925.828 1285.72 923.692 1287.93 924.825C1288.55 925.146 1289.18 925.447 1289.79 925.828C1290.4 926.209 1291.24 926.69 1291.93 927.162C1292.16 927.322 1292.39 927.502 1292.63 927.653C1294.04 928.555 1290.33 925.647 1292.19 927.312C1293.41 928.348 1294.56 929.457 1295.64 930.631C1296.13 931.173 1296.55 931.865 1297.08 932.346C1295.02 930.471 1295.92 930.772 1296.54 931.674C1296.8 932.055 1297.07 932.426 1297.33 932.817C1298.3 934.282 1299.17 935.806 1299.95 937.38C1300.18 937.851 1301.48 940.769 1300.66 938.854C1299.84 936.939 1300.57 938.674 1300.71 939.025C1300.95 939.677 1301.19 940.328 1301.41 941.03C1302.02 942.835 1302.53 944.671 1302.96 946.526C1303.19 947.528 1303.4 948.531 1303.59 949.604C1303.69 950.176 1303.78 950.758 1303.87 951.339C1304.2 953.295 1303.6 948.762 1303.82 950.908C1304.34 955.853 1304.48 960.833 1304.21 965.799C1304.14 966.973 1304.06 968.146 1303.95 969.309C1303.84 970.473 1304 971.987 1303.56 972.919L1303.74 971.596L1303.53 973.08L1303.17 975.336C1302.9 976.874 1302.61 978.408 1302.3 979.939C1301 986.025 1299.33 992.027 1297.3 997.909C1296.2 1001.14 1295.01 1004.33 1293.72 1007.5C1293.65 1007.68 1292.41 1010.6 1293.29 1008.56L1292.45 1010.5C1291.87 1011.79 1291.28 1013.07 1290.67 1014.35C1286.04 1023.88 1280.56 1032.97 1274.29 1041.51C1273.6 1042.46 1272.91 1043.41 1272.2 1044.34C1271.78 1044.9 1271.38 1045.49 1270.93 1046.01C1272.57 1044.11 1271.64 1045.09 1271.28 1045.55C1269.54 1047.74 1267.8 1049.91 1266 1052.05C1262.67 1056 1259.22 1059.84 1255.66 1063.57C1248.99 1070.59 1241.95 1077.26 1234.66 1083.63C1231.2 1086.62 1227.68 1089.56 1224.11 1092.42L1221.89 1094.19L1220.57 1095.19C1220.31 1095.39 1218.82 1096.55 1220.33 1095.38L1220.11 1095.55L1218.83 1096.55L1216.33 1098.44C1211 1102.41 1205.57 1106.23 1200.04 1109.9C1196.7 1112.12 1193.33 1114.27 1189.9 1116.33C1188.31 1117.12 1186.83 1118.13 1185.52 1119.34C1183.52 1121.48 1181.79 1123.87 1179.95 1126.13L1166.81 1142.12L1124.03 1194.27C1105.53 1216.79 1087.04 1239.32 1068.55 1261.85L1012.09 1330.6L966.4 1386.24L942.83 1414.95L941.83 1416.23C938.47 1420.32 937.61 1425.64 941.01 1430.06C942.56 1432.08 944.787 1433.46 947.278 1433.96C949.77 1434.46 952.357 1434.03 954.56 1432.76L978.49 1418.6L1034.03 1385.73L1096.78 1348.63L1142.26 1321.71C1145.19 1319.98 1148.26 1318.34 1151.08 1316.5C1155.24 1313.81 1156.01 1310.59 1157.08 1306.47C1160.35 1293.96 1163.62 1281.44 1166.87 1268.94L1183.49 1205.18L1202.17 1133.57L1218.07 1072.6C1220.88 1061.81 1223.69 1051.01 1226.51 1040.22L1226.9 1038.72C1228.29 1033.4 1225.14 1027.04 1219.57 1025.77C1214 1024.49 1208.14 1027.42 1206.65 1033.12L1206.57 1032.95Z" fill="#04DBEA"/>
<path d="M870.5 1413.01H791.85L800.91 1428.85L804.91 1420.78L814.58 1401.42L826.28 1377.97L836.39 1357.71C838.02 1354.43 839.75 1351.19 841.3 1347.88C841.3 1347.83 841.3 1347.78 841.37 1347.74L832.3 1352.95H908.63L899.56 1347.74L903.56 1355.76L913.23 1375.13L924.93 1398.57L935.04 1418.83C936.68 1422.1 938.25 1425.43 939.95 1428.67L940.02 1428.81C943.04 1423.52 946.063 1418.24 949.09 1412.97H870.44C867.662 1413 865.003 1414.11 863.01 1416.05C861.544 1417.52 860.547 1419.4 860.144 1421.44C859.74 1423.48 859.949 1425.6 860.744 1427.52C861.539 1429.45 862.884 1431.09 864.609 1432.25C866.335 1433.41 868.364 1434.02 870.44 1434.03H949.09C950.921 1434.02 952.719 1433.53 954.307 1432.62C955.895 1431.71 957.219 1430.39 958.15 1428.81C959.059 1427.19 959.537 1425.36 959.537 1423.5C959.537 1421.64 959.059 1419.81 958.15 1418.18L954.15 1410.11C950.917 1403.67 947.693 1397.21 944.48 1390.75L932.78 1367.31L922.67 1347.04C921.03 1343.77 919.47 1340.44 917.75 1337.21L917.69 1337.07C916.06 1333.82 912.13 1331.85 908.62 1331.85H832.29C828.78 1331.85 824.85 1333.86 823.23 1337.07C821.897 1339.74 820.563 1342.41 819.23 1345.09L809.56 1364.46L797.87 1387.94L787.76 1408.2C786.12 1411.48 784.46 1414.75 782.85 1418.04C782.85 1418.04 782.8 1418.13 782.78 1418.18C781.871 1419.81 781.393 1421.64 781.393 1423.5C781.393 1425.36 781.871 1427.19 782.78 1428.81C783.712 1430.39 785.038 1431.71 786.628 1432.62C788.218 1433.54 790.017 1434.02 791.85 1434.03H870.5C873.285 1434.03 875.956 1432.92 877.925 1430.94C879.894 1428.97 881 1426.29 881 1423.5C881 1420.71 879.894 1418.03 877.925 1416.05C875.956 1414.08 873.285 1412.97 870.5 1412.97V1413.01Z" fill="#04DBEA"/>
<path d="M868.77 1273.44C880.993 1273.59 893.214 1272.98 905.36 1271.6C912.352 1270.79 919.288 1269.56 926.13 1267.9C933.08 1266.12 939.865 1263.74 946.41 1260.79C959.34 1255.07 970.3 1246.22 980.25 1236.26C989.444 1226.93 997.871 1216.87 1005.45 1206.18C1009.06 1201.28 1012.39 1196.18 1015.45 1190.92C1016.6 1188.88 1017.04 1186.52 1016.7 1184.2C1016.42 1182.12 1015.53 1179.52 1013.81 1178.18C1008.05 1173.61 1002.31 1169.02 996.58 1164.4C989.02 1158.32 981.44 1152.27 974.26 1145.73C964.52 1136.85 954.32 1127.91 942.46 1121.98C935.233 1118.21 927.343 1115.88 919.23 1115.14C911.39 1114.5 903.23 1115.78 895.7 1117.77C888.865 1119.66 882.206 1122.13 875.8 1125.17C872.562 1126.63 869.407 1128.27 866.35 1130.08L865.92 1130.34H876.57C874.5 1129.07 872.33 1127.94 870.17 1126.85C864.268 1123.88 858.155 1121.35 851.88 1119.29C837.31 1114.55 821.24 1113.01 806.79 1118.95C799.903 1121.76 793.379 1125.4 787.36 1129.79C781.738 1133.91 776.334 1138.33 771.17 1143.01C767.85 1146.02 764.59 1149.03 761.17 1151.92C757.17 1155.24 753.17 1158.5 749.17 1161.75C742.48 1167.15 735.6 1172.37 729.01 1177.89L728.64 1178.18L727 1180.31C726.25 1181.48 725.822 1182.83 725.76 1184.22C725.409 1186.53 725.846 1188.9 727 1190.94C729.44 1195.23 732.22 1199.34 735 1203.39C742.148 1213.72 750.06 1223.5 758.67 1232.64C768.41 1242.89 779.16 1252.46 791.86 1258.84C803.937 1264.78 816.872 1268.77 830.19 1270.67C844.597 1272.68 859.135 1273.61 873.68 1273.45V1252.39H868.77C863.28 1252.39 858.01 1257.23 858.27 1262.92C858.316 1265.7 859.438 1268.35 861.397 1270.31C863.356 1272.28 866 1273.4 868.77 1273.45H873.68C879.17 1273.45 884.43 1268.6 884.18 1262.92C884.129 1260.14 883.006 1257.49 881.048 1255.53C879.09 1253.57 876.449 1252.44 873.68 1252.39C860.903 1252.57 848.128 1251.9 835.44 1250.38L838.24 1250.76C827.062 1249.36 816.113 1246.51 805.67 1242.27L808.18 1243.32C800.993 1240.3 794.221 1236.37 788.03 1231.62L790.15 1233.27C778.09 1223.84 767.64 1212.07 758.31 1199.96L759.95 1202.1C754.505 1195.2 749.543 1187.93 745.1 1180.35L743.45 1193.11C749.083 1188.64 754.7 1184.15 760.3 1179.65C767.72 1173.68 775.21 1167.76 782.25 1161.35C786.99 1157.03 791.75 1152.75 796.81 1148.81L794.69 1150.45C800.645 1145.67 807.18 1141.67 814.14 1138.54L811.63 1139.6C815.548 1137.9 819.669 1136.72 823.89 1136.08L821.1 1136.47C825.642 1135.92 830.234 1135.98 834.76 1136.65L831.97 1136.28C839.971 1137.49 847.78 1139.74 855.2 1142.97L852.7 1141.91C857.273 1143.8 861.701 1146.02 865.95 1148.56C867.557 1149.51 869.387 1150 871.25 1150C873.113 1150 874.943 1149.51 876.55 1148.56C880.835 1145.99 885.308 1143.74 889.93 1141.85L887.42 1142.91C894.768 1139.71 902.5 1137.48 910.42 1136.28L907.62 1136.66C912.168 1135.99 916.785 1135.92 921.35 1136.47L918.56 1136.08C922.781 1136.72 926.902 1137.91 930.82 1139.6L928.31 1138.54C935.27 1141.67 941.806 1145.67 947.76 1150.45L945.64 1148.81C953.58 1155 960.72 1162.11 968.47 1168.53C976.47 1175.13 984.57 1181.56 992.67 1188.08L998.99 1193.09L997.35 1180.33C992.907 1187.91 987.945 1195.18 982.5 1202.08L984.14 1199.94C974.81 1212.05 964.36 1223.82 952.29 1233.25L954.42 1231.6C948.23 1236.35 941.458 1240.28 934.27 1243.3L936.78 1242.25C926.338 1246.49 915.388 1249.34 904.21 1250.74L907 1250.36C894.315 1251.88 881.544 1252.55 868.77 1252.37C863.28 1252.37 858.01 1257.21 858.27 1262.9C858.311 1265.68 859.43 1268.33 861.39 1270.3C863.35 1272.27 865.997 1273.39 868.77 1273.44Z" fill="#04DBEA"/>
</svg>
