<svg width="337" height="63" viewBox="0 0 337 63" fill="none" xmlns="http://www.w3.org/2000/svg">
<g style="mix-blend-mode:overlay">
<path d="M264.926 38.0533L279.121 38.0533L279.121 29.7229L264.926 29.7229L264.926 38.0533Z" fill="#00D5FF"/>
</g>
<g style="mix-blend-mode:overlay">
<path d="M228.975 2.83984L324.638 2.83984L324.638 -8.05855e-05L228.975 -8.89486e-05L228.975 2.83984Z" fill="#00D5FF"/>
</g>
<g style="mix-blend-mode:overlay">
<path d="M215.088 21.3929L263.074 21.3929L263.074 19.4997L215.088 19.4997L215.088 21.3929Z" fill="#00D5FF"/>
</g>
<g style="mix-blend-mode:overlay">
<path d="M254.433 11.3585L336.673 11.3585L336.673 10.6012L254.433 10.6012L254.433 11.3585Z" fill="#00D5FF"/>
</g>
<g style="mix-blend-mode:overlay">
<path d="M255.359 23.8538L270.325 23.8538L270.325 17.2273L255.359 17.2273L255.359 23.8538Z" fill="#00D5FF"/>
</g>
<g style="mix-blend-mode:overlay">
<path d="M282.824 23.8538L310.598 23.8538L310.598 21.3925L282.824 21.3925L282.824 23.8538Z" fill="#00D5FF"/>
</g>
<g style="mix-blend-mode:overlay">
<path d="M42.8938 54.7147L55.083 54.7147L55.083 47.5203L42.8938 47.5203L42.8938 54.7147Z" fill="#00D5FF"/>
</g>
<g style="mix-blend-mode:overlay">
<path d="M11.8817 24.423L94.2754 24.423L94.2754 21.9617L11.8817 21.9617L11.8817 24.423Z" fill="#00D5FF"/>
</g>
<g style="mix-blend-mode:overlay">
<path d="M0.000164032 40.3267L41.1973 40.3267L41.1973 38.6227L0.000164181 38.6227L0.000164032 40.3267Z" fill="#00D5FF"/>
</g>
<g style="mix-blend-mode:overlay">
<path d="M33.9459 31.6171L104.613 31.6171L104.613 31.0491L33.9459 31.0491L33.9459 31.6171Z" fill="#00D5FF"/>
</g>
<g style="mix-blend-mode:overlay">
<path d="M22.2178 13.8206L25.3037 13.8206L25.3037 11.5486L22.2178 11.5486L22.2178 13.8206Z" fill="#00D5FF"/>
</g>
<g style="mix-blend-mode:overlay">
<path d="M66.1925 15.3351L74.3701 15.3351L74.3701 10.0339L66.1925 10.0339L66.1925 15.3351Z" fill="#00D5FF"/>
</g>
<g style="mix-blend-mode:overlay">
<path d="M34.5617 42.4081L47.5225 42.4081L47.5225 36.7283L34.5617 36.7283L34.5617 42.4081Z" fill="#00D5FF"/>
</g>
<g style="mix-blend-mode:overlay">
<path d="M58.3246 42.4081L82.2402 42.4081L82.2402 40.1362L58.3246 40.1362L58.3246 42.4081Z" fill="#00D5FF"/>
</g>
<g style="mix-blend-mode:overlay">
<path d="M162.936 51.4961L175.125 51.4961L175.125 44.491L162.936 44.491L162.936 51.4961Z" fill="#00D5FF"/>
</g>
<g style="mix-blend-mode:overlay">
<path d="M132.386 21.3929L213.854 21.3929L213.854 18.9317L132.386 18.9317L132.386 21.3929Z" fill="#00D5FF"/>
</g>
<g style="mix-blend-mode:overlay">
<path d="M120.505 37.1069L161.394 37.1069L161.394 35.403L120.505 35.403L120.505 37.1069Z" fill="#00D5FF"/>
</g>
<g style="mix-blend-mode:overlay">
<path d="M154.141 28.588L224.191 28.588L224.191 28.02L154.141 28.02L154.141 28.588Z" fill="#00D5FF"/>
</g>
<g style="mix-blend-mode:overlay">
<path d="M186.08 12.3049L194.258 12.3049L194.258 7.00375L186.08 7.00375L186.08 12.3049Z" fill="#00D5FF"/>
</g>
<g style="mix-blend-mode:overlay">
<path d="M154.913 39.3793L167.72 39.3793L167.72 33.6994L154.913 33.6994L154.913 39.3793Z" fill="#00D5FF"/>
</g>
<g style="mix-blend-mode:overlay">
<path d="M178.365 39.3793L201.973 39.3793L201.973 37.2967L178.365 37.2967L178.365 39.3793Z" fill="#00D5FF"/>
</g>
<g style="mix-blend-mode:overlay">
<path d="M119.425 9.84412L104.921 9.84412L104.921 18.1745L119.425 18.1745L119.425 9.84412Z" fill="#00D5FF"/>
</g>
<g style="mix-blend-mode:overlay">
<path d="M155.839 45.6281L58.7871 45.6281L58.7871 48.6573L155.839 48.6573L155.839 45.6281Z" fill="#00D5FF"/>
</g>
<g style="mix-blend-mode:overlay">
<path d="M169.88 26.8839L121.276 26.8839L121.276 28.7772L169.88 28.7772L169.88 26.8839Z" fill="#00D5FF"/>
</g>
<g style="mix-blend-mode:overlay">
<path d="M129.916 37.1069L46.4424 37.1069L46.4424 37.8642L129.916 37.8643L129.916 37.1069Z" fill="#00D5FF"/>
</g>
<g style="mix-blend-mode:overlay">
<path d="M143.803 58.3119L140.1 58.3119L140.1 60.9625L143.803 60.9625L143.803 58.3119Z" fill="#00D5FF"/>
</g>
<g style="mix-blend-mode:overlay">
<path d="M91.8057 56.4191L82.085 56.4191L82.085 62.6669L91.8057 62.6669L91.8057 56.4191Z" fill="#00D5FF"/>
</g>
<g style="mix-blend-mode:overlay">
<path d="M129.146 24.2333L113.871 24.2333L113.871 30.8597L129.146 30.8597L129.146 24.2333Z" fill="#00D5FF"/>
</g>
<g style="mix-blend-mode:overlay">
<path d="M101.063 24.423L72.9814 24.423L72.9814 27.0736L101.063 27.0736L101.063 24.423Z" fill="#00D5FF"/>
</g>
</svg>
