<svg width="55" height="359" viewBox="0 0 55 359" fill="none" xmlns="http://www.w3.org/2000/svg">
<g style="mix-blend-mode:overlay">
<path d="M33.4805 76.5407L33.4805 61.4069L26.2342 61.4069L26.2342 76.5407L33.4805 76.5407Z" fill="#00D5FF"/>
</g>
<g style="mix-blend-mode:overlay">
<path d="M2.8496 114.869L2.84961 12.8799L0.37927 12.8799L0.379266 114.869L2.8496 114.869Z" fill="#00D5FF"/>
</g>
<g style="mix-blend-mode:overlay">
<path d="M18.9883 129.674L18.9883 78.5151L17.3414 78.5151L17.3414 129.674L18.9883 129.674Z" fill="#00D5FF"/>
</g>
<g style="mix-blend-mode:overlay">
<path d="M10.2598 87.727L10.2598 0.0489502L9.60101 0.0489502L9.60101 87.727L10.2598 87.727Z" fill="#00D5FF"/>
</g>
<g style="mix-blend-mode:overlay">
<path d="M21.1289 86.7399L21.1289 70.7834L15.3648 70.7834L15.3648 86.7399L21.1289 86.7399Z" fill="#00D5FF"/>
</g>
<g style="mix-blend-mode:overlay">
<path d="M21.1289 57.4591L21.1289 27.8492L18.988 27.8492L18.988 57.4591L21.1289 57.4591Z" fill="#00D5FF"/>
</g>
<g style="mix-blend-mode:overlay">
<path d="M47.9736 313.255L47.9736 300.26L41.7155 300.26L41.7155 313.255L47.9736 313.255Z" fill="#00D5FF"/>
</g>
<g style="mix-blend-mode:overlay">
<path d="M21.624 346.319L21.624 258.477L19.4831 258.477L19.4831 346.319L21.624 346.319Z" fill="#00D5FF"/>
</g>
<g style="mix-blend-mode:overlay">
<path d="M35.458 358.986L35.458 315.064L33.9758 315.064L33.9758 358.986L35.458 358.986Z" fill="#00D5FF"/>
</g>
<g style="mix-blend-mode:overlay">
<path d="M27.8818 322.796L27.8818 247.455L27.3878 247.455L27.3878 322.796L27.8818 322.796Z" fill="#00D5FF"/>
</g>
<g style="mix-blend-mode:overlay">
<path d="M12.4014 335.298L12.4014 332.008L10.4251 332.008L10.4251 335.298L12.4014 335.298Z" fill="#00D5FF"/>
</g>
<g style="mix-blend-mode:overlay">
<path d="M13.7187 288.416L13.7188 279.697L9.10746 279.697L9.10746 288.416L13.7187 288.416Z" fill="#00D5FF"/>
</g>
<g style="mix-blend-mode:overlay">
<path d="M37.2686 322.138L37.2686 308.32L32.3279 308.32L32.3279 322.138L37.2686 322.138Z" fill="#00D5FF"/>
</g>
<g style="mix-blend-mode:overlay">
<path d="M37.2686 296.805L37.2686 271.308L35.2923 271.308L35.2923 296.805L37.2686 296.805Z" fill="#00D5FF"/>
</g>
<g style="mix-blend-mode:overlay">
<path d="M45.1738 185.275L45.1738 172.279L39.0804 172.279L39.0804 185.275L45.1738 185.275Z" fill="#00D5FF"/>
</g>
<g style="mix-blend-mode:overlay">
<path d="M18.9883 217.846L18.9883 130.99L16.8473 130.99L16.8473 217.846L18.9883 217.846Z" fill="#00D5FF"/>
</g>
<g style="mix-blend-mode:overlay">
<path d="M32.6572 230.512L32.6572 186.92L31.175 186.92L31.175 230.512L32.6572 230.512Z" fill="#00D5FF"/>
</g>
<g style="mix-blend-mode:overlay">
<path d="M25.2471 194.651L25.2471 119.969L24.753 119.969L24.753 194.651L25.2471 194.651Z" fill="#00D5FF"/>
</g>
<g style="mix-blend-mode:overlay">
<path d="M11.083 160.6L11.083 151.882L6.47171 151.882L6.47171 160.6L11.083 160.6Z" fill="#00D5FF"/>
</g>
<g style="mix-blend-mode:overlay">
<path d="M34.6338 193.829L34.6338 180.175L29.6931 180.175L29.6931 193.829L34.6338 193.829Z" fill="#00D5FF"/>
</g>
<g style="mix-blend-mode:overlay">
<path d="M34.6338 168.825L34.6338 143.656L32.8222 143.656L32.8222 168.825L34.6338 168.825Z" fill="#00D5FF"/>
</g>
<g style="mix-blend-mode:overlay">
<path d="M8.94238 231.664L8.94238 247.126L16.1887 247.126L16.1887 231.664L8.94238 231.664Z" fill="#00D5FF"/>
</g>
<g style="mix-blend-mode:overlay">
<path d="M40.0693 192.842L40.0693 296.312L42.7044 296.312L42.7044 192.842L40.0693 192.842Z" fill="#00D5FF"/>
</g>
<g style="mix-blend-mode:overlay">
<path d="M23.7647 177.872L23.7646 229.69L25.4115 229.69L25.4115 177.872L23.7647 177.872Z" fill="#00D5FF"/>
</g>
<g style="mix-blend-mode:overlay">
<path d="M32.6572 220.478L32.6572 309.472L33.316 309.472L33.316 220.478L32.6572 220.478Z" fill="#00D5FF"/>
</g>
<g style="mix-blend-mode:overlay">
<path d="M51.1025 205.673L51.1025 209.621L53.4082 209.621L53.4082 205.673L51.1025 205.673Z" fill="#00D5FF"/>
</g>
<g style="mix-blend-mode:overlay">
<path d="M49.4561 261.109L49.4561 271.473L54.8908 271.473L54.8908 261.109L49.4561 261.109Z" fill="#00D5FF"/>
</g>
<g style="mix-blend-mode:overlay">
<path d="M21.459 221.3L21.459 237.585L27.2231 237.585L27.2231 221.3L21.459 221.3Z" fill="#00D5FF"/>
</g>
<g style="mix-blend-mode:overlay">
<path d="M21.624 251.239L21.624 281.178L23.9297 281.178L23.9297 251.239L21.624 251.239Z" fill="#00D5FF"/>
</g>
</svg>
