<svg width="226" height="35" viewBox="0 0 226 35" fill="none" xmlns="http://www.w3.org/2000/svg">
<g style="mix-blend-mode:overlay">
<path d="M177.545 21.4557L187.058 21.4557L187.058 16.901L177.545 16.901L177.545 21.4557Z" fill="#00D5FF"/>
</g>
<g style="mix-blend-mode:overlay">
<path d="M153.453 2.20251L217.559 2.20251L217.559 0.649773L153.453 0.649767L153.453 2.20251Z" fill="#00D5FF"/>
</g>
<g style="mix-blend-mode:overlay">
<path d="M144.147 12.3464L176.304 12.3464L176.304 11.3113L144.147 11.3113L144.147 12.3464Z" fill="#00D5FF"/>
</g>
<g style="mix-blend-mode:overlay">
<path d="M170.514 6.8601L225.624 6.86011L225.624 6.44604L170.514 6.44604L170.514 6.8601Z" fill="#00D5FF"/>
</g>
<g style="mix-blend-mode:overlay">
<path d="M171.134 13.692L181.163 13.692L181.163 10.069L171.134 10.069L171.134 13.692Z" fill="#00D5FF"/>
</g>
<g style="mix-blend-mode:overlay">
<path d="M189.539 13.692L208.15 13.692L208.15 12.3463L189.539 12.3463L189.539 13.692Z" fill="#00D5FF"/>
</g>
<g style="mix-blend-mode:overlay">
<path d="M28.7565 30.5653L36.9248 30.5653L36.9248 26.6317L28.7565 26.6317L28.7565 30.5653Z" fill="#00D5FF"/>
</g>
<g style="mix-blend-mode:overlay">
<path d="M7.97474 14.0032L63.1885 14.0032L63.1885 12.6575L7.97474 12.6575L7.97474 14.0032Z" fill="#00D5FF"/>
</g>
<g style="mix-blend-mode:overlay">
<path d="M0.013092 22.6986L27.6201 22.6986L27.6201 21.767L0.0130921 21.767L0.013092 22.6986Z" fill="#00D5FF"/>
</g>
<g style="mix-blend-mode:overlay">
<path d="M22.7606 17.9365L70.1162 17.9365L70.1162 17.626L22.7606 17.626L22.7606 17.9365Z" fill="#00D5FF"/>
</g>
<g style="mix-blend-mode:overlay">
<path d="M14.9018 8.20618L16.9697 8.20618L16.9697 6.96399L14.9018 6.96399L14.9018 8.20618Z" fill="#00D5FF"/>
</g>
<g style="mix-blend-mode:overlay">
<path d="M44.3696 9.0343L49.8496 9.0343L49.8496 6.13585L44.3696 6.13585L44.3696 9.0343Z" fill="#00D5FF"/>
</g>
<g style="mix-blend-mode:overlay">
<path d="M23.1731 23.8367L31.8584 23.8367L31.8584 20.7312L23.1731 20.7312L23.1731 23.8367Z" fill="#00D5FF"/>
</g>
<g style="mix-blend-mode:overlay">
<path d="M39.0967 23.8367L55.123 23.8367L55.123 22.5945L39.0967 22.5945L39.0967 23.8367Z" fill="#00D5FF"/>
</g>
<g style="mix-blend-mode:overlay">
<path d="M109.2 28.8055L117.368 28.8055L117.368 24.9755L109.2 24.9755L109.2 28.8055Z" fill="#00D5FF"/>
</g>
<g style="mix-blend-mode:overlay">
<path d="M88.7269 12.3464L143.32 12.3464L143.32 11.0007L88.7269 11.0007L88.7269 12.3464Z" fill="#00D5FF"/>
</g>
<g style="mix-blend-mode:overlay">
<path d="M80.765 20.9382L108.165 20.9382L108.165 20.0066L80.765 20.0066L80.765 20.9382Z" fill="#00D5FF"/>
</g>
<g style="mix-blend-mode:overlay">
<path d="M103.306 16.2804L150.248 16.2804L150.248 15.9699L103.306 15.9698L103.306 16.2804Z" fill="#00D5FF"/>
</g>
<g style="mix-blend-mode:overlay">
<path d="M124.708 7.37756L130.188 7.37756L130.188 4.47912L124.708 4.47911L124.708 7.37756Z" fill="#00D5FF"/>
</g>
<g style="mix-blend-mode:overlay">
<path d="M103.822 22.1805L112.404 22.1805L112.404 19.0751L103.822 19.0751L103.822 22.1805Z" fill="#00D5FF"/>
</g>
<g style="mix-blend-mode:overlay">
<path d="M119.539 22.1805L135.358 22.1805L135.358 21.0419L119.539 21.0419L119.539 22.1805Z" fill="#00D5FF"/>
</g>
<g style="mix-blend-mode:overlay">
<path d="M80.0416 6.03211L70.3223 6.0321L70.3223 10.5868L80.0416 10.5868L80.0416 6.03211Z" fill="#00D5FF"/>
</g>
<g style="mix-blend-mode:overlay">
<path d="M104.444 25.5972L39.4072 25.5972L39.4072 27.2534L104.444 27.2534L104.444 25.5972Z" fill="#00D5FF"/>
</g>
<g style="mix-blend-mode:overlay">
<path d="M113.852 15.3486L81.2822 15.3486L81.2822 16.3838L113.852 16.3838L113.852 15.3486Z" fill="#00D5FF"/>
</g>
<g style="mix-blend-mode:overlay">
<path d="M87.0724 20.9382L31.1348 20.9382L31.1348 21.3523L87.0724 21.3523L87.0724 20.9382Z" fill="#00D5FF"/>
</g>
<g style="mix-blend-mode:overlay">
<path d="M96.3781 32.5321L93.8965 32.5321L93.8965 33.9813L96.3781 33.9813L96.3781 32.5321Z" fill="#00D5FF"/>
</g>
<g style="mix-blend-mode:overlay">
<path d="M61.5336 31.4972L55.0195 31.4972L55.0195 34.9132L61.5336 34.9132L61.5336 31.4972Z" fill="#00D5FF"/>
</g>
<g style="mix-blend-mode:overlay">
<path d="M86.5565 13.8994L76.3203 13.8994L76.3203 17.5225L86.5565 17.5225L86.5565 13.8994Z" fill="#00D5FF"/>
</g>
<g style="mix-blend-mode:overlay">
<path d="M67.737 14.0032L48.9189 14.0032L48.9189 15.4524L67.737 15.4524L67.737 14.0032Z" fill="#00D5FF"/>
</g>
</svg>
