<svg width="107" height="256" viewBox="0 0 107 256" fill="none" xmlns="http://www.w3.org/2000/svg">
<g style="mix-blend-mode:overlay">
<path d="M89.3103 212.728L98.3271 246.379L99.8525 245.97L90.8356 212.319L89.3103 212.728Z" fill="#00D5FF" fill-opacity="0.6"/>
</g>
<g style="mix-blend-mode:overlay">
<path d="M71.515 152.42L74.2393 162.587L80.7219 160.85L77.9976 150.683L71.515 152.42Z" fill="#00D5FF" fill-opacity="0.6"/>
</g>
<g style="mix-blend-mode:overlay">
<path d="M92.2553 119.237L110.673 187.972L112.961 187.359L94.5433 118.624L92.2553 119.237Z" fill="#00D5FF" fill-opacity="0.6"/>
</g>
<g style="mix-blend-mode:overlay">
<path d="M75.1174 113.239L84.3262 147.607L85.8515 147.198L76.6427 112.831L75.1174 113.239Z" fill="#00D5FF" fill-opacity="0.6"/>
</g>
<g style="mix-blend-mode:overlay">
<path d="M90.4934 139.355L106.302 198.353L106.874 198.2L91.0654 139.202L90.4934 139.355Z" fill="#00D5FF" fill-opacity="0.6"/>
</g>
<g style="mix-blend-mode:overlay">
<path d="M104.092 125.275L104.782 127.853L106.689 127.342L105.998 124.764L104.092 125.275Z" fill="#00D5FF" fill-opacity="0.6"/>
</g>
<g style="mix-blend-mode:overlay">
<path d="M80.9602 142.677L83.8379 153.417L88.9858 152.037L86.1081 141.297L80.9602 142.677Z" fill="#00D5FF" fill-opacity="0.6"/>
</g>
<g style="mix-blend-mode:overlay">
<path d="M86.2555 162.437L91.5889 182.342L93.4955 181.831L88.1621 161.926L86.2555 162.437Z" fill="#00D5FF" fill-opacity="0.6"/>
</g>
<g style="mix-blend-mode:overlay">
<path d="M35.8273 65.7509L38.4365 75.4885L44.5378 73.8537L41.9286 64.1161L35.8273 65.7509Z" fill="#00D5FF" fill-opacity="0.6"/>
</g>
<g style="mix-blend-mode:overlay">
<path d="M55.5389 34.0712L73.1123 99.656L75.2096 99.094L57.6362 33.5092L55.5389 34.0712Z" fill="#00D5FF" fill-opacity="0.6"/>
</g>
<g style="mix-blend-mode:overlay">
<path d="M39.2404 28.1557L48.0654 61.0913L49.5907 60.6826L40.7657 27.747L39.2404 28.1557Z" fill="#00D5FF" fill-opacity="0.6"/>
</g>
<g style="mix-blend-mode:overlay">
<path d="M53.9272 53.2273L69.0449 109.647L69.6169 109.494L54.4992 53.0741L53.9272 53.2273Z" fill="#00D5FF" fill-opacity="0.6"/>
</g>
<g style="mix-blend-mode:overlay">
<path d="M66.9171 39.9248L67.5693 42.3591L69.476 41.8482L68.8237 39.4139L66.9171 39.9248Z" fill="#00D5FF" fill-opacity="0.6"/>
</g>
<g style="mix-blend-mode:overlay">
<path d="M74.9449 75.2226L76.71 81.8098L81.2859 80.5837L79.5209 73.9965L74.9449 75.2226Z" fill="#00D5FF" fill-opacity="0.6"/>
</g>
<g style="mix-blend-mode:overlay">
<path d="M44.7393 56.303L47.502 66.6133L52.4592 65.285L49.6966 54.9747L44.7393 56.303Z" fill="#00D5FF" fill-opacity="0.6"/>
</g>
<g style="mix-blend-mode:overlay">
<path d="M49.805 75.2056L54.9082 94.251L56.8149 93.7401L51.7117 74.6947L49.805 75.2056Z" fill="#00D5FF" fill-opacity="0.6"/>
</g>
<g style="mix-blend-mode:overlay">
<path d="M109.244 200.941L105.483 186.907L96.5222 189.309L100.282 203.342L109.244 200.941Z" fill="#00D5FF" fill-opacity="0.6"/>
</g>
<g style="mix-blend-mode:overlay">
<path d="M83.4444 219.057L61.6504 137.72L60.8878 137.925L82.6818 219.261L83.4444 219.057Z" fill="#00D5FF" fill-opacity="0.6"/>
</g>
<g style="mix-blend-mode:overlay">
<path d="M52.9162 187.486L50.3838 178.035L43.7105 179.823L46.2429 189.274L52.9162 187.486Z" fill="#00D5FF" fill-opacity="0.6"/>
</g>
<g style="mix-blend-mode:overlay">
<path d="M96.5598 214.622L92.5693 199.729L85.5147 201.62L89.5052 216.512L96.5598 214.622Z" fill="#00D5FF" fill-opacity="0.6"/>
</g>
<g style="mix-blend-mode:overlay">
<path d="M89.2703 187.415L81.9033 159.921L79.234 160.636L86.601 188.13L89.2703 187.415Z" fill="#00D5FF" fill-opacity="0.6"/>
</g>
<g style="mix-blend-mode:overlay">
<path d="M95.6451 115.874L92 102.27L83.4201 104.569L87.0652 118.173L95.6451 115.874Z" fill="#00D5FF" fill-opacity="0.6"/>
</g>
<g style="mix-blend-mode:overlay">
<path d="M68.0557 160.101L43.499 68.4539L40.4484 69.2713L65.0051 160.918L68.0557 160.101Z" fill="#00D5FF" fill-opacity="0.6"/>
</g>
<g style="mix-blend-mode:overlay">
<path d="M90.9202 168.401L78.6035 122.435L76.5062 122.997L88.8229 168.963L90.9202 168.401Z" fill="#00D5FF" fill-opacity="0.6"/>
</g>
<g style="mix-blend-mode:overlay">
<path d="M70.495 133.356L49.3916 54.5967L48.629 54.801L69.7324 133.56L70.495 133.356Z" fill="#00D5FF" fill-opacity="0.6"/>
</g>
<g style="mix-blend-mode:overlay">
<path d="M52.4033 152.017L51.4824 148.58L48.8131 149.296L49.734 152.732L52.4033 152.017Z" fill="#00D5FF" fill-opacity="0.6"/>
</g>
<g style="mix-blend-mode:overlay">
<path d="M40.9957 102.583L38.54 93.418L32.0574 95.155L34.5131 104.32L40.9957 102.583Z" fill="#00D5FF" fill-opacity="0.6"/>
</g>
<g style="mix-blend-mode:overlay">
<path d="M83.1915 128.879L79.3545 114.559L72.4906 116.398L76.3275 130.718L83.1915 128.879Z" fill="#00D5FF" fill-opacity="0.6"/>
</g>
<g style="mix-blend-mode:overlay">
<path d="M76.3604 102.623L69.2236 75.9883L66.5543 76.7035L73.6911 103.338L76.3604 102.623Z" fill="#00D5FF" fill-opacity="0.6"/>
</g>
<path d="M37.7643 20.3729L58.9945 99.6051L76.5483 165.117L70.1443 176.188L71.1738 180.03L83.7166 176.669L81.0471 166.706L83.7166 176.669L100.235 172.243L97.9165 163.592L81.4054 168.016L73.7726 139.53L73.9215 139.272L73.2414 136.734L73.1817 136.848L62.9207 98.553L42.1245 20.9404L47.8747 10.991L47.9519 10.9703L44.6218 8.5262L44.6148 8.52807L37.7643 20.3729Z" fill="#FF0080" fill-opacity="0.3"/>
</svg>
