<svg width="320" height="41" viewBox="0 0 320 41" fill="none" xmlns="http://www.w3.org/2000/svg">
<g style="mix-blend-mode:overlay">
<path d="M63.3147 38.7593H-24.3633V39.418H63.3147V38.7593Z" fill="#00D5FF"/>
</g>
<g style="mix-blend-mode:overlay">
<path d="M62.3275 27.8901H46.3711V33.6542H62.3275V27.8901Z" fill="#00D5FF"/>
</g>
<g style="mix-blend-mode:overlay">
<path d="M33.0474 27.8901H3.4375V30.0311H33.0474V27.8901Z" fill="#00D5FF"/>
</g>
<g style="mix-blend-mode:overlay">
<path d="M288.843 1.0459H275.848V7.30407H288.843V1.0459Z" fill="#00D5FF"/>
</g>
<g style="mix-blend-mode:overlay">
<path d="M321.907 27.3955H234.064V29.5365H321.907V27.3955Z" fill="#00D5FF"/>
</g>
<g style="mix-blend-mode:overlay">
<path d="M264.004 35.3008H255.285V39.9121H264.004V35.3008Z" fill="#00D5FF"/>
</g>
<g style="mix-blend-mode:overlay">
<path d="M297.726 11.7507H283.908V16.6914H297.726V11.7507Z" fill="#00D5FF"/>
</g>
<g style="mix-blend-mode:overlay">
<path d="M272.393 11.7505H246.896V13.7268H272.393V11.7505Z" fill="#00D5FF"/>
</g>
<g style="mix-blend-mode:overlay">
<path d="M160.863 3.84521H147.867V9.93869H160.863V3.84521Z" fill="#00D5FF"/>
</g>
<g style="mix-blend-mode:overlay">
<path d="M193.434 30.0305H106.578V32.1715H193.434V30.0305Z" fill="#00D5FF"/>
</g>
<g style="mix-blend-mode:overlay">
<path d="M169.417 14.3857H155.764V19.3264H169.417V14.3857Z" fill="#00D5FF"/>
</g>
<g style="mix-blend-mode:overlay">
<path d="M144.412 14.3857H119.244V16.1973H144.412V14.3857Z" fill="#00D5FF"/>
</g>
<g style="mix-blend-mode:overlay">
<path d="M207.252 40.0762H222.715V32.8299H207.252V40.0762Z" fill="#00D5FF"/>
</g>
<g style="mix-blend-mode:overlay">
<path d="M168.43 8.95044L271.899 8.95044V6.31542L168.43 6.31542V8.95044Z" fill="#00D5FF"/>
</g>
<g style="mix-blend-mode:overlay">
<path d="M196.888 27.5605L213.173 27.5605V21.7964H196.888V27.5605Z" fill="#00D5FF"/>
</g>
<path d="M250.459 12.9206L250.459 0.580566L226.969 0.580565L226.969 12.9206L250.459 12.9206Z" fill="#5A1E7D"/>
<g style="mix-blend-mode:overlay">
<path d="M226.827 27.3955L256.766 27.3955V25.0899L226.827 25.0899V27.3955Z" fill="#00D5FF"/>
</g>
</svg>
